<?xml version="1.0" encoding="utf-8"?>
<!-- Generator: Adobe Illustrator 23.0.1, SVG Export Plug-In . SVG Version: 6.00 Build 0)  -->
<svg version="1.1" id="Layer_1" xmlns="http://www.w3.org/2000/svg" xmlns:xlink="http://www.w3.org/1999/xlink" x="0px" y="0px"
	 viewBox="280.2 154.5 439.5 718.5" style="enable-background:new 0 0 1000 1000;" xml:space="preserve">
<style type="text/css">
	.st0{fill:url(#SVGID_1_);}
	.st1{fill:#FFCD00;}
	.st2{fill:#FED33E;}
</style>
<g>
	<linearGradient id="SVGID_1_" gradientUnits="userSpaceOnUse" x1="411.2506" y1="175.0762" x2="448.8996" y2="252.6462">
		<stop  offset="0" style="stop-color:#D7D8D9"/>
		<stop  offset="1" style="stop-color:#9EA0A3"/>
	</linearGradient>
	<path class="st0" d="M391.4,154.6c0,0.2,0,0.4,0,0.6l-66.1,265l-15.1,60.6c0,0,0,0,0,0l-6.1,24.3c2.5-0.4,5.1-0.3,6.7,0.2
		c3.3,1,6.1-0.3,9.3-1.8c3.3-1.5,17.2-23.8,24-40.4c6.8-16.7,35.3-26.5,41.1-25.3c5.8,1.3,17.2-2.5,18.2-5.3c1-2.8,4.5-9.1,7.8-13.4
		c3.3-4.3,4.8-19,10.3-32.4c5.5-13.4,18.9-22.9,18.9-22.9s-6.1-15.7,1.4-30.7c3.1-6.3,19.8-14.9,19.8-14.9c4.8-3.2,9.4-8.7,11.9-11
		c2.5-2.3,6.2-9,6.2-12s0.6-10.1,0.3-15.4c-0.3-5.3,3.3-16.9,3.3-16.9c-16.7,7.1-23.2-2.3-23.2-2.3c-0.3,2.5-3.5,5.8-3.5,5.8
		c2.3,0.5,3.3,1.3,5.3,4.8c2,3.5,6.1,9.4,9.1,11.4c3,2,2,8.3-0.2,9.9c-2.3,1.5-7.1,4-9.3,4.8c-2.3,0.7-2.8-3.8-2.8-3.8
		c-2,1.8-5.3,0-5.3,0c-1.3,2.8-4.3,4-6.8,4.3c-2.5,0.2-3.8,0-3.8,0h-2.5c-2.5,0-8.1-7.3-9.6-10.4c-1.5-3-1.5-5.8-1-7.3
		c0.5-1.5,3-4.8,3-4.8c-12.1-7.8-13.1-13.4-15.1-21.7c-2-8.3,5.3-11.9,5.3-11.9c-0.5-1.8,0.5-5.6,9.3-9.3c8.8-3.8,22.5-0.5,28-0.3
		c5.5,0.3,8.3-5.3,14.9-6.3c6.6-1,15.9,1.5,15.9,1.5c1.5-1.5,8.1-5.6,18.4-5.3c10.3,0.3,14.4,5.3,16.1,7.6c1.8,2.3,2.8,1.8,2.8,1.8
		c9.6-1.8,16.9,2.5,21.2,4.3c4.3,1.8,7.3,2.3,10.8,1.5c3.5-0.8,5.7-6.5,5.7-6.5c-1-4.7,0.4-9,2.4-13.4c2.4-5.2,7.9-9.5,13.4-10.6
		c5.4-1.1,11.6,0,14.6,0.9c3,0.9,7.3,4,10,5.8c3.2,2.1,6,6.4,6.1,7.4c0.1,1-1,2-1,2l0.8,2c0.8,2,1.4,9.5,1.1,10
		c-0.3,0.5-2,1.8-2.8,3.2c-0.8,1.4,1.5,5.6,2.6,8.8c0.7,1.8-0.7,2.8-1.7,2.9c-0.8,0.1-3.6-0.3-3.6-0.3c-0.9,1.4,0.6,3.7,0.4,4.4
		c-0.1,0.8-2.7,1.7-2.7,1.7s1.3,1.1,0.8,2.4c-0.5,1.3-2.4,1.3-3.4,2.8c-0.5,0.8,0.8,1.8-0.2,3.9c-0.7,1.5-2.1,1.9-4.8,1.5
		c-2.5-0.4-9.7-4.2-9.7-4.2s-3.2,4.4-2.9,7.5c1.5,0.8,7.5,1.8,11.1,8.4c4.7,1.8,10.9,4.4,13.5,11.7c2.2,6.2,0.7,15.4,0.7,15.4
		c11.6,5.1,8.6,22.7,8.6,22.7c1.7-1.2,10-3.4,15.1-0.9c5.1,2.5,14.1,0.7,16.5-0.2c2.4-0.9,9.1-4.2,9.5-4.8c0.4-0.6,0.6-5.2,0.3-8
		c-0.3-2.8,0.9-5.8,2.6-7.5c1.7-1.7,5-3.3,7-2.6c2,0.7,2.4,3.9,3.8,1.7c0.9-1.4,2-2.2,3.7-1.9c4.9-10.1,8.8-20.7,11.8-31.8
		c0.7-2.5,1.3-4.9,1.7-6.9c2.8-11.6,4.3-22.7,4.4-33.1v-1.2c-0.1-18.5-4.9-34.6-15.1-47.2c-16.6-20.2-45.1-28.6-80.8-28.6H496l0-0.1
		H391.6l0,0.1H391.4z"/>
	<g>
		<g>
			<path class="st1" d="M496.7,405c-8.1-1.9-18.5-11.2-18.5-11.2c-0.2,4.1-1.7,9.3-9.2,17.8c-7.5,8.6-12.5,12.7-12.5,12.7
				c10.4,0.2,18.8-8.2,23.1-11.7C483.8,409.3,496.7,405,496.7,405"/>
			<path class="st1" d="M652.8,347.5c-4.9,2.2-9.6,4.9-12,6.5c-4.1,2.8-13.6,6.2-16.4,6.3c-2.8,0.1-8.1,0.4-10.9,0.1
				c-3.2-0.3-6,0-7-0.2c-1-0.2-3.6-0.7-3.8-2.7c-0.2-2-1.6-7.2-7.4-13.5c-7.5-8.3-7.9-9.3-11-15.3c-3.1-6-1.4-13.3-0.9-15
				c-0.2,0.5-0.8,1.3-2.5,2.4c-2.7,1.8-7,3.4-7,3.4s-0.6,0.1-3.8,1.3c-2.9,1-8.7,0.4-9.8,0.3c-0.1,0.2-0.2,0.4-0.3,0.6
				c-1.3,2.4-9.8,5.9-17.4,8.2c-7.6,2.3-12.6,1.4-18.9,4.8c-6.3,3.4-7.1,5.4-8.8,7.3c-1.8,1.9-5.3,6.1-5.7,7.8
				c-0.4,1.8,14.6,12.4,22.3,20.3c7.7,8,18.2,22.5,18.2,26.2c0,3.7,4.3,9.1,8.5,16.9c4.2,7.8-2.7,15-3,15.5
				c-0.4,0.5-12.1,9.9-12.6,10.7c-0.5,0.9-5.2,1.3-12.7,1.1c-7.6-0.1-17.9,0.8-28.9,0.1c-11-0.6-18.7,2.3-33.6,3.2
				c-14.9,0.9-22.6,6.1-22.6,6.1s-3.6,3.3-6.9,7.5c-3.3,4.2-17.7,18.1-19.2,20.2c-1.5,2.1-2.5,8.3-2.4,11.1c0.1,2.8,1.8,7-2.4,6.4
				c-1.6-0.2-2.1-1.9-2.1-1.9l-2.3-0.2c-2.3-0.3-2.1-2.3-2.1-2.3s-1.1,0.4-2.5-0.3c-1.4-0.6-1.5-3.4-1.5-3.4s-1.5,0.1-2.4-1.5
				c-0.9-1.7-0.6-12.4-0.6-12.4c-17,7.2-36.7,20.9-42.9,25.5c-6.2,4.7-27,20.2-28.9,23.3c-1.9,3-3,5.9-5,11c-2,5.1-5,10.2-6.6,14
				c-1.5,3.8-1.1,13-1.3,17.3c0,0.6,0,1.2,0,1.7l50-0.1h102.9c48.6-0.1,90.6-9.6,125.2-32.8c34.8-23.2,57.6-59.2,67.7-100.6
				c4-15.6,5.9-30.5,5.3-44C665.9,372.8,661.6,358.8,652.8,347.5"/>
		</g>
	</g>
</g>
<g>
	<path class="st2" d="M288.4,821.3c-5.2-5.1-8.3-12.2-8.2-20.2c0-2.4,0.3-4.9,0.8-7.5l35.1-156.2c2.2-9.6,8-18.1,15.7-24.3
		c7.7-6.2,17.3-10,27.1-10h331.3c8.5,0,15.9,3,21.2,8.1c5.3,5.1,8.3,12.2,8.3,20.2c0,2.4-0.3,4.9-0.9,7.5l-35.1,156.2
		c-2.2,9.6-8,18.1-15.7,24.3c-7.7,6.2-17.3,10-27.1,10.1H309.6h0C301.1,829.4,293.7,826.4,288.4,821.3 M335.9,618.2
		c-6.7,5.4-11.8,12.8-13.5,20.7l-35.1,156.2c-0.5,2.1-0.7,4.1-0.7,6.1c0,6.4,2.4,11.8,6.3,15.6c4,3.9,9.7,6.3,16.8,6.3h331.3
		c8.1,0,16.4-3.3,23.2-8.7c6.7-5.4,11.7-12.8,13.5-20.7l3.1,0.7l-3.1-0.7l35.1-156.2c0.4-2.1,0.7-4.1,0.7-6.1
		c0-6.4-2.3-11.7-6.3-15.6c-4-3.9-9.7-6.3-16.8-6.3H359h0C350.9,609.5,342.6,612.8,335.9,618.2"/>
	<path d="M426.6,689.9c0.9-3.6,2-6.9,3.2-10.1c0.7-1.9,1.5-3.7,2.4-5.4c2.6-5.3,5.8-9.9,9.6-13.8c0.7-0.7,1.5-1.5,2.3-2.2
		c8.5-7.4,19.3-11,31.2-11h3.5c0.1,0,0.3,0,0.4,0c11.8,0,20.7,3.1,25.7,9.8c0.5,0.7,0.9,1.4,1.4,2.1c3.7,6.6,3.9,15.7,1.1,26.6
		c-3,12.1-8,22-15.2,29.3c-0.7,0.8-1.5,1.5-2.3,2.2c-8.5,7.5-19.3,11-31.2,11h-3.5h-0.4c-11.8-0.1-20.7-3.1-25.7-9.9
		c-0.5-0.7-0.9-1.4-1.3-2.1C424,709.8,423.8,700.7,426.6,689.9 M447.6,708.9c2.8,2.1,7.3,3.1,13.5,3.3c6-0.3,10.8-1.5,14.7-3.9
		c6.1-3.8,10.1-10.8,13.4-22.3c2.1-9.8,1.4-15.7-3-19c-2.9-2.1-7.3-3.1-13.5-3.3c-6,0.3-10.8,1.5-14.8,3.9
		c-6.1,3.8-10.1,10.8-13.4,22.3C442.5,699.7,443.1,705.6,447.6,708.9 M500.9,728.5l20.4-81.1h33.7c12,0,21,3.1,26,9.9
		c5,6.8,5.6,16.6,2.5,28.7c-3.4,13.3-9,24-17.5,31.5c-8.4,7.5-19.2,11-31.2,11h-0.2H500.9z M523,712.2h13.7
		c15.9-0.6,23.4-7,28.9-26.3c3.4-16.2-0.6-21.7-16.7-22.3h-13.7L523,712.2z M594.7,728.5h18l7.2-28.5l44.1-52.6h-21l-27,33.3
		l-10-33.3h-20.3l16.1,52.6L594.7,728.5z M438.3,751.6l-5.8,23.4l-0.3,1.3l-2,8.1h-10.3l0.2-0.7l1.3-5l1.2-4.8l0.2-0.9l1.9-7.7
		l0.2-1h-22.4l-0.2,1l-1.9,7.7l-0.2,0.9l-1.1,4.8l-1.2,5l-0.2,0.7h-10.3l2-8.1l0.8-3.3l5.3-21.4l1.7-6.5c1-2.4,2.8-4.7,4.9-6.3
		c3.2-2.4,7.1-3.4,11.3-3.4h14.9c4.3,0,7.7,1,9.7,3.4c1.4,1.6,2,3.9,1.8,6.3L438.3,751.6z M426.1,743.9h-12.6
		c-6.6,0-7.5,5.6-7.5,5.6l-1.3,5.2h22.4l1.5-5.9C429.9,743.8,426.1,743.9,426.1,743.9 M588.6,762.9l7.2,21.9H585l-6.6-20.2h-0.2h-8
		l-5,20.2h-10.8l12.3-49.3v-0.1h0v0h10.8v0h12.5c4.3,0,7.7,1,9.7,3.4c2,2.4,2.3,6,1.2,10.1c-1.2,4.8-3.9,9.1-8,11.8
		C591.6,761.7,590.1,762.3,588.6,762.9 M590.1,749.7c0.5-3.5,0.5-4.3-2.6-4.7H575l-2.5,10.1h8.1
		C587.2,754.7,588.7,754.1,590.1,749.7 M532.9,764.5h22l2.5-9.9h-22l2.4-9.5h23l2.5-9.9h-34L517,784.5h34.4l2.5-9.9h-23.5
		L532.9,764.5z M611,738.9c-4.3,2.6-7.2,6.9-8.4,11.7c-1.1,4.2-0.8,7.8,1.2,10.3c2.1,2.5,5.6,3.5,10,3.5h9.5
		c3.2,0.4,3.2,1.2,2.7,4.8c-1.4,4.5-3,5.1-9.8,5.5h-20.2l3,9.8h14.8c5.8,0,10.9-1.1,15-3.9c4.2-2.8,6.9-7.1,8.1-12.1
		c1.1-4.2,0.8-7.8-1.2-10.3c-2-2.5-5.5-3.5-9.9-3.5h-9.6c-3.3-0.4-3.2-1-2.7-4.6c1.1-3.8,2.9-4.8,10.5-5.1c4.8,0,8,0,12.2,0h3.6
		l3.8-9.8h-17.2C620.4,735.2,615.3,736.3,611,738.9 M385,735.3L362.7,768l-6.2-32.7H345l-12.4,49.2h10.3l6.5-25.7l5,25.7h7.9
		l17.7-25.6l-6.4,25.6h10.3l12.4-49.2H385z M526.2,735.3h-45.9v0h-14c-6.1,0-11.3,1.1-15.5,3.7c-4.3,2.6-7.2,6.8-8.3,11.7
		c-1.1,4.2-0.8,7.8,1.2,10.3c2,2.5,5.5,3.5,10,3.5h9.5c3.2,0.4,3.2,1.2,2.7,4.8c-1.4,4.5-3,5.1-9.8,5.5h-20.6l-2.1,9.7h20.3
		c5.8,0,10.9-1.1,15-3.9c4.1-2.8,6.9-7.1,8.1-12c1.1-4.2,0.8-7.8-1.2-10.3c-2-2.5-5.5-3.5-9.9-3.5H456c-3.3-0.4-3.2-1-2.7-4.6
		c1.1-3.8,2.8-4.7,10.4-5c4.8,0,8.5,0,12.8,0h19.7l-9.3,39.3h10.9l9.9-39.3h16.1L526.2,735.3z"/>
	<path d="M388.2,697.1c-1.6-0.4-3.7-2.2-3.7-2.2c0,0.8-0.4,1.8-1.8,3.6c-1.5,1.7-2.5,2.5-2.5,2.5c2.1,0,3.8-1.6,4.6-2.3
		C385.6,698,388.2,697.1,388.2,697.1 M424.8,653c-3.3-4-9-5.7-16.1-5.7H388v0h-20.8v0h0v0.1L354,700.2l-3,12l-1.2,4.9
		c0.5-0.1,1-0.1,1.3,0c0.6,0.2,1.2-0.1,1.8-0.4c0.7-0.3,3.4-4.7,4.8-8c1.3-3.3,7-5.3,8.2-5c1.2,0.3,3.4-0.5,3.6-1.1
		c0.2-0.5,0.9-1.8,1.5-2.7c0.7-0.8,1-3.8,2.1-6.4c1.1-2.7,3.8-4.6,3.8-4.6s-1.2-3.1,0.3-6.1c0.6-1.3,3.9-3,3.9-3
		c0.9-0.6,1.9-1.7,2.4-2.2c0.5-0.4,1.3-1.8,1.3-2.4c0-0.6,0.1-2,0-3.1c0-1.1,0.7-3.4,0.7-3.4c-3.3,1.4-4.6-0.5-4.6-0.5
		c-0.1,0.5-0.7,1.2-0.7,1.2c0.5,0.1,0.6,0.3,1.1,1c0.4,0.7,1.2,1.9,1.8,2.3c0.6,0.4,0.4,1.7,0,2c-0.5,0.3-1.4,0.8-1.9,0.9
		c-0.5,0.2-0.5-0.7-0.5-0.7c-0.4,0.4-1.1,0-1.1,0c-0.3,0.5-0.8,0.8-1.4,0.8c-0.5,0.1-0.8,0-0.8,0h-0.5c-0.5,0-1.6-1.4-1.9-2.1
		c-0.3-0.6-0.3-1.2-0.2-1.5c0.1-0.3,0.6-1,0.6-1c-2.4-1.6-2.6-2.7-3-4.3c-0.4-1.6,1-2.4,1-2.4c-0.1-0.4,0.1-1.1,1.9-1.9
		c1.8-0.8,4.5-0.1,5.6-0.1c1.1,0.1,1.6-1.1,2.9-1.3c1.3-0.2,3.2,0.3,3.2,0.3c0.3-0.3,1.6-1.1,3.6-1c2.1,0,2.9,1,3.2,1.5
		c0.4,0.4,0.5,0.4,0.5,0.4c1.9-0.4,3.4,0.5,4.2,0.8c0.9,0.4,1.4,0.4,2.2,0.3c0.7-0.1,1.1-1.3,1.1-1.3c-0.2-0.9,0.1-1.8,0.5-2.7
		c0.5-1,1.6-1.9,2.7-2.1c1.1-0.2,2.3,0,2.9,0.2c0.6,0.2,1.5,0.8,2,1.1c0.6,0.4,1.2,1.3,1.2,1.5c0,0.2-0.2,0.4-0.2,0.4l0.2,0.4
		c0.1,0.4,0.3,1.9,0.2,2c0,0.1-0.4,0.4-0.6,0.6c-0.2,0.3,0.3,1.1,0.5,1.8c0.1,0.3-0.1,0.6-0.4,0.6c-0.1,0-0.7-0.1-0.7-0.1
		c-0.2,0.3,0.1,0.7,0.1,0.9c0,0.2-0.5,0.4-0.5,0.4s0.2,0.2,0.1,0.5c-0.1,0.3-0.5,0.3-0.7,0.5c-0.1,0.2,0.2,0.4,0,0.8
		c-0.1,0.3-0.4,0.4-0.9,0.3c-0.5-0.1-1.9-0.8-1.9-0.8s-0.6,0.9-0.6,1.5c0.3,0.1,1.5,0.4,2.2,1.7c0.9,0.4,2.2,0.9,2.7,2.3
		c0.4,1.2,0.1,3.1,0.1,3.1c2.3,1,1.7,4.5,1.7,4.5c0.3-0.2,2-0.7,3-0.2c1,0.5,2.8,0.1,3.3,0c0.5-0.2,1.8-0.8,1.9-1
		c0.1-0.1,0.1-1,0.1-1.6c-0.1-0.5,0.2-1.1,0.5-1.5c0.3-0.3,1-0.7,1.4-0.5c0.4,0.1,0.5,0.8,0.7,0.3c0.2-0.3,0.4-0.4,0.8-0.4
		c0.9-2,1.7-4.1,2.3-6.3c0.1-0.5,0.2-1,0.3-1.4C428.5,662.7,428.1,656.9,424.8,653 M419.3,685.7c-1,0.5-1.9,1-2.4,1.3
		c-0.8,0.6-2.7,1.2-3.3,1.3c-0.6,0-1.6,0.1-2.2,0c-0.6-0.1-1.2,0-1.4,0c-0.2,0-0.7-0.1-0.8-0.5c0-0.4-0.3-1.4-1.5-2.7
		c-1.5-1.6-1.6-1.8-2.2-3c-0.6-1.2-0.3-2.7-0.2-3c0,0.1-0.1,0.3-0.5,0.5c-0.5,0.3-1.4,0.7-1.4,0.7s-0.1,0-0.7,0.3
		c-0.6,0.2-1.7,0.1-2,0.1c0,0,0,0.1,0,0.1c-0.3,0.5-2,1.2-3.5,1.6c-1.5,0.5-2.5,0.3-3.8,1c-1.2,0.7-1.4,1.1-1.7,1.5
		c-0.4,0.4-1.1,1.2-1.2,1.6c-0.1,0.3,2.9,2.5,4.5,4c1.5,1.6,3.6,4.5,3.6,5.2c0,0.7,0.8,1.8,1.7,3.4c0.8,1.6-0.5,3-0.6,3.1
		c-0.1,0.1-2.4,2-2.5,2.1c-0.1,0.2-1,0.3-2.5,0.2c-1.5,0-3.6,0.2-5.7,0c-2.2-0.1-3.7,0.5-6.7,0.6c-2.9,0.2-4.5,1.2-4.5,1.2
		s-0.7,0.7-1.4,1.5c-0.6,0.8-3.5,3.6-3.8,4c-0.3,0.4-0.5,1.7-0.5,2.2c0,0.6,0.4,1.4-0.5,1.3c-0.3,0-0.4-0.4-0.4-0.4l-0.4,0
		c-0.4-0.1-0.4-0.5-0.4-0.5s-0.2,0.1-0.5-0.1c-0.3-0.1-0.3-0.7-0.3-0.7s-0.3,0-0.5-0.3c-0.2-0.3-0.1-2.5-0.1-2.5
		c-3.4,1.4-7.3,4.1-8.6,5.1c-1.2,0.9-5.4,4-5.7,4.6c-0.4,0.6-0.6,1.2-1,2.2c-0.4,1-1,2-1.3,2.8c-0.3,0.8-0.2,2.6-0.3,3.5
		c0,0.1,0,0.2,0,0.3l9.9,0h20.5c9.7,0,18.1-1.9,25-6.5c6.9-4.6,11.5-11.8,13.5-20c0.8-3.1,1.2-6,1.1-8.7
		C421.9,690.7,421,687.9,419.3,685.7"/>
	<path d="M386.9,873c-0.6,0-1.2,0-1.8-0.1l0.8-3.1c0.5,0.1,1,0.1,1.5,0.1c1.6,0,2.9-0.4,3.7-1.2c0.9-0.8,1.4-2.2,1.7-3.9l2.3-16.1
		h3.1l-2.2,15.9c-0.2,1.3-0.5,2.4-0.8,3.4c-0.4,1-0.9,1.9-1.6,2.7c-0.7,0.8-1.6,1.3-2.6,1.8C389.7,872.8,388.4,873,386.9,873
		 M396.9,845.8c-0.6,0-1-0.2-1.3-0.6c-0.3-0.4-0.5-0.9-0.4-1.5c0.1-0.5,0.3-1,0.7-1.4c0.4-0.4,0.9-0.6,1.5-0.6c0.6,0,1,0.2,1.3,0.6
		c0.3,0.4,0.4,0.9,0.3,1.4c-0.1,0.6-0.3,1.1-0.7,1.5C398,845.6,397.5,845.8,396.9,845.8"/>
	<path d="M407.4,864.5c-0.2,1.2-0.4,2.4-0.8,3.4c-0.4,1-0.9,1.9-1.6,2.7c-0.7,0.8-1.6,1.3-2.6,1.8c-1.1,0.4-2.4,0.6-3.9,0.6
		c-0.6,0-1.2,0-1.8-0.1l0.8-3.1c0.5,0.1,1,0.1,1.5,0.1c1.6,0,2.8-0.4,3.7-1.3c0.8-0.8,1.4-2.2,1.6-3.9l2.3-16.1h3.1l-1.8,13h4.6
		l-0.4,2.7h-4.6L407.4,864.5z"/>
	<path d="M411.8,861.7h4.9l1.8-13h3.1l-1.8,13h3.9l-0.4,2.7h-11.9L411.8,861.7z M418,845.7c-0.6,0-1.1-0.2-1.4-0.6
		c-0.3-0.4-0.5-0.9-0.4-1.5c0.1-0.6,0.4-1.1,0.8-1.5c0.5-0.4,1-0.6,1.6-0.6c0.6,0,1,0.2,1.4,0.6c0.3,0.4,0.5,0.9,0.4,1.5
		c-0.1,0.6-0.3,1.1-0.8,1.5C419.1,845.5,418.6,845.7,418,845.7 M423.2,845.8c-0.6,0-1.1-0.2-1.4-0.6c-0.3-0.4-0.5-1-0.4-1.5
		c0.1-0.6,0.4-1.1,0.8-1.5c0.5-0.4,1-0.6,1.6-0.6c0.6,0,1.1,0.2,1.4,0.6c0.3,0.4,0.4,0.9,0.4,1.5c-0.1,0.6-0.4,1.1-0.8,1.5
		C424.3,845.5,423.8,845.8,423.2,845.8"/>
	<path d="M433.2,864.7c-0.9,0-1.8-0.3-2.5-0.8c-0.7-0.5-1.2-1.3-1.5-2.3c-0.7,1-1.4,1.7-2.4,2.1c-0.9,0.4-1.8,0.6-2.6,0.6h-1.6
		l0.4-2.7h1.2c1.2,0,2.3-0.5,3.1-1.4c0.9-0.9,1.4-2.2,1.7-4l1.1-7.7h3.1l-1.3,9c-0.2,1.6-0.1,2.7,0.4,3.3c0.5,0.7,1.2,1,2.1,1
		c1.1,0,2-0.5,2.8-1.5c0.7-1,1.2-2.6,1.5-5l1-6.8h3.1l-1.4,10.4c-0.1,0.8,0.1,1.5,0.6,2c0.5,0.5,1.1,0.7,2,0.7h3.2l0.8-6.1
		c0.2-1.6,0.4-3.1,0.4-4.5c0.1-1.3,0.1-2.6,0.1-3.7l3.2-0.6c0,1.1,0,2.3-0.1,3.7c-0.1,1.4-0.2,2.9-0.5,4.4l-1.3,9.4h-6.5
		c-1.3,0-2.3-0.2-3-0.7c-0.7-0.5-1.1-1.1-1.4-2.1c-0.6,1-1.3,1.7-2.2,2.3C435.8,864.5,434.6,864.7,433.2,864.7"/>
	<path d="M459.4,861.7h3.9l-0.4,2.7h-7l3.2-22.7c-0.4-0.1-0.8-0.1-1.4-0.2c-0.5,0-1.1-0.1-1.5-0.1l0.3-1.8c0.9-0.1,1.9-0.2,3-0.2
		c1.1-0.1,2.2-0.1,3.2,0L459.4,861.7z"/>
	<path d="M462.6,861.7h1.1c0.4,0,0.9-0.1,1.3-0.2c0.4-0.1,0.9-0.4,1.2-0.7c0.4-0.4,0.7-0.8,1-1.5c0.3-0.6,0.5-1.4,0.6-2.3
		c0.2-1.5,0.6-2.8,1.1-3.9c0.5-1.1,1.2-2,2-2.8c0.8-0.7,1.7-1.3,2.7-1.6c1-0.4,2.1-0.6,3.3-0.6c1,0,1.9,0.1,2.7,0.5
		c0.8,0.3,1.4,0.8,1.9,1.4c0.5,0.6,0.8,1.5,1,2.5c0.1,1,0.1,2.3,0,3.7l-1.2,8.2h-6.2c-2,0-3.4-0.3-4.4-0.9c-1-0.6-1.7-1.4-2.1-2.3
		c-0.4,1-1.1,1.7-2,2.3c-0.9,0.6-2,0.9-3.5,0.9h-0.6L462.6,861.7z M478.4,861.7l0.8-6.1c0.1-0.7,0.1-1.3,0-1.9
		c-0.1-0.6-0.3-1.1-0.5-1.6c-0.3-0.4-0.6-0.8-1.1-1.1c-0.5-0.2-1-0.4-1.6-0.4c-0.8,0-1.4,0.1-1.9,0.4c-0.6,0.3-1,0.7-1.4,1.1
		c-0.4,0.5-0.7,1.1-1,1.7c-0.2,0.6-0.4,1.3-0.5,2.1c-0.3,2,0,3.4,0.7,4.3c0.8,0.9,2.1,1.4,3.9,1.4H478.4z"/>
	<path d="M499.1,863.7c-1.6-0.5-2.8-1.2-3.7-2.1c-0.9-0.9-1.5-2-1.8-3.2c-0.3-1.3-0.3-2.7-0.1-4.2c0.1-0.7,0.3-1.6,0.6-2.5
		c0.3-0.9,0.5-1.7,0.8-2.5l3.4-0.7c-0.4,0.9-0.7,1.7-1,2.5c-0.2,0.8-0.4,1.7-0.5,2.7c-0.2,1.2-0.2,2.2,0,3.2
		c0.1,0.9,0.6,1.8,1.2,2.5c0.6,0.7,1.6,1.3,2.9,1.7c1.3,0.4,3,0.6,5,0.6h4.3l1.8-12.9c1-0.2,1.9-0.4,2.8-0.5
		c0.9-0.1,1.8-0.2,2.6-0.2c1.4,0,2.5,0.2,3.4,0.5c0.9,0.3,1.5,0.8,2,1.5c0.5,0.7,0.8,1.5,0.9,2.5c0.1,1,0,2.1-0.2,3.4l-1.2,8.3h-3.1
		l1.2-8.3c0.3-1.9,0.1-3.3-0.5-4.2c-0.6-0.8-1.7-1.3-3.2-1.3c-0.3,0-0.6,0-1,0c-0.4,0-0.7,0.1-0.9,0.1l-1.9,13.6h-8
		C502.6,864.4,500.7,864.1,499.1,863.7 M502.3,871.5c-0.6,0-1-0.2-1.4-0.6c-0.3-0.4-0.4-0.9-0.4-1.5c0.1-0.6,0.3-1.1,0.8-1.5
		c0.5-0.4,1-0.6,1.6-0.6s1,0.2,1.4,0.6c0.3,0.4,0.4,0.9,0.4,1.5c-0.1,0.6-0.4,1.1-0.8,1.5C503.4,871.2,502.9,871.5,502.3,871.5
		 M507.6,871.5c-0.6,0-1.1-0.2-1.4-0.6c-0.4-0.4-0.5-0.9-0.4-1.5c0.1-0.6,0.3-1.1,0.8-1.5c0.5-0.4,1-0.6,1.6-0.6
		c0.6,0,1.1,0.2,1.4,0.6c0.3,0.4,0.4,0.9,0.3,1.5c-0.1,0.6-0.3,1.1-0.8,1.5C508.7,871.3,508.2,871.5,507.6,871.5"/>
	<path d="M525.9,861.7h10.9c0.4-3,0-5.4-1.2-7.2c-1.2-1.8-3.3-3.1-6.2-4l0.8-3.3c1.7,0.4,3.2,0.9,4.6,1.7c1.3,0.8,2.4,1.7,3.3,2.9
		c0.8,1.1,1.5,2.4,1.8,3.9c0.4,1.5,0.4,3.1,0.1,5l-0.5,3.7h-14L525.9,861.7z"/>
	<path d="M545.9,872.9c-0.7,0-1.4,0-2.2-0.1c-0.8,0-1.5-0.1-2-0.2l0.2-3.4c0.8,0.2,1.5,0.3,2.3,0.5c0.8,0.1,1.6,0.2,2.4,0.2
		c4.3,0,6.8-1.8,7.3-5.5h-2.8c-1.4,0-2.7-0.2-3.6-0.7c-1-0.4-1.7-1-2.2-1.8c-0.5-0.7-0.9-1.5-1-2.5c-0.2-0.9-0.2-1.9,0-2.8
		c0.2-1.2,0.5-2.2,1-3.3c0.5-1,1.2-1.9,2-2.7c0.8-0.8,1.8-1.4,2.9-1.9c1.1-0.5,2.3-0.7,3.6-0.7c1.1,0,2,0.1,2.8,0.1
		c0.8,0.1,1.7,0.2,2.6,0.4l-1.9,13h3.9l-0.4,2.7h-4c-0.2,1-0.5,2-1,3c-0.5,1-1.2,1.9-2,2.8c-0.9,0.8-2,1.5-3.3,2
		C549.3,872.7,547.7,872.9,545.9,872.9 M554.3,861.7l1.5-10.8c-0.2,0-0.4-0.1-0.6-0.1c-0.2,0-0.5-0.1-0.8-0.1c-0.3,0-0.5,0-0.7,0
		c-0.2,0-0.4,0-0.5,0c-0.5,0-1.1,0.1-1.7,0.3c-0.6,0.2-1.1,0.5-1.7,1c-0.5,0.4-1,1-1.4,1.7c-0.4,0.7-0.7,1.5-0.8,2.3
		c-0.3,1.9,0,3.3,0.7,4.3c0.7,1,1.9,1.4,3.6,1.4H554.3z"/>
	<path d="M560.6,861.7h4.9l1.8-13.1h3.1l-2.2,15.8h-8L560.6,861.7z M563.5,871.3c-0.6,0-1.1-0.2-1.4-0.6c-0.3-0.4-0.4-0.9-0.4-1.5
		c0.1-0.6,0.3-1,0.8-1.4c0.5-0.4,1-0.6,1.5-0.6c0.6,0,1,0.2,1.3,0.6c0.3,0.4,0.4,0.9,0.3,1.4c-0.1,0.6-0.3,1.1-0.7,1.5
		C564.6,871,564.1,871.3,563.5,871.3"/>
</g>
</svg>
