<?xml version="1.0" encoding="UTF-8"?>
<svg id="Layer_2" data-name="Layer 2" xmlns="http://www.w3.org/2000/svg" xmlns:xlink="http://www.w3.org/1999/xlink" viewBox="158 328.2 684 343.7">
  <defs>
    <style>
      .cls-1 {
        fill: url(#linear-gradient-12);
      }

      .cls-1, .cls-2, .cls-3, .cls-4, .cls-5, .cls-6, .cls-7, .cls-8, .cls-9, .cls-10, .cls-11, .cls-12 {
        stroke-width: 0px;
      }

      .cls-2 {
        fill: url(#linear-gradient);
      }

      .cls-3 {
        fill: url(#linear-gradient-6);
      }

      .cls-4 {
        fill: url(#linear-gradient-11);
      }

      .cls-5 {
        fill: url(#linear-gradient-5);
      }

      .cls-6 {
        fill: url(#linear-gradient-2);
      }

      .cls-7 {
        fill: url(#linear-gradient-7);
      }

      .cls-8 {
        fill: url(#linear-gradient-3);
      }

      .cls-9 {
        fill: url(#linear-gradient-9);
      }

      .cls-10 {
        fill: url(#linear-gradient-8);
      }

      .cls-11 {
        fill: url(#linear-gradient-10);
      }

      .cls-12 {
        fill: url(#linear-gradient-4);
      }
    </style>
    <linearGradient id="linear-gradient" x1="161.25" y1="-4231.95" x2="838.41" y2="-4231.95" gradientTransform="translate(0 -3788.79) scale(1 -1)" gradientUnits="userSpaceOnUse">
      <stop offset="0" stop-color="#e9d996"/>
      <stop offset=".23" stop-color="#d1b368"/>
      <stop offset=".55" stop-color="#bd973e"/>
      <stop offset=".63" stop-color="#c29f47"/>
      <stop offset=".79" stop-color="#d2b563"/>
      <stop offset=".96" stop-color="#e7d28a"/>
    </linearGradient>
    <linearGradient id="linear-gradient-2" x1="161.25" y1="-4277.88" x2="838.41" y2="-4277.88" xlink:href="#linear-gradient"/>
    <linearGradient id="linear-gradient-3" x1="161.25" y1="-4325.02" x2="838.41" y2="-4325.02" xlink:href="#linear-gradient"/>
    <linearGradient id="linear-gradient-4" x1="161.25" y1="-4285.93" x2="838.41" y2="-4285.93" xlink:href="#linear-gradient"/>
    <linearGradient id="linear-gradient-5" y1="-4181.57" x2="838.41" y2="-4181.57" xlink:href="#linear-gradient"/>
    <linearGradient id="linear-gradient-6" x1="161.25" y1="-4277.64" x2="838.41" y2="-4277.64" xlink:href="#linear-gradient"/>
    <linearGradient id="linear-gradient-7" x1="161.25" y1="-4272.76" x2="838.41" y2="-4272.76" xlink:href="#linear-gradient"/>
    <linearGradient id="linear-gradient-8" x1="161.25" y1="-4418.7" x2="838.41" y2="-4418.7" xlink:href="#linear-gradient"/>
    <linearGradient id="linear-gradient-9" x1="161.25" y1="-4407.83" x2="838.41" y2="-4407.83" xlink:href="#linear-gradient"/>
    <linearGradient id="linear-gradient-10" x1="161.25" y1="-4418.68" x2="838.41" y2="-4418.68" xlink:href="#linear-gradient"/>
    <linearGradient id="linear-gradient-11" x1="161.25" y1="-4418.43" x2="838.41" y2="-4418.43" xlink:href="#linear-gradient"/>
    <linearGradient id="linear-gradient-12" x1="161.25" y1="-4418.68" x2="838.41" y2="-4418.68" xlink:href="#linear-gradient"/>
  </defs>
  <path class="cls-2" d="M372.95,544.87c53.74-14.71,62.15-47.44,64.25-66.95,2.1-19.52-11.11-71.45-96.08-117.38,0,0-90.67-49.83-166.92-25.82,0,0-4.83-.29-9.3,6.01-4.47,6.3-8.43,10.22-6.3,15,2.13,4.78,13.79,7.25,24.3,4.2,0,0,4.83-3-1.18-5.1-2.93-1.13-5.94-2.04-9.01-2.71,0,0-3-.6.31-2.1,3.31-1.5,37.8-11.69,98.47,6.01,60.67,17.7,142,69.08,138.08,120.4-3.91,51.33-84.37,51.33-84.37,51.33-12.93-.13-25.8-1.65-38.4-4.52,0-16.91,0-45.6.58-63.04,31.4.89,63.06,7.25,65.46,15.02,0,0,1.52,3.57-5.7,6.91-6.62,2.68-11.71,4.83-6.3,7.49,0,0,7.8,3.91,12.9,3.62,5.1-.29,17.73-5.72,19.32-19.54,1.59-13.82-14.11-27-38.43-32.12-18.62-3.89-28.53-5.39-45.34-5.1.31-15.31-1.21-34.52-4.52-39.03-3.89-6.01-8.41-14.11-12.29-5.41-3.31,7.51-6.3,24.15-7.8,45.89-25.82,3.57-54.66,13.5-63.67,24.01-5.9,6.39-5.76,16.29.31,22.51.6,1.18,18.6,28.81,58.84,48.62.6,7.25,1.79,15.34,4.52,19.83,5.99,9.66,17.7,3.31,19.32,1.79,1.62-1.52,2.13-4.18,2.71-11.4,17.83,5.19,50.82,11.18,86.25,1.57ZM260.06,515.45c-20.57-7.58-39-20.01-53.74-36.23,0,0-5.7-6.3,3-10.22,7.83-3.28,24.93-7.49,54.37-8.7-.63,14.93-.63,25.41-3.62,55.14Z"/>
  <path class="cls-6" d="M465.72,536.46c4.52-3.31,3.31-35.72,3.31-35.72,0,0-.6-36.01-.89-42.92-.1-4.83-1.8-9.48-4.83-13.24-1.79-3-4.83-6.88-9.88-2.68-5.05,4.2-6.01,31.21-7.25,53.14-1.23,21.93-.6,35.43,2.1,39.03,2.71,3.6,12.63,5.72,17.44,2.39Z"/>
  <path class="cls-8" d="M832.93,457.82c-19.54-14.49-52.85,28.5-67.63,49.83-1.81-11.11,5.99-24.9,5.99-24.9,0,0,12.61-20.43,14.49-24.64s2.99-12.92.89-13.82c-2.1-.89-5.1,1.79-5.1,1.79-27.63,23.43-32.12,50.17-32.12,50.17-3.02,14.49-.31,24.61,3.91,31.83-15.94,31.52-24.32,59.15-22.51,75.65,1.18,12.61,10.19,21.91,15.58,24.15s6.62-4.23,6.62-4.23c4.16-27.21,12.15-53.69,23.72-78.67,27.92,7.25,49.83-19.52,57.65-32.41,9.9-16.64,10.8-45.46-1.5-54.76ZM813.07,511.56c-7.36,5.45-16.07,8.79-25.19,9.66,8.79-15.58,19.59-29.93,32.15-42.68,8.7-9.32,9.66-.63,9.66-.63,1.43,16.83-11.18,29.15-16.62,33.65Z"/>
  <path class="cls-12" d="M669.07,535.57c7.8,13.21,17.39,12.92,17.39,12.92,18.33,1.79,48.96-16.54,50.72-22.85,1.52-5.1-2.97-10.8-7.25-12.08-4.28-1.28-34.25,3.91-37.85,4.83-3.6.92-2.1-2.68-2.1-2.68l5.12-15.63s28.81-.29,33.02-.89c4.2-.6,4.2-3.31,4.2-3.31.35-2.89.55-5.79.58-8.7-.29-4.49-3.86-4.2-3.86-4.2-8.79-.89-17.63-1.09-26.45-.6l4.23-12.08s30.6-.6,42.32-3c6.01-1.21,2.71-7.25,2.71-7.25-6.91-14.71-15.31-14.13-15.31-14.13-24.01-1.5-59.13,3.91-63.04,5.72-3.91,1.81-3.28,4.2,1.21,10.22,3.3,3.86,8.14,6.05,13.21,5.99l-7.83,15.22c-5.99.29-8.09,2.1-8.09,2.1-3.6,3.6.89,14.71.89,14.71,0,0-11.06,23.07-3.82,35.67Z"/>
  <path class="cls-5" d="M431.81,423.59c.58,2.08,3.89,8.38,7.8,8.09,2.71-.29,4.83-2.1,8.38-8.09,7.83,3.6,17.12,5.39,30.94,1.18,21.62-6.59,42.94-27,43.48-43.84.53-16.83-18.02-17.39-18.02-17.39h-.58c-3-10.53-22.51-9.66-22.51-9.66-39.95,2.1-54.06,29.42-55.87,36.62-2.3,8.19.14,16.99,6.33,22.82-1.69,3.22-1.67,7.06.05,10.27ZM498.14,377.05c14.49-1.81,8.72,11.69,8.72,11.69-11.71,22.22-36.62,22.53-50.72,19.54,9.59-13.53,29.37-29.44,42-31.23ZM442.92,386.47c5.23-7.86,13.96-12.68,23.4-12.92-10.27,6.87-19.14,15.63-26.13,25.82-1.79-2.8-1.47-6.69,2.73-12.9Z"/>
  <path class="cls-3" d="M480.67,460.52c-4.83,14.11-.89,19.32-.89,19.32,3.89,7.51,31.83,7.8,39.35,8.41,7.51.6,27.92,3.6,34.83,7.8,6.91,4.2,2.1,9.66,2.1,9.66-12.08,12.61-51.06,13.82-60.96,7.51-3.89-2.42-4.83-5.41-.6-9.66,4.23-4.25,17.12,2.71,15.63,2.1,5.22,3.02,11.08,4.78,17.1,5.12,11.11.58,18.94-3.31,19.52-7.25.58-3.94-9.3-7.51-9.3-7.51-32.73-10.22-45.89-2.68-45.89-2.68-18.31,10.8-5.39,26.11-5.39,26.11,28.21,31.81,73.84,13.21,79.25,8.72,5.41-4.49,7.49-9.01,8.12-21.93s-4.83-18.31-4.83-18.31c-9.03-12.08-35.14-12.61-42.94-13.21-8.66-.77-17.26-2.11-25.75-4.01-3.6-.89-1.18-3.6-1.18-3.6,3.28-4.52,70.04-7.25,70.04-7.25,6.88-.6,7.8-4.83,9.3-7.51.74-1.39.84-3.02.29-4.49-6.88-8.12-45.63-7.83-45.63-7.83-14.25.97-46.98,5.77-52.15,20.48Z"/>
  <path class="cls-7" d="M580.69,534.07c2.51,4.53,8.22,6.16,12.74,3.65.49-.27.95-.59,1.39-.94,5.39-3.91,5.1-29.71,6.3-42.92,1.21-13.21,2.42-10.82,2.42-10.82,1.23-.29,6.93,12.08,6.93,12.08,0,0,15,33.04,24.93,38.11,9.93,5.07,18.28-2.42,21.59-9.66,3.31-7.25,9.32-31.23,2.1-58.26-7.22-27.03-23.4-35.72-23.4-35.72,0,0-4.23-2.1-5.43,2.1-.66,2.88-.56,5.89.29,8.72,9.66,36.23,11.45,57.65,11.45,57.65,0,0,.29,6.28-.92,6.59-.6.3-1.33.17-1.79-.31-1.21,0-12.32-19.81-12.32-19.81l-2.13-3.86c-11.42-21.3-19.81-28.21-19.81-28.21-1.81-1.79-6.3-6.59-12.32-.31-6.01,6.28-11.11,27.03-13.5,46.54-2.39,19.52-1.21,30.6,1.47,35.38Z"/>
  <path class="cls-10" d="M391.94,646.24v-.29c0-14.49-13.24-19.81-24.97-23.45-9.42-3.04-18.09-5.48-18.09-11.26v-.31c0-4.83,4.11-8.07,11.26-8.07,6.62.37,13.07,2.25,18.86,5.48,1.11.62,2.37.94,3.65.92,4.13.07,7.54-3.23,7.61-7.37,0-.03,0-.07,0-.1-.01-2.98-1.72-5.7-4.4-7-7.79-4.15-16.44-6.39-25.26-6.55-15.99,0-28.62,9.3-28.62,24.52v.29c0,15.39,13.24,20.26,25.12,23.6,9.42,2.9,17.95,5.02,17.95,11.26v.31c0,5.31-4.56,8.67-12.46,8.67-8.31-.26-16.35-2.96-23.14-7.75-1.21-.67-2.57-1.04-3.96-1.06-4.07-.05-7.41,3.2-7.46,7.27,0,.06,0,.11,0,.17-.11,2.62,1.24,5.08,3.5,6.4,9.01,6.19,19.67,9.56,30.6,9.66,16.74-.1,29.83-8.45,29.83-25.34Z"/>
  <path class="cls-9" d="M447.34,669.21c2.92-1.23,4.82-4.08,4.83-7.25-.19-4.13-3.59-7.38-7.73-7.39-1.51.23-3.04.39-4.56.46-6.23,0-9.9-2.9-9.9-10.05v-39.54h14.49c4.37.24,8.11-3.1,8.35-7.47.24-4.37-3.1-8.11-7.47-8.35-.29-.02-.58-.02-.87,0h-14.49v-13.69c0-5.08-4.13-9.2-9.21-9.19-5.07,0-9.19,4.12-9.19,9.19v13.69h-3.04c-4.37-.24-8.11,3.1-8.35,7.47-.24,4.37,3.1,8.11,7.47,8.35.29.02.58.02.87,0h3.04v42.32c0,17.66,9.66,23.6,23.14,23.6,4.3.03,8.58-.69,12.63-2.15Z"/>
  <path class="cls-11" d="M547.63,629.65c0-22.97-18.09-41.69-42.75-41.69-23.19-.51-42.4,17.88-42.91,41.07,0,.31-.01.62-.01.93v.29c0,22.96,18.6,41.57,41.55,41.58.35,0,.7,0,1.05-.01,24.81,0,43.07-19.03,43.07-41.86v-.31ZM529.22,630.25c0,13.86-9.44,25.58-24.35,25.58s-24.52-11.86-24.52-25.87v-.31c0-13.98,9.44-25.55,24.15-25.55s24.71,11.84,24.71,25.87v.29Z"/>
  <path class="cls-4" d="M573.98,588.71c-5.08.04-9.17,4.19-9.13,9.27,0,0,0,.02,0,.02v63.62c-.04,5,3.98,9.09,8.98,9.13.05,0,.1,0,.15,0,5.08.04,9.23-4.05,9.27-9.13h0v-23.74c0-19.03,8.99-28.98,22.08-31.4,4.91-.96,8.11-5.72,7.15-10.63-.84-4.29-4.62-7.36-8.99-7.32-8.07,0-15.97,7.61-20.24,17.66v-8.21c-.03-5.11-4.16-9.25-9.27-9.27Z"/>
  <path class="cls-1" d="M689.33,661c3.04-2.74,3.29-7.43.54-10.47-1.37-1.53-3.32-2.41-5.37-2.45-1.71,0-3.38.59-4.71,1.67-5.25,4.62-12.04,7.11-19.03,7-11.88,0-21.16-7.25-23.14-20.41h50.38c4.75.04,8.63-3.77,8.67-8.52,0-.1,0-.2,0-.29,0-18.57-12.63-39.56-38.21-39.56-22.97,0-39.25,18.86-39.25,41.86v.29c0,24.81,17.95,41.71,41.23,41.71,10.67.26,21.02-3.62,28.89-10.82ZM658.3,603.03c12.08,0,19.18,9.27,20.39,21.13h-41.23c1.67-12.46,9.59-21.13,20.84-21.13Z"/>
</svg>