<?xml version="1.0" encoding="utf-8"?>
<!-- Generator: Adobe Illustrator 22.0.1, SVG Export Plug-In . SVG Version: 6.00 Build 0)  -->
<svg version="1.1" id="Layer_1" xmlns="http://www.w3.org/2000/svg" xmlns:xlink="http://www.w3.org/1999/xlink" x="0px" y="0px"
	 viewBox="219.9 97.8 560.6 805.3" style="enable-background:new 0 0 1000 1000;" xml:space="preserve">
<style type="text/css">
	.st0{fill:#636569;}
	.st1{fill:#B4BD00;}
	.st2{fill:#BDCA8B;}
	.st3{fill:#789904;}
</style>
<g>
	<path class="st0" d="M697.6,676.1c0,0-0.1-0.7-0.1-1.4c0-0.5,0.1-0.9,0.2-1c-0.1,0-2,1.1-2.1,1.2c0,0-6,3.3-6,3.3l-5.9,2.7
		c-0.8,0.4-1.7,0.8-1.9,5.2l0,1.1V739h-45.1l0-46.5c0-7.1-1.7-12.2-5.2-15.4c-3.5-3.3-9-4.8-16.3-4.3c-0.4,0-40.1-1.3-71.4,24.6
		l-5.9,6.7l-2,2.6l-1.2-3.1c-1.2-3-3-6-6.1-9.7c0,0-2-2.1-2-2.1c0,0-0.8-0.7-1.6-1.4c0.2,2.2,0.7,7.3,0.7,14.3v33.6l-25.4,0V622.7
		c0-1.9-0.2-2.5,0.1-2.5c0,0-2.1,1.2-2.2,1.2c0,0-6,3.3-6,3.3l-5.9,2.7c-0.8,0.4-1.9,0.8-1.9,6.2l0,103.9c-0.2,5.8,0,8.6,3.1,12.5
		c1.6,2.1,4.6,5.9,13.1,5.9h24.3l0,1.8c-0.1,8.6-4.6,23.3-4.7,23.6c0,0-0.2,0.5-0.3,1c1.4-0.9,3.6-2.4,6.1-4.7
		c7-8.3,10.3-15.7,11.8-20.5l0.4-1.2h105.3c0,0,36,0,36.1,0c0.1,0,7.1,0.4,11.5-2.8c4.8-3.5,6.4-6.3,6.4-15.8c0,0,0-33.3,0-42.8
		C697.6,692.8,697.6,676.4,697.6,676.1L697.6,676.1z M620.4,738.3h-79.3l0.1-1.2c0-0.4,5-45,68.8-47.2c3.2-0.1,5.7,0.8,7.5,2.7
		c3.2,3.3,2.9,8.3,2.9,8.7V738.3L620.4,738.3z"/>
	<path class="st0" d="M365.3,737.9v-37.2c0-5.4,1.1-5.9,1.9-6.2l5.9-2.7c0,0,7.4-4.1,7.8-4.3c0.1,0.3,0.2,0.9,0.2,2.2
		c0,0,0,51.9,0,51.9c0,3.7-1.9,7.9-4.9,10.7c-4.3,4-9,4-12.1,3.9c-0.5,0-87.3,0-87.3,0c-1.5,0-14.9-0.6-22.7-14.1
		c-3.4-5.9-5.1-12.6-5.1-20.2c0-5.3,0.8-11,2.5-17c1.4-4.5,2.6-6.4,3.5-7.3c0.1,0.5,0.1,0.9,0.2,1.7c0,0.1,2.3,17.6,6.3,24.9
		c7,15.9,27.3,14.8,27.5,14.7c-0.2,0,75.2,0,75.2,0h1.1V737.9L365.3,737.9z M381.9,685.2C381.9,685.2,381.9,685.2,381.9,685.2
		L381.9,685.2C381.9,685.2,381.9,685.2,381.9,685.2L381.9,685.2z"/>
	<path class="st0" d="M442.5,637.3c0-0.1,0-0.6,0-0.6c0-5.4,1-5.8,1.9-6.2c0,0,5.9-2.7,5.9-2.7c0,0,7.3-4,7.8-4.3
		c0.1,0.4,0.3,1,0.3,2.2c0,0,0,60,0,60c0,53.9-25,69.4-27,70.5c-0.6,0-18.6,0-23.8,0c8.2-5.5,15.3-11.7,20.6-18.6l0.4-0.5l0-1
		l-28.3-63c-0.1-0.2-3.9-8.8-3.9-18.7c0-6.8,2-14.2,8.2-19.8c0.1,0.7,0.1,1.4,0.1,1.4c0.6,5.9,2.1,16.6,6.2,24.9
		c0.2,0.3,17.4,33.4,24.2,50c0,0,2.1,6.3,2.1,6.3l1.1,3.4l1.1-3.4l0.5-1.7c2.3-7.4,2.7-12.9,2.7-15.5h0c0,0,0-0.6,0-0.7v-1.1l0,0
		C442.5,694.6,442.5,637.3,442.5,637.3L442.5,637.3z M459.2,621.2C459.2,621.2,459.2,621.2,459.2,621.2L459.2,621.2L459.2,621.2
		L459.2,621.2z"/>
	<path class="st0" d="M304.4,860.3l-51.9,5.3c2,16.4,14.3,22.5,27.3,22.5H313c4.7,0,7.9,3.2,7.9,7.7c0,2.2,0,6.6,0,6.6h-41.5
		c-23.1,0-42.5-15-42.5-45.9c0-26.3,18.4-44.1,44.5-44.1c18.7,0,34,11.4,38.1,28.7C322,851.7,316.3,858.9,304.4,860.3L304.4,860.3z
		 M294.8,848.5c4.2-0.5,7.3-1.2,8.8-2.8c1.5-1.5,1.4-4.6,0.4-7c-3.2-7.5-11.8-12.9-22.7-12.9c-16.8,0-28.7,10.8-28.7,27.4
		C252.6,853.2,292.7,848.7,294.8,848.5L294.8,848.5z"/>
	<path class="st0" d="M485.4,812.6c4.9,0,8.5,2.3,8.5,7.2c0,4.9-3.5,7.2-8.5,7.2h-36.1c-7.6,0.6-8.5,8.2-7.9,12.9
		c0.2,1.5,0.9,2.8,2,3.7c2.4,2,6.5,2.7,10.7,3.4l27.5,4.8c14.5,2.6,19.9,10,19.9,23c0,20.3-12.5,27.8-32.1,27.8h-45.7c0,0,0-5,0-7.2
		c0-4.9,3.4-7.2,8.5-7.2h36.1c14.1,0,17.7-4.3,17.7-12.1c0-7-2-9.6-11.4-11.2l-27.8-4.6c-14.1-2.3-20.2-9.7-21-19.2
		c-1.1-13.9,4.6-28.6,23.6-28.6H485.4L485.4,812.6z"/>
	<path class="st0" d="M584.9,844.3c0-15.7-4.2-31.7-27.5-31.7h-32.6c-5.1,0-8.5,2.3-8.5,7.2c0,4.9,3.4,7.2,8.5,7.2h30.3
		c10.8,0,14.3,2.5,14.3,10v2.3c-0.6,4.6-5.8,5.7-8.5,6.3c-21.8,5.1-51.1-0.5-51.1,30.9c0,16.7,14.3,26.6,33.8,26.6
		c0.2,0,19.7,1,26.8-8.9c0,0,0,0.3,0,0.8c0.5,4.9,2.8,7.5,7.9,7.5c1.9,0,6.4,0,6.4,0L584.9,844.3L584.9,844.3z M569.4,870.3
		c0,15.3-8.6,20.8-23.3,20.8c-13.2,0-20.8-4.8-20.8-15.3c0-7.9,6.7-13,14.7-14.4c8-1.4,20.1-2,29.4-4.1V870.3L569.4,870.3z"/>
	<path class="st0" d="M702.7,844.3c0-15.7-4.2-31.7-27.5-31.7h-32.6c-5.1,0-8.5,2.3-8.5,7.2c0,4.9,3.4,7.2,8.5,7.2h30.3
		c10.8,0,14.3,2.5,14.3,10v2.3c-0.6,4.6-5.8,5.7-8.5,6.3c-21.8,5.1-51.1-0.5-51.1,30.9c0,16.7,14.3,26.6,33.8,26.6
		c0.2,0,19.7,1,26.8-8.9c0,0,0,0.3,0.1,0.8c0.5,4.9,2.8,7.5,7.9,7.5c1.9,0,6.5,0,6.5,0L702.7,844.3L702.7,844.3z M687.2,870.3
		c0,15.3-8.6,20.8-23.3,20.8c-13.2,0-20.8-4.8-20.8-15.3c0-7.9,6.7-13,14.7-14.4c8-1.4,20.1-2,29.4-4.1V870.3L687.2,870.3z"/>
	<path class="st0" d="M615.6,788.1h-8.7c-7.5,0-6.8,6.8-6.8,6.8v83.7l0,0l0,24l15.6,0V788.1L615.6,788.1z"/>
	<path class="st0" d="M371.5,889.2c-11.8,0-16.2-0.5-16.2-9.1v-53H369c4.9,0,8.5-2.3,8.5-7.2c0-4.9-3.5-7.2-8.5-7.2h-13.7v-14.8
		c0,0,0-0.1,0-0.1v-9l-6.6,0c-1.3,0-2.2,0.1-3.2,0.2c-6.3,0.7-5.7,6.8-5.7,6.8v17h-4.2c-4.9,0-8.5,2.3-8.5,7.2
		c0,4.9,3.5,7.2,8.5,7.2h4.2v44.9l0,0v11.4c0,19,13.2,19.3,31.7,19.3c3.1,0,9.2,0,9.2,0c0,0,0-4.2,0-6.2
		C380.6,892,377.1,889.2,371.5,889.2L371.5,889.2z"/>
	<path class="st0" d="M755.4,889.2c-11.8,0-16.2-0.5-16.2-9.1v-53h13.7c4.9,0,8.5-2.3,8.5-7.2c0-4.9-3.5-7.2-8.5-7.2h-13.7v-14.8
		c0,0,0-0.1,0-0.1v-9l-6.6,0c-1.3,0-2.2,0.1-3.2,0.2c-6.3,0.7-5.6,6.8-5.6,6.8v17h-4.2c-4.9,0-8.5,2.3-8.5,7.2
		c0,4.9,3.5,7.2,8.5,7.2h4.2v44.9l0,0v11.4c0,19,13.2,19.3,31.7,19.3c3.1,0,9.2,0,9.2,0c0,0,0-4.2,0-6.2
		C764.5,892,761,889.2,755.4,889.2L755.4,889.2z"/>
	<path class="st0" d="M409.5,902.7l0-90l-8.7,0c-5.8,0.1-6.8,3.7-6.8,6.9c0,1.2,0,83.2,0,83.2H409.5L409.5,902.7z"/>
	<path class="st0" d="M400.1,805.8c3.8,0,5.7,0.1,7.8-1.8c1.6-1.5,1.7-4.2,1.7-7.3c0-1.8,0-7.9,0-7.9h-8.7c-5.9,0.1-6.8,3.7-6.8,6.9
		c0,1.2,0,10.2,0,10.2S398.4,805.8,400.1,805.8L400.1,805.8z"/>
	<path class="st1" d="M411.1,514.8c-9.2,0-17-1.5-22.9-4.6c-28.9-15-51.9-87.2-51.5-161.4c0.2-48.5,30.9-75.2,76.9-75.2
		c24.6,0,53.5,7.6,84.5,23.6c89,45.9,111.9,118.2,51.5,161.4C501.7,493.1,446.4,514.8,411.1,514.8 M399.8,199.2
		c-13.2,0-25.1,1.7-35.4,5.1c-40,12.3-55.9,49.6-52.8,101.6c3.1,51.9,19.2,105.7,31.1,144.9c13.1,39.7,22.1,64.8,38.4,73.2
		c4.9,2.5,10.6,3.7,17.4,3.7c15.6,0,36.6-6.1,64.6-14.7c38.8-12.9,92-31,136.2-58.5c44.1-27.5,65.5-62.1,52.3-101.8
		c-12-39.1-58.4-83.5-121.9-116.3C483,212.1,436.6,199.2,399.8,199.2 M238.5,154.4c-22.9,29.8-23.4,78.8-8.2,139.5
		c21.3,85.5,58.2,171.9,75.4,229.6c19.8,59,19.9,89.3,27.6,93.2c0.8,0.4,1.6,0.6,2.7,0.6c10.1,0,35.5-15.8,89.3-32
		c57-19.4,148.8-39.4,230.9-71.5c57.8-22.6,97.3-51.2,108.7-86.7c-18.4,24.8-51.9,45.7-96.3,63c-82.1,32.1-173.9,52.1-230.9,71.5
		c-53.8,16.3-79.1,32.1-89.2,32.1c-1.1,0-2-0.2-2.8-0.6c-7.7-4-7.8-34.2-27.6-93.3c-17.2-57.7-54-144.1-75.4-229.6
		C230.9,223.6,228.5,183.8,238.5,154.4"/>
	<path class="st2" d="M336.3,97.8c-17.4,0-32.8,2.1-45.6,6.5c-27.1,8.2-43.9,25.6-52.2,50.1c9.4-12.2,22.5-21.2,39.8-26.4
		c12.9-4.4,28.3-6.5,45.7-6.5c59.7,0,143,25,229.1,69.4c111.2,57.4,193.3,130,210.4,187.7c5.9,17.5,6,33.6,1.3,48.5
		c15.6-21.1,20.2-45.1,11.1-72.2c-17.1-57.7-99.2-130.2-210.4-187.6C479.4,122.7,396,97.8,336.3,97.8"/>
	<path class="st3" d="M398.6,527.6c-6.7,0-12.5-1.1-17.4-3.7c-16.3-8.4-25.3-33.5-38.4-73.2c-11.9-39.1-28-93-31.1-144.9
		c-3.1-51.9,12.7-89.3,52.8-101.6c10.3-3.4,22.2-5.1,35.4-5.1c36.8,0,83.2,13,130,37.1c63.5,32.8,109.9,77.2,121.9,116.3
		c13.1,39.7-8.2,74.3-52.3,101.8c-44.1,27.5-97.4,45.6-136.2,58.5C435.2,521.6,414.2,527.6,398.6,527.6 M324,121.5
		c-17.4,0-32.9,2.1-45.7,6.5c-17.3,5.2-30.4,14.2-39.8,26.4c-9.9,29.4-7.5,69.2,4.1,115.8c21.4,85.5,58.2,172,75.4,229.6
		c19.8,59.1,19.9,89.3,27.6,93.3c0.8,0.4,1.7,0.6,2.8,0.6c10.1,0,35.5-15.8,89.2-32.1c57-19.4,148.8-39.4,230.9-71.5
		c44.4-17.3,77.9-38.2,96.3-63c4.8-14.9,4.6-31.1-1.3-48.5c-17.1-57.7-99.2-130.3-210.4-187.7C467,146.4,383.7,121.5,324,121.5"/>
	<path class="st0" d="M724.3,721.8l0-85.2c0-5.4,1.1-5.9,1.9-6.2l5.9-2.7c0,0,8.2-4.5,8.2-4.5c-0.1,0-0.2,0.1-0.2,0.5
		c0,0.4,0,1,0,1.9c0,0,0,52.5,0,52.5l0,0c0,0,0,76.1,0,78.3c-1.9,0-14,0-15.8,0C724.3,754.2,724.3,721.8,724.3,721.8L724.3,721.8z"
		/>
	<path class="st0" d="M304,687.6c3.8,0,5.8,0.1,7.9-1.9c1.6-1.5,1.7-4.3,1.7-7.4c0-1.8,0-7.9,0-7.9h-8.8c-5.9,0.1-6.8,3.7-6.8,6.9
		c0,1.2,0,10.3,0,10.3S302.4,687.6,304,687.6L304,687.6z"/>
	<path class="st0" d="M324.5,687.6c3.8,0,5.8,0.1,7.9-1.9c1.6-1.5,1.7-4.3,1.7-7.4c0-1.8,0-7.9,0-7.9h-8.8c-5.9,0.1-6.8,3.7-6.8,6.9
		c0,1.2,0,10.3,0,10.3S322.9,687.6,324.5,687.6L324.5,687.6z"/>
	<path class="st0" d="M667.6,659.6c3.8,0,5.8,0.1,7.9-1.8c1.7-1.5,1.7-4.3,1.7-7.4c0-1.8,0-8,0-8h-8.8c-5.9,0.1-6.8,3.7-6.8,6.9
		c0,1.2,0,10.3,0,10.3S666,659.6,667.6,659.6L667.6,659.6z"/>
	<path class="st0" d="M688.1,659.6c3.8,0,5.8,0.1,7.9-1.8c1.7-1.5,1.7-4.3,1.7-7.4c0-1.8,0-8,0-8h-8.8c-5.9,0.1-6.8,3.7-6.8,6.9
		c0,1.2,0,10.3,0,10.3S686.5,659.6,688.1,659.6L688.1,659.6z"/>
</g>
</svg>
