<?xml version="1.0" encoding="utf-8"?>
<!-- Generator: Adobe Illustrator 22.0.1, SVG Export Plug-In . SVG Version: 6.00 Build 0)  -->
<svg version="1.1" id="Layer_1" xmlns="http://www.w3.org/2000/svg" xmlns:xlink="http://www.w3.org/1999/xlink" x="0px" y="0px"
	 viewBox="101.1 226 799.1 548.1" style="enable-background:new 0 0 1000 1000;" xml:space="preserve">
<style type="text/css">
	.st0{fill:#0067A4;}
	.st1{fill:#FBCC13;}
	.st2{fill:#FFCB04;}
</style>
<rect x="101.1" y="301.3" class="st0" width="48.3" height="196.9"/>
<rect x="763.8" y="301.3" class="st0" width="48.3" height="196.9"/>
<g>
	<path class="st0" d="M288.6,328.1c0,12.8-10.4,23.3-23.3,23.3c-12.8,0-23.3-10.4-23.3-23.3c0-12.8,10.4-23.3,23.3-23.3
		C278.2,304.8,288.6,315.2,288.6,328.1"/>
	<path class="st0" d="M338.4,328.1c0,12.8-10.4,23.3-23.3,23.3c-12.8,0-23.3-10.4-23.3-23.3c0-12.8,10.4-23.3,23.3-23.3
		C328,304.8,338.4,315.2,338.4,328.1"/>
	<path class="st0" d="M688.8,368h-62v36.5h52.7c7.8,0,14.1,6.3,14.1,14.1V443c0,7.8-6.3,14.1-14.1,14.1H493v-82h-48.3v82h-29v-82
		h-48.3v82h-53.7v-82h-48.3v82H232v-6.8V375h-48.3v82v26.4v0.4v14.5v6.6c0,12.6-10.2,22.9-22.9,22.9v30.8
		c35.6,0,65.1-26.1,70.4-60.3h0.8h33.4h48.3h53.7h48.3h29H493h195.8c29.3,0,53.1-23.8,53.1-53.1v-24
		C741.9,391.8,718.1,368,688.8,368"/>
	<path class="st0" d="M287.2,607.5v-3.7c0-12.9,10.5-23.4,23.5-23.4h10c10.7,0,19.3,8.7,19.3,19.3v7.8L287.2,607.5L287.2,607.5z
		 M384,642l0.2-26.7c0.3-35.9-28.7-65.2-64.6-65.2H308c-39.6,0-71.7,32.1-71.7,71.7v12.8c0,36.8,29.8,66.6,66.6,66.6h66.6v-34.4h-62
		c-10.8,0-19.6-8.8-19.6-19.6V642H384z"/>
	<path class="st0" d="M653.9,587.7v-34.3h-33v-31.9h-49.4v102.2v9.5v23.6c0,23.3,15.6,46.7,49.4,46.7c18.3,0,24.6-5.2,24.6-5.2v-30
		c0,0-1.1,1.7-10.9,1.7c-9.8,0-13.7-8.4-13.7-21.6v-60.8L653.9,587.7L653.9,587.7z"/>
	<path class="st0" d="M721.7,553.3c-40.5,0-51.4,7.8-51.4,7.8v24.8v3.8v112.7h49.6V589.6l8.3-1.4c7.5-0.9,17.8-0.8,25.3,0.3l6.9-0.1
		v-35.2h-38.7V553.3z"/>
	<path class="st0" d="M855.6,666.4c0,0-2.5,3.8-20.6,3.8c-18,0-27.2-5.1-27.2-16.8c0-25,47.8-20.9,47.8-20.9V666.4z M850.2,553.3
		h-69v36.3h64c5.4,0,9.7,4.4,9.7,9.7v5.7h-7.6c-6,0-83.8-0.9-83.8,50.6c0,28.5,18.7,46.6,71.8,46.6c53.2,0,64.9-11.5,64.9-11.5
		v-13.3v-18.7v-55.6C900.2,575.7,877.8,553.3,850.2,553.3"/>
</g>
<polygon class="st1" points="330.5,774.1 388.9,774.1 569.1,521.5 511.4,521.5 "/>
<polygon class="st2" points="387.4,550.1 445.8,550.1 553.8,703.5 496.1,703.5 "/>
<polygon class="st1" points="593,404.5 651.4,404.5 778.5,226 720.8,226 "/>
<rect x="521.4" y="375.1" class="st0" width="48.1" height="97.9"/>
</svg>
