<?xml version="1.0" encoding="utf-8"?>
<!-- Generator: Adobe Illustrator 23.0.1, SVG Export Plug-In . SVG Version: 6.00 Build 0)  -->
<svg version="1.1" id="Layer_1" xmlns="http://www.w3.org/2000/svg" xmlns:xlink="http://www.w3.org/1999/xlink" x="0px" y="0px"
	 viewBox="100.5 373.9 799.7 252.1" style="enable-background:new 0 0 1000 1000;" xml:space="preserve">
<style type="text/css">
	.st0{fill:#E01D3A;}
	.st1{fill:#F79724;}
	.st2{fill:#FCDA00;}
	.st3{fill:#383838;}
</style>
<g>
	<path class="st0" d="M640.1,465.7l260.1-91.8l-39.4,69.5L640.1,465.7z"/>
	<path class="st1" d="M640.1,465.7L423,404.6l-19.5,34.6L640.1,465.7z"/>
	<path class="st2" d="M640.1,465.7L584.3,413l18.5-35.3L640.1,465.7z"/>
	<path class="st3" d="M190.2,569.7h17.5l-29,55.2h-17.5L190.2,569.7z M281,570.1h29.3l6.6,40.8h1.7l21.3-40.8h16.4l-28.6,55.2h-28.6
		l-7-41.2h-1.7l-21.3,41.2H252L281,570.1z M408.7,607.1h16.1c-1.4,2.8-1.7,4.5-1,5.2c0.3,0.3,1,0.7,1.4,1c0.7,0,1.7,0.3,3.5,0.3
		h21.3c2.1-0.3,3.5-0.7,4.5-1c1-0.7,2.4-1.7,3.5-3.8c0.7-1.4,1-2.4,0.7-3.1c-0.3-1-2.1-1-5.2-1c-2.1,0-6.3,0-12.6-0.7
		c-6.6-0.3-10.8-0.7-12.9-0.7c-5.2-0.3-8.4-1-10.1-1.7c-2.1-1.4-2.8-3.5-1.7-7c0.7-1.7,1.4-4.2,3.1-7.3c3.1-6.3,6.6-10.5,10.5-13.3
		c2.8-1.7,5.9-3.1,9.8-3.8c3.5-0.7,11.5-1,23.4-1c7.7,0,13.3,0.3,16.4,0.7c3.8,0.7,6.3,1.7,7.7,3.1c1.4,2.1,0.7,5.9-2.1,11.5
		c-0.3,0.7-1,1.4-1.4,2.8h-16.1c0.7-1,1-2.1,1-2.8c0.3-1.4-0.3-2.4-2.4-2.8c-1.7-0.3-5.9-0.3-13.3-0.3c-7,0-11.2,0.3-12.6,0.7
		c-1.7,0.7-3.1,1.7-4.2,3.5c-1,1.7-1,3.1,0.3,3.5c1,0.3,7,0.7,17.1,1c9.4,0.3,15,0.7,17.5,1c2.4,0.3,4.2,1,5.6,1.7
		c1,1,1.7,1.7,1.7,3.1c0.3,2.1-1,5.6-3.1,10.5c-2.8,5.6-5.6,9.4-8.4,11.9c-2.8,2.4-5.6,4.2-9.4,5.2c-3.5,1-12.2,1.4-26.2,1
		c-8.4,0-14.3-0.3-18.2-0.7c-4.2-0.7-7-1.4-8-3.1c-1-1.7-1-3.8,0-7.3c0.7-1.4,1.4-3.1,2.4-5.2L408.7,607.1L408.7,607.1z
		 M478.9,607.1h16.1c-1.4,2.8-1.7,4.5-1,5.2c0.3,0.3,1,0.7,1.4,1c0.7,0,1.7,0.3,3.5,0.3h21.3c2.1,0,3.5-0.7,4.5-1
		c1-0.7,2.4-1.7,3.5-3.8c0.7-1.4,1-2.4,0.7-3.1c-0.3-1-2.1-1-5.2-1c-2.1,0-6.3-0.3-12.6-0.7c-6.6-0.3-10.8-0.7-12.9-0.7
		c-5.2-0.3-8.4-1-10.1-1.7c-2.1-1.4-2.8-3.5-1.7-7c0.7-1.7,1.4-4.2,3.1-7.3c3.1-6.3,6.6-10.5,10.5-13.3c2.8-1.7,5.9-3.1,9.8-3.8
		c3.5-0.7,11.5-1,23.4-1c7.7,0,13.3,0.3,16.4,0.7c3.8,0.7,6.6,1.7,7.7,3.1c1.4,2.1,0.7,5.9-2.1,11.5c-0.3,0.7-1,1.4-1.4,2.8h-16.1
		c0.7-1,1-2.1,1-2.8c0.3-1.4-0.3-2.4-2.4-2.8c-1.7-0.3-5.9-0.3-13.3-0.3c-7,0-11.2,0.3-12.6,0.7c-1.7,0.7-3.1,1.7-4.2,3.5
		c-1,1.7-1,3.1,0.3,3.5c1,0.3,7,0.7,17.1,1c9.4,0.3,15,0.7,17.5,1c2.4,0.3,4.2,1,5.6,1.7c1,1,1.7,1.7,1.7,3.1
		c0.3,2.1-1,5.6-3.1,10.5c-2.8,5.6-5.6,9.4-8.4,11.9c-2.8,2.4-5.6,4.2-9.4,5.2c-3.5,1-12.2,1.4-26.2,1c-8.4,0-14.3-0.3-17.8-0.7
		c-4.2-0.7-7-1.4-8-3.1c-1-1.7-1-3.8,0-7c0.7-1.4,1.4-3.1,2.4-5.2L478.9,607.1L478.9,607.1z M566.5,570.8h61.8l-3.1,6.6h-27.6
		l-25.1,48.5h-7.3l25.1-48.5l-26.9-0.3L566.5,570.8z M632.5,570.8h7.3l-29,55.2h-7.3L632.5,570.8z M647.8,570.8h14.3l5.2,46.8
		l53.1-46.4h15l-29,54.8h-7.3l25.5-47.8h-3.1L666,625.9h-6.3l-4.9-48.2h-3.5l-25.1,48.2h-7.3L647.8,570.8z M714.5,625.9l29-54.8
		h53.1l-3.5,6.6h-45.7l-9.1,16.4l44.3,0.3l-3.5,6.3h-44L725,619.3l46.4,0.3l-3.5,6.3H714.5z M133.3,593.5h-16.4l-16.4,31.4h16.4
		l9.8-19.2h38.7l6.6-12.6L133.3,593.5z M129.1,569.7l-7,12.9h57.6l6.6-12.9H129.1z M206.6,624.9h17.5l16.4-31.4H223L206.6,624.9z
		 M211.5,569.7l-7.3,14h66l7.3-14H211.5z M335.4,625.2h60.4l7-13.3h-60.4L335.4,625.2z M346.9,603.3h57.6l6.3-11.9h-57.6
		L346.9,603.3z M364.4,570.1l-7,12.9h60l6.6-12.9H364.4z M654.8,491.9h22.3l4.2-8.7l-22-0.3L654.8,491.9z M774.9,483.2l-4.5,8.7
		h19.2l4.9-8.7H774.9z M821.3,498.9c-7.3,0-14.7,2.4-22.7,7.7c-7.7,5.2-13.6,11.2-17.5,18.5c0,0-10.1,18.8-10.8,20.6h21.3l3.5-7.3
		h-14l7.3-13.3c2.8-5.6,7.3-9.8,12.9-14c5.6-3.5,11.2-5.6,16.4-5.6h6.6l-27.2,51.7h-32.8l-3.5,7.3h27.9c3.1,0,6.6-1,10.1-3.5
		c3.1-2.1,5.6-4.9,7.7-7.7c0,0,27.9-53.1,28.6-54.5H821.3 M785.7,497.8h-14c-7.3,0-14.7,2.4-22.7,7.7c-7.7,4.9-16.8,17.8-20.6,24.8
		c0,0-0.3,0.3-0.7,1h7c0.3-0.7,0.7-1,0.7-1c2.8-4.9,10.5-16.1,16.1-19.5l8.4-4.2l8-1.4h6.6l-16.8,33.2h-72.6c0,0,9.8-18.2,10.5-19.9
		h-7c-1,1.4-10.5,19.9-10.5,19.9h-88c0,0,13.6-25.5,14.3-27.2h-7c-2.1,3.8-11.9,22.7-11.9,22.7c-1.4,3.1-1.7,5.6-0.7,7.7
		c1,2.4,3.1,3.5,6.6,3.5c0,0,168.6,0.3,170.3,0.3L785.7,497.8L785.7,497.8z M392.7,554h-10.8l-5.6,10.8h30.4l5.6-10.8H392.7z
		 M563.7,483.5c0,0-24.4,46.4-25.1,48.2h-22.7c1-1.4,25.1-47.8,25.1-47.8h-14c0,0-24.4,46.4-25.1,47.8h-33.2
		c1-1.4,11.9-25.1,11.9-25.1h-14c0,0-11.2,23.7-11.9,25.1l-109.6-0.3c1-1.4,25.1-47.8,25.1-47.8h-14l-32.8,61.8l206.6,0.7
		c4.2,0,8.7-1.4,13.3-4.5c4.5-3.1,7.7-6.3,9.8-10.5l25.1-47.5H563.7z M586.4,483.5l-33.2,62.8h14l33.2-62.8H586.4z M311,494.7h29.7
		l5.6-10.8h-30.7l-5.6,10.8H311z M321.5,497.8c-8,0-16.4,2.8-25.1,8.4c-5.9,3.8-10.8,8.4-15,14H297c4.5-3.8,11.5-8.7,20.6-9.4
		c-0.3,0.7-9.8,18.8-10.5,19.9c-1,0-109.6-0.3-112-0.3c1-2.1,17.5-33.2,17.5-33.2h-17.8c-8,0-16.4,2.8-25.1,8.7
		c-6.3,4.2-11.2,8.7-15,14H170c1.4-1.4,3.1-2.8,5.2-3.8c4.9-3.1,9.4-4.9,13.6-4.9h2.4c-1,2.1-9.8,18.5-9.8,19.2H149l-7.3,14.3
		l173.5,0.3l24.4-47.1H321.5z M190.6,494.7h24.8l5.6-10.8h-31.1l-5.6,10.5L190.6,494.7z"/>
</g>
</svg>
