<?xml version="1.0" encoding="utf-8"?>
<!-- Generator: Adobe Illustrator 23.0.1, SVG Export Plug-In . SVG Version: 6.00 Build 0)  -->
<svg version="1.1" id="Layer_1" xmlns="http://www.w3.org/2000/svg" xmlns:xlink="http://www.w3.org/1999/xlink" x="0px" y="0px"
	 viewBox="100.5 341.2 799.6 316.7" style="enable-background:new 0 0 1000 1000;" xml:space="preserve">
<style type="text/css">
	.st0{fill:#881D5A;}
	.st1{fill:url(#SVGID_1_);}
	.st2{fill:url(#SVGID_2_);}
	.st3{fill:url(#SVGID_3_);}
	.st4{fill:url(#SVGID_4_);}
	.st5{fill:#383838;}
</style>
<g>
	<path class="st0" d="M865.9,358.9c-10.2,0-20.4,2.2-27.7,3.6c0.7,2.2,0.7,5.1,1.1,8c2.2,38.6-33.9,40.8-41.9,40.8h-1.5l-109.7,5.8
		c-2.9,0.4-6.2,0.4-7.7,0.4h-2.9l-229.1,11.7h412.7c9.8,0,42.6-2.6,40.8-39.7C898.7,365.1,882.6,358.9,865.9,358.9 M440.4,429.6
		h-1.5H440.4"/>
	
		<linearGradient id="SVGID_1_" gradientUnits="userSpaceOnUse" x1="461.3021" y1="1111.3401" x2="843.5337" y2="989.3531" gradientTransform="matrix(1 0 0 1 0 -658.3701)">
		<stop  offset="0.335" style="stop-color:#881D5A"/>
		<stop  offset="0.546" style="stop-color:#881D5A"/>
		<stop  offset="1" style="stop-color:#EEACCD"/>
	</linearGradient>
	<path class="st1" d="M440,429.6c-1.1,0.4-1.5,0.4-1.5,0.4l8-0.4H440z M773.7,346.2c-16.4,3.3-36.1,8.4-57.9,13.5
		c2.6,4.4,4.4,10.2,4.7,17.9c0.4,2.2,0.4,4.4,0,6.6c45.9-8,87.4-14.9,114.4-20.4c1.1-0.4,2.2-0.4,3.3-0.7
		c-4-17.5-17.5-21.9-31.7-21.9C794.1,340.7,781.4,344.4,773.7,346.2"/>
	
		<linearGradient id="SVGID_2_" gradientUnits="userSpaceOnUse" x1="538.7135" y1="1054.6439" x2="920.3133" y2="1054.6439" gradientTransform="matrix(1 0 0 1 0 -658.3701)">
		<stop  offset="0.411" style="stop-color:#881D5A"/>
		<stop  offset="1" style="stop-color:#EEACCD"/>
	</linearGradient>
	<path class="st2" d="M440.4,429.6L440.4,429.6h6.2l229.1-11.7L440.4,429.6z M834.9,363.7c-27,5.1-68.1,12.4-114.4,20.4
		c-1.5,25.1-22.2,31.7-34.2,33.5l109.7-5.8h1.5c8,0,43.7-2.2,41.9-40.8c-0.4-2.9-0.7-5.8-1.1-8C836.7,363.3,835.6,363.3,834.9,363.7
		"/>
	
		<linearGradient id="SVGID_3_" gradientUnits="userSpaceOnUse" x1="438.5649" y1="1046.6155" x2="715.4297" y2="1046.6155" gradientTransform="matrix(1 0 0 1 0 -658.3701)">
		<stop  offset="0.335" style="stop-color:#881D5A"/>
		<stop  offset="0.546" style="stop-color:#881D5A"/>
		<stop  offset="1" style="stop-color:#EEACCD"/>
	</linearGradient>
	<path class="st3" d="M655,352c-96.2,29.1-216.4,77.6-216.4,77.6c0.4,0,1.5-0.4,3.3-0.4c24.8-6.6,171.2-44.8,273.6-69.2
		c-6.2-9.8-17.1-13.1-28.8-13.1C675,346.5,662.2,349.8,655,352"/>
	
		<linearGradient id="SVGID_4_" gradientUnits="userSpaceOnUse" x1="488.0596" y1="1109.4749" x2="754.1085" y2="1012.6414" gradientTransform="matrix(1 0 0 1 0 -658.3701)">
		<stop  offset="0.335" style="stop-color:#881D5A"/>
		<stop  offset="0.546" style="stop-color:#881D5A"/>
		<stop  offset="1" style="stop-color:#EEACCD"/>
	</linearGradient>
	<path class="st4" d="M715.8,359.3c-102.4,24.4-248.8,63-273.6,69.2c-0.7,0.4-1.1,0.4-1.5,0.4l235.3-11.3l10.6-0.7
		c12-1.5,32.8-8.4,34.2-33.5c0.4-2.2,0.4-4.4,0-6.6C720.2,369.5,718.3,364,715.8,359.3L715.8,359.3z"/>
	<path class="st5" d="M194.9,546.5h18.2l-30.2,59h-18.2L194.9,546.5z M289.6,546.5l30.2,0.4l7.7,44.1h1.5l22.2-44.1H369l-30.2,59
		h-30.2l-7.7-44.4H299l-21.9,44.4l-17.9-0.4L289.6,546.5z M423.3,586.3H440c-1.5,2.9-1.8,4.7-1.1,5.8c0.4,0.4,1.1,0.7,1.5,0.7
		s2.2,0.4,4,0.4h22.2c2.2-0.4,3.6-0.4,4.7-0.7c1.1-0.7,2.6-1.8,3.6-4.4c0.7-1.5,1.1-2.6,0.7-3.3c-0.4-0.7-2.2-1.1-5.1-1.1
		c-2.2,0-6.6-0.4-13.1-0.7c-6.9-0.4-11.3-0.7-13.5-0.7c-5.8-0.4-9.1-0.7-10.6-1.8c-2.2-1.5-2.6-3.6-1.8-7.7c0.4-1.8,1.5-4.4,2.9-8
		c3.3-6.9,6.9-11.3,10.9-13.8c2.9-2.2,6.6-3.3,10.2-4c3.6-0.7,11.7-0.7,24.4-0.7c8.4,0,13.8,0.4,17.1,0.7c4,0.7,6.9,1.8,8,3.3
		c1.5,2.2,0.7,6.6-2.2,12.4c-0.4,0.7-0.7,1.8-1.5,2.9h-16.8c0.7-1.5,1.1-2.2,1.1-2.9c0.4-1.8-0.4-2.6-2.6-2.6
		c-1.8-0.4-6.6-0.4-13.8-0.4c-7.7,0-11.7,0.4-13.1,0.7c-1.5,0.4-2.9,1.8-4.4,4c-1.1,2.2-0.7,3.3,0.4,3.6c1.1,0.4,6.9,0.7,17.9,1.1
		c9.8,0.4,15.7,0.7,18.6,1.1c2.6,0.4,4.4,1.1,5.8,1.8c1.1,0.7,1.8,2.2,1.8,3.6c0.4,2.2-0.7,6.2-3.6,11.3c-2.9,6.2-6.2,10.2-8.7,12.8
		c-2.6,2.6-6.2,4.4-9.8,5.1c-3.6,1.1-12.8,1.5-27.3,1.5c-9.1,0-14.9-0.4-18.9-0.7c-4.4-0.7-7.7-1.8-8.4-3.3
		c-1.1-1.8-1.5-4.4-0.4-7.7c0.7-1.5,1.5-3.3,2.6-5.8L423.3,586.3L423.3,586.3z M496.9,586.6h16.8c-1.5,2.9-1.8,4.7-1.1,5.8
		c0.4,0.4,1.1,0.7,1.5,0.7c0.4,0,2.2,0.4,4,0.4h22.2c2.2-0.4,3.6-0.4,4.7-0.7c1.1-0.7,2.6-1.8,3.6-4.4c0.7-1.5,1.1-2.6,0.7-3.3
		c-0.4-0.7-2.2-1.1-5.1-1.1c-2.2,0-6.6-0.4-13.1-0.7c-6.9-0.4-11.3-0.7-13.5-0.7c-5.8-0.4-9.1-0.7-10.6-1.8
		c-2.2-1.5-2.6-3.6-1.8-7.7c0.4-1.8,1.5-4.4,2.9-8c3.3-6.9,6.9-11.3,10.9-13.8c2.9-2.2,6.6-3.3,10.2-4s11.7-0.7,24.4-0.7
		c8.4,0,13.8,0.4,17.1,0.7c4,0.7,6.9,1.8,8,3.3c1.5,2.2,0.7,6.6-2.2,12.4c-0.4,0.7-0.7,1.8-1.5,2.9h-16.8c0.7-1.5,1.1-2.2,1.1-2.9
		c0.4-1.8-0.4-2.6-2.2-2.6c-1.8-0.4-6.6-0.4-13.8-0.4c-7.7,0-11.7,0.4-13.1,0.7c-1.5,0.4-2.9,1.8-4.4,4c-1.1,2.2-0.7,3.3,0.4,3.6
		c1.1,0.4,7.3,0.7,17.9,1.1c9.8,0.4,15.7,0.7,18.6,1.1c2.6,0.4,4.4,1.1,5.8,1.8c1.1,0.7,1.8,2.2,1.8,3.6c0.4,2.2-0.7,6.2-3.6,11.3
		c-2.9,6.2-6.2,10.2-8.7,12.8c-2.6,2.6-6.2,4.4-9.8,5.1c-3.6,1.1-12.8,1.5-27.3,1.5c-9.1,0-14.9-0.4-18.9-0.7
		c-4.4-0.7-7.7-1.8-8.7-3.3c-1.1-1.8-1.1-4.4,0-7.7c0.7-1.5,1.5-3.3,2.6-5.8L496.9,586.6L496.9,586.6z M588.3,547.3l64.5,0.4
		l-3.6,6.6h-28.4l-26.2,52.5h-7.7l26.2-52.5H585L588.3,547.3z M657.1,547.6h7.3l-30.2,59h-7.3L657.1,547.6z M673.2,547.6h14.9
		l5.5,49.9l55.7-49.9h15.3l-29.9,59h-7.7l26.6-51.7H750l-57.9,51.7h-6.2l-5.5-52.1h-3.6l-26.2,52.1h-7.7L673.2,547.6z M743.1,606.7
		l29.9-59l55.7,0.4l-3.6,6.6h-47.7l-9.5,18.2h45.9l-3.3,6.9h-45.9l-10.2,20.4l47.7,0.4l-3.3,6.6L743.1,606.7z M135.5,571.7H118
		l-17.5,33.9H118l10.2-20.4H169l6.9-13.5L135.5,571.7z M130.7,546.5l-7.3,13.8h60.1l6.9-13.8H130.7z M212,605.6h18.2l17.1-33.5
		h-18.2L212,605.6z M216.7,546.5l-7.7,14.9h68.9l7.7-14.9H216.7z M346.4,605.9l63,0.4l7.3-13.8h-63.4L346.4,605.9z M358.8,582.2
		h60.8l6.6-13.1H365L358.8,582.2z M376.6,546.9l-7.3,13.8h63l6.9-13.8H376.6z M680.5,462.4h23.3l4.7-9.5l-23.3-0.4L680.5,462.4z
		 M805.8,452.9l-4.7,9.5h20.4l4.7-9.5H805.8z M854.6,469.3c-7.7,0-15.3,2.6-23.7,8.4c-8.4,5.8-14.2,12-18.2,20
		c0,0-10.6,20.4-11.3,21.9h22.2l3.6-7.7h-14.9l7.7-14.2c2.9-6.2,7.7-10.9,13.5-14.6c6.2-4,11.7-6.2,17.5-6.2h6.9l-28.4,55.7h-34.2
		l-3.6,7.7h29.1c3.3,0,6.9-1.1,10.9-3.6c3.6-2.2,6.2-5.1,8-8.4c0,0,29.1-56.8,30.2-59C867.3,469.7,854.6,469.3,854.6,469.3
		 M817.8,468.6h-14.2c-7.7,0-14.9,2.6-23.3,8.4c-8,5.1-17.9,19.3-21.9,27c0,0-0.4,0.4-0.4,0.7h7.3c0.4-0.7,0.7-1.1,0.7-1.5
		c2.9-4.7,11.3-17.1,17.1-21.1l9.1-4.4l8.4-1.5h6.9l-17.9,35.7l-76.1-0.4c0,0,9.8-19.7,10.9-21.1h-7.7c-0.7,1.8-10.9,21.1-10.9,21.1
		l-92.5-0.4c0,0,14.2-28.1,14.9-29.5h-7.7c-2.2,4-12.8,24.8-12.8,24.8c-1.5,3.3-1.8,6.2-0.7,8.4c1.1,2.6,3.3,3.6,6.9,3.6l178.1,0.4
		L817.8,468.6z M406.1,529.1h-11.3l-6.2,11.7h32.4l6.2-11.7H406.1z M585.4,453.3c0,0-25.5,50.3-26.2,52.1h-24
		c0.7-1.8,26.2-52.1,26.2-52.1h-14.6c0,0-25.1,50.3-26.2,51.7h-34.6c0.7-1.5,12.4-27.3,12.4-27.3h-14.6c0,0-11.7,25.5-12.4,27.3
		l-114.8-0.4c0.7-1.8,26.2-51.7,26.2-51.7h-14.6L334,520l215.7,0.4c4.4,0,9.1-1.5,13.8-4.7c4.4-2.9,8-6.9,10.6-11.3l25.9-51.4
		L585.4,453.3z M609.1,453.3L574.8,521h14.6l34.2-67.8H609.1z M320.9,465.3h31.3l6.2-11.7h-32.1l-6.2,11.7H320.9z M332.2,468.6
		c-8.4,0-17.5,2.9-26.2,9.5c-6.6,4-11.3,9.1-15.3,14.9h16.8c4.4-4.4,12-9.5,21.9-9.8c-0.4,0.4-10.2,20.4-10.9,21.5
		c-1.1,0-114.8-0.4-117.3-0.4c1.1-2.2,18.2-35.3,18.2-35.3h-18.6c-8.7,0-17.5,2.9-27,9.5c-6.6,4.4-11.7,9.5-15.7,14.9h16.4
		c1.5-1.5,3.3-2.9,5.1-4.4c4.7-3.3,9.8-4.7,14.2-4.7h2.6c-1.1,2.2-10.2,19.7-10.6,20.8h-9.5v0.4h-24.8l-8,14.9l181.4,0.4l25.9-51.7
		L332.2,468.6z M194.9,464.9h25.5l6.2-11.7h-32.1l-5.8,11.7H194.9z"/>
	<path class="st0" d="M722.7,629.2c1.1-0.7,1.8-1.8,2.6-2.6c0.7-1.1,0.7-1.8,0.4-2.6c-0.4-0.7-0.7-1.1-1.8-1.1h-41.9
		c-2.2,0-4,0.4-6.6,1.5s-4.4,2.2-6.6,4s-4,3.3-5.8,5.8c-1.5,1.8-2.9,4-4,6.2c-1.1,1.8-1.8,3.6-2.2,6.2c-0.7,2.2-0.7,3.6-0.7,5.8
		c0.4,1.8,0.7,2.9,1.5,4c1.1,1.1,2.6,1.5,4.4,1.5h43c1.1,0,2.2-0.4,2.9-1.1c1.1-0.7,1.8-1.8,2.6-2.6c0.7-1.1,0.7-1.8,0.4-2.6
		c-0.4-0.7-0.7-1.1-1.8-1.1h-40.8c-1.5,0-2.9-0.4-3.6-1.1c-0.7-0.7-1.1-1.5-1.1-2.2s0-1.8,0.4-3.3c0.4-1.1,0.7-2.2,1.5-3.3
		c0.4-0.7,1.1-1.8,2.2-2.9c0.7-1.1,1.8-2.2,2.9-3.3c1.1-0.7,2.2-1.8,3.6-2.2c1.5-0.7,2.9-1.1,4.4-1.1h40.8
		C720.9,630.7,722,630,722.7,629.2L722.7,629.2z M514.7,655.8l31-24.8c0.7-0.4,1.1-0.7,1.8-1.1c0.7-0.4,1.5-0.7,1.8-0.7
		c0.7,0,0.7,0.4,1.1,0.7c0.4,0.4,0.4,0.7,0.4,1.1l3.6,24.8c0.4,1.1,0.7,1.5,1.8,1.5s2.2-0.4,2.9-1.1c1.1-0.7,1.8-1.8,2.6-2.6
		c0.4-0.4,0.4-1.1,0.4-1.5v-1.1l-3.6-25.9c-0.4-1.1-0.7-2.2-1.5-2.6c-0.7-0.7-2.2-1.1-3.6-1.1s-2.9,0.4-4.7,1.1
		c-1.8,0.7-3.3,1.8-4.7,2.9l-32.1,25.9c-0.7,0.7-1.5,1.1-1.8,2.2c-0.7,1.1-0.7,1.8-0.4,2.6s0.7,1.1,1.8,1.1
		C512.2,657.3,513.2,656.9,514.7,655.8z M467,626.3c0.7-1.1,0.7-1.8,0.4-2.6s-0.7-1.1-1.8-1.1s-2.2,0.4-2.9,1.1
		c-1.1,0.7-1.8,1.8-2.6,2.6l-11.3,20.4c-0.7,1.5-1.1,2.6-1.5,4s0,2.2,0.4,3.3c0.4,0.7,1.1,1.8,1.8,2.2c0.7,0.7,2.2,0.7,3.3,0.7h44.1
		c1.1,0,2.2-0.4,2.9-1.1c1.1-0.7,1.8-1.8,2.6-2.6c0.7-1.1,0.7-1.8,0.4-2.6s-0.7-1.1-1.8-1.1h-44.1c-0.7,0-1.1-0.4-1.5-0.7
		c-0.4-0.7-0.4-1.1,0.4-2.2L467,626.3z M632.7,622.7h-43c-1.1,0-2.2,0.4-2.9,1.1c-1.1,0.7-1.8,1.8-2.6,2.6l-14.6,27.3
		c-0.7,1.1-0.7,1.8-0.4,2.6c0.4,0.7,0.7,1.1,1.8,1.1h43.4c2.2,0,4-0.7,6.6-1.8c2.2-1.1,4-2.2,6.6-4c1.8-1.8,3.6-3.3,5.8-5.1
		c1.5-1.8,2.9-4,4-6.2c1.1-2.2,1.8-4,2.2-6.2c0.4-1.8,0.7-3.6,0.4-5.8c-0.4-1.8-0.7-2.9-2.2-4C636.7,623.4,634.9,622.7,632.7,622.7
		L632.7,622.7z M631.3,636.9c-0.4,1.1-0.7,2.2-1.5,2.9c-0.4,0.7-1.1,1.8-2.2,3.3c-0.7,1.1-1.8,2.2-2.9,2.9c-1.1,0.7-2.2,1.8-3.6,2.2
		c-1.5,0.7-2.9,1.1-4.4,1.1h-37.9l10.6-19.7h37.9c1.5,0,2.9,0.4,3.6,1.1s1.1,1.5,1.1,2.2C632,635.1,631.6,635.8,631.3,636.9z
		 M789,623h-44.4c-1.1,0-2.6,0.4-4,0.7c-1.5,0.7-2.9,1.1-4,2.2c-1.5,0.7-2.6,2.2-4,3.3c-1.1,1.1-2.2,2.6-2.9,4
		c-0.7,1.5-1.1,2.6-1.5,4c-0.4,1.1,0,2.2,0.4,3.3c0.4,0.7,1.1,1.8,1.8,2.2c0.7,0.7,1.8,0.7,3.3,0.7h40.1c0.7,0,1.1,0.4,1.5,0.7
		c0.4,0.7,0,1.1-0.4,2.2c-0.4,1.1-1.1,1.5-1.8,1.8c-0.7,0.7-1.5,0.7-2.2,0.7H726c-1.1,0-2.2,0.4-2.9,1.1c-1.1,0.7-1.8,1.8-2.6,2.6
		c-0.7,1.1-0.7,1.8-0.4,2.6c0.4,0.7,0.7,1.1,1.8,1.1h44.4c1.1,0,2.6-0.4,4-0.7c1.5-0.4,2.9-1.1,4.4-2.2c1.5-0.7,2.6-2.2,4-3.3
		c1.1-1.1,2.2-2.6,2.9-4c0.7-1.5,1.1-2.6,1.5-4c0.4-1.1,0.4-2.2-0.4-3.3c-0.4-0.7-1.1-1.8-1.8-2.2c-0.7-0.7-2.2-0.7-3.3-0.7h-40.4
		c-0.7,0-1.1-0.4-1.5-0.7c-0.4-0.7-0.4-1.1,0.4-2.2c0.7-1.1,1.1-1.5,1.8-2.2s1.5-0.7,2.2-0.7H785c1.1,0,2.2-0.4,2.9-1.1
		c1.1-0.7,1.8-1.8,2.6-2.6c0.7-1.1,0.7-1.8,0.4-2.6C790.8,623.4,790.1,623,789,623L789,623z"/>
	<path class="st0" d="M676.5,636.5c-1.1,0-2.2,0.4-2.9,1.1c-1.1,0.7-1.8,1.8-2.6,2.6c-0.7,1.1-0.7,1.8-0.4,2.6s0.7,1.1,1.8,1.1h36.4
		c1.1,0,2.2-0.4,2.9-1.1c1.1-0.7,1.8-1.8,2.6-2.6c0.7-1.1,0.7-1.8,0.4-2.6s-0.7-1.1-1.8-1.1H676.5z M657.5,622.7
		c-1.1,0-2.2,0.4-2.9,1.1c-1.1,0.7-1.8,1.8-2.6,2.6l-14.6,27.3c-0.7,1.1-0.7,1.8-0.4,2.6c0.4,0.7,0.7,1.1,1.8,1.1s2.2-0.4,2.9-1.1
		c1.1-0.7,1.8-1.8,2.6-2.6l14.6-27.3c0.7-1.1,0.7-1.8,0.4-2.6C659,623.4,658.2,622.7,657.5,622.7z"/>
</g>
</svg>
