<?xml version="1.0" encoding="utf-8"?>
<!-- Generator: Adobe Illustrator 26.0.1, SVG Export Plug-In . SVG Version: 6.00 Build 0)  -->
<svg version="1.1" id="Layer_1" xmlns="http://www.w3.org/2000/svg" xmlns:xlink="http://www.w3.org/1999/xlink" x="0px" y="0px"
	 viewBox="197.8 150.7 604.4 705.6" style="enable-background:new 0 0 1000 1000;" xml:space="preserve">
<style type="text/css">
	.st0{fill:#77BF44;}
	.st1{fill:#FFFFFF;}
	.st2{fill:url(#SVGID_00000009577927609601146130000014906487308428840380_);}
	.st3{fill:url(#SVGID_00000080186462358097271760000007381765772146145708_);}
	.st4{fill:url(#SVGID_00000026884721055984116010000015026151431892534925_);}
	.st5{fill:url(#SVGID_00000120542280222558299670000007776804548651947930_);}
	.st6{fill:#E8213D;}
</style>
<g>
	<g>
		<path class="st0" d="M639.6,607c-0.4,36.6-22.8,54.5-68.4,54.5c-39.6,0-59.1-13.9-64.7-43.6c-1.3-6.9-1.8-14.6-1.6-23.2l0.1-18.4
			c0.4-45.1,21.6-65.7,71.1-65.7h45.1l-6.7,18.6H582c-34.4,0-46,8.2-46.4,47.2v19.7c-0.1,8.9,0.3,16.4,1.4,22.4
			c3.5,18.8,14.1,25,38.3,25c29.5,0,36.5-14.2,36.9-41.2l0.1-7.5h-35.8l-0.2-18.4h49.3c9.2,0,13.9,1.5,13.8,8.9L639.6,607z"/>
		<path class="st0" d="M799,599.3c-0.4,41.4-23,62.2-68.4,62.2h-6.4c-38.4,0-60-14.8-65.5-44.2c-1.1-5.6-1.4-11.5-1.4-18l0.4-26.2
			c0.5-42.5,22.7-64,68.3-64h6.5c38.1,0,59.9,15.3,65.4,45.4c1.1,5.7,1.5,11.9,1.5,18.6L799,599.3z M768.3,573.2
			c0.1-6.2-0.4-11.5-1.3-16.4c-3.7-19.9-15.3-29.9-34.8-29.9h-6.5c-24.8,0-37.5,15.3-37.7,46.3l-0.3,26.2c0,6.4,0.2,12.1,1.2,17
			c3.5,19.1,15.1,27.4,35.6,27.4h6.5c25.5,0,36.6-13.3,37.1-44.4L768.3,573.2z"/>
		<path class="st1" d="M526.7,361.2c0,44.1-35.7,80-79.9,80c-43.4,0-79.7-33.7-79.7-77.3c0-48.6,36.9-82.6,79.7-82.6
			C491.3,281.2,526.7,317.6,526.7,361.2z"/>
		<g>
			<g>
				<g>
					
						<linearGradient id="SVGID_00000062168701840532514670000010951385072856404654_" gradientUnits="userSpaceOnUse" x1="372.1964" y1="203.8983" x2="522.5" y2="203.8983" gradientTransform="matrix(1 0 0 1 0 157.3856)">
						<stop  offset="0.2" style="stop-color:#FFFFFF"/>
						<stop  offset="0.3034" style="stop-color:#F6F6F6"/>
						<stop  offset="0.472" style="stop-color:#DEDEDE"/>
						<stop  offset="0.6849" style="stop-color:#B6B7B8"/>
						<stop  offset="0.9314" style="stop-color:#7F8082"/>
						<stop  offset="1" style="stop-color:#6F7072"/>
					</linearGradient>
					<path id="SVGID_1_" style="fill:url(#SVGID_00000062168701840532514670000010951385072856404654_);" d="M450.5,281.3
						c0,0-36.8-0.7-63.1,40.5c0,0-33.6,46.7-0.9,92.6c0,0,7.3,10.7,19.9,13.3c0,0-23.1-19.7-16.7-63.2c0,0,12.5-76.9,76.6-78.6
						C466.4,285.8,456.8,282.2,450.5,281.3 M472.3,375.3c2.9-11.8,12-19.6,20.2-17.6c8.2,2.1,12.5,13.2,9.6,25
						c-2.9,11.7-11.9,19.6-20.1,17.5c-3.3-0.8-5.9-3.1-7.8-6.3C471.4,389.2,470.5,382.3,472.3,375.3 M499.8,331.5
						c0,0-17.4-5.7-32.8,7.5c0,0-37.4,29.3-15.8,68c0,0,14.3,26.5,44.8,9.7c0,0,4.3-2.4,8.4-6.3c0,0,17.5-20.6,18.1-45.1
						c0,0-0.7-10.3-6.2-19.9C512.9,339.5,507.7,334,499.8,331.5 M433.1,312.8c0,0-50.6,44.4-21.4,104.6c0,0,17.5,32.2,53.1,21.8
						c0,0,4.7,0,20-9.3c0,0-42.7,16.7-54.3-29.6c0,0-15.3-55.4,41.1-83.8c0,0,32.1-13.2,50,21.9c0,0-1.7-9.9-7.5-20.2
						c0,0,0-0.1-0.1-0.2C511.9,314.4,484.8,269.6,433.1,312.8"/>
				</g>
			</g>
		</g>
		<g>
			<g>
				
					<linearGradient id="SVGID_00000171699563596819094740000000396304536062956201_" gradientUnits="userSpaceOnUse" x1="366.9704" y1="636.9523" x2="526.5971" y2="636.9523" gradientTransform="matrix(1 0 0 -1 0 997.89)">
					<stop  offset="0" style="stop-color:#77BF44"/>
					<stop  offset="1" style="stop-color:#4F802D"/>
				</linearGradient>
				<path id="SVGID_4_" style="fill:url(#SVGID_00000171699563596819094740000000396304536062956201_);" d="M405.8,315.3
					c-9.4-3.8-21.6,4.2-27.4,18c-5.7,13.9-2.8,28.2,6.6,32.2c9.4,3.8,21.6-4.3,27.4-18.1c4-9.6,3.8-19.6,0.1-26
					C410.8,318.6,408.6,316.5,405.8,315.3 M373.4,331.3c9.7-23.8,30.7-37.8,46.9-31.1c16.2,6.6,21.3,31.3,11.6,55
					c-9.7,23.8-30.7,37.8-46.8,31.1c-4.9-2-8.9-5.7-11.6-10.6C367.1,364.7,366.6,347.8,373.4,331.3 M444.1,286.5
					c-1.6-0.7-3.3-1.2-5-1.7c0,0-31.6-7-59,32.5c0,0-4.5,6.4-7,13.4c-0.8,2.5-1.9,4.9-2.5,7.1c-4.2,14.9-8.8,45.7,11.5,68
					c0,0,4.6,4.8,10.2,7.4l0.3,0.1c25.3,10.1,57.3-9.8,71.6-44.7c9.7-23.7,8.7-48.2-0.8-64.8C458.9,296,452.4,289.9,444.1,286.5
					 M450.7,281.4c0,0,47,4.6,39.3,71.5c0,0-3.4,46.4-48.1,71.3c0,0-26.9,14.4-49.9-4.3c0,0,38.4,38.2,78.1,10.5
					c0,0,61.3-39.5,40-109.4c0,0-1-4-4.1-9.4C499.6,300.6,484.4,283.4,450.7,281.4 M514.4,318.3l0.1,0.2L514.4,318.3z M514.5,318.6
					c1.9,3.2,23.7,43-9.5,90.9c0,0-15,22.6-40.5,29.7c0,0,47-7.7,60.3-60.6c0,0,7.8-28.4-9.1-58C515.3,320,514.9,319.3,514.5,318.6"
					/>
			</g>
		</g>
		<path class="st1" d="M798.8,298.9c0,81.6-66.3,147.8-148.1,147.8s-148.1-67.6-148.1-147.8c0-81.6,67.3-147.8,145.6-147.8
			C726.3,151.1,798.8,217.2,798.8,298.9z"/>
		<g>
			<g>
				<g>
					
						<linearGradient id="SVGID_00000095326648858740744320000010887083134389174182_" gradientUnits="userSpaceOnUse" x1="502.5739" y1="144.8644" x2="799.3627" y2="144.8644" gradientTransform="matrix(1 0 0 1 0 157.3856)">
						<stop  offset="0" style="stop-color:#E7E5E5"/>
						<stop  offset="0.3242" style="stop-color:#E7E5E5"/>
						<stop  offset="0.4241" style="stop-color:#E2E0E0"/>
						<stop  offset="0.5465" style="stop-color:#D3D1D2"/>
						<stop  offset="0.6807" style="stop-color:#BABABB"/>
						<stop  offset="0.8224" style="stop-color:#98989B"/>
						<stop  offset="0.8462" style="stop-color:#919295"/>
						<stop  offset="1" style="stop-color:#919295"/>
					</linearGradient>
					<path id="SVGID_8_" style="fill:url(#SVGID_00000095326648858740744320000010887083134389174182_);" d="M598.4,395.3
						c-18.2-13.1-25.5-33.9-16.4-46.6c9.1-12.8,31.2-12.5,49.4,0.4c18.2,13,25.5,33.9,16.4,46.7c-4.5,6.2-12.1,9.4-20.9,9.4
						C617.9,405.2,607.7,401.9,598.4,395.3 M595.2,291.7c-37.4-0.3-55.1,28.6-55.1,28.6c-21.3,34.5,8.7,75.1,8.7,75.1
						c30.3,33.6,79.7,41.9,79.7,41.9c10.3,0.5,19.4-1.4,19.4-1.4c63.1-12.8,51.4-67.4,51.4-67.4c-14.8-73.7-90.2-76.7-102.4-76.7
						C595.8,291.7,595.2,291.7,595.2,291.7 M504,318.9c4.2,21.6,13.7,37.4,13.7,37.4c-16.8-70.9,44.3-90.9,44.3-90.9
						C675.5,237.6,720.4,334,720.4,334c39.4,79.1-40.9,106.9-40.9,106.9c32.7-5.2,39.3-10.9,39.3-10.9
						c62.4-28.2,48.5-94.5,48.5-94.5C736.1,215.7,611.7,214,611.7,214C481.9,215.6,504,318.9,504,318.9 M549.3,190.7
						c-7.9,8.8-16.9,25.5-16.9,25.5c92.3-74.5,202.3,18.8,202.3,18.8c61.2,53.6,52.4,109,52.4,109c14.6-18.8,12.1-42.7,12.1-42.7
						C789.9,197.2,686.6,172,686.6,172c-19.6-6-37.4-8.4-53.1-8.4C579.8,163.7,549.3,190.7,549.3,190.7"/>
				</g>
			</g>
		</g>
		
			<linearGradient id="SVGID_00000000933413476412834210000010342696805497989532_" gradientUnits="userSpaceOnUse" x1="503.9" y1="699.1165" x2="798.1" y2="699.1165" gradientTransform="matrix(1 0 0 -1 0 997.89)">
			<stop  offset="0" style="stop-color:#E8213D"/>
			<stop  offset="1" style="stop-color:#991629"/>
		</linearGradient>
		<path style="fill:url(#SVGID_00000000933413476412834210000010342696805497989532_);" d="M561.5,417.1
			c82.2,58.4,157.6,12.8,157.6,12.8c-44.5,20.4-92.7,6.8-92.7,6.8C522.3,409,505.2,326.9,504,320
			C514.2,384.8,561.5,417.1,561.5,417.1 M504,320c-0.1-0.1-0.1-0.2-0.1-0.3C503.9,319.9,503.9,319.9,504,320 M503.9,319.8
			c0-0.1,0-0.2,0-0.2C503.9,319.6,503.9,319.7,503.9,319.8 M503.9,319.6L503.9,319.6L503.9,319.6 M513.1,318.1
			c54,124,187.8,106,187.8,106c89-8.8,97.2-108.7,97.2-108.7c-9.8,54-65,66.1-65,66.1c-92.8,18.6-153.4-42.6-153.4-42.6
			c-91.1-84.9-30.5-148-30.5-148C482,255.4,513.1,318.1,513.1,318.1 M653.1,184.9c-8.5,16.7,4.6,40.5,29.3,53.1s51.6,9.2,60.1-7.5
			s-4.6-40.5-29.3-53.1c-10.1-5.2-20.6-7.6-30-7.6C669.6,169.8,658.1,175,653.1,184.9 M664.1,272.3c-42.2-21.8-64.5-62.7-49.7-91.5
			c14.8-28.7,61.1-34.3,103.3-12.5c42.3,21.7,64.5,62.7,49.7,91.4c-8.7,16.9-28.3,25.8-51.7,25.8
			C699.5,285.6,681.5,281.2,664.1,272.3 M569.5,182c-1.9,2.6-3.6,5.5-5.1,8.4c-23.3,45.1,8.3,107.7,70.5,139.7
			c61.9,31.9,130.9,21.5,154.5-23.1l0.2-0.5c4.7-10.3,5.5-22.5,5.5-22.5c1.6-56-41.8-93.7-65.5-109.7c-3.6-2.4-7.9-4.5-12.1-6.8
			c-12-6.9-26-10.6-26-10.6c-16.5-4.4-31.2-6.2-44.1-6.2C593,150.8,569.5,182,569.5,182"/>
		<path class="st6" d="M482.1,576.3c-0.5-45.1-21.7-65.7-71.2-65.7h-45.1l6.6,18.6h32.5c34.4,0,46,8.2,46.4,47.2l0.1,19.7
			c0.1,8.9-0.4,16.4-1.5,22.4c-3.5,18.7-13.9,25-37.8,25l-87.1-0.1V523.5c-0.2-13.9-14-14.4-14-14.4h-42.6
			c-44.8,0.4-66.7,21.9-67.2,64.1l-0.3,26.1c0,6.4,0.3,12.4,1.4,18c5.5,29.4,27.1,44.3,65.5,44.3h26.6
			c-1.9,24.8-10.5,33.9-30.5,36.4v0.1c-0.5,1.4-5.8,16.8-6.5,18.9l-0.1,0.4h0.9c43.1-1,63.5-18.7,66.9-55.8H416
			c39.7,0,59.1-13.9,64.7-43.6c1.2-6.9,1.7-14.6,1.6-23.2L482.1,576.3z M294.9,643.3h-26.7c-20.6,0-32.1-8-35.6-27
			c-0.9-4.9-1.2-10.6-1.2-17.1l0.4-26.1c0.1-30.6,12.6-45.9,36.7-46.3h18.7c1.5,0,7.8-0.2,7.8,6.8L294.9,643.3L294.9,643.3z
			 M382.5,680c-5.7,0-10.3,4.6-10.3,10.3s4.6,10.3,10.3,10.3c5.7,0,10.3-4.6,10.3-10.3C392.8,684.7,388.2,680,382.5,680z"/>
	</g>
	<g>
		<g>
			<g id="XMLID_1_">
				<g>
					<path d="M802,827.8l-10.4,23.6c-2.1,4.6-4.9,4.9-8.1,4.9h-1.7l0.6-2.9h1.2c1.4,0,2.5-1,3.2-2.5l2.1-4.7V846l-8.5-18.2h3.8
						c1.8,0,3,0.7,3.6,2l3.9,9.4l4-9.4c0.8-1.7,1.5-2,3.4-2H802L802,827.8z"/>
					<path d="M786.5,750.8c1.6,0,2.9,1.4,2.9,3s-1.3,2.9-2.9,2.9c-1.5,0-2.8-1.3-2.8-2.9C783.7,752.2,785,750.8,786.5,750.8z"/>
					<path d="M782.9,744.5c1.6,0,2.9,1.3,2.9,2.9c0,1.5-1.3,2.8-2.9,2.8c-1.6,0-2.9-1.4-2.9-2.8C780,745.8,781.3,744.5,782.9,744.5z
						"/>
					<path d="M779.1,750.8c1.6,0,2.9,1.4,2.9,3s-1.3,2.9-2.9,2.9c-1.6,0-2.8-1.3-2.8-2.9C776.3,752.2,777.5,750.8,779.1,750.8z"/>
					<path d="M777.5,836.8v9.7h-6v-8.7c0-3.5-0.3-6.6-4.5-6.6h-2.5v15.2h-5.9v-18.8h8.8C774.1,827.8,777.5,830.8,777.5,836.8z"/>
					<path d="M802.2,777.1c0,5.7-4.1,9.6-10.5,9.6H759V782h5.3v-14l5.3-1.5v15.6h10.9v-16.5l5.3-1.5v18h5.6c3.6,0,5.5-1.8,5.5-5.4
						v-13.4l5.3-1.6L802.2,777.1L802.2,777.1z"/>
					<rect x="757.8" y="782" width="1.2" height="4.7"/>
					<path d="M753.3,836.1v10.4h-9.7c-5.6,0-7.9-1.8-7.9-5.6c0-5,4-5.8,8.2-5.8h3.5V835c0-2.5-1.4-3.6-3.7-3.6h-5.1l-0.7-3.6h6
						C750.3,827.8,753.3,830.5,753.3,836.1z M747.6,843.2v-4.8h-2.8c-2.2,0-3.6,0.3-3.6,2.5c0,2,1.2,2.3,3.2,2.3H747.6z"/>
					<path d="M757.8,782v4.7h-6.7c-0.7,6.4-5.3,10.6-12.4,10.6c-2.4,0-4.3-0.5-5.9-1.5l-2.5-5.2c2.5,1.4,5.3,2.1,8.4,2.1
						c4.5,0,7.2-2.9,7.2-7.5v-21.9l5.3-1.5V782H757.8z"/>
					<path d="M731.8,836.6v1.2c0,5.8-3.3,8.8-9.5,8.8h-3.4v9.6h-5.8v-28.4h9.2C728.6,827.8,731.8,830.7,731.8,836.6z M726,837.7
						v-1.2c0-3.4-1.4-5.2-4.1-5.2h-3.1v11.6h3.4C724.7,842.9,726,841.1,726,837.7z"/>
					<path d="M707.7,837.2v9.3h-5.8v-9c0-3-0.5-6.2-3.9-6.2h-3v0.3c0.7,1.4,1,3.1,1,5.1v9.7h-6v-9.8c0-3.1,0-5.4-3.2-5.4h-2.5v15.2
						h-5.9v-18.8h8.6c4,0,5.2,1,6.6,2.5c0.5-0.8,1.3-1.7,1.9-2.5h3.2C704.5,827.8,707.7,830.6,707.7,837.2z"/>
					<path d="M729.6,786.6h-30.2V782h24.8c0-2.8,0-4.9-0.2-6c-0.4-2.3-1.3-4.1-2.7-5.4c-1.9-1.8-4.4-2.7-7.5-2.7
						c-4,0-7.2,1.5-9.7,4.3l-3.6-3.4l17.3-18h6.9l-12,12.6c0.8-0.1,1.6-0.2,2.5-0.2c3.8,0,7,1.2,9.7,3.5c2.6,2.3,4.1,5.3,4.6,9.2
						C729.5,776.8,729.6,780.4,729.6,786.6z"/>
					<rect x="698.1" y="782.1" width="1.3" height="4.6"/>
					<path d="M685.1,750.9c1.5,0,2.8,1.3,2.8,2.9c0,1.6-1.3,2.9-2.8,2.9s-2.9-1.3-2.9-2.9C682.2,752.3,683.5,750.9,685.1,750.9z"/>
					<path d="M677.5,750.9c1.6,0,3,1.3,3,2.9c0,1.6-1.3,2.9-3,2.9c-1.6,0-2.9-1.3-2.9-2.9C674.7,752.3,676,750.9,677.5,750.9z"/>
					<path d="M696,782.1h2v4.6h-2.3c-4.3,0-7.1-1.3-8.3-3.9c-1.3,2.6-4,3.9-8.2,3.9c-7,0-10.6-4.2-10.6-12.7
						c0-8.2,3.5-12.3,10.6-12.3h11.3v14.8C690.6,780.2,692.5,782.1,696,782.1z M685.3,773.9v-8.1h-5.7c-2.2,0-3.7,0.7-4.5,2.2
						c-0.7,1.2-1.1,3.2-1.1,5.9s0.4,4.7,1.1,5.9c0.8,1.5,2.4,2.2,4.5,2.2s3.7-0.7,4.5-2.2C685,778.6,685.3,776.6,685.3,773.9z"/>
					<path d="M673.6,836.5v1.3c0,5.7-3.6,9-9.4,9h-0.8c-5.7,0-9.5-3.2-9.5-9v-1.3c0-6,3.7-9,9.5-9h0.8
						C670.1,827.5,673.6,830.6,673.6,836.5z M667.9,837.8v-1.3c0-3.7-1.2-5.5-3.7-5.5h-0.8c-2.4,0-3.7,1.9-3.7,5.5v1.3
						c0,2.5,0.8,5.5,3.7,5.5h0.8C667,843.3,667.9,840.2,667.9,837.8z"/>
					<polygon points="654.9,750.8 654.9,786.6 649.7,786.6 649.7,752.5 					"/>
					<path d="M650.6,819.6l-0.7,3.8H644c-5.5,0-5.8,3.1-5.8,7.9v4.4c0,5.1,1,7,5.8,7h5.8l0.7,3.8h-7c-8.5,0-11.6-3.2-11.6-11.8v-3.4
						c0-8.2,3.6-11.7,11.6-11.7H650.6z"/>
					<path d="M642.4,750.9c1.6,0,2.9,1.3,2.9,2.9c0,1.6-1.3,2.9-2.9,2.9c-1.6,0-2.9-1.3-2.9-2.9
						C639.5,752.3,640.8,750.9,642.4,750.9z"/>
					<path d="M635,750.9c1.6,0,2.8,1.3,2.8,2.9c0,1.6-1.3,2.9-2.8,2.9c-1.6,0-2.9-1.3-2.9-2.9C632,752.3,633.4,750.9,635,750.9z"/>
					<path d="M644.9,776.8c0,2.8-0.9,5.2-2.8,7c-1.9,1.9-4.4,2.8-7.6,2.8h-3V782h2.7c3.7,0,5.5-1.9,5.5-5.6v-13.3l5.2-1.5
						L644.9,776.8L644.9,776.8z"/>
					<rect x="630.2" y="782.1" width="1.3" height="4.6"/>
					<path d="M616.7,837.2v9.3h-5.8v-9c0-3-0.5-6.2-3.9-6.2h-2.9v0.3c0.7,1.4,1,3.1,1,5.1v9.7h-6v-9.8c0-3.1,0-5.4-3.2-5.4h-2.5
						v15.2h-5.9v-18.8h8.6c4,0,5.2,1,6.6,2.5c0.5-0.8,1.3-1.7,1.9-2.5h3.2C613.5,827.8,616.7,830.6,616.7,837.2z"/>
					<path d="M630.2,786.6h-34.5V782h23.5v-2c0-4.2-0.4-7.3-1.2-9.2c-1.2-3.1-3.7-4.7-7.3-4.7c-3,0-5.8,1.4-8.4,4.3l-3.8-3.5
						c3.7-3.6,7.8-5.4,12.2-5.4c5.6,0,9.5,2,11.7,6.1c1.5,2.8,2.2,7,2.2,12.4v1.9h6.9v0.1h-1.3L630.2,786.6L630.2,786.6z"/>
					<rect x="594.3" y="782.1" width="1.4" height="4.6"/>
					<path d="M594.3,782.1v4.6h-4.5c-4.7,0-7.3-2.9-7.3-7.2v-27l5.3-1.7v28.5c0,1.8,0.9,2.7,2.7,2.7h5.2v0.1L594.3,782.1
						L594.3,782.1z"/>
					<path d="M582.7,836.5v1.3c0,5.7-3.7,9-9.5,9h-0.7c-5.8,0-9.6-3.2-9.6-9v-1.3c0-6,3.7-9,9.6-9h0.7
						C579.1,827.5,582.7,830.6,582.7,836.5z M576.9,837.8v-1.3c0-3.7-1.2-5.5-3.8-5.5h-0.7c-2.4,0-3.7,1.9-3.7,5.5v1.3
						c0,2.5,0.8,5.5,3.7,5.5h0.7C576,843.3,576.9,840.2,576.9,837.8z"/>
					<path d="M560,827.8l-0.8,3.6h-4.9c-2.4,0-3.6,1.8-3.6,5.2v1.2c0,3.4,1.2,5.2,3.6,5.2h4.9l0.8,3.6h-5.7c-6.3,0-9.6-3-9.6-8.8
						v-1.2c0-5.9,3.3-8.8,9.6-8.8H560z"/>
					<path d="M555.6,786.6l3.2-4.6h13.7v-10.5c0-3.6-2-5.5-5.8-5.5c-3.2,0-5.7,1.6-7.5,4.8V765c2.5-2.2,5-3.3,7.5-3.3
						c3.2,0,5.9,0.9,7.9,2.6c2,1.7,3,4,3,6.9v15.5h-22L555.6,786.6L555.6,786.6z"/>
					<path d="M540.7,836.1c0,0.7-0.1,1.7-0.3,2.7h-12.1v0.2c0.2,2.2,1.8,4,4,4h6.4l0.7,3.6h-7.1c-5.9,0-9.9-2.6-9.9-8.8v-1.3
						c0-6,3.7-9,9.5-9C537.9,827.5,540.7,830.3,540.7,836.1z M535.3,835.4v-0.2c-0.2-2.8-1.3-4.3-3.2-4.3h-0.4c-1.3,0-2,0.7-2.6,2.1
						c-0.3,0.6-0.5,1.4-0.6,2.3v0.2L535.3,835.4L535.3,835.4z"/>
					<path d="M541.9,786.6h-28.4V782h4.9v-9.5c0-3,1-5.7,2.9-7.7c2-2.1,4.8-3.2,8.3-3.2c3,0,5.6,1.1,7.8,3.3l-3.9,3.6
						c-1.3-1.6-2.8-2.4-4.5-2.4c-3.3,0-5.3,2.4-5.3,5.5V782h14.2L541.9,786.6z"/>
					<path d="M517.6,821.7v24.8h-5.8v-28h2.1C516.4,818.5,517.6,819.6,517.6,821.7z"/>
					<rect x="512.2" y="782" width="1.3" height="4.7"/>
					<path d="M507.1,836.1c0,0.7-0.1,1.7-0.3,2.7h-12.1v0.2c0.1,2.2,1.8,4,4.1,4h6.4l0.7,3.6h-7.1c-5.9,0-9.9-2.6-9.9-8.8v-1.3
						c0-6,3.7-9,9.5-9C504.3,827.5,507.1,830.3,507.1,836.1z M501.6,835.4v-0.2c-0.2-2.8-1.3-4.3-3.2-4.3H498c-1.3,0-2,0.7-2.6,2.1
						c-0.3,0.6-0.5,1.4-0.6,2.3v0.2L501.6,835.4L501.6,835.4z"/>
					<path d="M495.6,750.8c1.5,0,2.8,1.4,2.8,3s-1.3,2.9-2.8,2.9s-2.9-1.3-2.9-2.9C492.7,752.2,494.1,750.8,495.6,750.8z"/>
					<path d="M512.2,782v4.7h-28.3l3.2-4.6h13.6v-10.5c0-3.6-1.9-5.5-5.8-5.5c-3.1,0-5.7,1.6-7.5,4.8V765c2.5-2.2,5-3.3,7.5-3.3
						c3.3,0,5.9,0.9,8,2.6c2,1.7,3.1,4,3.1,6.9V782H512.2z"/>
					<polygon points="490.1,819.6 489.3,823.4 481.2,823.4 481.2,846.5 475.1,846.5 475.1,823.4 466.2,823.4 466.9,819.6 					"/>
					<path d="M472.1,794.4c0-1.5,1.3-2.8,2.9-2.8s2.8,1.3,2.8,2.8c0,1.6-1.3,2.9-2.8,2.9C473.5,797.2,472.1,795.9,472.1,794.4z"/>
					<path d="M467.5,791.6c1.5,0,2.8,1.3,2.8,2.8c0,1.6-1.3,2.9-2.8,2.9s-2.9-1.3-2.9-2.9C464.7,792.8,466,791.6,467.5,791.6z"/>
					<path d="M476.2,783.8c-1.9,1.9-4.4,2.8-7.6,2.8h-2.9V782h2.7c3.6,0,5.5-1.9,5.5-5.6v-13.3l5.2-1.5v15.2
						C479.1,779.6,478.1,782,476.2,783.8z"/>
					<rect x="464.4" y="782.1" width="1.3" height="4.6"/>
					<path d="M456,836.6v1.2c0,5.8-3.3,8.8-9.5,8.8h-9.2v-28h2.1c2.4,0,3.6,1,3.6,3.1v6.1h3.5C452.8,827.8,456,830.7,456,836.6z
						 M450.2,837.7v-1.2c0-3.4-1.3-5.2-3.7-5.2H443v11.6h3.1C448.8,842.9,450.2,841.1,450.2,837.7z"/>
					<path d="M437.2,791.6c1.6,0,2.9,1.3,2.9,2.9c0,1.6-1.3,2.9-2.9,2.9s-2.9-1.3-2.9-2.9C434.4,792.9,435.7,791.6,437.2,791.6z"/>
					<path d="M432.6,836.1c0,0.7-0.1,1.7-0.3,2.7h-12.1v0.2c0.2,2.2,1.8,4,4.1,4h6.4l0.7,3.6h-7.1c-5.9,0-9.9-2.6-9.9-8.8v-1.3
						c0-6,3.7-9,9.5-9S432.6,830.3,432.6,836.1z M427.1,835.4v-0.2c-0.2-2.8-1.3-4.3-3.2-4.3h-0.4c-1.3,0-2,0.7-2.6,2.1
						c-0.3,0.6-0.5,1.4-0.6,2.3v0.2L427.1,835.4L427.1,835.4z"/>
					<path d="M427.1,782h18.7c3.7,0,5.5-1.8,5.5-5.4V763l5.2-1.4v13.2c0,4.8,2.3,7.2,6.9,7.2h2.3v0.1h-1.3v4.6h-1.3
						c-3.7,0-6.5-1.4-8.1-4.1c-1.8,2.7-4.8,4.1-8.9,4.1h-19.7c-6,0-10-3.8-10-9.6v-5.6l5.2-5.3v10.4
						C421.6,780.1,423.5,782,427.1,782z"/>
					<path d="M410.3,836.1c0,0.7-0.1,1.7-0.3,2.7h-12.1v0.2c0.2,2.2,1.8,4,4.1,4h6.4l0.7,3.6H402c-5.9,0-9.9-2.6-9.9-8.8v-1.3
						c0-6,3.7-9,9.5-9C407.5,827.5,410.3,830.3,410.3,836.1z M404.8,835.4v-0.2c-0.1-2.8-1.3-4.3-3.2-4.3h-0.4c-1.3,0-2,0.7-2.6,2.1
						c-0.3,0.6-0.5,1.4-0.6,2.3v0.2L404.8,835.4L404.8,835.4z"/>
					<path d="M399.8,783.8c-1.9,1.9-4.4,2.8-7.6,2.8h-1.7V782h1.5c3.6,0,5.5-1.9,5.5-5.6v-23.8l5.3-1.6v25.9
						C402.6,779.6,401.6,782,399.8,783.8z"/>
					<rect x="388.6" y="782" width="1.8" height="4.7"/>
					<path d="M387.4,836.7v9.8h-6V838c0-4-0.4-6.7-4.5-6.7h-2.5v15.2h-5.9v-28h2.3c2.5,0,3.6,1,3.6,3.1v6.1h2.9
						C384.1,827.8,387.4,830.7,387.4,836.7z"/>
					<path d="M365.8,786.6h-10.9l2.5-4.7h5.6v-27.3l5.3-1.5V782h2.1c3.7,0,5.5-1.8,5.5-5.5V752c0.8-0.2,2.6-0.6,5.2-1.3v25.9
						c0,3.6,1.8,5.4,5.5,5.4h2v4.7h-2.3c-3.3,0-5.9-1-7.8-3c-1.9,1.9-4.5,3-7.8,3h-4.9L365.8,786.6L365.8,786.6z"/>
					<path d="M364.8,842.9l0.7,3.6h-3.1c-5.8,0-8.2-1.1-8.2-7.1v-8.1h-3.6l0.7-3.5h2.9v-5.5h2.2c2.4,0,3.7,1.1,3.7,3.2v2.3h4.6
						l-0.6,3.5h-3.9v8.5c0,2.3,0.2,3,2.5,3L364.8,842.9L364.8,842.9z"/>
					<path d="M340.1,820.4l10,26.1h-6.5l-2.2-6.9h-8.9v0.2c-0.8,2.2-1.6,4.4-2.4,6.7h-5.8l9.8-26.1c0.3-0.8,1.9-1.2,3.1-1.2
						C338.2,819.3,339.8,819.6,340.1,820.4z M340.3,835.8l-3.1-9.7l0,0c-1,3.2-2.1,6.4-3.2,9.5v0.3L340.3,835.8L340.3,835.8z"/>
					<path d="M347.6,750.9c1.6,0,2.9,1.3,2.9,2.9c0,1.6-1.3,2.9-2.9,2.9c-1.5,0-2.9-1.3-2.9-2.9
						C344.7,752.3,346.1,750.9,347.6,750.9z"/>
					<path d="M350.1,776.8c0,2.8-1,5.2-2.8,7c-1.9,1.9-4.5,2.8-7.6,2.8h-3.1V782h2.9c3.7,0,5.5-1.9,5.5-5.6v-13.3l5.2-1.5v15.2
						L350.1,776.8L350.1,776.8z"/>
					<path d="M340.2,750.9c1.5,0,2.8,1.3,2.8,2.9c0,1.6-1.3,2.9-2.8,2.9c-1.6,0-2.9-1.3-2.9-2.9
						C337.3,752.3,338.6,750.9,340.2,750.9z"/>
					<rect x="335.4" y="782.1" width="1.2" height="4.6"/>
					<path d="M311.3,821.7v24.8h-9.2c-6.3,0-9.5-3-9.5-8.8v-1.2c0-5.9,3.2-8.8,9.5-8.8h3.4v-9.2h2.3
						C310.1,818.5,311.3,819.6,311.3,821.7z M305.5,842.9v-11.6h-3.4c-2.4,0-3.7,1.8-3.7,5.2v1.2c0,3.4,1.4,5.2,4.1,5.2L305.5,842.9
						L305.5,842.9z"/>
					<path d="M306.4,772.4c-2.9,3.3-4.5,6.4-4.7,9.6h24.8c0.1-0.9,0.2-1.8,0.2-2.7c0-3.4-0.7-6.3-2-8.5c-1.7-2.7-4.2-4-7.4-4
						C313.3,766.7,309.7,768.6,306.4,772.4z M335.4,786.6h-46.9V782h5.3v-14l5.3-1.5v11.4c0.7-2.8,1.9-5.4,3.5-7.7
						c3.5-5.3,8.4-8.1,14.5-8.2c5.4-0.2,9.5,2,12.2,6.3c1.9,3.2,2.7,7.7,2.5,13.7h4.7v0.1h-1.2v4.5H335.4z"/>
					<rect x="287.3" y="782" width="1.3" height="4.7"/>
					<path d="M287.9,836.1v10.4h-9.7c-5.6,0-8-1.8-8-5.6c0-5,4-5.8,8.2-5.8h3.4V835c0-2.5-1.3-3.6-3.7-3.6H273l-0.7-3.6h6
						C284.9,827.8,287.9,830.5,287.9,836.1z M282.1,843.2v-4.8h-2.8c-2.2,0-3.5,0.3-3.5,2.5c0,2,1.2,2.3,3.2,2.3H282.1z"/>
					<path d="M283.3,782h4v4.7h-4.6c-4.7,0-7.3-2.9-7.3-7.2v-27l5.3-1.7v28.5C280.6,781.1,281.5,782,283.3,782z"/>
					<path d="M270.5,750.5v26.4c0,2.8-0.9,5.2-2.8,7c-1.9,1.9-4.4,2.8-7.5,2.8h-15.8l2.5-4.7h5.6v-27.3l5.3-1.5V782h2.1
						c3.6,0,5.5-1.8,5.5-5.5V752L270.5,750.5z"/>
					<path d="M265.8,836.7v9.8h-6V838c0-4-0.4-6.7-4.5-6.7h-2.5v15.2H247v-28h2.2c2.5,0,3.6,1,3.6,3.1v6.1h3
						C262.4,827.8,265.8,830.7,265.8,836.7z"/>
					<path d="M241.6,830.9v15.6h-6v-18.8h2.4C240.5,827.8,241.6,828.8,241.6,830.9z"/>
					<path d="M238.6,819.1c2.1,0,3.2,1,3.2,3.1c0,2.2-1,3.2-3.2,3.2s-3.3-1-3.3-3.2C235.3,820.1,236.4,819.1,238.6,819.1z"/>
					<path d="M239.6,761.6V777c0,5.9-3.9,9.6-10.5,9.6h-19.7c-6,0-10-3.8-10-9.6v-5.6l5.2-5.3v10.4c0,3.6,1.8,5.4,5.5,5.4h18.7
						c3.7,0,5.6-1.8,5.6-5.4V763L239.6,761.6z"/>
					<path d="M231.8,842.9l0.7,3.6h-3.1c-5.8,0-8.3-1.1-8.3-7.1v-8.1h-3.6l0.7-3.5h2.9v-5.5h2.2c2.4,0,3.7,1.1,3.7,3.2v2.3h4.6
						l-0.6,3.5h-4v8.5c0,2.3,0.2,3,2.5,3L231.8,842.9L231.8,842.9z"/>
					<path d="M223.3,759.4c1.5,0,2.9,1.3,2.9,2.9c0,1.6-1.3,2.9-2.9,2.9c-1.5,0-2.9-1.3-2.9-2.9
						C220.4,760.7,221.7,759.4,223.3,759.4z"/>
					<path d="M215.8,759.4c1.6,0,2.9,1.3,2.9,2.9c0,1.6-1.3,2.9-2.9,2.9c-1.5,0-2.8-1.3-2.8-2.9S214.2,759.4,215.8,759.4z"/>
					<path d="M216.2,819.6l-0.7,3.8H204v6.7h8.6l-0.7,3.9H204v4.1c0,3.6,0.6,4.7,4.4,4.7h7.1l0.7,3.8h-8.1c-8.9,0-10.3-2.5-10.3-8.5
						v-18.4L216.2,819.6L216.2,819.6z"/>
				</g>
			</g>
		</g>
	</g>
</g>
</svg>
