<?xml version="1.0" encoding="UTF-8"?>
<svg xmlns="http://www.w3.org/2000/svg" version="1.1" viewBox="187 354.7 626 290.6">
  <defs>
    <style>
      .cls-1 {
        fill: #4a4a4a;
      }

      .cls-2 {
        fill: #f8e852;
      }
    </style>
  </defs>
  <!-- Generator: Adobe Illustrator 28.8.0, SVG Export Plug-In . SVG Version: 1.2.0 Build 19)  -->
  <g>
    <g id="Layer_2">
      <g>
        <rect class="cls-2" x="187" y="354.7" width="626" height="290.6"/>
        <g>
          <path class="cls-1" d="M767.7,421.3v17.6c0,9.3-7.6,17-16.9,17h-86.3l-.6-17.7c-.5-15.9-13.4-28.2-29.3-28.2s-29.3,13.1-29.3,29.3v.4c0,16.1,13.1,29.3,29.3,29.3h17c-1.3,12.9-12.2,23-25.5,23v13c20.4,0,37.2-15.9,38.5-36h86.1c16.5,0,29.9-13.4,29.9-29.9v-17.6h-12.9ZM648.9,455.8h-14.2c-9,0-16.3-7.3-16.3-16.3v-.4c0-9,7.3-16.3,16.3-16.3s16,6.9,16.3,15.7l.6,17.2h-2.7Z"/>
          <path class="cls-1" d="M580.8,421.3h-13v27.8c0,13.6-11,24.6-24.6,24.6s-24.6-11-24.6-24.6v-27.8h-13v27.8c0,20.7,16.9,37.6,37.6,37.6s37.6-16.9,37.6-37.6v-27.8Z"/>
          <circle class="cls-1" cx="543.2" cy="400.1" r="7" transform="translate(-77.4 135.5) rotate(-13.3)"/>
          <circle class="cls-1" cx="751.5" cy="400.1" r="7"/>
          <path class="cls-1" d="M404.3,410.3l-19.2,33c16.3,14.3,27,33.9,27,57.3,0,43.3-35,78.3-78.3,78.3s-79.6-35-79.6-78.3.5-10.9,1.7-16.3l-36.5,21.4c0,58.3,48.7,109.6,114.4,109.6s114.6-51.3,114.6-114.6c0-36.7-17.2-69.3-44-90.3Z"/>
          <path class="cls-1" d="M348.7,424.1l19.4-33.3s-16.7-9.6-48.7-4.1l-24.4,42.6c0,0,20.4-13.5,53.7-5.2Z"/>
          <path class="cls-1" d="M605.2,526.9c-14.2,0-25.7,12-25.7,26.7s11.5,26.7,25.7,26.7,25.7-12,25.7-26.7-11.5-26.7-25.7-26.7ZM605.2,567.6c-7,0-12.7-6.3-12.7-14s5.7-14,12.7-14,12.7,6.3,12.7,14-5.7,14-12.7,14Z"/>
          <path class="cls-1" d="M681.4,526.9c-14.2,0-25.7,12-25.7,26.7s11.5,26.7,25.7,26.7,25.7-12,25.7-26.7-11.5-26.7-25.7-26.7ZM681.4,567.6c-7,0-12.7-6.3-12.7-14s5.7-14,12.7-14,12.7,6.3,12.7,14-5.7,14-12.7,14Z"/>
          <path class="cls-1" d="M760.5,526.9c-9.7,0-15.2,5.2-15.2,5.2l-1.3-4h-10v51.1h12.8v-28.6c0-10.9,11.7-10.9,11.7-10.9,8.8,0,9.2,9.5,9.2,9.5v30.2h12.6v-32.7c-1.5-20.6-19.9-19.7-19.9-19.7Z"/>
          <path class="cls-1" d="M532,526.9c-9.7,0-15.2,5.2-15.2,5.2l-1.3-4h-10v51.1h12.8v-28.6c0-10.9,11.7-10.9,11.7-10.9,8.8,0,9.2,9.5,9.2,9.5v30.2h12.6v-32.7c-1.6-20.6-19.9-19.7-19.9-19.7Z"/>
        </g>
      </g>
    </g>
  </g>
</svg>