<?xml version="1.0" encoding="utf-8"?>
<!-- Generator: Adobe Illustrator 22.0.1, SVG Export Plug-In . SVG Version: 6.00 Build 0)  -->
<svg version="1.1" id="Layer_1" xmlns="http://www.w3.org/2000/svg" xmlns:xlink="http://www.w3.org/1999/xlink" x="0px" y="0px"
	 viewBox="101.9 437.7 798.3 124.8" style="enable-background:new 0 0 1000 1000;" xml:space="preserve">
<style type="text/css">
	.st0{fill:#EC1C24;}
	.st1{fill:#FFFFFF;}
</style>
<g>
	<path class="st0" d="M164.3,437.7c-34.4,0-62.4,27.9-62.4,62.4c0,34.4,27.9,62.4,62.4,62.4c34.4,0,62.4-27.9,62.4-62.4
		C226.6,465.6,198.7,437.7,164.3,437.7"/>
	<path class="st1" d="M186.7,477.6c-2.8-2.9-6.2-5.2-10-6.8c-3.8-1.7-8-2.5-12.4-2.5c-4.4,0-8.6,0.8-12.4,2.5c-3.8,1.7-7.2,4-10,6.8
		c-2.8,2.9-5.1,6.3-6.8,10.1c-1.7,3.8-2.5,8-2.5,12.4c0,4.4,0.8,8.6,2.5,12.4c1.7,3.8,3.9,7.2,6.8,10c2.8,2.8,6.2,5.1,10,6.8
		c3.8,1.7,8,2.5,12.4,2.5c4.4,0,8.6-0.8,12.4-2.5c3.8-1.7,7.2-3.9,10-6.8c2.8-2.8,5.1-6.2,6.8-10c1.7-3.8,2.5-8,2.5-12.4
		c0-4.4-0.8-8.6-2.5-12.4C191.8,483.9,189.6,480.5,186.7,477.6 M181.8,507.5c-1,2.3-2.4,4.4-4.1,6.1c-1.7,1.7-3.7,3.1-6,4.1
		c-2.3,1-4.8,1.5-7.4,1.5c-2.6,0-5.1-0.5-7.4-1.5c-2.3-1-4.3-2.4-6-4.1c-1.7-1.7-3.1-3.8-4.1-6.1c-1-2.3-1.5-4.8-1.5-7.4
		c0-2.6,0.5-5.1,1.5-7.4c1-2.3,2.4-4.4,4.1-6.1c1.7-1.7,3.7-3.1,6-4.1c2.3-1,4.8-1.5,7.4-1.5c2.6,0,5.1,0.5,7.4,1.5
		c2.3,1,4.3,2.4,6,4.1c1.7,1.7,3.1,3.7,4.1,6.1C183.9,497.3,183.9,502.9,181.8,507.5"/>
	<path class="st0" d="M276.5,437.7c-34.4,0-62.4,27.9-62.4,62.4c0,34.4,27.9,62.4,62.4,62.4c34.4,0,62.4-27.9,62.4-62.4
		C338.9,465.6,311,437.7,276.5,437.7"/>
	<path class="st1" d="M299,477.6c-2.8-2.9-6.2-5.2-10-6.8c-3.8-1.7-8-2.5-12.4-2.5c-4.4,0-8.6,0.8-12.4,2.5c-3.8,1.7-7.2,4-10,6.8
		c-2.8,2.9-5.1,6.3-6.8,10.1c-1.7,3.8-2.5,8-2.5,12.4c0,4.4,0.8,8.6,2.5,12.4c1.7,3.8,3.9,7.2,6.8,10c2.8,2.8,6.2,5.1,10,6.8
		c3.8,1.7,8,2.5,12.4,2.5c4.4,0,8.6-0.8,12.4-2.5c3.8-1.7,7.2-3.9,10-6.8c2.8-2.8,5.1-6.2,6.8-10c1.7-3.8,2.5-8,2.5-12.4
		c0-4.4-0.8-8.6-2.5-12.4C304.1,483.9,301.8,480.5,299,477.6 M294.1,507.5c-1,2.3-2.4,4.4-4.1,6.1c-1.7,1.7-3.7,3.1-6,4.1
		c-2.3,1-4.8,1.5-7.4,1.5c-2.6,0-5.1-0.5-7.4-1.5c-2.3-1-4.3-2.4-6-4.1c-1.7-1.7-3.1-3.8-4.1-6.1c-1-2.3-1.5-4.8-1.5-7.4
		c0-2.6,0.5-5.1,1.5-7.4c1-2.3,2.4-4.4,4.1-6.1c1.7-1.7,3.7-3.1,6-4.1c2.3-1,4.8-1.5,7.4-1.5c2.6,0,5.1,0.5,7.4,1.5
		c2.3,1,4.3,2.4,6,4.1c1.7,1.7,3.1,3.7,4.1,6.1C296.1,497.3,296.1,502.9,294.1,507.5"/>
	<path class="st0" d="M725.6,437.7c-34.4,0-62.4,27.9-62.4,62.4c0,34.4,27.9,62.4,62.4,62.4c34.4,0,62.4-27.9,62.4-62.4
		C787.9,465.6,760,437.7,725.6,437.7"/>
	<path class="st1" d="M748,477.6c-2.8-2.9-6.2-5.2-10-6.8c-3.8-1.7-8-2.5-12.4-2.5c-4.4,0-8.6,0.8-12.4,2.5c-3.8,1.7-7.2,4-10,6.8
		c-2.8,2.9-5.1,6.3-6.8,10.1c-1.7,3.8-2.5,8-2.5,12.4c0,4.4,0.8,8.6,2.5,12.4c1.7,3.8,3.9,7.2,6.8,10c2.8,2.8,6.2,5.1,10,6.8
		c3.8,1.7,8,2.5,12.4,2.5c4.4,0,8.6-0.8,12.4-2.5c3.8-1.7,7.2-3.9,10-6.8c2.8-2.8,5.1-6.2,6.8-10c1.7-3.8,2.5-8,2.5-12.4
		c0-4.4-0.8-8.6-2.5-12.4C753.1,483.9,750.9,480.5,748,477.6 M743.1,507.5c-1,2.3-2.4,4.4-4.1,6.1c-1.7,1.7-3.7,3.1-6,4.1
		c-2.3,1-4.8,1.5-7.4,1.5c-2.6,0-5.1-0.5-7.4-1.5c-2.3-1-4.3-2.4-6-4.1s-3.1-3.8-4.1-6.1c-1-2.3-1.5-4.8-1.5-7.4
		c0-2.6,0.5-5.1,1.5-7.4c1-2.3,2.4-4.4,4.1-6.1c1.7-1.7,3.7-3.1,6-4.1c2.3-1,4.8-1.5,7.4-1.5c2.6,0,5.1,0.5,7.4,1.5
		c2.3,1,4.3,2.4,6,4.1c1.7,1.7,3.1,3.7,4.1,6.1C745.2,497.3,745.2,502.9,743.1,507.5"/>
	<path class="st0" d="M837.8,437.7c-34.4,0-62.4,27.9-62.4,62.4c0,34.4,27.9,62.4,62.4,62.4c34.4,0,62.4-27.9,62.4-62.4
		C900.2,465.6,872.3,437.7,837.8,437.7"/>
	<path class="st1" d="M860.3,477.6c-2.8-2.9-6.2-5.2-10-6.8c-3.8-1.7-8-2.5-12.4-2.5c-4.4,0-8.6,0.8-12.4,2.5c-3.8,1.7-7.2,4-10,6.8
		c-2.8,2.9-5.1,6.3-6.8,10.1c-1.7,3.8-2.5,8-2.5,12.4c0,4.4,0.8,8.6,2.5,12.4c1.7,3.8,3.9,7.2,6.8,10c2.8,2.8,6.2,5.1,10,6.8
		c3.8,1.7,8,2.5,12.4,2.5c4.4,0,8.6-0.8,12.4-2.5c3.8-1.7,7.2-3.9,10-6.8c2.8-2.8,5.1-6.2,6.8-10s2.5-8,2.5-12.4
		c0-4.4-0.8-8.6-2.5-12.4S863.1,480.5,860.3,477.6 M855.4,507.5c-1,2.3-2.4,4.4-4.1,6.1c-1.7,1.7-3.7,3.1-6,4.1
		c-2.3,1-4.8,1.5-7.4,1.5c-2.6,0-5.1-0.5-7.4-1.5c-2.3-1-4.3-2.4-6-4.1s-3.1-3.8-4.1-6.1c-1-2.3-1.5-4.8-1.5-7.4
		c0-2.6,0.5-5.1,1.5-7.4c1-2.3,2.4-4.4,4.1-6.1c1.7-1.7,3.7-3.1,6-4.1c2.3-1,4.8-1.5,7.4-1.5c2.6,0,5.1,0.5,7.4,1.5
		c2.3,1,4.3,2.4,6,4.1c1.7,1.7,3.1,3.7,4.1,6.1C857.4,497.3,857.4,502.9,855.4,507.5"/>
	<path class="st0" d="M388.8,437.7c-34.4,0-62.4,27.9-62.4,62.4c0,34.4,27.9,62.4,62.4,62.4c34.4,0,62.4-27.9,62.4-62.4
		C451.2,465.6,423.2,437.7,388.8,437.7"/>
	<path class="st1" d="M402.3,486.4c1.7,1.7,3.1,3.7,4.1,6.1c0.6,1.3,1,2.7,1.2,4.1h12.8c-0.3-3.2-1.1-6.2-2.3-9.1
		c-1.7-3.8-3.9-7.2-6.8-10c-2.8-2.8-6.2-5.1-10-6.8c-3.8-1.7-8-2.5-12.4-2.5s-8.6,0.8-12.4,2.5c-3.8,1.6-7.2,3.9-10.1,6.7
		c-2.9,2.8-5.1,6.2-6.8,10c-1.6,3.8-2.5,8-2.5,12.6V530h12.7v-6.1V499h0c0.1-2.3,0.6-4.5,1.5-6.5c1-2.3,2.4-4.3,4.1-6.1
		c1.7-1.7,3.7-3.1,6-4.1c4.6-2,10.2-2,14.8,0C398.6,483.3,400.6,484.7,402.3,486.4"/>
	<path class="st0" d="M501.1,437.7c-34.4,0-62.4,27.9-62.4,62.4c0,34.4,27.9,62.4,62.4,62.4c34.4,0,62.4-27.9,62.4-62.4
		C563.4,465.6,535.5,437.7,501.1,437.7"/>
	<path class="st1" d="M530.5,488.3c-1.5-3.9-3.7-7.4-6.4-10.4c-2.7-3-6-5.4-9.9-7.2c-3.9-1.8-8.3-2.7-13.2-2.7
		c-4.4,0-8.6,0.8-12.4,2.5c-3.8,1.7-7.2,3.9-10.1,6.8c-2.8,2.8-5.1,6.2-6.8,10c-1.6,3.8-2.5,8-2.5,12.4c0,4.4,0.8,8.6,2.5,12.4
		c1.7,3.8,3.9,7.2,6.8,10c2.8,2.8,6.2,5.1,10.1,6.8c3.8,1.7,8,2.5,12.4,2.5c3.3,0,6.5-0.5,9.8-1.3c3.2-0.9,6.2-2.3,9-4.3
		c2.8-1.9,5.3-4.5,7.5-7.6c2-2.9,3.7-6.5,5-10.6h-14c-1.4,3.3-3.6,6-6.5,8c-3,2.1-6.7,3.1-10.9,3.1c-2.5,0-4.9-0.5-7.2-1.4
		c-2.3-0.9-4.3-2.2-6-3.8c-1.7-1.6-3.1-3.6-4.2-5.7c-1.1-2.2-1.6-4.6-1.7-7.1l0-0.6h50.9C532.7,496.1,531.9,492.1,530.5,488.3
		 M484.2,489.4l0.5-0.9c3.1-5.1,8.6-7.7,16.4-8h0c7.6,0.1,13.1,2.8,16.2,8l0.5,0.8H484.2z"/>
	<path class="st0" d="M613.3,437.7c6.7,0,13.1,1.1,19.1,3v34.9l-0.9-0.9c-1-0.9-2.2-1.8-3.6-2.6c-1.4-0.8-2.9-1.5-4.5-2.2
		c-1.6-0.6-3.3-1.1-5-1.5c-1.7-0.4-3.4-0.6-5.1-0.6c-4.4,0-8.6,0.8-12.4,2.5c-3.8,1.7-7.2,3.9-10,6.8c-2.8,2.8-5.1,6.2-6.8,10
		c-1.7,3.8-2.5,8-2.5,12.4s0.8,8.6,2.5,12.4c1.7,3.8,3.9,7.2,6.8,10c2.8,2.8,6.2,5.1,10,6.8c3.8,1.7,8,2.5,12.4,2.5
		c4.4,0,8.6-0.8,12.4-2.5c3.8-1.6,7.2-3.9,10.1-6.7c2.9-2.8,5.1-6.2,6.8-10c1.6-3.8,2.5-8.1,2.5-12.6v-53.2
		c18.3,10.9,30.6,30.8,30.6,53.7c0,34.4-27.9,62.4-62.4,62.4c-34.4,0-62.4-27.9-62.4-62.4C551,465.6,578.9,437.7,613.3,437.7"/>
	<path class="st0" d="M626.8,513.1c-1.7,1.7-3.7,3.1-6.1,4.1c-2.3,1-4.8,1.5-7.4,1.5s-5.1-0.5-7.4-1.5c-2.3-1-4.3-2.4-6-4.1
		c-1.7-1.7-3.1-3.7-4.1-6.1c-1-2.3-1.5-4.8-1.5-7.4c0-2.6,0.5-5.1,1.5-7.4c1-2.3,2.4-4.3,4.1-6.1c1.7-1.7,3.7-3.1,6-4.1
		c4.6-2,10.2-2,14.8,0c2.3,1,4.4,2.4,6.1,4.1c1.7,1.7,3.1,3.7,4.1,6.1c1,2.3,1.5,4.8,1.5,7.4c0,2.6-0.5,5.1-1.5,7.4
		C629.9,509.3,628.5,511.4,626.8,513.1"/>
	<path class="st1" d="M645.1,499.6v-53.2c-4-2.3-8.2-4.3-12.7-5.7v34.9l-0.9-0.9c-1-0.9-2.2-1.8-3.6-2.6c-1.4-0.8-2.9-1.5-4.5-2.2
		c-1.6-0.6-3.3-1.1-5-1.5c-1.7-0.4-3.4-0.6-5.1-0.6c-4.4,0-8.6,0.8-12.4,2.5c-3.8,1.7-7.2,3.9-10,6.8c-2.8,2.8-5.1,6.2-6.8,10
		c-1.7,3.8-2.5,8-2.5,12.4c0,4.4,0.8,8.6,2.5,12.4c1.7,3.8,3.9,7.2,6.8,10c2.8,2.8,6.2,5.1,10,6.8c3.8,1.7,8,2.5,12.4,2.5
		c4.4,0,8.6-0.8,12.4-2.4c3.8-1.6,7.2-3.9,10.1-6.7c2.9-2.8,5.1-6.2,6.8-10C644.2,508.3,645.1,504.1,645.1,499.6 M632.4,499.6
		c0,2.6-0.5,5.1-1.5,7.4c-1,2.3-2.4,4.3-4.1,6.1c-1.7,1.7-3.7,3.1-6,4.1c-2.3,1-4.8,1.5-7.4,1.5c-2.6,0-5.1-0.5-7.4-1.5
		c-2.3-1-4.3-2.4-6.1-4.1c-1.7-1.7-3.1-3.7-4.1-6.1c-1-2.3-1.5-4.8-1.5-7.4c0-2.6,0.5-5.1,1.5-7.4c1-2.3,2.4-4.3,4.1-6
		c1.7-1.7,3.7-3.1,6.1-4.1c4.6-2,10.2-2,14.8,0c2.3,1,4.3,2.4,6,4.1c1.7,1.7,3.1,3.7,4.1,6C631.9,494.5,632.4,497,632.4,499.6"/>
</g>
</svg>
