<?xml version="1.0" encoding="UTF-8"?>
<svg xmlns="http://www.w3.org/2000/svg" version="1.1" viewBox="247 246.3 506 507.3">
  <defs>
    <style>
      .cls-1 {
        fill: #ec702d;
      }

      .cls-2 {
        fill: #fff;
      }

      .cls-3 {
        fill: #f7d9c1;
      }
    </style>
  </defs>
  <!-- Generator: Adobe Illustrator 28.7.0, SVG Export Plug-In . SVG Version: 1.2.0 Build 23)  -->
  <g>
    <g id="Layer_2">
      <g id="surface1">
        <path class="cls-1" d="M247,246.3h505.6c0,169,0,337.9,0,506.9-168.5,0-337,0-505.6,0V246.3M684.7,613c0,1.1,0,2.2,0,3.2,2.4,0,4.8,0,7.3,0,0,6.7,0,13.4,0,20.2,1.3,0,2.6,0,4,0,0-6.7,0-13.4,0-20.2,2.4,0,4.9,0,7.3,0,0-1.1,0-2.1,0-3.2-6.2,0-12.3,0-18.5,0M707.8,613c0,7.8,0,15.6,0,23.4h3.9c0-6.4,0-12.8,0-19.2,2.6,6.3,5,12.8,7.6,19.2.8,0,1.7,0,2.6,0,2.5-6.4,5-12.9,7.6-19.2,0,6.4,0,12.8,0,19.2,1.3,0,2.6,0,3.9,0,0-7.8,0-15.6,0-23.4-2,0-4,0-6,0-2.2,5.9-4.5,11.7-6.8,17.5-2.3-5.9-4.6-11.7-6.9-17.6-2,0-4,0-6,0M307,637.9c-9.8.4-19.7,4.9-25.6,13-5,6.8-7.1,15.4-7,23.8-.2,7.9,1.4,16,5.6,22.7,3.4,5.5,8.6,9.8,14.6,12.3,7.2,2.9,15.3,3.5,23,1.9,7.1-1.5,13.8-5.2,18.4-10.8,4.2-5,6.6-11.2,7.5-17.6,1.1-7.4.8-15.1-1.4-22.2-2-6.7-6.2-12.8-12-16.9-6.7-4.7-15-6.6-23.1-6.2M374.4,647.9c0-2.7,0-5.5,0-8.2-5.9,0-11.8,0-17.7,0,0,23.6,0,47.1,0,70.7,6.3,0,12.6,0,18.9,0,0-15.6,0-31.3,0-46.9.8-2.3,2.9-4,5-5.1,4.8-2.3,10.3-2.5,15.5-2.5,0-5.8,0-11.7,0-17.5-8.3-.8-16.5,3.3-21.8,9.5M420.7,640.3c-6.4,2.1-12.2,6.2-16,11.8,4.2,2.4,8.4,4.8,12.6,7.2,3.6-4.5,8.9-7.5,14.6-8,4.1-.4,9-.1,12,3.2,2.1,2.4,1.5,5.7,1.5,8.6-9.6,1.1-19.4,2.7-28.4,6.5-5.1,2.2-10,5.4-13,10.1-3.3,5.4-3.7,12.2-1.8,18.2,1.5,4.9,5.2,9.1,9.8,11.2,5.4,2.5,11.5,2.4,17.2,1.5,5.7-1,11.2-3.2,16-6.4.5,2,1.1,4.1,1.6,6.1,5.5,0,11,0,16.6,0-.2-16.3,0-32.7,0-49,.3-4.8-.6-9.9-3.6-13.8-3.9-5.2-10.4-7.7-16.7-8.7-7.4-1.1-15.2-.9-22.4,1.4M512.9,638.8c-6.6,1.4-12.4,5.1-17.8,9-.5-2.8-1.2-5.5-1.7-8.3-5.2.7-10.3,1.4-15.5,2.1,0,22.9,0,45.8,0,68.7,6.2,0,12.3,0,18.5,0v-50.6c4.4-3.6,9.4-7,15.1-7.7,2.9-.3,6.3-.2,8.4,2.1,2.1,2.4,2.4,5.8,2.5,8.9,0,15.7,0,31.5,0,47.2,6.2,0,12.4,0,18.6,0v-50.2c0-3.4-.5-6.7-1.7-9.9-1.5-4.3-4.6-7.9-8.8-9.8-5.5-2.5-11.9-2.7-17.8-1.6M561.3,649.1c-5.7,7.7-7.7,17.5-7.5,26.9,0,8.6,2,17.6,7.4,24.4,4.3,5.6,11,9,18,9.7,5.1.5,10.5.3,15-2.3,3.2-1.8,5.4-4.7,7.2-7.7.1,3,0,6,0,8.9-.1,3.9-.7,8.2-3.4,11.3-2.5,2.8-6.4,3.7-9.9,3.7-3.8,0-7.8,0-11.1-2.2-1.6-1-2.5-2.9-2.9-4.7-6.1,1-12.2,2-18.4,3,1.1,5.7,5.1,10.6,10.1,13.3,7.9,4.4,17.2,4.9,26,4,7.6-.8,15.7-2.9,21.1-8.7,4.9-5.1,6.4-12.5,6.5-19.3v-70c-5.3,0-10.5,0-15.8,0-.4,2.6-.9,5.2-1.4,7.8-1.6-3.4-4.8-5.7-8.2-7.1-4.5-1.8-9.4-2.3-14.2-2-7.4.6-14.4,4.8-18.7,10.8M638.8,648.5c-5.1,6.1-7.4,14.1-8,21.9-.5,8.5.3,17.4,4.1,25.2,3,6,8.2,11,14.5,13.5,8.1,3.3,17.1,3.2,25.5,1.4,8.2-1.8,16-6.7,20.1-14.2-4.6-2.5-9.1-5-13.7-7.6-2,2.9-4.5,5.7-7.7,7.3-3.6,1.8-7.9,2.1-11.8,1.5-3.8-.6-7.5-2.7-9.6-6-2.6-4.1-3.3-9-3.3-13.7,15.6,0,31.2,0,46.8,0,.5-6.2,0-12.6-1.9-18.6-2-6.5-6-12.5-11.7-16.2-7.1-4.6-15.9-5.6-24.1-4.6-7.4.9-14.5,4.3-19.3,10.1Z"/>
        <path class="cls-1" d="M653.3,655c2.3-2.6,5.6-3.9,9-4.1,4.3-.3,8.9.9,11.9,4.2,2.6,2.9,3.4,6.8,3.5,10.6-9.5,0-18.9,0-28.4,0,.3-3.8,1.4-7.8,4-10.7Z"/>
        <path class="cls-1" d="M584,651.7c4.4-.8,9.1.6,12.2,3.8,3.6,3.7,5.1,9,5.4,14.1.1,3.7,0,7.5-.6,11.1-.7,3.9-2,7.8-4.8,10.7-2.5,2.6-6.2,3.8-9.8,3.7-3.3.1-6.8-1-9.1-3.5-3.1-3.2-4.1-7.8-4.6-12-.4-4.4-.5-8.8,0-13.1.5-3.8,1.7-7.7,4.3-10.7,1.8-2.1,4.3-3.6,7-4.1Z"/>
        <path class="cls-1" d="M306.2,653.9c4.5-.7,9.6,0,13.1,3.2,3.3,2.9,4.9,7.2,5.7,11.4.8,4.8.7,9.6-.2,14.4-.8,4.1-2.7,8.3-6.1,10.9-3.8,2.9-9,3.4-13.6,2.4-3.7-.8-7.1-3.2-9-6.5-2.8-4.8-3.4-10.5-3.2-15.9.2-4.9,1-10,3.8-14.1,2.2-3.2,5.7-5.3,9.5-5.8Z"/>
        <path class="cls-1" d="M428.3,678.3c5.3-2.2,11-3.2,16.6-3.9,0,5.5,0,11,0,16.5-4.7,4.2-10.7,7.6-17.2,7.4-2.2,0-4.3-.9-5.8-2.5-2.8-3.2-3.2-8.2-1-11.8,1.6-2.8,4.5-4.6,7.4-5.8Z"/>
        <path class="cls-3" d="M752.6,246.3h.4v507.3H247v-.4c168.5,0,337,0,505.6,0,0-169,0-337.9,0-506.9Z"/>
        <path class="cls-2" d="M684.7,613c6.2,0,12.3,0,18.5,0,0,1.1,0,2.1,0,3.2-2.4,0-4.9,0-7.3,0,0,6.7,0,13.4,0,20.2-1.3,0-2.6,0-4,0,0-6.7,0-13.5,0-20.2-2.4,0-4.8,0-7.3,0,0-1.1,0-2.2,0-3.2Z"/>
        <path class="cls-2" d="M707.8,613c2,0,4,0,6,0,2.3,5.9,4.6,11.7,6.9,17.6,2.3-5.8,4.5-11.7,6.8-17.5,2,0,4,0,6,0,0,7.8,0,15.6,0,23.4-1.3,0-2.6,0-3.9,0,0-6.4,0-12.8,0-19.2-2.6,6.4-5,12.8-7.6,19.2-.9,0-1.7,0-2.6,0-2.5-6.4-4.9-12.8-7.6-19.2,0,6.4,0,12.8,0,19.2h-3.9c0-7.8,0-15.6,0-23.4Z"/>
        <path class="cls-2" d="M307,637.9c8.1-.4,16.5,1.4,23.1,6.2,5.8,4,9.9,10.2,12,16.9,2.2,7.2,2.5,14.8,1.4,22.2-1,6.4-3.4,12.6-7.5,17.6-4.6,5.6-11.3,9.3-18.4,10.8-7.6,1.6-15.7,1-23-1.9-6-2.4-11.2-6.8-14.6-12.3-4.2-6.7-5.8-14.9-5.6-22.7,0-8.4,2-17,7-23.8,5.9-8.1,15.8-12.6,25.6-13M306.2,653.9c-3.8.5-7.4,2.6-9.5,5.8-2.8,4.1-3.6,9.2-3.8,14.1-.1,5.4.5,11.1,3.2,15.9,1.9,3.3,5.2,5.7,9,6.5,4.6.9,9.7.4,13.6-2.4,3.4-2.6,5.3-6.8,6.1-10.9.9-4.7,1-9.6.2-14.4-.7-4.2-2.3-8.6-5.7-11.4-3.5-3.1-8.6-3.9-13.1-3.2Z"/>
        <path class="cls-2" d="M374.4,647.9c5.3-6.2,13.6-10.3,21.8-9.5,0,5.8,0,11.7,0,17.5-5.2,0-10.7.2-15.5,2.5-2.1,1.1-4.2,2.8-5,5.1,0,15.6,0,31.3,0,46.9-6.3,0-12.6,0-18.9,0,0-23.6,0-47.1,0-70.7,5.9,0,11.8,0,17.7,0,0,2.7,0,5.5,0,8.2Z"/>
        <path class="cls-2" d="M420.7,640.3c7.2-2.3,15-2.5,22.4-1.4,6.3,1,12.8,3.5,16.7,8.7,3,3.9,3.9,9,3.6,13.8,0,16.3-.1,32.7,0,49-5.5,0-11,0-16.6,0-.5-2-1.1-4.1-1.6-6.1-4.8,3.2-10.3,5.4-16,6.4-5.7.9-11.9,1-17.2-1.5-4.7-2.1-8.3-6.3-9.8-11.2-1.9-6-1.5-12.8,1.8-18.2,3-4.8,7.9-7.9,13-10.1,9-3.8,18.7-5.4,28.4-6.5,0-2.9.5-6.2-1.5-8.6-2.9-3.3-7.9-3.5-12-3.2-5.7.5-11,3.5-14.6,8-4.2-2.4-8.4-4.8-12.6-7.2,3.9-5.6,9.6-9.7,16-11.8M428.3,678.3c-2.9,1.3-5.8,3-7.4,5.8-2.2,3.6-1.8,8.7,1,11.8,1.5,1.6,3.6,2.5,5.8,2.5,6.5.1,12.5-3.2,17.2-7.4,0-5.5,0-11,0-16.5-5.6.7-11.3,1.7-16.6,3.9Z"/>
        <path class="cls-2" d="M512.9,638.8c5.9-1.1,12.3-.9,17.8,1.6,4.1,1.9,7.3,5.5,8.8,9.8,1.2,3.2,1.6,6.5,1.7,9.9v50.2c-6.2,0-12.4,0-18.6,0,0-15.7,0-31.5,0-47.2,0-3.1-.4-6.5-2.5-8.9-2.1-2.3-5.5-2.5-8.4-2.1-5.8.7-10.8,4-15.1,7.7v50.6c-6.2,0-12.3,0-18.5,0,0-22.9,0-45.8,0-68.7,5.2-.7,10.3-1.4,15.5-2.1.5,2.8,1.1,5.5,1.7,8.3,5.4-3.9,11.2-7.6,17.8-9Z"/>
        <path class="cls-2" d="M561.3,649.1c4.4-6,11.3-10.2,18.7-10.8,4.8-.3,9.7.2,14.2,2,3.4,1.4,6.6,3.7,8.2,7.1.5-2.6,1-5.2,1.4-7.8,5.2-.1,10.5,0,15.8,0v70c-.1,6.9-1.6,14.2-6.5,19.3-5.4,5.7-13.5,7.9-21.1,8.7-8.8.8-18.1.4-26-4-5-2.7-9-7.6-10.1-13.3,6.1-1,12.2-2,18.4-3,.5,1.8,1.3,3.6,2.9,4.7,3.3,2.1,7.3,2.3,11.1,2.2,3.6,0,7.5-1,9.9-3.7,2.7-3.1,3.3-7.3,3.4-11.3,0-3,0-6,0-8.9-1.9,3-4.1,6-7.2,7.7-4.5,2.6-10,2.8-15,2.3-6.9-.7-13.7-4.2-18-9.7-5.4-6.8-7.3-15.8-7.4-24.4-.2-9.4,1.8-19.2,7.5-26.9M584,651.7c-2.7.5-5.2,2-7,4.1-2.6,3-3.7,6.9-4.3,10.7-.6,4.4-.5,8.8,0,13.1.5,4.3,1.5,8.8,4.6,12,2.3,2.5,5.8,3.6,9.1,3.5,3.6,0,7.3-1.1,9.8-3.7,2.8-2.9,4.1-6.8,4.8-10.7.6-3.7.7-7.4.6-11.1-.3-5.1-1.8-10.4-5.4-14.1-3.1-3.2-7.8-4.6-12.2-3.8Z"/>
        <path class="cls-2" d="M638.8,648.5c4.8-5.8,11.9-9.2,19.3-10.1,8.2-1,17,0,24.1,4.6,5.8,3.7,9.8,9.7,11.7,16.2,1.8,6,2.4,12.3,1.9,18.6-15.6,0-31.2,0-46.8,0,0,4.7.7,9.7,3.3,13.7,2.1,3.3,5.7,5.4,9.6,6,4,.6,8.2.3,11.8-1.5,3.2-1.6,5.7-4.4,7.7-7.3,4.5,2.5,9.1,5.1,13.7,7.6-4.2,7.4-11.9,12.4-20.1,14.2-8.4,1.8-17.4,1.8-25.5-1.4-6.3-2.5-11.5-7.4-14.5-13.5-3.9-7.7-4.7-16.6-4.1-25.2.6-7.8,2.8-15.8,8-21.9M653.3,655c-2.6,2.9-3.7,6.9-4,10.7,9.5,0,18.9,0,28.4,0,0-3.8-1-7.7-3.5-10.6-2.9-3.3-7.6-4.5-11.9-4.2-3.4.2-6.7,1.6-9,4.1Z"/>
      </g>
    </g>
  </g>
</svg>