<?xml version="1.0" encoding="utf-8"?>
<!-- Generator: Adobe Illustrator 28.0.0, SVG Export Plug-In . SVG Version: 6.00 Build 0)  -->
<svg version="1.1" id="Layer_1" xmlns="http://www.w3.org/2000/svg" xmlns:xlink="http://www.w3.org/1999/xlink" x="0px" y="0px"
	 viewBox="213.2 241.5 517.1 517.1" style="enable-background:new 0 0 1000 1000;" xml:space="preserve">
<style type="text/css">
	.st0{clip-path:url(#SVGID_00000142168688522820361870000001272027953807176095_);}
	.st1{fill:url(#SVGID_00000074408581952536409140000016277211270082572689_);}
	.st2{fill:#FFFFFF;}
</style>
<g>
	<defs>
		<path id="SVGID_1_" d="M327.93,242.76h287.66c62.63,0,113.41,50.77,113.41,113.41v287.66c0,62.63-50.77,113.41-113.41,113.41
			H327.93c-62.63,0-113.41-50.77-113.41-113.41V356.17C214.53,293.54,265.3,242.76,327.93,242.76z"/>
	</defs>
	<clipPath id="SVGID_00000067952594545293464450000008748869605204255119_">
		<use xlink:href="#SVGID_1_"  style="overflow:visible;"/>
	</clipPath>
	<g style="clip-path:url(#SVGID_00000067952594545293464450000008748869605204255119_);">
		
			<linearGradient id="SVGID_00000020365085604646382210000007926396913861580701_" gradientUnits="userSpaceOnUse" x1="729.3306" y1="324.4341" x2="213.8005" y2="839.9642" gradientTransform="matrix(1 0 0 -1 0 1082)">
			<stop  offset="0" style="stop-color:#4497F5"/>
			<stop  offset="0.2965" style="stop-color:#52B3BF"/>
			<stop  offset="0.4697" style="stop-color:#59C2A5"/>
			<stop  offset="0.5844" style="stop-color:#5BC690"/>
			<stop  offset="0.7498" style="stop-color:#5ECB7A"/>
			<stop  offset="0.8939" style="stop-color:#5FCE6C"/>
			<stop  offset="1" style="stop-color:#60CF68"/>
		</linearGradient>
		
			<rect x="213.24" y="241.47" style="fill:url(#SVGID_00000020365085604646382210000007926396913861580701_);" width="517.06" height="517.06"/>
		<polygon class="st2" points="634.84,618.7 570.79,618.7 570.77,585.67 307.62,585.67 307.62,520.57 634.84,520.57 		"/>
		<circle class="st2" cx="340.68" cy="422.12" r="40.9"/>
		<circle class="st2" cx="602.5" cy="422.12" r="40.9"/>
		<circle class="st2" cx="471.59" cy="422.12" r="40.9"/>
	</g>
</g>
</svg>
