<?xml version="1.0" encoding="UTF-8"?>
<svg id="Layer_1" data-name="Layer 1" xmlns="http://www.w3.org/2000/svg" viewBox="145 330.3 710 339.4">
  <defs>
    <style>
      .cls-1 {
        fill: #002b49;
      }

      .cls-2 {
        fill: #fff;
      }

      .cls-3 {
        fill: #ffc629;
      }

      .cls-4 {
        fill: #5cc3ec;
      }
    </style>
  </defs>
  <rect class="cls-1" x="145" y="330.28" width="710" height="339.45"/>
  <g>
    <g>
      <path class="cls-4" d="m696.21,525.57l-11.25-12.46v-67.73l10.95-10.97h61.1v35.18h-46.38c-.52.73-10.9,15.18-12.78,17.79h76.1c0-1.91.03-68.57.03-70.3h-88.54c-.56.53-20.05,24.1-20.5,24.63,0,.71-.07,75.2-.07,75.89.47.54,20.96,25.1,21.55,25.78h89.69c-2.24-2.71-14.16-17.19-14.68-17.82h-65.22Z"/>
      <polygon class="cls-3" points="323.46 466.31 312.04 478.65 325.36 493.94 362.8 493.94 373.5 504.81 385.01 492.42 371.69 477.11 334.18 477.11 323.46 466.31"/>
      <path class="cls-4" d="m572.78,416.15v101.45c.44.54,20.68,25.09,21.27,25.78h68.98c-2.14-2.68-13.7-17.16-14.24-17.82h-44.69l-11.63-13.46v-77.66h40.38l15.12-17.41h-53.8v-8.36l-18.67-18.68-14.05,15.85,11.33,10.3Z"/>
      <rect class="cls-4" x="792.07" y="525.54" width="17.84" height="17.85"/>
      <rect class="cls-4" x="532.07" y="417.08" width="20.32" height="126.32"/>
      <path class="cls-4" d="m199.99,417.04v18.52h18.05c1.07,1.35,30.91,38.37,30.91,38.37l12.88-15.32-33.23-41.57h-28.61Z"/>
      <path class="cls-4" d="m332.93,543.22c-7.8-9.21-51.84-60.98-53.57-63.01,1.7-2.06,44.88-54.09,52.4-63.17h-25.19l-52.98,63.22,52.09,62.96h27.24Z"/>
      <polygon class="cls-4" points="218.27 543.22 257.59 496.13 244.41 480.3 191.17 543.22 218.27 543.22"/>
      <path class="cls-4" d="m440.98,525.57l-11.27-13.46v-65.13l10.97-12.57h60.76c.52-.64,11.58-14.25,14.11-17.33h-85.34c-1.96,2.34-20.57,24.12-20.99,24.63l-.06,75.89c.42.54,21.2,25.09,21.78,25.78h85.53c-2.14-2.68-13.72-17.16-14.24-17.82h-61.25Z"/>
    </g>
    <g>
      <g>
        <path class="cls-2" d="m631.71,603.53h-4.84l-4.8-6.41-4.8,6.41h-4.83l7.05-9.63-7.05-9.64h4.8l4.83,6.42,4.8-6.42h4.83l-7.07,9.64,7.08,9.63Z"/>
        <polygon class="cls-2" points="598.65 599.7 596.92 598.21 596.92 592.98 605.04 592.98 607.81 589.14 596.92 589.14 596.92 584.21 598.65 582.74 606.8 582.74 609.32 578.88 597.23 578.88 593.08 582.44 593.08 599.99 597.23 603.53 611.52 603.53 609 599.7 598.65 599.7"/>
        <polygon class="cls-2" points="332.77 584.23 330.49 586.15 328.22 584.23 318.85 584.23 314.65 587.81 314.65 603.45 318.53 603.45 318.53 589.61 320.28 588.12 326.8 588.12 328.55 589.59 328.55 603.5 332.42 603.5 332.42 603.45 332.45 603.45 332.45 589.61 334.2 588.12 340.71 588.12 342.46 589.59 342.46 603.5 346.35 603.5 346.35 587.8 342.14 584.23 332.77 584.23"/>
        <rect class="cls-2" x="287.75" y="578.83" width="3.86" height="24.62"/>
        <polygon class="cls-2" points="280.79 592.26 280.79 598.12 279.05 599.6 271.15 599.6 269.42 598.12 269.42 578.83 265.55 578.83 265.55 599.89 267.21 601.29 269.02 602.83 269.73 603.43 280.47 603.43 282.21 601.94 282.95 601.34 284.63 599.89 284.63 578.83 280.79 578.83 280.79 588.43 280.79 592.26"/>
        <polygon class="cls-2" points="349.19 584.23 352.72 588.07 361.41 588.07 363.14 589.54 363.14 597.89 361.41 599.36 354.95 599.36 353.23 597.89 353.23 594.75 360.13 594.75 362.42 590.89 349.38 590.89 349.38 592.14 349.38 592.14 349.38 599.67 353.53 603.18 362.82 603.18 366.98 599.67 366.98 587.75 362.82 584.23 349.19 584.23"/>
        <polygon class="cls-2" points="217.21 584.27 215.48 585.6 215.48 578.33 211.59 578.33 211.59 603.25 215.48 603.25 215.48 589.65 215.5 589.63 217.27 588.12 223.75 588.12 225.48 589.63 225.48 603.5 229.38 603.5 229.38 587.81 225.17 584.27 217.21 584.27"/>
        <polygon class="cls-2" points="238.18 599.6 236.41 598.09 236.41 589.54 238.18 588.05 244.73 588.05 246.48 589.52 246.48 592.42 239.49 592.42 237.14 596.31 250.37 596.31 250.37 595.09 250.38 595.09 250.38 587.74 246.15 584.15 236.75 584.15 232.5 587.75 232.5 599.89 236.75 603.5 250.55 603.5 247 599.6 238.18 599.6"/>
        <polygon class="cls-2" points="386.28 599.36 384.52 597.89 384.52 589.47 386.28 587.99 392.74 587.99 394.45 589.47 394.45 592.29 387.57 592.29 385.24 596.13 398.29 596.13 398.29 594.92 398.29 594.92 398.29 587.7 394.14 584.15 384.87 584.15 380.68 587.7 380.68 599.67 384.87 603.2 398.46 603.2 394.95 599.36 386.28 599.36"/>
        <polygon class="cls-2" points="660.2 599.6 658.43 598.09 658.43 589.54 660.2 588.05 666.76 588.05 668.5 589.52 668.5 592.42 661.5 592.42 659.16 596.31 672.4 596.31 672.4 595.09 672.41 595.09 672.41 587.74 668.18 584.15 658.76 584.15 654.53 587.75 654.53 599.89 658.76 603.5 672.58 603.5 669.02 599.6 660.2 599.6"/>
        <polygon class="cls-2" points="703.83 599.6 702.05 598.09 702.05 589.54 703.83 588.05 710.39 588.05 712.13 589.52 712.13 592.42 705.12 592.42 702.79 596.31 716.03 596.31 716.03 595.09 716.03 595.09 716.03 587.74 711.8 584.15 702.38 584.15 698.16 587.75 698.16 599.89 702.38 603.5 716.22 603.5 712.65 599.6 703.83 599.6"/>
        <polygon class="cls-2" points="762.99 599.6 761.22 598.09 761.22 589.54 762.99 588.05 769.54 588.05 771.3 589.52 771.3 592.42 764.29 592.42 761.95 596.31 775.19 596.31 775.19 595.09 775.2 595.09 775.2 587.74 770.97 584.15 761.56 584.15 757.32 587.75 757.32 599.89 761.56 603.5 775.36 603.5 771.81 599.6 762.99 599.6"/>
        <g>
          <rect class="cls-2" x="691.2" y="579.93" width="3.84" height="3.08"/>
          <rect class="cls-2" x="691.2" y="584.28" width="3.84" height="19.22"/>
        </g>
        <g>
          <rect class="cls-2" x="307.68" y="579.93" width="3.84" height="3.08"/>
          <rect class="cls-2" x="307.68" y="584.28" width="3.84" height="19.22"/>
        </g>
        <polygon class="cls-2" points="745.66 599.28 743.92 597.81 743.92 589.51 745.66 588.03 751.31 588.03 753.83 584.2 744.24 584.2 740.08 587.74 740.08 599.58 744.24 603.12 755.48 603.12 752.96 599.28 745.66 599.28"/>
        <polygon class="cls-2" points="723.38 584.21 719.15 587.79 719.15 603.45 723.04 603.45 723.04 589.59 724.8 588.08 731.33 588.08 733.07 589.56 733.07 603.5 736.96 603.5 736.96 587.79 732.75 584.21 723.38 584.21"/>
        <polygon class="cls-2" points="298.57 584.13 298.57 578.98 294.74 578.98 294.74 603.28 298.57 603.28 298.57 587.97 302.32 587.97 306.26 584.13 298.57 584.13"/>
        <polygon class="cls-2" points="373.94 584.13 373.94 578.98 370.1 578.98 370.1 603.28 373.94 603.28 373.94 587.97 377.72 587.97 381.64 584.13 373.94 584.13"/>
        <polygon class="cls-2" points="679.65 584.23 675.43 587.81 675.43 603.51 679.32 603.51 679.32 589.61 681.08 588.12 684.68 588.12 688.23 584.23 679.65 584.23"/>
        <path class="cls-2" d="m651.41,599.67v-11.86l-4.19-3.55h-12.49v25.74h3.84v-6.79h8.66l4.19-3.54Zm-3.84-1.79l-1.76,1.49h-5.65l-1.6,2.42v-13.7h7.25l1.76,1.49v8.3Z"/>
        <g>
          <polygon class="cls-2" points="415.95 599.36 414.21 597.85 414.21 592.65 422.35 592.65 425.11 588.79 414.21 588.79 414.21 583.87 415.95 582.39 424.1 582.39 426.62 578.54 414.53 578.54 410.38 582.08 410.38 599.66 414.53 603.18 428.81 603.18 426.29 599.36 415.95 599.36"/>
          <rect class="cls-2" x="430.01" y="578.9" width="3.83" height="24.61"/>
          <rect class="cls-2" x="538.39" y="579.78" width="3.84" height="3.09"/>
          <polygon class="cls-2" points="442.89 599.36 441.15 597.89 441.15 589.47 442.89 587.99 449.35 587.99 451.06 589.47 451.06 592.29 444.18 592.29 441.86 596.13 454.9 596.13 454.9 594.92 454.91 594.92 454.91 587.7 450.73 584.15 441.48 584.15 437.31 587.7 437.31 599.67 441.48 603.2 455.08 603.2 451.59 599.36 442.89 599.36"/>
          <rect class="cls-2" x="538.39" y="584.13" width="3.84" height="19.23"/>
          <polygon class="cls-2" points="577.33 592.59 575.9 591.26 566.87 591.26 566.52 590.89 566.52 588.47 567.16 588 574.05 588 577.55 584.16 565.92 584.16 562.68 586.72 562.68 591.74 562.7 591.74 562.7 592.86 564.11 594.4 573.25 594.4 573.51 594.62 573.51 598.88 572.84 599.41 566.13 599.41 562.62 603.25 573.18 603.25 577.35 599.72 577.35 594.28 577.33 594.28 577.33 592.59"/>
          <polygon class="cls-2" points="550.66 599.38 548.91 597.9 548.91 589.6 550.66 588.11 556.31 588.11 558.83 584.27 549.23 584.27 545.06 587.81 545.06 599.67 549.23 603.21 560.46 603.21 557.96 599.38 550.66 599.38"/>
          <polygon class="cls-2" points="522.34 584.15 518.16 587.7 518.16 603.18 522.01 603.18 522.01 589.48 523.75 588 530.21 588 531.95 589.47 531.95 603.23 535.78 603.23 535.78 587.7 531.62 584.15 522.34 584.15"/>
          <polygon class="cls-2" points="463.62 599.38 461.88 597.9 461.88 589.6 463.62 588.11 469.28 588.11 471.8 584.27 462.22 584.27 458.03 587.81 458.03 599.67 462.22 603.21 473.44 603.21 470.93 599.38 463.62 599.38"/>
          <path class="cls-2" d="m501.92,584.23l-4.17,3.53v11.91l4.17,3.52h8.92l4.16-3.51v-11.92l-4.16-3.53h-8.92Zm9.24,13.66l-1.73,1.47h-6.1l-1.75-1.49v-8.33l1.75-1.47h6.1l1.73,1.46v8.36Z"/>
          <polygon class="cls-2" points="478.3 584.13 478.3 578.98 474.46 578.98 474.46 603.28 478.3 603.28 478.3 587.97 482.06 587.97 485.99 584.13 478.3 584.13"/>
          <polygon class="cls-2" points="489.49 584.21 485.33 587.75 485.33 603.25 489.18 603.25 489.18 589.52 490.9 588.05 494.46 588.05 497.96 584.21 489.49 584.21"/>
        </g>
      </g>
      <polygon class="cls-2" points="201.34 578.98 197.47 578.98 197.47 578.98 194.08 578.98 190.09 582.87 197.47 582.87 197.47 603.5 201.34 603.5 201.34 582.87 205.11 582.87 209.11 578.98 201.34 578.98"/>
    </g>
  </g>
</svg>