<?xml version="1.0" encoding="utf-8"?>
<!-- Generator: Adobe Illustrator 26.0.1, SVG Export Plug-In . SVG Version: 6.00 Build 0)  -->
<svg version="1.1" id="Layer_1" xmlns="http://www.w3.org/2000/svg" xmlns:xlink="http://www.w3.org/1999/xlink" x="0px" y="0px"
	 viewBox="0 0 390.93 370.33" style="enable-background:new 0 0 390.93 370.33;" xml:space="preserve">
<style type="text/css">
	.st0{fill:#95C11F;}
</style>
<g>
	<g>
		<path class="st0" d="M246.93,229.63c0-2.5-0.99-4.9-2.76-6.67c-1.77-1.77-4.17-2.76-6.67-2.76c-2.5,0-4.9,0.99-6.67,2.76
			c-1.77,1.77-2.76,4.17-2.76,6.67c0,2.5,0.99,4.9,2.76,6.67c1.77,1.77,4.17,2.76,6.67,2.76c2.5,0,4.9-0.99,6.67-2.76
			C245.94,234.53,246.93,232.13,246.93,229.63"/>
		<path class="st0" d="M245.48,323.29v-63.5c0-1.05-0.06-2.11-0.21-3.15c-0.3-2.86-1.56-5.54-3.56-7.6
			c-0.34-0.34-0.7-0.66-1.07-0.96c-2.88-2.13-6.4-3.22-9.98-3.1c-0.38,0-0.76,0.01-1.15,0.02v63.5c-0.01,1.05,0.06,2.11,0.21,3.15
			c0.3,2.86,1.55,5.53,3.55,7.6c0.31,0.31,0.64,0.61,0.99,0.89c2.89,2.17,6.43,3.29,10.04,3.17
			C244.7,323.31,245.09,323.31,245.48,323.29"/>
		<path class="st0" d="M199.14,292.5v16c-0.01,1.05,0.06,2.11,0.21,3.15c0.3,2.86,1.55,5.53,3.55,7.6c0.34,0.34,0.7,0.66,1.07,0.96
			c2.89,2.13,6.41,3.22,9.99,3.1c0.38,0,0.76-0.01,1.13-0.02v-34.14c0.01-2.49-0.12-4.98-0.38-7.46
			c-0.69-9.22-4.46-17.94-10.72-24.74c-8.14-8.31-19.39-12.84-31.01-12.47l-0.73,0c-10.9-0.19-21.41,4.09-29.07,11.86
			c-7.66,7.77-11.8,18.33-11.45,29.23c-0.01,2.64,0.21,5.27,0.66,7.88c1.16,8.48,5.39,16.23,11.88,21.8
			c6.5,5.56,14.81,8.55,23.36,8.39c4.97,0.1,9.88-1.02,14.32-3.26c6.51-3.17,10.66-9.74,10.74-16.98c-0.08-4.49-1.5-8.86-4.08-12.53
			c-0.3,1.56-0.69,3.11-1.2,4.62c-1.13,3.78-3.32,7.17-6.31,9.74c-3.32,2.6-7.45,3.94-11.67,3.8c-6.35,0.09-12.37-2.87-16.18-7.95
			c-3.27-4.64-4.94-10.22-4.76-15.9c-0.2-6.4,1.93-12.66,6-17.61c4.7-5.25,11.49-8.14,18.53-7.91c6.63-0.19,13.05,2.34,17.78,6.99
			c2.27,2.27,4.07,4.97,5.3,7.94C198.3,280.3,199.33,286.39,199.14,292.5"/>
		<path class="st0" d="M72.65,308.1c-0.1,0-0.21-0.01-0.31-0.02c-0.15-0.02-0.29-0.07-0.42-0.15c-0.15-0.09-0.24-0.26-0.24-0.44
			c0-0.12,0.04-0.24,0.1-0.34c0.11-0.19,0.26-0.35,0.43-0.49l42.3-34.16l1.24-1.02c2.43-1.92,4.63-4.1,6.57-6.51
			c1.75-2.18,2.66-4.91,2.58-7.7c-0.01-3-1.32-5.85-3.59-7.83c-1.2-0.99-2.57-1.75-4.05-2.23c-2.84-0.86-5.8-1.26-8.76-1.17H53.3
			c-0.01,0.29-0.02,0.59-0.02,0.88c0,1.19,0.1,2.38,0.32,3.55c0.26,1.59,0.85,3.12,1.73,4.48c0.93,1.32,2.16,2.4,3.59,3.15
			c2.65,1.33,5.59,1.98,8.55,1.89h36.25c0.17,0,0.34,0.01,0.51,0.05c0.11,0.02,0.22,0.07,0.31,0.14c0.1,0.07,0.17,0.2,0.17,0.32
			c0,0.05,0,0.11-0.02,0.16c-0.03,0.11-0.09,0.21-0.16,0.29c-0.12,0.13-0.25,0.24-0.38,0.35L61.61,295.6l-1,0.81
			c-2.48,1.92-4.73,4.13-6.69,6.57c-1.79,2.22-2.72,5-2.63,7.85c0.01,3,1.32,5.85,3.58,7.83c1.2,0.99,2.58,1.75,4.06,2.23
			c2.84,0.86,5.8,1.26,8.77,1.17h57.77l0.01-0.51c0-1.18-0.1-2.35-0.31-3.51c-0.38-2.42-1.53-4.66-3.29-6.37
			c-1.46-1.34-3.23-2.28-5.16-2.75c-2.68-0.62-5.43-0.89-8.19-0.81H72.65"/>
		<path class="st0" d="M323.75,302.31c-0.1,0-0.21-0.03-0.29-0.1c-0.08-0.06-0.15-0.13-0.21-0.22l-37.06-48.37
			c-1.35-1.84-2.9-3.52-4.62-5.02c-2.45-2.2-5.63-3.38-8.92-3.32c-3.27-0.1-6.44,1.17-8.73,3.52c-0.56,0.6-1.05,1.26-1.45,1.97
			c-1.4,2.63-2.09,5.58-2,8.55v49.18c-0.01,1.05,0.06,2.11,0.21,3.15c0.29,2.86,1.54,5.53,3.54,7.6c0.34,0.34,0.69,0.66,1.07,0.96
			c2.79,2.12,6.24,3.22,9.75,3.1c0.3,0,0.6-0.01,0.9-0.02v-56.38c0-0.04,0-0.07,0-0.11c0-0.12,0.04-0.23,0.1-0.33
			c0.07-0.12,0.19-0.19,0.33-0.19c0.11,0,0.21,0.03,0.29,0.1c0.08,0.06,0.15,0.14,0.21,0.22l37.06,48.37
			c1.36,1.83,2.91,3.52,4.64,5.02c2.44,2.2,5.62,3.39,8.9,3.33c3.27,0.1,6.44-1.17,8.72-3.52c0.56-0.6,1.05-1.26,1.46-1.98
			c1.4-2.63,2.09-5.58,2-8.55v-49.18c0-1.06-0.06-2.11-0.21-3.15c-0.3-2.86-1.54-5.54-3.54-7.6c-0.33-0.34-0.69-0.66-1.07-0.96
			c-2.8-2.12-6.24-3.22-9.75-3.1c-0.3,0-0.59,0.01-0.89,0.02v56.38c0,0.04,0,0.07,0,0.11c-0.01,0.12-0.04,0.23-0.1,0.34
			C324.01,302.24,323.88,302.31,323.75,302.31"/>
	</g>
	<g>
		<path class="st0" d="M139.78,135.3c0,8.24-6.68,14.92-14.92,14.92c-8.24,0-14.91-6.68-14.91-14.92s6.68-14.92,14.91-14.92
			C133.1,120.38,139.78,127.06,139.78,135.3z"/>
		<path class="st0" d="M225.16,188.27c0,8.24-6.68,14.92-14.92,14.92c-8.23,0-14.92-6.68-14.92-14.92c0-8.24,6.68-14.92,14.92-14.92
			C218.48,173.35,225.16,180.03,225.16,188.27z"/>
		<path class="st0" d="M260.86,188.27c0,8.24-6.68,14.92-14.91,14.92c-8.24,0-14.92-6.68-14.92-14.92c0-8.24,6.68-14.92,14.92-14.92
			C254.18,173.35,260.86,180.03,260.86,188.27z"/>
		<path class="st0" d="M332.87,51.88c0,8.24-6.68,14.92-14.92,14.92c-8.24,0-14.92-6.68-14.92-14.92c0-8.23,6.68-14.92,14.92-14.92
			C326.19,36.97,332.87,43.65,332.87,51.88z"/>
		<path class="st0" d="M257.96,98.69v12.84c0,14.09-11.54,25.5-25.79,25.5h-40.68l0.16-60.75c-12.74,0-25.49,3.8-25.49,22.42
			l0.02,28.39c0,28.58-14.1,51.71-40.86,51.71c-25.85,0-40.86-19.47-40.86-43.54c0-20.11,15.04-36.38,33.63-36.38
			c16.54,0,28.56,12.65,30.72,29.18c3.03-4.81,6.71-12.47,6.71-21.4c0-17.29-17.31-31.28-38.69-31.28
			c-34.54,0-59.13,27.16-59.13,60.72c0,37,26.76,66.93,67.62,66.93c27.52,0,51.08-16.7,61.06-40.51h44.65
			c28.98,0,52.43-23.29,52.43-52.07V76.27C270.71,76.27,257.96,80.06,257.96,98.69z"/>
		<path class="st0" d="M307.75,98.69v32.97c0,16.99-10.19,32.28-26.47,42.97c-13.21,8.67-6.12,25.89-4.51,29.35
			c33.9-13.53,56.48-36.88,56.48-72.32v-55.4C320.5,76.27,307.75,80.06,307.75,98.69z"/>
	</g>
</g>
</svg>
