<svg xmlns="http://www.w3.org/2000/svg" viewBox="0 0 120 120" width="2500" height="2500"><defs><radialGradient id="b" cx="-400.171" cy="-984.067" r="1.587" gradientTransform="matrix(0 31.8923 31.8923 0 31421.78 12852.762)" gradientUnits="userSpaceOnUse"><stop offset="0" stop-color="#7470f9"/><stop offset="1" stop-color="#7a70fe" stop-opacity="0"/></radialGradient><radialGradient id="c" cx="-489.182" cy="-1019.984" r="1.281" gradientTransform="scale(-31.8923 31.8923)rotate(-74.462 426.955 -829.031)" gradientUnits="userSpaceOnUse"><stop offset="0" stop-color="#4ca3f8"/><stop offset=".362" stop-color="#4ca4f7"/><stop offset="1" stop-color="#4aa2f9" stop-opacity="0"/></radialGradient><linearGradient id="a" x1="-392" x2="-272" y1="-764" y2="-764" gradientTransform="rotate(-90 276 -548)" gradientUnits="userSpaceOnUse"><stop offset="0" stop-color="#fd355a"/><stop offset="1" stop-color="#fd5163"/></linearGradient><linearGradient id="d" x1="-418.42" x2="-418.034" y1="-1040.402" y2="-1041.278" gradientTransform="matrix(31.8923 0 0 -39.8681 13392.678 -41444.467)" gradientUnits="userSpaceOnUse"><stop offset="0" stop-color="#ff6380"/><stop offset="1" stop-color="#f65e79" stop-opacity="0"/></linearGradient></defs><path fill="url(#a)" fill-rule="evenodd" d="M94 120H26A25.95 25.95 0 0 1 0 94V26A25.95 25.95 0 0 1 26 0h68a25.95 25.95 0 0 1 26 26v68a25.95 25.95 0 0 1-26 26"/><path fill="#bb58bb" fill-rule="evenodd" d="M88 72.5V76a38 38 0 0 1-.6 6.7 8.53 8.53 0 0 1-3.6 5.6h-.1a12.36 12.36 0 0 1-6.9 2.5l-1.9.2a9.54 9.54 0 0 1-7.9-3.4 8.78 8.78 0 0 1-1.4-8.8v-.1a9.25 9.25 0 0 1 6.5-5.8l7.5-2a4.296 4.296 0 0 0 3.3-4.2V40.1a1.61 1.61 0 0 0-.6-1.3 1.74 1.74 0 0 0-1.4-.3l-32 6.5a2.376 2.376 0 0 0-2 2.4v36.7a38 38 0 0 1-.6 6.7 8.53 8.53 0 0 1-3.6 5.6h-.1a12.36 12.36 0 0 1-6.9 2.5l-1.8.1a9.54 9.54 0 0 1-7.9-3.4 8.78 8.78 0 0 1-1.4-8.8v-.1a9.25 9.25 0 0 1 6.5-5.8l7.5-2a4.296 4.296 0 0 0 3.3-4.2V29.9a3.72 3.72 0 0 1 3-3.6L85 19a3.14 3.14 0 0 1 2.1.5 2.46 2.46 0 0 1 .9 1.9z"/><path fill="url(#b)" fill-rule="evenodd" d="M88 72.5V76a38 38 0 0 1-.6 6.7 8.53 8.53 0 0 1-3.6 5.6h-.1a12.36 12.36 0 0 1-6.9 2.5l-1.9.2a9.54 9.54 0 0 1-7.9-3.4 8.78 8.78 0 0 1-1.4-8.8v-.1a9.25 9.25 0 0 1 6.5-5.8l7.5-2a4.296 4.296 0 0 0 3.3-4.2V40.1a1.61 1.61 0 0 0-.6-1.3 1.74 1.74 0 0 0-1.4-.3l-32 6.5a2.376 2.376 0 0 0-2 2.4v36.7a38 38 0 0 1-.6 6.7 8.53 8.53 0 0 1-3.6 5.6h-.1a12.36 12.36 0 0 1-6.9 2.5l-1.8.1a9.54 9.54 0 0 1-7.9-3.4 8.78 8.78 0 0 1-1.4-8.8v-.1a9.25 9.25 0 0 1 6.5-5.8l7.5-2a4.296 4.296 0 0 0 3.3-4.2V29.9a3.72 3.72 0 0 1 3-3.6L85 19a3.14 3.14 0 0 1 2.1.5 2.46 2.46 0 0 1 .9 1.9z"/><path fill="url(#c)" fill-rule="evenodd" d="M88 72.5V76a38 38 0 0 1-.6 6.7 8.53 8.53 0 0 1-3.6 5.6h-.1a12.36 12.36 0 0 1-6.9 2.5l-1.9.2a9.54 9.54 0 0 1-7.9-3.4 8.78 8.78 0 0 1-1.4-8.8v-.1a9.25 9.25 0 0 1 6.5-5.8l7.5-2a4.296 4.296 0 0 0 3.3-4.2V40.1a1.61 1.61 0 0 0-.6-1.3 1.74 1.74 0 0 0-1.4-.3l-32 6.5a2.376 2.376 0 0 0-2 2.4v36.7a38 38 0 0 1-.6 6.7 8.53 8.53 0 0 1-3.6 5.6h-.1a12.36 12.36 0 0 1-6.9 2.5l-1.8.1a9.54 9.54 0 0 1-7.9-3.4 8.78 8.78 0 0 1-1.4-8.8v-.1a9.25 9.25 0 0 1 6.5-5.8l7.5-2a4.296 4.296 0 0 0 3.3-4.2V29.9a3.72 3.72 0 0 1 3-3.6L85 19a3.14 3.14 0 0 1 2.1.5 2.46 2.46 0 0 1 .9 1.9z"/><path fill="url(#d)" fill-rule="evenodd" d="M88 72.5V76a38 38 0 0 1-.6 6.7 8.53 8.53 0 0 1-3.6 5.6h-.1a12.36 12.36 0 0 1-6.9 2.5l-1.9.2a9.54 9.54 0 0 1-7.9-3.4 8.78 8.78 0 0 1-1.4-8.8v-.1a9.25 9.25 0 0 1 6.5-5.8l7.5-2a4.296 4.296 0 0 0 3.3-4.2V40.1a1.61 1.61 0 0 0-.6-1.3 1.74 1.74 0 0 0-1.4-.3l-32 6.5a2.376 2.376 0 0 0-2 2.4v36.7a38 38 0 0 1-.6 6.7 8.53 8.53 0 0 1-3.6 5.6h-.1a12.36 12.36 0 0 1-6.9 2.5l-1.8.1a9.54 9.54 0 0 1-7.9-3.4 8.78 8.78 0 0 1-1.4-8.8v-.1a9.25 9.25 0 0 1 6.5-5.8l7.5-2a4.296 4.296 0 0 0 3.3-4.2V29.9a3.72 3.72 0 0 1 3-3.6L85 19a3.14 3.14 0 0 1 2.1.5 2.46 2.46 0 0 1 .9 1.9z"/><path fill="#fff" fill-rule="evenodd" d="M88 72.5V76a38 38 0 0 1-.6 6.7 8.53 8.53 0 0 1-3.6 5.6h-.1a12.36 12.36 0 0 1-6.9 2.5l-1.9.2a9.54 9.54 0 0 1-7.9-3.4 8.78 8.78 0 0 1-1.4-8.8v-.1a9.25 9.25 0 0 1 6.5-5.8l7.5-2a4.296 4.296 0 0 0 3.3-4.2V40.1a1.61 1.61 0 0 0-.6-1.3 1.74 1.74 0 0 0-1.4-.3l-32 6.5a2.376 2.376 0 0 0-2 2.4v36.7a38 38 0 0 1-.6 6.7 8.53 8.53 0 0 1-3.6 5.6h-.1a12.36 12.36 0 0 1-6.9 2.5l-1.8.1a9.54 9.54 0 0 1-7.9-3.4 8.78 8.78 0 0 1-1.4-8.8v-.1a9.25 9.25 0 0 1 6.5-5.8l7.5-2a4.296 4.296 0 0 0 3.3-4.2V29.9a3.72 3.72 0 0 1 3-3.6L85 19a3.14 3.14 0 0 1 2.1.5 2.46 2.46 0 0 1 .9 1.9z"/></svg>