<?xml version="1.0" encoding="UTF-8"?>
<svg xmlns="http://www.w3.org/2000/svg" viewBox="673.4 381.9 246.2 246.2">
 <rect x="673.4" y="381.9" width="246.2" height="246.2" fill="#fff"/>
 <path fill="#B9131A" d="M900.2,505.2c0-14.1-10.2-21-25.6-32.5c-15-11.2-40.5-27.7-55.7-36.8c-15.2-9.1-39.9-23-57-31.2
	c-17.2-8.2-30.9-13.7-39.3-13.7c-8.3,0-14.1,2.6-18.2,8.1c-4.1,5.4-6.5,13.4-8.1,23.5c-1.6,10.1-2.5,22.2-2.9,36.1
	c-0.4,13.9-0.5,46.5-0.5,46.5s0,32.6,0.5,46.5c0.5,13.9,1.3,26.1,2.9,36.1c1.6,10.1,4.1,18,8.1,23.5c4.1,5.4,9.9,8.1,18.2,8.1
	c8.3,0,22.1-5.5,39.3-13.7c17.1-8.2,41.8-22.1,57-31.2c15.2-9,40.7-25.5,55.7-36.7C890,526.3,900.2,519.3,900.2,505.2"/>
 <g fill="#EC1C24">
  <path d="M877.5,488h-3.2c-1.5,0-2.7,1.2-2.7,2.7v29.1c0,1.5,1.2,2.7,2.7,2.7h3.2c1.5,0,2.7-1.2,2.7-2.7v-29.1
	C880.2,489.2,879,488,877.5,488"/>
  <path d="M779.5,479.4h3.2c1.5,0,2.7-1.2,2.7-2.7v-46.3c0-1.5-1.2-2.7-2.7-2.7h-3.2c-1.5,0-2.7,1.2-2.7,2.7v46.3
	C776.8,478.1,778,479.4,779.5,479.4"/>
  <path d="M808.5,556.9h-3.2c-1.5,0-2.7,1.2-2.7,2.7v3.2c0,1.5,1.2,2.7,2.7,2.7h3.2c1.5,0,2.7-1.2,2.7-2.7v-3.2
	C811.3,558.2,810,556.9,808.5,556.9"/>
  <path d="M742.3,436.3h-8.6l0-17.2h8.6V436.3z M710.5,462.1h37.7c1.5,0,2.7-1.2,2.7-2.7v-14.5h14.5
	c1.5,0,2.7-1.2,2.7-2.7v-20.4c0-1.5-1.2-2.7-2.7-2.7h-3.2c-1.5,0-2.7,1.2-2.7,2.7v14.5h-8.6v-23.2c0-1.5-1.2-2.7-2.7-2.7h-20.5
	c-1.5,0-2.7,1.2-2.7,2.7v29.1c0,1.5,1.2,2.7,2.7,2.7h14.5v8.6h-25.9v-31.7c0-1.5-1.2-2.7-2.7-2.7h-3.2c-1.5,0-2.7,1.2-2.7,2.7v31.8
	v5.8C707.8,460.9,709,462.1,710.5,462.1"/>
  <path d="M860.3,479.4h-3.2c-1.5,0-2.7,1.2-2.7,2.7v40.4h-14.5c-1.5,0-2.7,1.2-2.7,2.7v14.5h-8.6l0-14.5
	c0-1.5-1.2-2.7-2.7-2.7h-29.1c-1.5,0-2.7,1.2-2.7,2.7v3.2c0,1.5,1.2,2.7,2.7,2.7h23.2v8.6h-34.5v-25.9h23.1c1.5,0,2.7-1.2,2.7-2.7
	v-3.2c0-1.5-1.2-2.7-2.7-2.7h-29.1c-1.5,0-2.7,1.2-2.7,2.7v37.7c0,1.5,1.2,2.7,2.7,2.7h40.4v5.9c0,1.5,1.2,2.7,2.7,2.7h3.2
	c1.5,0,2.7-1.2,2.7-2.7v-5.9H843c1.5,0,2.7-1.3,2.7-2.7v-14.5h14.5c1.5,0,2.7-1.2,2.7-2.7v-46.3C863,480.6,861.8,479.4,860.3,479.4"/>
  <path d="M791.3,556.9h-20.5c-1.5,0-2.7,1.2-2.7,2.7v14.5h-51.7v-8.6h40.4c1.5,0,2.7-1.2,2.7-2.7v-3.2
	c0-1.5-1.2-2.7-2.7-2.7h-46.3c-1.5,0-2.7,1.2-2.7,2.7v20.5c0,1.5,1.2,2.7,2.7,2.7h63.5c1.5,0,2.7-1.2,2.7-2.7v-14.5h8.6v5.9
	c0,1.5,1.2,2.7,2.7,2.7h3.2c1.5,0,2.7-1.2,2.7-2.7v-11.8C794,558.2,792.8,556.9,791.3,556.9"/>
  <path d="M722.3,591.4h-3c-1.5,0-2.8,1.3-2.8,2.8v3.1c0,1.5,1.2,2.8,2.8,2.8h3c1.5,0,2.8-1.3,2.8-2.8v-3.1
	C725,592.7,723.8,591.4,722.3,591.4"/>
  <path d="M739.5,591.4h-3.1c-1.5,0-2.8,1.3-2.8,2.8v3.1c0,1.5,1.3,2.8,2.8,2.8h3.1c1.5,0,2.8-1.3,2.8-2.8v-3.1
	C742.3,592.7,741,591.4,739.5,591.4"/>
  <path d="M710.6,539.7c-1.5,0-2.8,1.3-2.8,2.8v3c0,1.5,1.3,2.8,2.8,2.8h3c1.5,0,2.8-1.3,2.8-2.8v-3
	c0-1.5-1.2-2.8-2.8-2.8H710.6z"/>
  <path d="M727.8,539.7c-1.5,0-2.8,1.2-2.8,2.8v3c0,1.5,1.3,2.8,2.8,2.8h3c1.5,0,2.8-1.3,2.8-2.8v-3
	c0-1.5-1.2-2.8-2.8-2.8H727.8z"/>
  <path d="M742.3,542.5v3c0,1.5,1.3,2.8,2.8,2.8h17.2h3.1h0.1c1.5,0,2.7-1.2,2.7-2.7v-37.7c0-1.5-1.2-2.7-2.7-2.7h-3.2
	c-1.5,0-2.7,1.2-2.7,2.7v31.8h-14.5C743.5,539.7,742.3,541,742.3,542.5"/>
  <path d="M822.6,505.2c-1.5,0-2.8,1.3-2.8,2.8v3.1c0,1.5,1.3,2.8,2.8,2.8h3.1c1.5,0,2.8-1.2,2.8-2.8V508
	c0-1.5-1.2-2.8-2.8-2.8H822.6z"/>
  <path d="M814,453.5h3c1.5,0,2.8-1.2,2.8-2.8v-3c0-1.5-1.3-2.8-2.8-2.8h-3c-1.5,0-2.8,1.3-2.8,2.8v3
	C811.3,452.2,812.5,453.5,814,453.5"/>
  <path d="M765.4,453.5h-3c-1.5,0-2.8,1.3-2.8,2.8v3c0,1.5,1.3,2.8,2.8,2.8h3c1.5,0,2.8-1.2,2.8-2.8v-3
	C768.1,454.7,766.9,453.5,765.4,453.5"/>
  <path d="M748.1,488h-3c-1.5,0-2.8,1.3-2.8,2.8v3.1c0,1.5,1.3,2.8,2.8,2.8h3c1.5,0,2.8-1.3,2.8-2.8v-3.1
	C750.9,489.2,749.7,488,748.1,488"/>
  <path d="M842.9,505.2h-3c-1.5,0-2.8,1.3-2.8,2.8v3c0,1.5,1.3,2.8,2.8,2.8h3c1.6,0,2.8-1.2,2.8-2.8v-3
	C845.7,506.5,844.5,505.2,842.9,505.2"/>
  <path d="M802.6,479.4h25.9v-8.6h8.6V488h-34.5V479.4z M710.5,531.1h37.7c1.5,0,2.7-1.2,2.7-2.7v-20.4
	c0-1.5-1.2-2.7-2.7-2.7h-14.5v-25.9h25.9v14.5c0,1.5,1.3,2.8,2.8,2.8H843c1.5,0,2.7-1.2,2.7-2.7v-29.1c0-1.5-1.2-2.7-2.7-2.7h-20.4
	c-1.5,0-2.7,1.2-2.7,2.7v5.9h-17.2V439c0-1.5-1.2-2.7-2.7-2.7h-3.2c-1.5,0-2.7,1.2-2.7,2.7v49h-25.9v-14.5c0-1.5-1.2-2.7-2.7-2.7
	h-37.7c-1.5,0-2.7,1.2-2.7,2.7v37.7c0,1.5,1.2,2.7,2.7,2.7h14.5v8.6h-25.9l0-49c0-1.5-1.2-2.7-2.7-2.7h-3.2c-1.5,0-2.7,1.2-2.7,2.7
	v54.9C707.8,529.9,709,531.1,710.5,531.1"/>
 </g>
</svg>
