<?xml version="1.0" encoding="utf-8"?>
<!-- Generator: Adobe Illustrator 22.0.1, SVG Export Plug-In . SVG Version: 6.00 Build 0)  -->
<svg version="1.1" id="Layer_1" xmlns="http://www.w3.org/2000/svg" xmlns:xlink="http://www.w3.org/1999/xlink" x="0px" y="0px"
	 viewBox="100.6 380.3 799.6 239.1" style="enable-background:new 0 0 1000 1000;" xml:space="preserve">
<style type="text/css">
	.st0{fill:#B9131A;}
	.st1{fill:#EC1C24;}
	.st2{fill:#243841;}
</style>
<path class="st0" d="M900.2,505.2c0-14.1-10.2-21-25.6-32.5c-15-11.2-40.5-27.7-55.7-36.8c-15.2-9.1-39.9-23-57-31.2
	c-17.2-8.2-30.9-13.7-39.3-13.7c-8.3,0-14.1,2.6-18.2,8.1c-4.1,5.4-6.5,13.4-8.1,23.5c-1.6,10.1-2.5,22.2-2.9,36.1
	c-0.4,13.9-0.5,46.5-0.5,46.5s0,32.6,0.5,46.5c0.5,13.9,1.3,26.1,2.9,36.1c1.6,10.1,4.1,18,8.1,23.5c4.1,5.4,9.9,8.1,18.2,8.1
	c8.3,0,22.1-5.5,39.3-13.7c17.1-8.2,41.8-22.1,57-31.2c15.2-9,40.7-25.5,55.7-36.7C890,526.3,900.2,519.3,900.2,505.2"/>
<path class="st1" d="M877.5,488h-3.2c-1.5,0-2.7,1.2-2.7,2.7v29.1c0,1.5,1.2,2.7,2.7,2.7h3.2c1.5,0,2.7-1.2,2.7-2.7v-29.1
	C880.2,489.2,879,488,877.5,488"/>
<path class="st1" d="M779.5,479.4h3.2c1.5,0,2.7-1.2,2.7-2.7v-46.3c0-1.5-1.2-2.7-2.7-2.7h-3.2c-1.5,0-2.7,1.2-2.7,2.7v46.3
	C776.8,478.1,778,479.4,779.5,479.4"/>
<path class="st1" d="M808.5,556.9h-3.2c-1.5,0-2.7,1.2-2.7,2.7v3.2c0,1.5,1.2,2.7,2.7,2.7h3.2c1.5,0,2.7-1.2,2.7-2.7v-3.2
	C811.3,558.2,810,556.9,808.5,556.9"/>
<path class="st1" d="M742.3,436.3h-8.6l0-17.2h8.6V436.3z M710.5,462.1h37.7c1.5,0,2.7-1.2,2.7-2.7v-14.5h14.5
	c1.5,0,2.7-1.2,2.7-2.7v-20.4c0-1.5-1.2-2.7-2.7-2.7h-3.2c-1.5,0-2.7,1.2-2.7,2.7v14.5h-8.6v-23.2c0-1.5-1.2-2.7-2.7-2.7h-20.5
	c-1.5,0-2.7,1.2-2.7,2.7v29.1c0,1.5,1.2,2.7,2.7,2.7h14.5v8.6h-25.9v-31.7c0-1.5-1.2-2.7-2.7-2.7h-3.2c-1.5,0-2.7,1.2-2.7,2.7v31.8
	v5.8C707.8,460.9,709,462.1,710.5,462.1"/>
<path class="st1" d="M860.3,479.4h-3.2c-1.5,0-2.7,1.2-2.7,2.7v40.4h-14.5c-1.5,0-2.7,1.2-2.7,2.7v14.5h-8.6l0-14.5
	c0-1.5-1.2-2.7-2.7-2.7h-29.1c-1.5,0-2.7,1.2-2.7,2.7v3.2c0,1.5,1.2,2.7,2.7,2.7h23.2v8.6h-34.5v-25.9h23.1c1.5,0,2.7-1.2,2.7-2.7
	v-3.2c0-1.5-1.2-2.7-2.7-2.7h-29.1c-1.5,0-2.7,1.2-2.7,2.7v37.7c0,1.5,1.2,2.7,2.7,2.7h40.4v5.9c0,1.5,1.2,2.7,2.7,2.7h3.2
	c1.5,0,2.7-1.2,2.7-2.7v-5.9H843c1.5,0,2.7-1.3,2.7-2.7v-14.5h14.5c1.5,0,2.7-1.2,2.7-2.7v-46.3C863,480.6,861.8,479.4,860.3,479.4"
	/>
<path class="st1" d="M791.3,556.9h-20.5c-1.5,0-2.7,1.2-2.7,2.7v14.5h-51.7v-8.6h40.4c1.5,0,2.7-1.2,2.7-2.7v-3.2
	c0-1.5-1.2-2.7-2.7-2.7h-46.3c-1.5,0-2.7,1.2-2.7,2.7v20.5c0,1.5,1.2,2.7,2.7,2.7h63.5c1.5,0,2.7-1.2,2.7-2.7v-14.5h8.6v5.9
	c0,1.5,1.2,2.7,2.7,2.7h3.2c1.5,0,2.7-1.2,2.7-2.7v-11.8C794,558.2,792.8,556.9,791.3,556.9"/>
<path class="st1" d="M722.3,591.4h-3c-1.5,0-2.8,1.3-2.8,2.8v3.1c0,1.5,1.2,2.8,2.8,2.8h3c1.5,0,2.8-1.3,2.8-2.8v-3.1
	C725,592.7,723.8,591.4,722.3,591.4"/>
<path class="st1" d="M739.5,591.4h-3.1c-1.5,0-2.8,1.3-2.8,2.8v3.1c0,1.5,1.3,2.8,2.8,2.8h3.1c1.5,0,2.8-1.3,2.8-2.8v-3.1
	C742.3,592.7,741,591.4,739.5,591.4"/>
<path class="st1" d="M710.6,539.7c-1.5,0-2.8,1.3-2.8,2.8v3c0,1.5,1.3,2.8,2.8,2.8h3c1.5,0,2.8-1.3,2.8-2.8v-3
	c0-1.5-1.2-2.8-2.8-2.8H710.6z"/>
<path class="st1" d="M727.8,539.7c-1.5,0-2.8,1.2-2.8,2.8v3c0,1.5,1.3,2.8,2.8,2.8h3c1.5,0,2.8-1.3,2.8-2.8v-3
	c0-1.5-1.2-2.8-2.8-2.8H727.8z"/>
<path class="st1" d="M742.3,542.5v3c0,1.5,1.3,2.8,2.8,2.8h17.2h3.1h0.1c1.5,0,2.7-1.2,2.7-2.7v-37.7c0-1.5-1.2-2.7-2.7-2.7h-3.2
	c-1.5,0-2.7,1.2-2.7,2.7v31.8h-14.5C743.5,539.7,742.3,541,742.3,542.5"/>
<path class="st1" d="M822.6,505.2c-1.5,0-2.8,1.3-2.8,2.8v3.1c0,1.5,1.3,2.8,2.8,2.8h3.1c1.5,0,2.8-1.2,2.8-2.8V508
	c0-1.5-1.2-2.8-2.8-2.8H822.6z"/>
<path class="st1" d="M814,453.5h3c1.5,0,2.8-1.2,2.8-2.8v-3c0-1.5-1.3-2.8-2.8-2.8h-3c-1.5,0-2.8,1.3-2.8,2.8v3
	C811.3,452.2,812.5,453.5,814,453.5"/>
<path class="st1" d="M765.4,453.5h-3c-1.5,0-2.8,1.3-2.8,2.8v3c0,1.5,1.3,2.8,2.8,2.8h3c1.5,0,2.8-1.2,2.8-2.8v-3
	C768.1,454.7,766.9,453.5,765.4,453.5"/>
<path class="st1" d="M748.1,488h-3c-1.5,0-2.8,1.3-2.8,2.8v3.1c0,1.5,1.3,2.8,2.8,2.8h3c1.5,0,2.8-1.3,2.8-2.8v-3.1
	C750.9,489.2,749.7,488,748.1,488"/>
<path class="st1" d="M842.9,505.2h-3c-1.5,0-2.8,1.3-2.8,2.8v3c0,1.5,1.3,2.8,2.8,2.8h3c1.6,0,2.8-1.2,2.8-2.8v-3
	C845.7,506.5,844.5,505.2,842.9,505.2"/>
<path class="st1" d="M802.6,479.4h25.9v-8.6h8.6V488h-34.5V479.4z M710.5,531.1h37.7c1.5,0,2.7-1.2,2.7-2.7v-20.4
	c0-1.5-1.2-2.7-2.7-2.7h-14.5v-25.9h25.9v14.5c0,1.5,1.3,2.8,2.8,2.8H843c1.5,0,2.7-1.2,2.7-2.7v-29.1c0-1.5-1.2-2.7-2.7-2.7h-20.4
	c-1.5,0-2.7,1.2-2.7,2.7v5.9h-17.2V439c0-1.5-1.2-2.7-2.7-2.7h-3.2c-1.5,0-2.7,1.2-2.7,2.7v49h-25.9v-14.5c0-1.5-1.2-2.7-2.7-2.7
	h-37.7c-1.5,0-2.7,1.2-2.7,2.7v37.7c0,1.5,1.2,2.7,2.7,2.7h14.5v8.6h-25.9l0-49c0-1.5-1.2-2.7-2.7-2.7h-3.2c-1.5,0-2.7,1.2-2.7,2.7
	v54.9C707.8,529.9,709,531.1,710.5,531.1"/>
<path class="st2" d="M375.6,446.8c0-0.9,0.7-1.5,1.5-1.5h5.2c0.9,0,1.7,0.7,1.7,1.5v5.4c0,0.7-0.8,1.4-1.7,1.4h-5.2
	c-0.8,0-1.5-0.7-1.5-1.4V446.8z M142.2,560.4l14.3-39.7l10.3-25.9l10,25.9l13.9,39.7H142.2z M181.8,481.7c-2-4.3-3-6.7-9.2-6.7
	h-11.9c-5.5,0-7.3,2.4-9,6.7c-1.3,3.4-51.1,131.5-51.1,131.5s0,4.2,4.8,4.2h12.7c2.8,0,4.1-3,4.1-3l13.8-37.9h61.4l13.7,37.9
	c0,0,1.2,3,4.2,3h12.1c5.2,0,5.2-4.2,5.2-4.2S183.1,485.2,181.8,481.7 M607.5,600h-31.8v-48.7h31.8c15,0,24,10.3,24,24.6
	C631.5,590.9,622.5,600,607.5,600 M575.7,492.4h29.4c13.2,0,21.6,9.1,21.6,21.8c0,11.9-8.4,20.8-21.6,20.8h-29.4V492.4z
	 M628.5,542.2c11.5-4.6,18.7-16.1,18.7-30.4c0-23.6-17.4-36.8-42-36.8h-43.4c-5.3,0-6.5,5.5-6.5,6.7v129.7c0,1.8,0,6.1,6.5,6.1h44.5
	c25.3,0,45.7-13.3,45.7-40.9C651.9,561.6,643.3,547.2,628.5,542.2 M521.5,586.6c-1.6-2.9-4.2-1.7-5.8,0
	c-6.1,5.5-20.4,14.5-39.7,14.5c-31.3,0-52.9-25.1-52.9-55.9c0-29.4,20.4-53.8,51.7-53.8c16.8,0,28.7,6.5,35.8,11.2
	c5.1,3.1,6.3,3.1,9.3,0c1.6-3,4.1-7.2,4.1-7.2s3-4,0-6.1c-7.1-4.6-23.6-16.1-49.2-16.1c-41.5,0-72.1,31.2-72.1,72
	c0,41.4,29.3,73.9,72.1,73.9c27.7,0,45.1-13.1,52.2-19.1c3.1-2,1.8-3.8,0.6-6.2C526.9,592.8,524,589.2,521.5,586.6 M301.8,600h-25.3
	V492.4h25.3c32.5,0,52.9,19.4,52.9,54.2C354.7,580.6,334.3,600,301.8,600 M304.3,475h-42.2c-1.3,0-4.8,1.2-4.8,6.7v129.7
	c0,6.1,4.8,6.1,4.8,6.1h42.2c42.5,0,72-26.6,72-70.9C376.2,501.5,346.8,475,304.3,475 M127.2,452.6c0-0.9,0.7-1.4,1.5-1.4h4.6
	c0.7,0,1.5,0.5,1.5,1.4v4.8c0,0.7-0.7,1.3-1.5,1.3h-4.6c-0.8,0-1.5-0.6-1.5-1.3V452.6z M114.7,452.6c0-0.9,0.7-1.4,1.5-1.4h4.4
	c0.9,0,1.5,0.5,1.5,1.4v4.8c0,0.7-0.7,1.3-1.5,1.3h-4.4c-0.9,0-1.5-0.6-1.5-1.3V452.6z M103.8,425.3c0-2,0.4-6,0.9-8.9
	c0.2-1,0.4-1.4,1.4-1.4h5.2c0.7,0,1.1,0.4,1.1,1.3c-0.2,2-0.4,4.2-0.4,5.5c0,9.4,1.5,16.4,13.6,16.4c2.4,0,4.4-0.1,6.3-0.4
	c0.2-4.5,0.2-6.6,0.2-10.2v-5.9c0-10.3,6.1-15,17.7-15c3.2,0,7.1,0.3,9.6,0.9c0.7,0.2,1.1,0.5,1.1,1.4V438c0,0.8-0.5,1.4-1.3,1.4
	h-5.9c-0.7,0-1.3-0.6-1.3-1.4v-23.2c-1.6-0.2-2.3-0.3-3.6-0.3c-5.1,0-7.7,2-7.7,7.9v11.1c0,3.2-0.1,7.4-0.3,10.6
	c0,0.8-0.5,1.3-1.5,1.5c-3.8,0.6-8.6,1-13.5,1C110.1,446.6,103.8,439.2,103.8,425.3 M163.1,449c0-0.7,0.4-1,1.1-1h1.4
	c5,0,6.9-0.5,6.9-6v-32.9c0-0.7,0.5-1.3,1.3-1.3h5.9c0.7,0,1.3,0.5,1.3,1.3V441c0,3.4-0.2,6.6-1.5,9.2c-2.1,3.8-5.5,5.2-11.2,5.2
	c-0.7,0-3.1,0-4.2-0.2c-0.6-0.1-0.9-0.5-0.9-1.3V449z M190.9,389.6c0-0.7,0.6-1.3,1.4-1.3h6c0.9,0,1.3,0.6,1.3,1.3v37.8
	c0,3,1.3,3.4,3.8,3.4h2.2v8.6h-4.7c-6.1,0-10-1.6-10-9.5V389.6z M219.8,446.8c0-0.9,0.7-1.5,1.5-1.5h5.2c0.9,0,1.7,0.7,1.7,1.5v5.4
	c0,0.7-0.8,1.4-1.7,1.4h-5.2c-0.8,0-1.5-0.7-1.5-1.4V446.8z M205.6,439.4c-1.1,0-2.2-0.5-2.2-0.8v-7c0-0.5,1.2-0.8,2.2-0.8h29.3
	l-3.2-7c-2.6-5.7-7.2-9.4-15.8-9.4c-0.6,0-2.6,0.1-3.6,0.1c-0.9,0.1-1.4-0.3-1.4-1.1v-5c0-0.7,0.5-1.1,1.3-1.3
	c2.2-0.5,4.2-0.6,6.6-0.6c9.8,0,16.9,3.9,22.3,16.1c1.4,3.2,2.7,6.5,3.2,7.1c0.5,0.7,0.8,0.9,1.5,0.9h0.7v8.6H205.6z M263,396.3
	c0-0.9,0.8-1.5,1.6-1.5h4.7c0.9,0,1.5,0.7,1.5,1.5v5.2c0,0.8-0.7,1.5-1.5,1.5h-4.7c-0.8,0-1.6-0.7-1.6-1.5V396.3z M250.5,396.3
	c0-0.9,0.7-1.5,1.6-1.5h4.6c0.9,0,1.7,0.7,1.7,1.5v5.2c0,0.8-0.9,1.5-1.7,1.5h-4.6c-0.9,0-1.6-0.7-1.6-1.5V396.3z M244.2,431.6
	c0-0.5,1.2-0.8,2.2-0.8h6.3c1.5,0,3.9-0.2,3.9-2.3v-19.5c0-0.7,0.5-1.3,1.3-1.3h5.9c0.7,0,1.3,0.5,1.3,1.3v20.6
	c0.5,0.9,3.2,1.2,4.4,1.2h1.6v8.6h-0.8c-3.4,0-7.2-0.4-9.6-2.3c-2.5,1.8-6.4,2.3-9.3,2.3h-5c-1,0-2.2-0.3-2.2-0.8V431.6z
	 M268.8,431.6c0-0.5,1.2-0.8,2.2-0.8h5.9c2.2,0,2.6-0.1,2.6-2.2v-39c0-0.8,0.6-1.4,1.3-1.4h6.1c0.7,0,1.3,0.6,1.3,1.4v39.1
	c0,2.4-0.1,5.6-0.3,8c-0.2,0.9-0.5,1.5-1.5,2c-1.9,0.5-7.5,0.7-11.1,0.7h-4.3c-1,0-2.2-0.3-2.2-0.8V431.6z M297,389.6
	c0-0.7,0.5-1.3,1.3-1.3h6.1c0.8,0,1.3,0.6,1.3,1.3V438c0,0.7-0.5,1.4-1.3,1.4h-6.1c-0.8,0-1.3-0.7-1.3-1.4V389.6z M350.1,452.6
	c0-0.9,0.7-1.4,1.5-1.4h4.6c0.7,0,1.5,0.5,1.5,1.4v4.8c0,0.7-0.7,1.3-1.5,1.3h-4.6c-0.7,0-1.5-0.6-1.5-1.3V452.6z M337.5,452.6
	c0-0.9,0.7-1.4,1.5-1.4h4.5c0.8,0,1.5,0.5,1.5,1.4v4.8c0,0.7-0.8,1.3-1.5,1.3h-4.5c-0.8,0-1.5-0.6-1.5-1.3V452.6z M326.7,425.3
	c0-2,0.3-6,0.9-8.9c0.1-0.9,0.6-1.4,1.4-1.4h5.2c0.9,0,1.2,0.4,1.1,1.3c-0.2,2-0.3,4.2-0.3,5.5c0,9.4,1.5,16.4,13.6,16.4
	c2.4,0,4.4-0.1,6.3-0.4c0.2-4.5,0.2-6.6,0.2-10.2v-5.9c0-10.2,6.2-15,17.3-15c3.6,0,7.3,0.4,9.7,0.9c0.7,0.2,1.1,0.5,1.1,1.4v19.6
	c0,2,0.7,2.4,3.1,2.4h3.1v8.6H384c-6.2,0-9.4-1.5-9.4-8.5v-16.2c-1.3-0.2-2-0.3-3.3-0.3c-5.1,0-7.7,2-7.7,7.9v11.1
	c0,3.2-0.1,7.4-0.3,10.6c0,0.8-0.5,1.3-1.5,1.5c-3.8,0.6-8.6,1-13.5,1C332.9,446.6,326.7,439.2,326.7,425.3 M430.6,431
	c1.1,0,1.3-0.7,1.3-4.4v-1c0-8.2-3.8-10.8-12.7-10.8c-3,0-9.2,0.4-12.6,2.9v13.3c2.1,0.1,4.6,0.1,8.1,0.1H430.6z M387.8,432
	c0-0.7,0.6-1.2,1.3-1.2h8.8v-41.2c0-0.8,0.5-1.4,1.3-1.4h6.1c0.7,0,1.3,0.6,1.3,1.4v20.5c4.7-3.2,11.7-3.6,14.8-3.6
	c11.5,0,18.9,4.7,18.9,18v2.8c0,3-0.3,7.1-0.9,9.8c-0.2,0.9-0.7,1.8-2.2,1.9c-2.5,0.3-12.5,0.3-16.4,0.3h-31.9
	c-0.7,0-1.3-0.5-1.3-1.2V432z M416.6,393c0-0.9,0.7-1.5,1.6-1.5h5.3c0.8,0,1.5,0.7,1.5,1.5v5.3c0,0.8-0.7,1.5-1.5,1.5h-5.3
	c-1,0-1.6-0.7-1.6-1.5V393z M460.7,423.5c0,5.1,2.1,7.5,7.1,7.5h5.1v-16.4c-1.3-0.1-2.7-0.2-4.1-0.2c-5.1,0-8.1,3-8.1,8.2V423.5z
	 M454.7,448.9c0-0.7,0.4-1.2,1.2-1.2h6.1c7,0,10.7-1.2,10.7-6.3v-2h-4.9c-9.8,0-15.6-5.1-15.6-14.8v-1.4c0-10.6,6.5-16.6,18-16.6
	c3.4,0,8,0.5,9.9,1.1c0.9,0.3,1.1,0.5,1.1,1.3v21.8h5.9v8.6h-6.1v2.3c-0.9,11-8.1,13.7-17.3,13.7c-1.5,0-7.1,0-8.1-0.3
	c-0.9-0.2-1.1-0.5-1.1-1.3V448.9z M491.6,446.8c0-0.9,0.7-1.5,1.5-1.5h5.2c0.9,0,1.7,0.7,1.7,1.5v5.4c0,0.7-0.8,1.4-1.7,1.4h-5.2
	c-0.8,0-1.5-0.7-1.5-1.4V446.8z M487,439.4c-1,0-2.2-0.3-2.2-0.8v-7c0-0.5,1.2-0.8,2.2-0.8h6.9c2.2,0,2.7-0.1,2.7-2.2v-10.5
	c0-2.8-0.1-5.8-0.1-9c0-0.7,0.5-1.3,1.4-1.3h5.7c1,0,1.4,0.5,1.5,1.3c0.1,2.9,0.1,5,0.1,6.9v8.8c0,5.7,0,9.6-0.3,12
	c-0.2,0.9-0.5,1.5-1.5,2c-1.9,0.5-7.2,0.7-10.8,0.7H487z M517,398.9c0-0.7,0.5-1.4,1.3-1.4h6.1c0.8,0,1.4,0.6,1.4,1.4V438
	c0,0.7-0.5,1.4-1.4,1.4h-6.1c-0.8,0-1.3-0.7-1.3-1.4V398.9z M515.8,393.3c-0.8,0-1.1-0.3-1.1-0.8v-2c0-0.5,0.3-0.7,1.1-0.7h1.3
	c-0.7-1.1-1.1-2.5-1.1-3.8c0-3.8,2.2-5.7,6.7-5.7c0.7,0,2.1,0.1,3.2,0.4c0.5,0.1,0.7,0.3,0.7,0.7v1.8c0,0.5-0.3,0.7-0.9,0.7h-2.4
	c-2.4,0-3.4,0.7-3.4,2.7c0,1.6,0.6,2.7,1.4,3.2h4.7c0.7,0,1.1,0.2,1.1,0.7v2c0,0.5-0.3,0.8-1.1,0.8H515.8z M563.3,412.7
	c0-0.5,0.4-0.8,1.2-0.8h1c-0.5-0.9-0.9-2.5-0.9-3.8c0-4.4,2.8-6.7,7.6-6.7c0.8,0,2.1,0.1,3.4,0.4c0.6,0.1,0.9,0.5,0.9,1.1v2.4
	c0,0.6-0.3,0.9-0.9,0.9c-0.5,0-2.2-0.1-2.7-0.1c-2.1,0-3,1.1-3,2.8c0,1.4,0.6,2.5,1.1,2.8h5.1c0.8,0,1.2,0.3,1.2,0.9v2.8
	c0,0.6-0.4,0.9-1.2,0.9h-11.5c-0.8,0-1.2-0.3-1.2-0.9V412.7z M553.7,418.2c0.7,0,1.1,0.4,1.1,1.3c-0.1,1-0.1,2.6-0.1,3
	c0,6.5,3.2,8.4,12.2,8.4h16.3c1.6,0,3.8-0.2,3.8-2.3v-38.9c0-0.8,0.6-1.4,1.3-1.4h6.1c0.7,0,1.4,0.6,1.4,1.4v40.1
	c0.5,0.9,3,1.2,4.2,1.2h1.7v8.6H601c-2.7,0-6.6-0.3-9.3-1.9c-2.4,1.5-6.3,1.9-9.3,1.9h-17c-14.4,0-18.7-5.3-18.7-14.7
	c0-0.9,0.1-3.9,0.4-5.2c0.3-1,0.5-1.4,1.4-1.4H553.7z M612,396.3c0-0.9,0.7-1.5,1.6-1.5h5.3c0.8,0,1.5,0.7,1.5,1.5v5.3
	c0,0.8-0.7,1.5-1.5,1.5h-5.2c-1,0-1.6-0.7-1.6-1.5V396.3z M601.9,439.4c-1,0-2.2-0.3-2.2-0.8v-7c0-0.5,1.2-0.8,2.2-0.8h6.3
	c1.5,0,3.9-0.2,3.9-2.3v-19.5c0-0.7,0.5-1.3,1.4-1.3h5.9c0.7,0,1.3,0.5,1.3,1.3v20.6c0.5,0.9,3.2,1.2,4.4,1.2h1.6v8.6h-0.8
	c-3.4,0-7.2-0.4-9.6-2.3c-2.5,1.8-6.4,2.3-9.3,2.3H601.9z M630.5,446.8c0-0.9,0.7-1.5,1.5-1.5h5.2c0.9,0,1.7,0.7,1.7,1.5v5.4
	c0,0.7-0.8,1.4-1.7,1.4H632c-0.8,0-1.5-0.7-1.5-1.4V446.8z M626.6,439.4c-1,0-2.2-0.3-2.2-0.8v-7c0-0.5,1.2-0.8,2.2-0.8h6.3
	c2.2,0,2.7-0.1,2.7-2.2v-10.7c0-2.8-0.1-5.8-0.1-9c0-0.7,0.5-1.3,1.3-1.3h5.7c1,0,1.4,0.5,1.5,1.3c0.1,2.9,0.1,5,0.1,6.9v9
	c0,5.7,0,9.6-0.3,12c-0.2,0.9-0.5,1.5-1.5,2c-1.9,0.5-7.2,0.7-10.8,0.7H626.6z"/>
</svg>
