<?xml version="1.0" encoding="UTF-8"?>
<svg xmlns="http://www.w3.org/2000/svg" viewBox="0 0 200 200">
 <rect width="200" height="200" fill="#fff"/>
 <path fill="#002134" fill-rule="evenodd" transform="translate(-253.6,-49.85) scale(0.5106)" d="M712.3,362.9c88.2,0,98-9.8,98-98.1v-39.2c0-88.3-9.8-98.1-98-98.1h-39.2c-88.2,0-98,9.8-98,98.1v39.2c0,88.3,9.8,98.1,98,98.1h39.2ZM722.1,313.9l-58.8,19.6v-157l58.8-19.6v157Z"/>
 <path fill="#002134" transform="translate(20.59,99.64) scale(0.225)" d="M281,284.1l12.5-4.2v53.6h-12.5v-49.4Z M256,333.5h12.5v-78.4h-12.5v78.4Z M231,279.9h12.5v53.6h-12.5v-7.8c-3.4,6.1-9.8,9.2-19,9.2-14.2,0-22.4-8.1-22.4-28.2s8.1-28.2,22.4-28.2,15.6,3,19,9.2v-7.8h0Z M231,305.3c0-10.5-3.7-14.6-14.6-14.6s-14.2,4.1-14.2,14.6v2.7c0,10.5,3.7,14.6,14.2,14.6s14.6-4.1,14.6-14.6v-2.7Z M504.2,279.9h12.2v53.6h-12.2v-7.8c-3.7,6.1-10.2,9.2-19.3,9.2-14.2,0-22-8.1-22-28.2s7.8-28.2,22-28.2,15.6,3,19.3,9.2v-7.8h0Z M504.2,305.3c-.3-10.5-4.1-14.6-14.6-14.6s-14.6,4.1-14.6,14.6v2.7c0,10.5,4.1,14.6,14.6,14.6s14.2-4.1,14.6-14.6v-2.7Z M432,278.5c-8.8,0-14.6,3.4-17.3,9.8-2.7-6.5-8.5-9.8-17.3-9.8s-12.5,2.4-15.6,7.1v-5.8h-12.2v53.6h12.2v-31.5c0-8.1,3-11.2,11.2-11.2s10.9,3,10.9,11.2v31.5h12.5v-31.5c0-8.1,2.7-11.2,10.9-11.2s11.2,3,11.2,11.2v31.5h12.2v-36.3c0-11.9-6.8-18.7-18.6-18.7h0Z M281,273.8h12.5v-12.2h-12.5v12.2Z M336.4,278.5c-8.5,0-14.6,3-18,8.5v-7.1h-12.5v53.6h12.5v-29.2c0-9.8,3.4-13.6,13.2-13.6s13.6,3.7,13.6,13.6v29.2h12.2v-33.9c0-13.6-7.5-21-21-21h0Z M371.6,230.4c-9.3,0-14.4-2.5-14.4-14.4s5.1-14.4,14.4-14.4,14.4,2.5,14.4,14.4-5.1,14.4-14.4,14.4Z"/>
</svg>
