<?xml version="1.0" encoding="UTF-8"?>
<svg id="Layer_1" xmlns="http://www.w3.org/2000/svg" version="1.1" viewBox="0 0 1000 1000">
  <!-- Generator: Adobe Illustrator 30.1.0, SVG Export Plug-In . SVG Version: 2.1.1 Build 136)  -->
  <path d="M266.05,475.54c-17.98,0-30.04,12.18-30.04,30.48s12.96,30.38,34.46,30.38h16.84l-13.3,17.06h-5.58c-31.06,0-50.41-18.2-50.41-47.45s19.8-47.79,48.69-47.79c14.34,0,27.64,4.78,38.1,13.66v79.75l-17.52,2.04v-72.47c-5.8-3.64-13.54-5.68-21.28-5.68h.04ZM304.74,572.81l20.7-12.18v-112.29l17.52-13.3v117.53c0,12.52-4.78,20.82-15.48,27.18l-22.76,13.42v-20.36h.02ZM362.64,540.04v-119.91l17.52-13.3v123.9c5.8,3.64,13.54,5.68,21.28,5.68,17.98,0,30.04-12.18,30.04-30.48,0-19.46-12.4-30.26-34.46-30.26-5.46,0-10.92.8-16.84,2.28l13.42-19.34h5.46c31.62,0,50.41,17.64,50.41,47.33s-19.8,47.79-48.69,47.79c-14.34,0-27.64-4.78-38.1-13.66h-.04ZM483.12,475.2c0-7.74,5.34-12.74,13.66-12.74,4.44,0,8.3,1.26,11.26,3.98v20.7h-11.38c-8.54,0-13.54-4.44-13.54-11.94ZM483.12,536.18c0-8.3,5.68-14,14.1-14,4.32,0,8.2,1.36,11.14,3.98v23.2l-4.78.56v-21.28c-1.82-1.14-4.1-1.7-6.6-1.7-5.24,0-8.88,3.76-8.88,9.22s3.98,8.98,10.24,8.98h5.24l-4.2,4.78h-1.6c-8.98,0-14.68-5.34-14.68-13.76l.02.02ZM503.48,482.36v-13.08c-1.82-1.26-4.32-1.82-6.72-1.82-5.8,0-8.88,2.62-8.88,7.74,0,4.56,3.18,7.16,8.76,7.16h6.84ZM488.7,455.39l3.64-3.64,3.64,3.64-3.64,3.64-3.64-3.64ZM497,455.39l3.76-3.64,3.64,3.64-3.64,3.64-3.76-3.64ZM510.76,494.42l6.02-3.52v-25.14l4.56-3.86v20.48h31.62c2.96,0,4.56-1.6,4.56-4.56v-12.06l4.56-3.86v15.7c0,6.14-3.52,9.56-9.66,9.56h-31.06v1.48c0,3.42-1.14,5.58-4.2,7.4l-6.38,3.76v-5.34l-.02-.04ZM515.66,515.36l4.78-3.64v37.88h-4.78v-34.24ZM522.14,556.67l5.8-3.42v-30.6h4.78v28.1c0,3.42-1.26,5.68-4.2,7.5l-6.38,3.76v-5.34h0ZM526.7,515.36l3.64-3.64,3.64,3.64-3.64,3.64-3.64-3.64ZM537.16,496.14l3.64-3.64,3.64,3.64-3.64,3.64-3.64-3.64ZM537.96,536.18c0-8.3,5.68-14,14.1-14,4.32,0,8.2,1.36,11.14,3.98v23.2l-4.78.56v-21.28c-1.82-1.14-4.1-1.7-6.6-1.7-5.24,0-8.88,3.76-8.88,9.22s3.98,8.98,10.24,8.98h5.24l-4.2,4.78h-1.6c-8.98,0-14.68-5.34-14.68-13.76l.02.02ZM545.71,496.14l3.64-3.64,3.52,3.64-3.52,3.64-3.64-3.64ZM582.21,527.18h-13.76v-4.56h22.42l-14.9,22.42h14.34v4.56h-22.98l14.9-22.42h-.02ZM569.71,494.42l6.02-3.52v-28.44h4.56v19.9h32.98v-2.62c0-8.08-4.44-12.52-12.52-12.52h-9.32v-4.78h8.76c11.38,0,17.64,6.26,17.64,17.74v2.16l-5.68,4.78h-31.86v1.48c0,3.42-1.26,5.58-4.2,7.4l-6.38,3.76v-5.34ZM574.37,455.39l3.64-3.64,3.64,3.64-3.64,3.64-3.64-3.64ZM594.27,515.36l3.64-3.64,3.64,3.64-3.64,3.64-3.64-3.64ZM595.53,522.64h4.78v26.96h-4.78v-26.96ZM600.77,496.14l3.64-3.64,3.64,3.64-3.64,3.64-3.64-3.64ZM606.45,522.64h4.78v26.96h-4.78v-26.96ZM614.41,522.64h9.44v4.56h-12.62l3.18-4.56ZM617.83,482.36h10.24c3.08,0,4.54-1.6,4.54-4.56v-21.96l4.56-4.1v25.82c0,6.14-3.42,9.56-9.56,9.56h-9.78v-4.78.02ZM624.78,536.18c0-8.3,5.68-14,14.1-14,4.32,0,8.2,1.36,11.14,3.98v23.2l-4.78.56v-21.28c-1.82-1.14-4.1-1.7-6.6-1.7-5.24,0-8.88,3.76-8.88,9.22s3.98,8.98,10.24,8.98h5.24l-4.2,4.78h-1.6c-8.98,0-14.68-5.34-14.68-13.76l.02.02ZM645.48,455.63l4.56-3.86v35.38h-4.56v-31.52ZM668.34,472.02v-4.56h4.56v5.34c0,6.02,3.52,9.56,9.56,9.56h33.34v-26.74l4.56-3.86v30.6l-5.68,4.78h-30.94c-10.02,0-15.36-5.34-15.36-15.12h-.04ZM668.34,545.97v-30.6l4.78-3.64v31.74c1.82,1.14,4.1,1.7,6.6,1.7,5.24,0,8.88-3.76,8.88-9.22s-3.98-8.98-10.24-8.98c-1.7,0-3.52.22-5.24.68l4.2-5.46h1.6c8.98,0,14.68,5.34,14.68,13.76s-5.68,14-14.1,14c-4.32,0-8.2-1.36-11.14-3.98h-.02ZM688.94,468.94h11.72v2.84h-11.72v-2.84ZM690.76,465.98c0-2.04,1.7-3.52,3.98-3.52h4.1v3.08h-4.1c-1.14,0-1.7.46-1.7,1.6v1.82c-1.26-.22-2.28-1.48-2.28-2.96v-.02ZM697.46,536.18c0-8.3,5.68-14,14.1-14,4.32,0,8.2,1.36,11.14,3.98v23.2l-4.78.56v-21.28c-1.82-1.14-4.1-1.7-6.6-1.7-5.24,0-8.88,3.76-8.88,9.22s3.98,8.98,10.24,8.98h5.24l-4.2,4.78h-1.6c-8.98,0-14.68-5.34-14.68-13.76l.02.02ZM720.33,482.36h24.68v-19.9h4.54v19.9l-5.68,4.78h-23.54v-4.78ZM728.41,522.64h4.78v26.96h-4.78v-26.96ZM730.81,455.39l3.64-3.64,3.64,3.64-3.64,3.64-3.64-3.64ZM738.89,526.96c-1.94,0-3.76.46-5.68,1.26l4.2-5.46c.68-.34,2.16-.56,3.52-.56,6.94,0,11.6,4.66,11.6,11.6v15.82h-4.78v-15.12c0-5-2.96-7.5-8.88-7.5l.02-.04ZM749.57,482.36h21.96c2.96,0,4.54-1.6,4.54-4.56v-12.06l4.56-3.86v15.7c0,6.14-3.42,9.56-9.56,9.56h-21.5v-4.78ZM758.45,515.36l4.78-3.64v23.2l11.94-12.28h5.68l-10.36,10.7,11.48,16.26h-5.34l-9.22-13.08-4.2,4.32v8.76h-4.78v-34.24h.02ZM764.03,496.14l3.64-3.64,3.64,3.64-3.64,3.64-3.64-3.64Z"/>
</svg>