<?xml version="1.0" encoding="UTF-8"?>
<svg xmlns="http://www.w3.org/2000/svg" viewBox="499.65 246.59 350.7 350.7">
 <rect x="499.65" y="246.59" width="350.7" height="350.7" fill="#221AFB"/>
 <path fill="#fff" d="M753.926,395.751c9.027,5.203,17.821,10.267,26.611,15.337c6.485,3.741,12.999,7.434,19.443,11.246
			c11.762,6.958,18.586,17.319,20.846,30.732c0.247,1.467,0.255,2.986,0.257,4.481c0.018,14.997,0.068,29.995-0.009,44.992
			c-0.052,10.173-3.892,18.931-10.435,26.592c-3.507,4.106-7.841,7.136-12.496,9.799c-11.41,6.524-22.795,13.094-34.157,19.703
			c-7.475,4.349-15.522,6.34-24.123,5.881c-6.303-0.337-12.331-1.962-17.828-5.107c-14.659-8.385-29.281-16.834-43.861-25.355
			c-2.138-1.25-3.726-1.5-6.053-0.129c-14.262,8.403-28.662,16.572-42.993,24.858c-7.413,4.286-15.402,6.181-23.91,5.736
			c-7.368-0.386-14.104-2.848-20.453-6.566c-11.557-6.769-23.272-13.273-34.741-20.187c-13.555-8.171-20.86-20.252-21.057-36.211
			c-0.177-14.329-0.034-28.661-0.038-42.992c-0.003-10.251,3.537-19.185,10.041-27.01c3.394-4.083,7.563-7.196,12.155-9.831
			c14.357-8.241,28.656-16.584,43.032-24.793c1.552-0.886,1.976-1.873,1.971-3.54c-0.051-16.997-0.259-33.998,0.037-50.99
			c0.267-15.308,6.954-27.465,20-35.583c10.448-6.502,21.273-12.397,31.942-18.541c2.811-1.618,5.623-3.243,8.508-4.721
			c4.564-2.339,9.441-3.535,14.558-4.044c9.472-0.944,18.098,1.405,26.227,6.119c11.37,6.594,22.72,13.223,34.166,19.682
			c9.382,5.295,15.982,12.889,19.806,22.925c1.673,4.391,2.519,8.971,2.534,13.652c0.056,16.997,0.022,33.994,0.022,50.991
			C753.926,393.785,753.926,394.695,753.926,395.751z M674.88,505.613c0.336-0.093,0.424-0.099,0.493-0.139
			c14.409-8.304,28.921-16.436,43.182-24.986c7.868-4.717,12.032-11.982,12.038-21.352c0.01-15.907-0.021-31.815,0.038-47.722
			c0.006-1.614-0.468-2.509-1.904-3.33c-13.789-7.88-27.466-15.958-41.307-23.745c-8.33-4.686-16.904-4.495-25.209,0.227
			c-13.589,7.727-27.086,15.617-40.666,23.361c-1.568,0.894-2.173,1.857-2.164,3.69c0.077,15.657,0.057,31.315,0.04,46.972
			c-0.011,10.073,4.59,17.468,13.089,22.576c3.776,2.27,7.631,4.41,11.449,6.612C654.258,493.717,664.555,499.658,674.88,505.613z
			 M596.096,422.602c-1.113,0.591-1.776,0.917-2.415,1.286c-10.372,5.994-20.699,12.068-31.125,17.966
			c-6.944,3.928-10.521,9.817-10.593,17.681c-0.127,13.747-0.109,27.496-0.006,41.243c0.057,7.595,3.499,13.404,10.087,17.23
			c12.086,7.019,24.16,14.059,36.323,20.943c5.995,3.392,12.33,3.534,18.346,0.175c11.184-6.244,22.214-12.767,33.301-19.184
			c0.449-0.26,0.836-0.63,1.352-1.025c-0.675-0.457-1.136-0.814-1.637-1.102c-9.445-5.437-18.877-10.895-28.348-16.286
			c-7.612-4.332-13.769-10.146-18.297-17.649c-4.757-7.883-6.982-16.47-6.988-25.652c-0.007-10.832-0.002-21.663-0.002-32.495
			C596.096,424.827,596.096,423.922,596.096,422.602z M698.51,518.924c0.878,0.587,1.525,1.074,2.221,1.476
			c10.59,6.104,21.183,12.202,31.783,18.289c6.453,3.706,13.021,3.756,19.439,0.111c12.219-6.939,24.367-14.006,36.494-21.105
			c6.332-3.707,9.553-9.418,9.615-16.697c0.118-13.907,0.139-27.817-0.008-41.723c-0.08-7.547-3.47-13.341-10.137-17.154
			c-9.384-5.366-18.715-10.825-28.075-16.232c-1.843-1.065-3.718-2.075-5.914-3.297c0,1.306,0,2.201,0,3.097
			c0,11.16,0.027,22.319-0.022,33.479c-0.01,2.234-0.135,4.495-0.499,6.695c-2.503,15.143-10.179,26.866-23.393,34.803
			c-5.773,3.467-11.65,6.762-17.478,10.136C707.937,513.462,703.342,516.125,698.51,518.924z M619.426,382.272
			c0.998-0.501,1.658-0.794,2.281-1.152c9.664-5.544,19.262-11.206,28.997-16.621c16.119-8.966,32.421-8.873,48.542-0.111
			c9.859,5.358,19.458,11.194,29.179,16.805c0.61,0.352,1.272,0.616,2.047,0.987c0.056-0.707,0.117-1.118,0.117-1.53
			c0.005-13.157,0.012-26.314-0.011-39.472c-0.002-0.903-0.156-1.821-0.355-2.706c-1.285-5.692-4.617-9.857-9.623-12.741
			c-11.887-6.847-23.764-13.712-35.676-20.516c-6.623-3.783-13.303-3.699-19.927,0.057c-3.544,2.009-7.062,4.063-10.589,6.101
			c-8.567,4.949-17.193,9.801-25.68,14.883c-6.076,3.638-9.292,9.113-9.299,16.304c-0.011,12.241-0.003,24.482-0.003,36.724
			C619.426,380.167,619.426,381.051,619.426,382.272z"/>
</svg>
