<?xml version="1.0" encoding="UTF-8"?><svg id="Layer_1" xmlns="http://www.w3.org/2000/svg" viewBox="0 0 140.91 59"><defs><style>.cls-1{fill:#0071ce;}</style></defs><g id="Layer_2"><g id="Layer_1-2"><path class="cls-1" d="M42.8,26.69v31.11h-9.38V26.68c0-2.08-1.69-3.77-3.78-3.76-.53,0-1.06,.11-1.54,.33-6.1,2.75-11.88,6.18-17.22,10.22-.95,.71-1.5,1.82-1.51,3-.02,1.18,.52,2.3,1.47,3,4.79,3.65,9.95,6.79,15.38,9.39l-2.22,9.32c-6.68-3.04-12.99-6.81-18.83-11.25C-.6,42.53-1.71,34.3,2.69,28.53c.73-.95,1.58-1.81,2.54-2.53,5.89-4.47,12.26-8.25,19-11.29,6.62-2.98,14.4-.02,17.37,6.59,.76,1.7,1.16,3.54,1.16,5.41l.04-.02Zm92.91-1.12c-5.89-4.46-12.27-8.25-19-11.29l-.12,.27-2.12,9c5.51,2.61,10.73,5.78,15.59,9.45,.94,.71,1.5,1.82,1.51,3,.02,1.18-.52,2.29-1.46,3-5.34,4.07-11.12,7.52-17.23,10.3-1.18,.54-2.55,.44-3.64-.27-1.07-.68-1.72-1.87-1.71-3.14V0h-9.39V45.89c.02,7.25,5.9,13.12,13.15,13.11,1.88,0,3.74-.4,5.45-1.18,6.74-3.05,13.11-6.84,19-11.32,5.77-4.4,6.88-12.65,2.48-18.42-.73-.95-1.58-1.8-2.54-2.52h.03Zm-44.89,5.51c0-9.68-7.85-17.52-17.53-17.53h-13.48c-5.12,0-9.27,4.16-9.28,9.28V57.82h9.37V22.91h13.39c4.5,0,8.15,3.66,8.16,8.16v26.73h9.37V31.07Z"/></g></g></svg>