<?xml version="1.0" encoding="utf-8"?>
<!-- Generator: Adobe Illustrator 26.0.1, SVG Export Plug-In . SVG Version: 6.00 Build 0)  -->
<svg version="1.1" id="Layer_1" xmlns="http://www.w3.org/2000/svg" xmlns:xlink="http://www.w3.org/1999/xlink" x="0px" y="0px"
	 viewBox="0 0 1000 1000" style="enable-background:new 0 0 1000 1000;" xml:space="preserve">
<style type="text/css">
	.st0{fill:#2A3235;}
	.st1{fill:#0A9F89;}
	.st2{fill:#FBC132;}
</style>
<g>
	<path class="st0" d="M818,570.5c0-3-0.4-6-1-8.9c-1.6-6.9-5.9-11.6-12.8-13.3c-7.5-1.9-15.1-1.2-22.2,2.1
		c-3.9,1.8-7.6,3.9-11.6,5.9l-0.1-7.9l-15.4,1.7l0.1,69.1h16.9c0-17.5,0-34.7,0-51.7c3.1-1.8,4.7-2.5,7-3.5
		c5.1-2.3,10.3-2.9,14.7-1.6c7.7,2.3,8,11.6,7.9,15.2c0,12.7,0,28.9,0,41.7H818V570.5z"/>
	<path class="st0" d="M664.4,578.8c-0.1-7.4-2.1-13.1-5.8-18.7c-3.1-4.8-6.9-7.4-11.7-8.7c-6.6-1.7-13.5-1.4-20.1,1.2
		c-2.6,1-5.1,2.4-8,3.6V518l-16.1,1.7V617c1.1,0.4,1.9,0.7,3,0.9c9.2,2.1,18.6,3.3,28.1,2.4c10.2-1,18.8-6,24.6-15
		C663.6,597.2,664.4,588,664.4,578.8 M646.7,593.1c-1.5,8.7-7.7,14.2-16.5,14.4c-2.7,0.1-5.3,0-8.1-0.1c-1-0.1-2-0.1-3.1-0.4v-40.2
		c4.6-2.2,9.1-3.9,14.1-3.7c7,0.4,10.2,4.4,11.4,6.7c2,3.7,3.3,8,3.2,13C647.6,586.4,647.4,589,646.7,593.1"/>
	<path class="st0" d="M900.2,549.1h-18.8c-0.2,0.3-15.5,19.4-22.7,28.4c-2.2,2.7-2.2,3.9-0.3,7c4.1,6.7,21.4,34.7,21.4,34.7h19.4
		l-24.7-38.1L900.2,549.1z"/>
	<polygon class="st0" points="854.4,518 837.3,519.7 837.3,619.3 854.4,619.3 	"/>
	<path class="st0" d="M728.4,552.7c-4.6-3.8-12.2-5.7-22.7-5.7c-6.8,0-12.7,1-17.5,3.1s-8.4,5.1-10.6,9l12.9,8.5
		c1.2-2.3,3.1-4.1,5.7-5.3c2.6-1.2,5.7-1.9,9.3-1.9c4.4,0,7.7,0.7,9.9,2.2c2.3,1.4,3.4,4.1,3.4,8v3.1l-14.2,1.4
		c-7.2,0.8-12.7,2-16.5,3.9c-3.8,1.8-6.7,4.4-8.7,7.6c-1.9,3.2-2.9,7.3-2.9,12.3c0,6.3,1.9,11.5,5.7,15.5s9.4,6.1,16.9,6.1
		s14.5-3.1,21-9.3v8h15.2v-48C735.4,562.7,733.1,556.5,728.4,552.7 M718.8,599.5c-2.8,2.4-5.6,4.2-8.5,5.5s-5.3,2-7.3,2
		c-2.8,0-5.1-0.6-6.8-1.8s-2.6-3.3-2.6-6.5c0-3.6,1.3-6.3,3.9-8.2c2.6-1.8,6.9-3,12.9-3.5l8.4-0.8L718.8,599.5L718.8,599.5z"/>
	<polygon class="st0" points="562.9,518 545.8,519.7 545.8,619.3 562.9,619.3 	"/>
	<path class="st0" d="M519.7,552.7c-4.6-3.8-12.2-5.7-22.7-5.7c-6.8,0-12.7,1-17.5,3.1s-8.4,5.1-10.6,9l12.9,8.5
		c1.2-2.3,3.1-4.1,5.7-5.3s5.7-1.9,9.3-1.9c4.4,0,7.7,0.7,9.9,2.2c2.3,1.4,3.4,4.1,3.4,8v3.1l-14.2,1.4c-7.2,0.8-12.7,2-16.5,3.9
		c-3.8,1.8-6.7,4.4-8.7,7.6c-1.9,3.2-2.9,7.3-2.9,12.3c0,6.3,1.9,11.5,5.7,15.5c3.8,4,9.4,6.1,16.9,6.1s14.5-3.1,21-9.3v8h15.2v-48
		C526.6,562.7,524.3,556.5,519.7,552.7 M510.1,599.5c-2.8,2.4-5.6,4.2-8.5,5.5s-5.3,2-7.3,2c-2.8,0-5.1-0.6-6.8-1.8
		c-1.7-1.2-2.6-3.3-2.6-6.5c0-3.6,1.3-6.3,3.9-8.2c2.6-1.8,6.9-3,12.9-3.5l8.4-0.8V599.5z"/>
	<polygon class="st0" points="215.7,518 198.6,519.7 198.6,619.3 215.7,619.3 	"/>
	<path class="st0" d="M284.1,552.7c-4.6-3.8-12.2-5.7-22.7-5.7c-6.8,0-12.7,1-17.5,3.1s-8.4,5.1-10.6,9l12.9,8.5
		c1.2-2.3,3.1-4.1,5.7-5.3c2.6-1.2,5.7-1.9,9.3-1.9c4.4,0,7.7,0.7,9.9,2.2c2.3,1.4,3.4,4.1,3.4,8v3.1l-14.2,1.4
		c-7.2,0.8-12.7,2-16.5,3.9c-3.8,1.8-6.7,4.4-8.7,7.6c-1.9,3.2-2.9,7.3-2.9,12.3c0,6.3,1.9,11.5,5.7,15.5s9.4,6.1,16.9,6.1
		s14.5-3.1,21-9.3v8H291v-48C291.1,562.7,288.8,556.5,284.1,552.7 M274.5,599.5c-2.8,2.4-5.6,4.2-8.5,5.5s-5.3,2-7.3,2
		c-2.8,0-5.1-0.6-6.8-1.8s-2.6-3.3-2.6-6.5c0-3.6,1.3-6.3,3.9-8.2c2.6-1.8,6.9-3,12.9-3.5l8.4-0.8V599.5z"/>
	<path class="st0" d="M155.3,526.5l-19,1.2l-35.6,91.6h18l8.5-23.6h31l7.2,23.6h19.9L155.3,526.5z M132.8,580l11.6-32.7l9.3,32.7
		H132.8z"/>
	<polygon class="st0" points="427.2,595.5 415.6,560.2 407.2,586.1 417.9,619.3 436.5,619.3 459.2,548.3 442.6,548.3 	"/>
	<polygon class="st0" points="341.7,619.3 357,572.1 368.7,607.8 377.2,581.9 366.3,548.3 347.7,548.3 332.4,595.5 316.9,548.3 
		300.3,548.3 323.1,619.3 	"/>
	<path class="st0" d="M854.5,397.7l-16.6,1.7c0,37,0,51.8,0,97h16.5L854.5,397.7L854.5,397.7z"/>
	<path class="st0" d="M801.4,399.4c0,39.5,0,53.9,0,66.6c0,10.4-3.8,15.9-13,15.9h-16.5v-53.5l-16.6,1.7c0,26.7,0,41.7,0,51.8h-27
		v-53.5l-16.6,1.7c0,26.7,0,41.7,0,51.8h-27v-84.2l-16.6,1.7c0,32.7,0,48.1,0,82.5h-43.8c-9.2,0-13-5.4-13-15.9v-37.6l-16.5,1.7
		c0,0,0,41.8,0,43c0,17.5,9.3,23.2,21.9,23.2H796c12.6,0,21.9-5.8,21.9-23.2c0-4.1,0-75.5,0-75.5L801.4,399.4z"/>
	<polygon class="st0" points="650.5,424.2 650.5,416.4 629.7,418.6 629.7,439.3 650.5,437.1 650.5,429.4 640.1,430.4 640.1,425.3 	
		"/>
	<polygon class="st0" points="728.8,415.4 711.5,417.2 711.5,399.4 728.8,397.7 	"/>
	<polygon class="st0" points="772.3,526.3 755,528 755,510.3 772.3,508.6 	"/>
	<polygon class="st0" points="562.9,397.7 545.8,399.4 545.8,496.4 562.9,496.4 	"/>
	<polygon class="st0" points="487,388.4 487,380.6 466.2,382.8 466.2,403.5 487,401.4 487,393.6 476.6,394.7 476.6,389.5 	"/>
	<path class="st0" d="M362.8,397.7l-17.1,1.7v97H336c-7.2,0-14-1.1-18.2-4.6c-3.8-3.2-5.1-8.4-5.1-15.6v-33.3l-17.1,1.7v31
		c0,9.9,2.2,19.6,8.2,25.2c7.4,7.1,16.5,10,31,10h28.1V397.7H362.8z"/>
	<path class="st0" d="M405.3,495.4l5.2-15.9c-8.6-1.5-14.9-7.3-14.9-16.9c0-10.4,9.6-17.2,19.8-17.2h6.2l5.5-17.1h-6.7
		c-24.4,0-41.8,12.9-41.8,34.3C378.5,481.6,389.5,491.7,405.3,495.4"/>
	<path class="st0" d="M509.1,466c0,10.4-3.8,15.9-13,15.9h-10.9v-66l-16.6,1.7c0,34.2,0,44.7,0,64.3h-27.5l-4.7,14.5
		c7.8,0,65.6,0,67.4,0c12.6,0,21.9-5.8,21.9-23.2c0-4.1,0-75.5,0-75.5l-16.6,1.7C509.1,438.9,509.1,453.3,509.1,466"/>
	<polygon class="st1" points="417.4,531.8 451,428.4 434.5,428.4 400.9,531.8 	"/>
	<polygon class="st2" points="389,619.3 412.1,548.3 395.5,548.3 372.4,619.3 	"/>
</g>
</svg>
