<?xml version="1.0" encoding="UTF-8"?>
<svg id="Layer_1" xmlns="http://www.w3.org/2000/svg" xmlns:xlink="http://www.w3.org/1999/xlink" version="1.1" viewBox="153.76 364.79 757.53 270.48">
  <!-- Generator: Adobe Illustrator 30.0.0, SVG Export Plug-In . SVG Version: 2.1.1 Build 123)  -->
  <defs>
    <style>
      .st0 {
        fill: none;
      }

      .st1 {
        fill: #3c3c3c;
      }

      .st2 {
        fill: url(#linear-gradient);
      }

      .st3 {
        fill: #717171;
      }

      .st4 {
        fill: #fff;
      }

      .st5 {
        clip-path: url(#clippath);
      }
    </style>
    <clipPath id="clippath">
      <rect class="st0" x="705.79" y="430.1" width="140.44" height="139.8"/>
    </clipPath>
    <linearGradient id="linear-gradient" x1="-1.39" y1="1007.66" x2="2.19" y2="1007.66" gradientTransform="translate(801.59 -48467.08) rotate(180) scale(48.59 -48.59)" gradientUnits="userSpaceOnUse">
      <stop offset="0" stop-color="#f08823"/>
      <stop offset=".14" stop-color="#ee7a24"/>
      <stop offset=".4" stop-color="#e95827"/>
      <stop offset="1" stop-color="#e84432"/>
      <stop offset="1" stop-color="#e84432"/>
    </linearGradient>
  </defs>
  <g class="st5">
    <rect class="st2" x="678.71" y="402.62" width="194.6" height="194.77" transform="translate(-74.08 859.92) rotate(-55.74)"/>
  </g>
  <g>
    <path class="st4" d="M770.74,519.53c.45-.26.91-.48,1.39-.67v-33.37c-.05-.83-.06-4.58,3.31-6.46.64-.36,1.41-.36,2.06,0,3.38,1.88,3.37,5.62,3.32,6.43v33.67c.26.12.52.23.78.38,2.03,1.15,4.55,2.62,7.41,4.35v-37.94c.28-4.47-1.78-13.24-11.58-15.62-.63-.15-1.3-.15-1.93,0-9.8,2.37-11.85,11.15-11.58,15.62v37.66c2.62-1.6,4.93-2.96,6.82-4.04"/>
    <path class="st4" d="M821.66,547.09v-64.15l-8.21-5.86v63.37c2.76,2.12,5.52,4.34,8.21,6.63"/>
    <path class="st4" d="M747.66,534.26c2.83-2,5.58-3.87,8.21-5.59,0,0-.01-40.06-.01-40.09,0-6.55,1.33-13.11,5.11-18.6,1.73-2.51,3.92-4.68,6.43-6.4,2.57-1.76,5.86-4.04,9.12-3.91,2.91.12,6.23,2.07,8.61,3.64,4.34,2.86,7.63,7,9.6,11.79,1.78,4.33,2.35,8.82,2.35,13.46,0,0,0,40.35,0,40.35,2.63,1.7,5.39,3.56,8.21,5.54v-45.42c0-9.29-2.1-18.56-7.92-26.04-2.43-3.12-5.43-5.77-8.86-7.75-3.03-1.75-6.37-3.43-9.87-3.94-3.36-.49-6.78.88-9.82,2.18-5.52,2.36-10.38,6.06-13.94,10.9-5.26,7.17-7.21,15.9-7.21,24.65v45.23Z"/>
    <path class="st4" d="M740.19,539.77v-62.78l-8.21,5.95v63.47c2.69-2.3,5.45-4.52,8.21-6.64"/>
  </g>
  <polygon class="st1" points="166.76 441.94 161.42 436.82 154.44 444.07 161.71 450.63 166.23 445.43 171.97 450.61 178.4 443.37 171.7 436.8 166.76 441.94"/>
  <g>
    <path class="st1" d="M173.98,477.38c-1.94.87-4.21,1.2-5.87,1.2-2.76,0-5.27-1.05-6.91-2.84,1.48-3.88,4.03-7.47,7.21-10.17,2.26,3.76,3.96,7.37,5.57,11.81M179.62,484.01l.47-.3,2.22-5.13-.23-.67c-1.65-4.87-3.26-8.67-5.67-13.39l.48-2.21-10.39-12.49-5.43,5.42,1.04,1.28c.7.87,1.34,1.74,1.95,2.59-6.21,5.35-10.3,11.98-10.3,16.88,0,6.15,6.24,11.15,13.9,11.15,4.47,0,8.82-1.14,11.94-3.13"/>
    <path class="st1" d="M357.68,463.67c2.79,0,4.82,2.32,4.82,5.51,0,2.29-1.37,4.53-3.88,6.38-3.2-1.54-5.4-3.71-6.7-6.62.87-3.22,3.09-5.27,5.77-5.27M373.57,453.5l-.59-2.86-12.99-4.69-3.02,5.78v2.66l1.3.39c12.13,3.62,17.07,9.19,17.07,19.22,0,1.84-.06,3.41-.18,4.64-3.17-.06-5.98-.29-8.47-.69,2.2-2.9,3.42-6.22,3.42-9.47,0-7.07-5.54-12.61-12.61-12.61-6.39,0-12.44,6.55-12.44,13.48,0,2.89,1.14,5.71,3.26,8.17-.49.01-1.14.02-2.03.02-.8,0-89.56.09-103.67.22-13.64-.14-44.56-.22-44.78-.22h-2.76c-.41-4.63-2.1-10.54-5.47-19.2l-.77-1.97-8.36,4.76.8,1.56c3.63,7.09,5.87,12.88,7.24,18.67-1.97,5.91-6.09,10.73-10.68,12.4-2.07.93-5.54,1.56-9.05,1.65l-1.7.05-.24,5.25,14.74,2.06.6-.46c5.91-4.47,10.1-10.12,11.93-16.02h3.71c.23,0,31.35-.09,44.74-.23,14.3.14,102.91.23,103.71.23,6.52,0,8.77-.88,12.18-2.21h0c5.77,2.03,12.9,3.07,21.21,3.07h1.45l.33-1.41c.97-4.18,1.51-8.59,1.51-12.41,0-8.35-2.9-14.48-9.4-19.82"/>
  </g>
  <polygon class="st1" points="421.04 445.72 426.77 450.9 433.2 443.65 426.51 437.09 421.56 442.22 416.22 437.1 409.26 444.35 416.52 450.91 421.04 445.72"/>
  <g>
    <path class="st1" d="M421.97,461.43c2.59,0,5.6,2.55,6.54,7.42-1.93,2.81-3.95,4.85-6.26,6.34-3.11-1.74-5.85-4.53-7.41-7.51,1.07-3.82,3.82-6.25,7.13-6.25M448.93,443.52l-7.03,3.12.28,1.43c.32,1.61.61,3.02.87,4.3,1.44,6.99,2.09,10.18,2.38,22.8.03,1.42.05,2.08.06,2.36h-7.38c-2.61,0-4.9-.06-6.84-.19,2.18-2.44,4.44-5.96,4.44-10.07,0-8.05-6.17-14.86-13.48-14.86s-14.33,7.43-14.33,15.29c0,3.25,1.57,6.68,4.34,9.65-1.73.12-3.81.18-6.49.18h-8.56c-.12-9.07-.34-12.91-.7-19.04-.18-3.22-.4-7.05-.66-12.6l-.12-2.54-8.99,3.49.12,1.37c.47,5.2.85,9.25,1.17,12.65.86,9.1,1.29,13.67,1.67,23.65l.07,1.76h18.25c4.65,0,9.08-.88,13.54-2.69,4.25,1.79,8.58,2.69,12.87,2.69h17.53l.16-1.64c.17-1.74.33-2.97.45-4.01.33-2.63.51-4.08.51-9.03,0-4.2-.05-4.68-.22-6.73-.09-.92-.19-2.17-.34-4.25l1.64-2.13-5.2-14.98Z"/>
    <path class="st1" d="M465.03,458.89c-.18-3.44-.38-7.41-.62-12.98l-.11-2.54-8.98,3.48.1,1.35c.56,7.21.98,11.97,1.33,15.98.57,6.43.98,11.07,1.51,21.06l.1,1.92,7.64-.81-.04-1.68c-.29-13.36-.55-18.3-.93-25.79"/>
    <path class="st1" d="M540.61,472.65l1.96-.72c5.68-2.1,8.56-2.98,14.37-4.06l1.38-.26.66-8.16-2.4.52c-2.49.54-4.48,1.04-6.24,1.59-1.29-.1-2.26-.59-2.98-2.32.8-.75,2.02-1.07,2.76-1.21l.2-.04c1.15-.21,2.14-.39,3.45.14l1.64.67,2.52-5.68-7.35-2.94h-.36c-5.68,0-9.5,5.09-9.5,9.85,0,1.83.59,3.52,1.68,4.92l-3.15,1.61,1.37,6.09Z"/>
  </g>
  <polygon class="st1" points="661.29 447.92 654.57 441.49 647.6 448.74 654.87 455.3 661.29 447.92"/>
  <path class="st1" d="M675.84,453.49l-7.08,3.46.54,1.53c2.41,6.83,3.5,12.48,3.67,19.06h-9.36c-2.49,0-4.68-.32-6.67-.96.68-3.05,1.5-7.32,2.59-13.28l.31-1.71-8.75-2.08-.26,2.02c-.23,1.76-.44,3.5-.64,5.18-.44,3.62-.87,7.07-1.34,10.01-1.45.56-3.15.82-5.27.82h-15.94c-.24-3.32-.45-6.01-.63-8.32-.65-8.33-.92-11.78-1.05-23.26l-.03-2.67-9.03,3.65.07,1.3c.64,12.18,1.22,15.81,1.85,19.64.35,2.14.71,4.34,1.1,8.17-5.58,1.31-10.76,2.19-17.09,2.32-.98,0-83.39,0-108.63,0h-1.45c-10.69,0-10.69-5.89-10.69-7.82s.41-3.89,1.71-7.7l.59-1.74-5.13-1.71-.67,1.53c-1.59,3.65-3.31,9.34-3.79,11.01l-.08.29v.3c.4,9.39,6.48,14.57,17.11,14.57h1.88c23.54,0,56.31.01,79.96.01,17.37,0,29.82,0,30.1-.01,6.84-.22,11.62-1.36,18.37-3.12.35.57.72,1.1,1.12,1.6l.55.69h19.82c5.26,0,8.42-1.65,10.33-3.57l1.33,2.04.57.21c2.3.83,5.14,1.31,7.78,1.32h15.59l.2-1.6c.65-5.2.93-9.8.89-14.42l1.62-2.33-6.06-14.44Z"/>
  <polygon class="st1" points="665.03 497.32 672.3 503.88 678.71 496.51 672.01 490.08 665.03 497.32"/>
  <path class="st3" d="M161.95,544.78c1.13.2,2.6.23,4.63.23,5.09,0,9.91-1.62,9.91-6.83,0-4.78-4.52-6.6-10.17-6.6h-4.37v13.21ZM161.95,525.92h4.51c5.86,0,8.83-2.39,8.83-5.78,0-4.04-3.39-5.54-8.36-5.54-2.65,0-4.08.17-4.98.35v10.97ZM154.15,509.74c2.47-.48,7.35-.92,11.96-.92,6.12,0,9.56.74,12.46,2.53,2.73,1.5,4.69,4.16,4.69,7.9s-2.46,7.21-7.11,8.83v.15c4.22,1.03,8.65,4.31,8.65,10.24,0,3.75-1.74,6.64-4.27,8.64-3.12,2.49-8.21,3.75-16.31,3.75-4.57,0-7.99-.32-10.07-.58v-40.55Z"/>
  <path class="st3" d="M213.57,535.95c-6.24-.1-11.48,1.16-11.48,5.47,0,2.77,1.95,4.19,4.65,4.19,3.46,0,5.82-2.22,6.6-4.36.18-.54.23-1.15.23-1.68v-3.63ZM214.58,550.43l-.56-3.42h-.19c-1.92,2.37-5.34,4.15-9.61,4.15-6.63,0-10.02-4.56-10.02-8.87,0-7.47,6.77-11.46,19.15-11.39v-.39c0-1.58-.63-5.19-6.58-5.16-3.18,0-6.66,1.05-8.83,2.41l-1.57-5.03c2.51-1.51,6.61-2.81,11.65-2.81,10.18,0,13.16,6.28,13.16,12.88v10.33c0,2.84.16,5.51.49,7.31h-7.11Z"/>
  <path class="st3" d="M234.39,529.65c0-3.46-.1-6.45-.24-9.01h6.89l.38,4.8h.19c1.29-2.29,4.76-5.53,10.31-5.53,5.27,0,11.58,3.17,11.58,13.43v17.09h-7.87v-16.11c0-4.71-1.88-8.08-6.42-8.08-3.46,0-5.74,2.4-6.59,4.67-.25.61-.35,1.5-.35,2.29v17.23h-7.87v-20.77Z"/>
  <path class="st3" d="M298.84,533.36c0-.63-.05-1.25-.19-1.83-.76-2.95-3.48-5.59-7.42-5.59-5.41,0-8.59,4.1-8.59,9.7,0,5.28,2.99,9.38,8.41,9.38,3.62,0,6.51-2.35,7.43-5.4.23-.68.36-1.6.36-2.31v-3.95ZM298.84,545.88h-.12c-1.97,3.21-5.47,5.28-10.41,5.28-7.16,0-13.69-5.75-13.69-15.2,0-11.11,7.84-16.06,14.49-16.06,4.96,0,8.07,2.11,9.73,4.89h.13l.19-4.15h7.76c-.11,2.8-.21,5.54-.21,8.35v33.67h-7.87v-16.78Z"/>
  <path class="st3" d="M348.88,541.41c0,3.64.1,6.63.24,9.01h-6.89l-.36-4.96h-.19c-1.28,2.2-4.43,5.69-10.5,5.69-5.42,0-11.28-2.97-11.28-13.37v-17.15h7.88v15.74c0,5.18,1.83,8.42,6.26,8.42,3.35,0,5.62-2.22,6.55-4.39.26-.64.42-1.41.42-2.25v-17.52h7.88v20.77Z"/>
  <path class="st3" d="M382.41,532.28c.03-2.08-1.05-7.14-7.01-7.14-5.24,0-7.38,4.24-7.78,7.14h14.79ZM367.64,537.72c.24,4.98,4.78,7.52,10.05,7.52,3.9,0,6.59-.57,9.18-1.49l1.17,5.35c-2.78,1.15-6.54,2.05-11.39,2.05-10.33,0-16.51-6.11-16.51-15.2,0-7.68,5.08-16.05,15.73-16.05s13.97,8.72,13.97,14.76c0,1.3-.14,2.46-.3,3.06h-21.9Z"/>
  <path class="st3" d="M441.19,533.39c0-.62-.05-1.39-.19-2.01-.8-3.07-3.58-5.55-7.45-5.55-5.37,0-8.56,4.14-8.56,9.73s3.09,9.36,8.5,9.36c3.69,0,6.74-2.59,7.47-5.92.18-.73.23-1.49.23-2.29v-3.32ZM449.07,506.62v35.35c0,3.26.1,6.52.25,8.46h-7.07l-.32-5.11h-.12c-2.02,3.74-6.07,5.84-10.82,5.84-7.57,0-14-5.98-14-15.2-.06-9.82,6.75-16.06,14.7-16.06,4.62,0,7.93,1.85,9.39,4.1h.12v-17.38h7.87Z"/>
  <path class="st3" d="M491.29,541.41c0,3.64.1,6.63.24,9.01h-6.89l-.36-4.96h-.19c-1.28,2.2-4.43,5.69-10.5,5.69-5.42,0-11.28-2.97-11.28-13.37v-17.15h7.88v15.74c0,5.18,1.83,8.42,6.26,8.42,3.35,0,5.62-2.22,6.55-4.39.27-.64.42-1.41.42-2.25v-17.52h7.88v20.77Z"/>
  <path class="st3" d="M556.25,549.02c-1.98.99-6.49,2.14-12.25,2.14-14.3,0-23.14-8.4-23.14-20.89s9.83-21.82,24.2-21.82c5.72,0,9.76,1.16,11.52,2.08l-1.78,6.17c-2.25-1.02-5.56-1.87-9.42-1.87-9.71,0-16.25,5.63-16.25,15.1,0,8.41,5.67,14.77,16.1,14.77,3.55,0,7.28-.69,9.6-1.75l1.41,6.07Z"/>
  <path class="st3" d="M584.1,535.95c-6.24-.1-11.48,1.16-11.48,5.47,0,2.77,1.95,4.19,4.65,4.19,3.46,0,5.82-2.22,6.6-4.36.18-.54.23-1.15.23-1.68v-3.63ZM585.11,550.43l-.56-3.42h-.19c-1.91,2.37-5.33,4.15-9.6,4.15-6.63,0-10.02-4.56-10.02-8.87,0-7.47,6.77-11.46,19.15-11.39v-.39c0-1.58-.63-5.19-6.58-5.16-3.18,0-6.66,1.05-8.83,2.41l-1.57-5.03c2.51-1.51,6.61-2.81,11.65-2.81,10.18,0,13.16,6.28,13.16,12.88v10.33c0,2.84.16,5.51.49,7.31h-7.11Z"/>
  <path class="st3" d="M604.92,520.64h7.87v29.79h-7.87v-29.79ZM613.33,512.13c0,2.25-1.68,4.17-4.52,4.17s-4.37-1.91-4.37-4.17,1.73-4.17,4.46-4.17,4.4,1.86,4.44,4.17"/>
  <path class="st3" d="M626.21,530.61c0-4.4-.06-7.28-.24-9.97h6.79l.26,6.05h.22c1.57-4.58,5.38-6.78,8.85-6.78.77,0,1.22.03,1.89.19v7.27c-.72-.15-1.45-.26-2.47-.26-4.03,0-6.6,2.41-7.26,5.89-.11.65-.16,1.38-.16,2.08v15.35h-7.87v-19.81Z"/>
  <path class="st3" d="M673.84,532.28c.03-2.08-1.05-7.14-7.01-7.14-5.23,0-7.38,4.24-7.78,7.14h14.79ZM659.08,537.72c.24,4.98,4.78,7.52,10.05,7.52,3.9,0,6.59-.57,9.18-1.49l1.17,5.35c-2.78,1.15-6.54,2.05-11.39,2.05-10.33,0-16.51-6.11-16.51-15.2,0-7.68,5.08-16.05,15.73-16.05s13.97,8.72,13.97,14.76c0,1.3-.14,2.46-.3,3.06h-21.9Z"/>
</svg>