<?xml version="1.0" encoding="UTF-8"?>
<svg xmlns="http://www.w3.org/2000/svg" viewBox="714.49 436.82 124.66 124.66">
 <defs>
  <linearGradient id="bdcGrad" x1="1" y1="0" x2="0" y2="1">
   <stop offset="0" stop-color="#E8934D"/>
   <stop offset="1" stop-color="#C1392B"/>
  </linearGradient>
 </defs>
 <rect x="714.49" y="436.82" width="124.66" height="124.66" fill="url(#bdcGrad)"/>
 <g fill="#fff">
  <path d="M770.74,519.53c.45-.26.91-.48,1.39-.67v-33.37c-.05-.83-.06-4.58,3.31-6.46.64-.36,1.41-.36,2.06,0,3.38,1.88,3.37,5.62,3.32,6.43v33.67c.26.12.52.23.78.38,2.03,1.15,4.55,2.62,7.41,4.35v-37.94c.28-4.47-1.78-13.24-11.58-15.62-.63-.15-1.3-.15-1.93,0-9.8,2.37-11.85,11.15-11.58,15.62v37.66c2.62-1.6,4.93-2.96,6.82-4.04"/>
  <path d="M821.66,547.09v-64.15l-8.21-5.86v63.37c2.76,2.12,5.52,4.34,8.21,6.63"/>
  <path d="M747.66,534.26c2.83-2,5.58-3.87,8.21-5.59,0,0-.01-40.06-.01-40.09,0-6.55,1.33-13.11,5.11-18.6,1.73-2.51,3.92-4.68,6.43-6.4,2.57-1.76,5.86-4.04,9.12-3.91,2.91.12,6.23,2.07,8.61,3.64,4.34,2.86,7.63,7,9.6,11.79,1.78,4.33,2.35,8.82,2.35,13.46,0,0,0,40.35,0,40.35,2.63,1.7,5.39,3.56,8.21,5.54v-45.42c0-9.29-2.1-18.56-7.92-26.04-2.43-3.12-5.43-5.77-8.86-7.75-3.03-1.75-6.37-3.43-9.87-3.94-3.36-.49-6.78.88-9.82,2.18-5.52,2.36-10.38,6.06-13.94,10.9-5.26,7.17-7.21,15.9-7.21,24.65v45.23Z"/>
  <path d="M740.19,539.77v-62.78l-8.21,5.95v63.47c2.69-2.3,5.45-4.52,8.21-6.64"/>
 </g>
</svg>
