<?xml version="1.0" encoding="UTF-8"?>
<svg xmlns="http://www.w3.org/2000/svg" viewBox="13.05 -15.33 158.3 158.3">
 <rect x="13.05" y="-15.33" width="158.3" height="158.3" fill="#fff"/>
 <path fill="#0099d8" d="M125.9,2.6l22.8,25.7c.3.3,1.4,1.5,1.4,1.5,9.8,12.2-1.6,40.5-25.8,65.7-24.7,25.8-53,39.4-66.1,28.2l-27.4-22c5.3,3.3,14.5,1.6,25.4-4,.2-.1.5-.2.7-.3.1,0,.3-.1.4-.2,11.5-6.1,24.8-16.3,37.4-29.5,12.7-13.2,22.3-27,27.9-38.7,0-.2.1-.3.2-.5.1-.2.2-.4.3-.7,5-11,6.3-20.2,2.9-25.3
"/>
 <path fill="#f79239" d="M129.1,104.8c-6.3,6.6-8.1,15.2-4,19.1,4.1,4,12.6,1.8,18.9-4.8,6.3-6.6,8.1-15.2,4-19.1-4.1-4-12.6-1.8-19,4.8Z
"/>
 <path fill="#0070af" d="M119,2.7c-9.5-9.1-37.6,5.5-63.5,32.5-1.9,2-3.7,4.2-5.5,6.4l23.3,21.5c1.9-2.2,3.4-3.9,5.5-6.1,12.5-13,25.5-23.2,37.4-27.2,5.9-12.4,7.7-22.4,2.8-27.1
"/>
</svg>
