<?xml version="1.0" encoding="UTF-8"?>
<svg id="Layer_1" xmlns="http://www.w3.org/2000/svg" version="1.1" viewBox="0 0 184.3 184.3">
  <!-- Generator: Adobe Illustrator 30.6.0, SVG Export Plug-In . SVG Version: 2.1.4 Build 109)  -->
  <defs>
    <style>
      .st0, .st1 {
        fill: #0070af;
      }

      .st2 {
        fill: #f79239;
      }

      .st3 {
        fill: #0099d8;
      }

      .st1 {
        fill-rule: evenodd;
      }
    </style>
  </defs>
  <g id="Brandmark_C">
    <g id="Logotype_C">
      <g>
        <g>
          <path class="st0" d="M81.4,155.9c0,1-.3,1.7-.8,2.2-.7.7-1.8.7-2.6.7-.1,0-55.7,0-55.7,0v-11.2h-3.8v13.9h58.9c3.1,0,5.3-.7,6.6-2.1,1.3-1.3,1.2-2.8,1.2-2.9v-8.9s-10.1,0-10.1,0c0,0-2.3,0-3.7,1.4-.7.7-1,1.6-1,2.7s.8,4.3,4.3,4.3h6.7M76.1,153.2c0,0-1.9,0-1.9-1.7s0-1.4,2.3-1.4h4.9v3.1h-5.3Z"/>
          <path class="st0" d="M15.1,151.3l-4.1,2.4v6.4c0,1.1-.2,1.9-.7,2.3-.7.6-1.7.6-2.4.6-.1,0-.2,0-.3,0-3.4,0-3.4-2-3.4-2.1,0,0,0-9.6,0-9.6l-4.1,2.4v7.4c0,4.6,6,4.8,7.2,4.8,3.2,0,5.5-.7,6.8-2.2,1.2-1.4,1.1-2.8,1.1-2.9v-9.5Z"/>
          <path class="st0" d="M93.9,158.7v-9.2l-3.8,2.2v8.4c0,1.1-.3,1.9-.8,2.4-.7.7-1.8.7-2.6.7-.1,0-4.8,0-4.8,0v2.6h4.2c6.7,0,7.6-2.7,7.8-3.9,0,0,0-.7,0-.6h2.6c3.1,0,5.3-.7,6.6-2.1,1.3-1.3,1.2-2.8,1.2-2.9,0,0,0-6.8,0-6.8l-3.8,2.2v3.9c0,1.1-.3,1.9-.8,2.4-.7.7-1.8.7-2.6.7h-3.2Z"/>
          <rect class="st0" x="5.5" y="147.4" width="3.8" height="2.6"/>
          <rect class="st0" x="55.4" y="147.4" width="3.8" height="2.6"/>
          <rect class="st0" x="60.9" y="147.4" width="3.8" height="2.6"/>
          <rect class="st0" x="100.6" y="163.3" width="3.8" height="2.6"/>
        </g>
        <g>
          <path class="st0" d="M172.3,159.5v1.8h4.2c3.1,0,5.3-.7,6.6-2.1,1.3-1.3,1.2-2.8,1.2-2.9v-6.8l-3.8,2.2v3.9c0,1.1-.3,1.9-.8,2.4-.7.7-1.8.7-2.6.7-.1,0-4.1,0-4.1,0M173,158.7c.8-1.2.8-2.3.8-2.4,0,0,0-4.6,0-4.6h-3.8v3.9c0,1.1-.3,1.9-.8,2.4-.7.7-1.8.7-2.6.7s-4.4,0-4.4,0v-5.7h-36.9c0-.7.3-1.4.8-1.8,1.1-1.1,3.1-1,3.1-1,0,0,22.1,0,22.1,0l1.8-2.7h-25.5c-5.2,0-6.4,4.3-6.6,5.7,0,.4-.1.8-.1,1.2s0,.9,0,1.3h0c0,.1,37.2.1,37.2.1v3h-46.5v2.6h54.3c2.9,0,5-.6,6.3-1.9"/>
          <rect class="st0" x="169.9" y="147.4" width="3.8" height="2.6"/>
          <rect class="st0" x="180.4" y="163.3" width="3.8" height="2.6"/>
        </g>
      </g>
      <g>
        <g>
          <path class="st1" d="M18.5,170.6h3.5v8.9s-.3,2.4,3.4,2.4,4.1.4,4.1-3.2v-8.1h3.5v8.8s.4,4.8-7.7,4.8-6.9-.3-6.9-4.6v-9.1Z"/>
          <path class="st1" d="M68.9,170.6v2.5h-7.4s-4-.2-4,3.7-.5,4.8,3.5,4.8h4.2v-3.1h-4.6v-2.5h8.3v8.2h-7.3s-8.2.6-8.2-7.1,1-6.5,6.6-6.5,8.9,0,8.9,0Z"/>
          <path class="st1" d="M47.7,178.5c3-.6,3.3-2.9,3.3-3.9,0-4.2-5.4-4-5.4-4h-9.2v13.6h3.5v-5.3h4.1s3.8,5.3,3.8,5.3h4l-4.2-5.7ZM44.9,176.3h-4.9v-3.3h5c1.8,0,2.4.8,2.4,1.6,0,1.9-2.5,1.7-2.5,1.7Z"/>
          <path class="st1" d="M81.2,170.6h-3.8l-7,13.6h3.9l1.5-3.2h7.2l1.5,3.2h3.9l-7.2-13.6ZM77,178.4l2.4-5,2.4,5h-4.7Z"/>
          <path class="st1" d="M89.7,170.6h4.5l6.7,9.5v-9.5h3.4v13.6h-3.8l-7.3-9.9v9.9h-3.5v-13.6Z"/>
          <path class="st1" d="M12.5,177.3s2.4-.6,2.4-3.2-2.6-3.5-4.8-3.5-10.2,0-10.2,0v13.6h9.5s5.5.3,5.5-3.6-.8-2.6-2.4-3.3ZM9,176H3.5v-3h5.5c1.2,0,2,.7,2,1.4,0,1.7-2,1.6-2,1.6ZM9,181.5H3.5v-3h5.5c1.2,0,2,.7,2,1.4,0,1.7-2,1.6-2,1.6Z"/>
        </g>
        <g>
          <path class="st1" d="M169.7,170.6v13.6s3.5,0,3.5,0v-6.7l6.5,6.7h4.6l-6.9-7.1,6.6-6.5h-4.3l-6.4,6.3v-6.3h-3.5Z"/>
          <path class="st1" d="M143.1,170.6h-3.8l-7,13.6h3.9l1.5-3.2h7.2l1.5,3.2h3.9l-7.2-13.6ZM138.8,178.4l2.4-5,2.4,5h-4.7Z"/>
          <path class="st1" d="M151.6,170.6h4.5l6.7,9.5v-9.5h3.4v13.6h-3.8l-7.3-9.9v9.9h-3.5v-13.6Z"/>
          <path class="st1" d="M129.8,177.3s2.4-.6,2.4-3.2-2.6-3.5-4.8-3.5-10.2,0-10.2,0v13.6h9.5s5.5.3,5.5-3.6-.8-2.6-2.4-3.3ZM126.2,176h-5.4v-3h5.5c1.2,0,2,.7,2,1.4,0,1.7-2,1.6-2,1.6ZM126.2,181.5h-5.4v-3h5.5c1.2,0,2,.7,2,1.4,0,1.7-2,1.6-2,1.6Z"/>
        </g>
      </g>
    </g>
    <g id="Symbol_C">
      <path class="st3" d="M125.9,2.6l22.8,25.7c.3.3,1.4,1.5,1.4,1.5,9.8,12.2-1.6,40.5-25.8,65.7-24.7,25.8-53,39.4-66.1,28.2l-27.4-22c5.3,3.3,14.5,1.6,25.4-4,.2-.1.5-.2.7-.3.1,0,.3-.1.4-.2,11.5-6.1,24.8-16.3,37.4-29.5,12.7-13.2,22.3-27,27.9-38.7,0-.2.1-.3.2-.5.1-.2.2-.4.3-.7,5-11,6.3-20.2,2.9-25.3"/>
      <path class="st2" d="M129.1,104.8c-6.3,6.6-8.1,15.2-4,19.1,4.1,4,12.6,1.8,18.9-4.8,6.3-6.6,8.1-15.2,4-19.1-4.1-4-12.6-1.8-19,4.8Z"/>
      <path class="st0" d="M119,2.7c-9.5-9.1-37.6,5.5-63.5,32.5-1.9,2-3.7,4.2-5.5,6.4l23.3,21.5c1.9-2.2,3.4-3.9,5.5-6.1,12.5-13,25.5-23.2,37.4-27.2,5.9-12.4,7.7-22.4,2.8-27.1"/>
    </g>
  </g>
</svg>