<?xml version="1.0" encoding="UTF-8"?>
<svg xmlns="http://www.w3.org/2000/svg" viewBox="119.5 119.5 761 761">
 <rect x="119.5" y="119.5" width="761" height="761" fill="#fff"/>
 <path fill="#EEF2F8" fill-rule="evenodd" clip-rule="evenodd" d="M141,141v718h718V141H141z M753,753H247V247h506V753z"/>
 <path fill="#D49033" fill-rule="evenodd" clip-rule="evenodd" d="M409.3,506.6v-22.3c-10.1,1.1-19.5,4.7-27.4,10.3C389.4,501.1,398.9,505.3,409.3,506.6 M409.3,472.1v-10.9
			h-45.4c1.1,9.1,4.5,17.5,9.6,24.5C383.7,478.1,395.9,473.2,409.3,472.1 M409.3,449v-10.9c-13.3-1.1-25.6-6-35.7-13.6
			c-5.2,7-8.6,15.4-9.6,24.5H409.3z M409.3,425.9v-22.3c-10.4,1.2-19.8,5.5-27.4,11.9C389.7,421.2,399.1,424.9,409.3,425.9
			 M421.4,403.6v22.3c10.1-1,19.5-4.7,27.4-10.3C441.2,409.1,431.8,404.9,421.4,403.6 M421.4,438.1V449h45.4
			c-1.1-9.1-4.5-17.5-9.6-24.5C447,432.1,434.7,437,421.4,438.1 M421.4,461.2v10.9c13.3,1.1,25.6,6,35.7,13.6
			c5.2-7,8.6-15.4,9.6-24.5H421.4z M421.4,484.3v22.3c10.4-1.2,19.8-5.5,27.4-11.9C440.9,489,431.5,485.3,421.4,484.3 M351.4,455.1
			c0-35.3,28.6-63.9,63.9-63.9c35.3,0,63.9,28.6,63.9,63.9S450.7,519,415.3,519C380,519,351.4,490.4,351.4,455.1"/>
 <path fill="#2D5B9D" fill-rule="evenodd" clip-rule="evenodd" d="M303.7,359.9h165.8v17H343c-8.6,0-15.6,7-15.6,15.6v125.3c0,8.6,7,15.6,15.6,15.6h126.6l0,17H303.7
			c-13.4,0-24.3-10.9-24.3-24.3V384.1C279.4,370.7,290.3,359.9,303.7,359.9 M565.3,533.4h-0.6c-8.6,0-15.6-7-15.6-15.6V392.4
			c0-8.6,7-15.6,15.6-15.6h0.6c8.6,0,15.6,7,15.6,15.6v125.3C580.9,526.4,573.9,533.4,565.3,533.4 M643.1,376.8
			c-8.6,0-15.6,7-15.6,15.6v125.3c0,8.6,7,15.6,15.6,15.6h3.9c16.3,0,29.5-15.5,29.5-34.7c0-19.1-13.2-34.7-29.5-34.7h-3.5v-17.9
			h3.5c16.3,0,29.5-15.5,29.5-34.7c0-19.1-13.2-34.7-29.5-34.7H643.1z M486.6,550.3v-17c8.9,0,15.9-7,15.9-15.6V392.4
			c0-8.6-7-15.6-15.6-15.6v-17h182.7c25.1,0,45.5,21.5,45.5,47.9c0,18.6-10.1,34.8-24.8,42.7c18.6,7.3,31.8,26.2,31.8,48.3
			c0,28.5-21.9,51.6-49,51.6"/>
</svg>
