<?xml version="1.0" encoding="utf-8"?>
<!-- Generator: Adobe Illustrator 22.0.1, SVG Export Plug-In . SVG Version: 6.00 Build 0)  -->
<svg version="1.1" id="Layer_1" xmlns="http://www.w3.org/2000/svg" xmlns:xlink="http://www.w3.org/1999/xlink" x="0px" y="0px"
	 viewBox="101.4 354.9 798.8 291.3" style="enable-background:new 0 0 1000 1000;" xml:space="preserve">
<style type="text/css">
	.st0{fill:#9F1C49;}
</style>
<polygon class="st0" points="528.1,469.5 537.3,469.5 537.3,526.6 528.1,531.8 "/>
<path class="st0" d="M373,526.8c-10,0-15.4-5.5-15.4-15.4v-12.8l9.2-5.9v19.2c0,4.1,1.6,5.7,5.6,5.7H417v-48.1h9.2v48.1h20.3v-30.7
	h9.2v30.7h20.3v-30.7h9.2v30.7h14.2c4.6,0,6.1-1.5,6.1-5.8v-42.2h9.2v42.9c0,9.1-5.5,14.4-15,14.4H373z"/>
<path class="st0" d="M383.4,497.4V493h3.4c-0.5-0.9-0.7-1.9-0.7-2.9c0-3.6,2.5-7.3,7.2-7.3h4.2v4.4h-2.9c-3.3,0-3.8,1.5-3.8,2.9
	c0,1.9,1.3,2.9,3.8,2.9h5.4v4.4H383.4z"/>
<path class="st0" d="M168.3,549.7l-6.5-8.1l0.9-0.1c9.5-1,13.4-5.1,13.4-14.1v-40.6h9.2v43.2c0,11.8-6.7,19.7-16.7,19.7H168.3z"/>
<path class="st0" d="M130.8,549.7c-17.6,0-29.4-11.9-29.4-29.6v-14.6l9.2-5.9v20.5c0,12.6,7.8,20.4,20.3,20.4
	c10.3,0,17.1-4.9,19.3-13.7h-6c-10.3,0-15.6-5.1-15.6-15v-10.2c0-9.2,5.6-14.7,15.1-14.7h12.9v9.2h-13.2c-3.9,0-5.5,1.6-5.5,5.8v9.8
	c0,4.2,1.6,5.8,5.5,5.8h16.3v2.5C159.6,538.7,148.8,549.7,130.8,549.7"/>
<path class="st0" d="M209.8,526.8c-7.7,0-13.2-5.7-13.2-13.6v-43.7h9.2v43.3c0,1.4,0.4,4.8,3.9,4.8h31.9v-11.9c0-4.7,0-9.6-9.5-9.6
	H219v-9.2l13.4-0.1c18.2,0,18.2,10.9,18.2,18.9v11.9h19.9v-30.7h9.2v30.7H294c4.6,0,6.1-1.5,6.1-5.8v-42.2h9.2v42.9
	c0,9.1-5.5,14.4-15,14.4H209.8z"/>
<polygon class="st0" points="323.3,469.5 332.5,469.5 332.5,526.6 323.3,531.8 "/>
<path class="st0" d="M232.7,543.2c-2.8,0-5-2.2-5-5c0-2.7,2.2-5,5-5c2.7,0,5,2.2,5,5C237.7,541,235.5,543.2,232.7,543.2"/>
<path class="st0" d="M480.6,543.2c-2.8,0-5-2.2-5-5c0-2.7,2.2-5,5-5c2.7,0,5,2.2,5,5C485.6,541,483.3,543.2,480.6,543.2"/>
<path class="st0" d="M263,479.1c-2.7,0-5-2.2-5-5c0-2.7,2.2-5,5-5c2.8,0,5,2.2,5,5C267.9,476.8,265.7,479.1,263,479.1"/>
<path class="st0" d="M275,479.1c-2.8,0-5-2.2-5-5c0-2.7,2.2-5,5-5c2.7,0,5,2.2,5,5C280,476.8,277.7,479.1,275,479.1"/>
<path class="st0" d="M451.2,479.1c-2.8,0-5-2.2-5-5c0-2.7,2.2-5,5-5c2.7,0,5,2.2,5,5C456.2,476.8,453.9,479.1,451.2,479.1"/>
<path class="st0" d="M121.8,565.7c-2.7,0-5-2.2-5-5c0-2.7,2.2-5,5-5c2.7,0,5,2.2,5,5C126.8,563.5,124.5,565.7,121.8,565.7"/>
<path class="st0" d="M133.8,565.7c-2.7,0-5-2.2-5-5c0-2.7,2.2-5,5-5c2.8,0,5,2.2,5,5C138.8,563.5,136.6,565.7,133.8,565.7"/>
<path class="st0" d="M844.3,361.4c-9.6-4.1-20.2-6.4-31.3-6.4c-43.9,0-79.5,35.6-79.5,79.5c0,43.9,35.6,79.4,79.5,79.4
	c11.1,0,21.7-2.3,31.3-6.4c-38.6-2-69.3-33.9-69.3-73C775,395.3,805.7,363.5,844.3,361.4"/>
<path class="st0" d="M719.6,427.6c-9.6-4.1-20.2-6.4-31.3-6.4c-43.9,0-79.4,35.6-79.4,79.4c0,43.9,35.6,79.4,79.4,79.4
	c11.1,0,21.7-2.3,31.3-6.4c-38.6-2.1-69.3-33.9-69.3-73C650.3,461.6,681,429.7,719.6,427.6"/>
<path class="st0" d="M789.5,427.6c9.6-4.1,20.2-6.4,31.3-6.4c43.9,0,79.4,35.6,79.4,79.4c0,43.9-35.6,79.4-79.4,79.4
	c-11.1,0-21.7-2.3-31.3-6.4c38.6-2.1,69.3-33.9,69.3-73C858.8,461.6,828.1,429.7,789.5,427.6"/>
<path class="st0" d="M664.8,493.8c9.6-4.1,20.2-6.4,31.3-6.4c43.9,0,79.4,35.6,79.4,79.4c0,43.9-35.6,79.4-79.4,79.4
	c-11.1,0-21.7-2.3-31.3-6.4c38.6-2.1,69.3-33.9,69.3-73C734.1,527.8,703.4,495.9,664.8,493.8"/>
<rect x="569.3" y="354.9" class="st0" width="3.9" height="291.3"/>
</svg>
