<?xml version="1.0" encoding="UTF-8"?>
<svg xmlns="http://www.w3.org/2000/svg" viewBox="585.6 331.65 337.9 337.9">
 <rect x="585.6" y="331.65" width="337.9" height="337.9" fill="#fff"/>
 <g fill="#9F1C49">
  <path d="M844.3,361.4c-9.6-4.1-20.2-6.4-31.3-6.4c-43.9,0-79.5,35.6-79.5,79.5c0,43.9,35.6,79.4,79.5,79.4
	c11.1,0,21.7-2.3,31.3-6.4c-38.6-2-69.3-33.9-69.3-73C775,395.3,805.7,363.5,844.3,361.4"/>
  <path d="M719.6,427.6c-9.6-4.1-20.2-6.4-31.3-6.4c-43.9,0-79.4,35.6-79.4,79.4c0,43.9,35.6,79.4,79.4,79.4
	c11.1,0,21.7-2.3,31.3-6.4c-38.6-2.1-69.3-33.9-69.3-73C650.3,461.6,681,429.7,719.6,427.6"/>
  <path d="M789.5,427.6c9.6-4.1,20.2-6.4,31.3-6.4c43.9,0,79.4,35.6,79.4,79.4c0,43.9-35.6,79.4-79.4,79.4
	c-11.1,0-21.7-2.3-31.3-6.4c38.6-2.1,69.3-33.9,69.3-73C858.8,461.6,828.1,429.7,789.5,427.6"/>
  <path d="M664.8,493.8c9.6-4.1,20.2-6.4,31.3-6.4c43.9,0,79.4,35.6,79.4,79.4c0,43.9-35.6,79.4-79.4,79.4
	c-11.1,0-21.7-2.3-31.3-6.4c38.6-2.1,69.3-33.9,69.3-73C734.1,527.8,703.4,495.9,664.8,493.8"/>
 </g>
</svg>
