<?xml version="1.0" encoding="UTF-8"?>
<svg xmlns="http://www.w3.org/2000/svg" viewBox="-93.77 -15.47 581.85 581.85">
 <rect x="-93.77" y="-15.47" width="581.85" height="581.85" fill="#fff"/>
 <path fill="#4197cb" d="M393.4 207.4c-.2-27.3-5.8-54.2-16.4-79.4-10.6-25.1-26-47.9-45.5-67.1-19.4-19.1-42.4-34.3-67.7-44.6C238.6 6 211.5.8 184.2 1H37.4c-4.7 0-9.4.9-13.8 2.7s-8.4 4.4-11.7 7.7c-3.4 3.3-6.1 7.3-8 11.6-1.8 4.4-2.8 9.1-2.9 13.8v136.3c.1-4.7 1-9.4 2.9-13.8 1.9-4.3 4.6-8.3 8-11.6s7.4-5.9 11.8-7.7 9.1-2.7 13.8-2.7h146.7c21.5 0 42.8 3.2 63.3 9.6s39.8 15.9 57.4 28.2 33.2 27.3 46.2 44.3 23.4 36 30.6 56.1q2.9-8.1 5.1-16.6 2.2-8.4 3.7-16.9 1.4-8.6 2.2-17.2.7-8.7.7-17.4"/>
 <path fill="#3dae2b" d="M184.2 413.9H37.4c-4.7.1-9.4-.8-13.8-2.6s-8.4-4.4-11.8-7.7-6.1-7.3-8-11.7c-1.8-4.3-2.8-9-2.9-13.8v136c.1 4.8 1.1 9.4 2.9 13.8 1.9 4.4 4.6 8.3 8 11.6 3.4 3.4 7.4 6 11.8 7.8s9.1 2.6 13.8 2.6h146.8c27.3.2 54.3-5 79.6-15.3s48.3-25.4 67.7-44.6c19.4-19.1 34.9-41.9 45.5-67s16.2-52.1 16.4-79.3q0-8.7-.7-17.4-.8-8.6-2.2-17.2-1.5-8.6-3.7-17t-5.1-16.6c-7.2 20.2-17.5 39.2-30.6 56.3-13 17-28.6 32-46.2 44.3-17.5 12.3-36.9 21.8-57.4 28.3-20.5 6.4-41.8 9.6-63.3 9.5"/>
 <path fill="#002d74" d="M184.2 137.2H37.4c-4.7-.1-9.4.8-13.8 2.6s-8.4 4.4-11.8 7.7-6.1 7.3-8 11.7C2 163.5 1 168.2.9 173v205c.1 4.7 1.1 9.4 2.9 13.8 1.9 4.3 4.6 8.3 8 11.6s7.4 5.9 11.8 7.7 9.1 2.7 13.8 2.7h146.8c21.5 0 42.8-3.2 63.3-9.6s39.8-15.9 57.4-28.2 33.2-27.3 46.2-44.3 23.4-36 30.6-56.2c-7.2-20.1-17.5-39.1-30.6-56.2-13-17-28.6-32-46.2-44.3-17.5-12.3-36.9-21.8-57.4-28.3-20.5-6.4-41.8-9.6-63.3-9.5"/>
</svg>
