<?xml version="1.0" encoding="UTF-8"?>
<svg xmlns="http://www.w3.org/2000/svg" viewBox="118.5 336.5 326 326">
 <rect x="118.5" y="336.5" width="326" height="326" fill="#fff"/>
 <path fill="#377D45" d="M386.2,396.1c0,0,16-15.2,35.9-9.4c0,0-2.3,13.3-10.5,21.1c0,0,35.6,30-42.6,122.1
	c-18.1,21.3-37.5,36.6-56.2,49.8c-59.7,42.1-121.4,44.1-152.8,17.1c-45.2-38.8-13-161.3,135.3-209.7c0,0-143.6,56.2-141.4,143.4
	c2.4,92.7,146.7,67.6,193.4-2.3c34.5-51.7-3.5-62.5-3.5-62.5l-12.6,24c0,0-22.9,2.1-43.9-23.1l24-14.1c0,0-73.8-12-131.8,56.5
	c0,0,23.4-52.3,106.9-92.9C358.6,380.9,386.2,396.1,386.2,396.1"/>
</svg>
