<?xml version="1.0" encoding="UTF-8"?>
<svg xmlns="http://www.w3.org/2000/svg" viewBox="263.95 425.2 149.4 149.4">
 <rect x="263.95" y="425.2" width="149.4" height="149.4" fill="#fff"/>
 <path fill="#f7d347" d="M402.3,500c0,35.6-28.5,64.3-63.7,64.3s-13.2-1-19.2-3c-9.1-2.9-17.3-7.8-24.2-14.4-12.6-11.7-20.3-28.4-20.3-47.1,0-35.6,28.5-64.3,63.7-64.3s14.9,1.3,21.7,3.8c8.8,3.2,16.7,8.3,23.2,14.9,11.7,11.8,18.9,27.9,18.9,45.7Z"/>
 <path fill="#2e6c97" d="M368.2,527.4l-8.6-4.3s-14.6,26.9-40.2,38.4c-9.1-2.9-17.3-7.8-24.2-14.4,5.6-.8,14.7-3.7,24.2-13.2,15.6-15.5,19.2-24,19.2-24l-6.7-4.5c-2.4-1.5-1.9-5.1.7-6l29.4-10.3c2-.7,4.2.6,4.4,2.8l4.4,33.6c.4,1.5-1.1,2.7-2.5,1.9Z"/>
 <path fill="#2e6c97" d="M377,490.1c-.7,1.9-3.4,1.5-3.7-.4l-1.9-11.3-14.5,4.5c-1.6.5-3.1-1.2-2.4-2.7,1.9-4.1,4.7-11,6.9-19.9,2-8.4.6-15.9-1.1-20.7,8.8,3.2,16.7,8.3,23.2,14.9,1.1,13.4-3.5,27.7-6.6,35.6Z"/>
</svg>
