<?xml version="1.0" encoding="UTF-8"?>
<svg id="Layer_1" xmlns="http://www.w3.org/2000/svg" version="1.1" viewBox="0 0 245.9 254.3">
  <!-- Generator: Adobe Illustrator 30.6.0, SVG Export Plug-In . SVG Version: 2.1.4 Build 109)  -->
  <defs>
    <style>
      .st0 {
        fill: #0d4d8a;
      }

      .st1 {
        fill: #e03a3e;
      }
    </style>
  </defs>
  <g>
    <path class="st1" d="M100.8,124.9s-8.7,7.4-13.5,10.9c0,0-.5,1.1,1.7.2,0,0,20.1-8.8,47.9-15.2,0,0,31.5-7.7,56.5-10.3,0,0,1.5.3,2-2.5,0,0,5.7-27,15.4-46.6,0,0,7.8-15.9,14.6-24.4,0,0,1.5-1.7-1.3-1,0,0-16.8,8.8-37.4,21,0,0-5.7,2.4-8-2.6,0,0-1.6-3.5,2.2-6,0,0,24.8-15.8,52.6-25.6,0,0,7.5-4.1,11.1,0,0,0,3.1,2.5-.5,6.5,0,0-19.1,31.2-25,46.8,0,0-9.2,25.9-11.4,38.1,0,0-.5,5.7-7.3,6.3,0,0-39.8,4.2-66.4,11.9,0,0-45,12.4-61.8,19.4,0,0-5.3,1.3-6.5-3.6,0,0-1.5-2.8,2-6.2,0,0,20.1-20.3,26.8-24.9,0,0,3.4-2.1,6.6.5,0,0,4.1,4.3-.2,7.2Z"/>
    <path class="st1" d="M.7,136.9s1,4.1,6.1,1.8l21.5-7.8s20.3-6.6,39.2-11.1c0,0,32.5-7.5,54.8-9.2,0,0,25.8-2.9,31.8-2.6,0,0,5.6.8,6.8-3.3,0,0,.8-3,1.5-7.9,0,0,13.9-55.6,32.9-86.7,0,0,3.6-2.1,1.6-7.7,0,0-1.5-3.6-7.7-2.1,0,0-24.7,5.2-65.6,30.4,0,0-48.8,26.2-113.9,82.8,0,0-4.6,3.4,0,7.9,0,0,5.7,4.8,10.1-.6,0,0,45.6-40.2,100.3-74.2,0,0,31.4-20,56.6-30.7,0,0-16.2,26.2-27.4,79.2,0,0,.6,2.8-3.6,2.8,0,0-32.9,3.1-70.2,10,0,0-47.5,11.7-70.9,21.5,0,0-6.7,3-3.9,7.6Z"/>
    <path class="st0" d="M28,148.1s14.2,10.6,28,30.9c0,0,.3,2,5.6,1.5,0,0,31.1-3.4,61.4-3.6,0,0,52.6-1.1,78.7,3.3,0,0,5.2,1.6,7-2.5,0,0,17.2-22.1,25.5-30.1,0,0,3.3-2.4.2-6.2l-2.3-4.4s-.7-2.3-4.6-2c0,0-23.2-.5-56.9-3.6,0,0-2.3-.3-3.3,1.5,0,0-6.1,11.8-20.8,13.6,0,0-3.1,0-1.3,2.3,0,0,8.8,6.6,22.7,1.7,0,0,5.1-2.9,6.4-7.4,0,0,.7-1.3,2.3-1.3,0,0,37.1,3.3,40.9,3.2,1,0-11.1,11.6-17.6,22.4,0,0-34.3-2.1-65.7-2.6,0,0-44.3.6-72.1,3.7,0,0-1.1.6-2.1-1.3,0,0-10.6-16-25.6-25,0,0-3.5-2.4-6.3.4,0,0-3.4,3.3,0,5.6Z"/>
  </g>
  <g>
    <path class="st0" d="M49.6,245.6h-6.8v4.4c-.5.1-1.1.1-1.7.1-3.2,0-4.3-2-4.3-4.3s2.6-4.6,6.5-4.6,4.3.4,5.5,1v-4.5c-2-.4-3.8-.6-7.7-.6-6.6,0-12.4,2.8-12.4,8.4s5.5,8.8,12.4,8.8,5.8-.3,8.6-.9v-7.8Z"/>
    <path class="st0" d="M62.3,237.4h-7.9v10.1c0,4.9,4.5,6.8,10.3,6.8s10.4-1.8,10.4-7.2v-9.8h-7.8v9.9c0,1.6-.4,2.7-2.5,2.7s-2.5-1.2-2.5-2.8v-9.9Z"/>
    <polygon class="st0" points="79.7 254 97.4 254 97.4 249.1 87.6 249.1 87.6 237.4 79.7 237.4 79.7 254"/>
    <polygon class="st0" points="101 254 108.9 254 108.9 248.1 118.4 248.1 118.4 244.1 108.9 244.1 108.9 241.4 118.7 241.4 118.7 237.4 101 237.4 101 254"/>
    <path class="st0" d="M135.5,254h12c4.3,0,8.5-.4,8.5-4.6s-1.8-3.5-4.7-3.8h0c2.8-.6,4.3-1.8,4.3-4.1s-3.5-4.1-7.1-4.1h-13v16.6M143,247.2h2.1c1.5,0,3,.3,3,1.7s-1.6,1.7-3,1.7h-2.1v-3.4M143,240.6h2.2c1.4,0,2.7.4,2.7,1.6s-1.5,1.6-2.9,1.6h-2v-3.2Z"/>
    <path class="st0" d="M158.4,254h7.9l1.3-3.6h6.7l1.4,3.6h8.3l-7.4-16.6h-10.9l-7.3,16.6M170.9,241h0l2.3,5.5h-4.6l2.3-5.5Z"/>
    <polygon class="st0" points="186.6 254 193.4 254 193.4 242 193.5 242 197.5 254 209.2 254 209.2 237.4 202.3 237.4 202.3 249.1 202.3 249.1 198.5 237.4 186.6 237.4 186.6 254"/>
    <polygon class="st0" points="221.4 237.4 213.5 237.4 213.5 254 221.4 254 221.4 247 221.5 247 226.6 254 236.1 254 228.5 245.2 235.4 237.4 226.4 237.4 221.5 243.9 221.4 243.9 221.4 237.4"/>
    <rect class="st0" x="142.7" y="205.3" width="7.9" height="16.6"/>
    <polygon class="st0" points="167.1 222 167.1 210.6 175.1 210.6 175.1 217.7 192.4 217.7 192.4 205.3 200.3 205.3 200.3 217.7 210.6 217.7 210.6 210.6 218.5 210.6 218.5 217.7 228.8 217.7 228.8 210.6 236.8 210.6 236.8 222 167.1 222"/>
    <rect class="st0" x="38.9" y="218.1" width="7.9" height="3.9"/>
    <rect class="st0" x="106.7" y="205.4" width="7.9" height="3.9"/>
    <rect class="st0" x="210.6" y="205.4" width="7.9" height="3.9"/>
    <rect class="st0" x="228.7" y="224" width="7.9" height="3.9"/>
    <path class="st0" d="M48.4,216.7c-3.4-1.2-6.8-1-7.3-.9-3.1.6-4.3,2.2-4.3,4.3,0,3,2.6,4.6,6.5,4.6s4.3-.4,5.4-1v4.5c-2,.4-3.9.6-7.7.6-6.6,0-12.4-2.8-12.4-8.4s5.5-8.8,12.4-8.8,4.8.2,7,.6c-.7-2.2-4.2-3.3-7.5-3.3s-6.2.4-7.3.9v-4.5c2-.4,5.7-.6,9.6-.6,6.6,0,13.6,2.8,13.6,8.4s0,.4,0,.6v3.9h10.2v-7.2h7.9v7.2h10.4v-12.4h7.9v12.4h21.5c-.6-2.3-3-3.2-6.4-3.2s-4.3.4-5.4,1v-4.5c2-.4,3.9-.6,7.7-.6,6.3,0,11.9,2.3,12.3,7.4h9v-12.4h7.9v16.6H48.4v-5.3Z"/>
    <rect class="st0" x="61.5" y="224" width="7.9" height="3.9"/>
    <rect class="st0" x="71.7" y="224" width="7.9" height="3.9"/>
    <polygon class="st0" points="179.1 208.2 180.2 208.2 180.2 205.4 187 205.4 187 206.6 183.3 206.6 183.3 208.2 187 208.2 187 209.4 179.1 209.4 179.1 208.2"/>
  </g>
</svg>