<?xml version="1.0" encoding="UTF-8"?>
<svg xmlns="http://www.w3.org/2000/svg" viewBox="-9.82 -42.49 265.5 265.5">
 <rect x="-9.82" y="-42.49" width="265.5" height="265.5" fill="#fff"/>
 <path fill="#e03a3e" d="M100.8,124.9s-8.7,7.4-13.5,10.9c0,0-.5,1.1,1.7.2,0,0,20.1-8.8,47.9-15.2,0,0,31.5-7.7,56.5-10.3,0,0,1.5.3,2-2.5,0,0,5.7-27,15.4-46.6,0,0,7.8-15.9,14.6-24.4,0,0,1.5-1.7-1.3-1,0,0-16.8,8.8-37.4,21,0,0-5.7,2.4-8-2.6,0,0-1.6-3.5,2.2-6,0,0,24.8-15.8,52.6-25.6,0,0,7.5-4.1,11.1,0,0,0,3.1,2.5-.5,6.5,0,0-19.1,31.2-25,46.8,0,0-9.2,25.9-11.4,38.1,0,0-.5,5.7-7.3,6.3,0,0-39.8,4.2-66.4,11.9,0,0-45,12.4-61.8,19.4,0,0-5.3,1.3-6.5-3.6,0,0-1.5-2.8,2-6.2,0,0,20.1-20.3,26.8-24.9,0,0,3.4-2.1,6.6.5,0,0,4.1,4.3-.2,7.2Z"/>
 <path fill="#e03a3e" d="M.7,136.9s1,4.1,6.1,1.8l21.5-7.8s20.3-6.6,39.2-11.1c0,0,32.5-7.5,54.8-9.2,0,0,25.8-2.9,31.8-2.6,0,0,5.6.8,6.8-3.3,0,0,.8-3,1.5-7.9,0,0,13.9-55.6,32.9-86.7,0,0,3.6-2.1,1.6-7.7,0,0-1.5-3.6-7.7-2.1,0,0-24.7,5.2-65.6,30.4,0,0-48.8,26.2-113.9,82.8,0,0-4.6,3.4,0,7.9,0,0,5.7,4.8,10.1-.6,0,0,45.6-40.2,100.3-74.2,0,0,31.4-20,56.6-30.7,0,0-16.2,26.2-27.4,79.2,0,0,.6,2.8-3.6,2.8,0,0-32.9,3.1-70.2,10,0,0-47.5,11.7-70.9,21.5,0,0-6.7,3-3.9,7.6Z"/>
 <path fill="#0d4d8a" d="M28,148.1s14.2,10.6,28,30.9c0,0,.3,2,5.6,1.5,0,0,31.1-3.4,61.4-3.6,0,0,52.6-1.1,78.7,3.3,0,0,5.2,1.6,7-2.5,0,0,17.2-22.1,25.5-30.1,0,0,3.3-2.4.2-6.2l-2.3-4.4s-.7-2.3-4.6-2c0,0-23.2-.5-56.9-3.6,0,0-2.3-.3-3.3,1.5,0,0-6.1,11.8-20.8,13.6,0,0-3.1,0-1.3,2.3,0,0,8.8,6.6,22.7,1.7,0,0,5.1-2.9,6.4-7.4,0,0,.7-1.3,2.3-1.3,0,0,37.1,3.3,40.9,3.2,1,0-11.1,11.6-17.6,22.4,0,0-34.3-2.1-65.7-2.6,0,0-44.3.6-72.1,3.7,0,0-1.1.6-2.1-1.3,0,0-10.6-16-25.6-25,0,0-3.5-2.4-6.3.4,0,0-3.4,3.3,0,5.6Z"/>
</svg>
