<?xml version="1.0" encoding="UTF-8"?>
<svg xmlns="http://www.w3.org/2000/svg" viewBox="478.6 429.75 140 140">
<style>.st5{fill:#FD6E66;}.st6{fill:#FB6518;}</style>
<rect x="478.6" y="429.75" width="140" height="140" fill="#fff"/>
<path class="st5" d="M568.7,499.3c-0.6,0.4-1.2,0.8-1.8,1.3c-15.4,13.5-32.9,29-48.4,42.6c-7,0-16.5,0-23.1,0l49.9-44.2c-0.6-1.1-1.1-1.9-1.5-2.7c-7.6-13.3-15.2-26.6-22.7-39.9h23.4c0.3,0.8,0.6,1.6,1,2.3c7.2,12.6,14.5,25.3,21.7,37.9C567.6,497.3,568,498,568.7,499.3L568.7,499.3z"/>
<path class="st6" d="M601.8,498.7l-48.9,43.7l-0.8,0.7c-7,0.1-16.2,0-22.9-0.5c16.5-14.5,33-29.1,49.5-43.7c-8.2-14.3-16.3-28.5-24.4-42.6h23.4c0.3,0.6,0.5,1.3,0.9,1.9c7.4,13,14.5,25.3,21.8,38.3C600.8,497.1,600.4,496.6,601.8,498.7z"/>
</svg>
