<?xml version="1.0" encoding="UTF-8"?>
<svg xmlns="http://www.w3.org/2000/svg" viewBox="682.5 391 217.8 217.8">
 <path fill="#008752" d="M704.9,391h173c12.4,0,22.4,10,22.4,22.4v173c0,12.3-10,22.4-22.4,22.4h-173c-12.4,0-22.4-10-22.4-22.4v-173
	C682.5,401.1,692.5,391,704.9,391"/>
 <path fill="#fff" d="M824.8,472c0,0-1.7,0.2-1.7,1.7c0,1.4,1.6,1.9,1.6,1.9s-0.9-0.8-0.8-1.9C824.1,472.4,824.8,472,824.8,472
 M822.1,483.2v-3.8c0,0,0.2-2.1,2.3-2.1c2.1,0,1.9,1.9,1.9,1.9v4H822.1z M820.2,502.2h7.5v4.3h-7.5V502.2z M820.2,484.3h7.5v4.3
h-7.5V484.3z M821.7,490.3h4.5v10.8h-4.5V490.3z M821.7,508.2h4.5v24.7h-4.5V508.2z M768,530.7h8.3v-4.6h8.4v1.6h-5.8v3.1h5.5v1.9
H768V530.7z M812.9,523.6c0,0-1.7,0.3-1.7,1.7c0,1.4,1.6,1.9,1.6,1.9s-0.9-0.8-0.8-1.9C812.3,524,812.9,523.6,812.9,523.6
 M803.2,532.9c0,0,3.3-4.3,8.2-4.3c4.9,0,8.7,4.1,8.7,4.1L803.2,532.9z M804.9,489.3c1.9,0,4.2-1.5,4.3-4.9c0.1-2.7-3.4-5.7-4-7.3
c-0.5-1.6-0.6-2.4-0.6-2.4s-1,1.5-1.5,3c-0.4,1.5-3.8,4.2-3.2,7.4C800.4,487.4,802,489.3,804.9,489.3 M802.4,490.4h5l2.2,23.8h-9.5
L802.4,490.4z M777.6,507.2h6v5.7h-6V507.2z M768.2,507.2h5.9v5.7h-5.9V507.2z M768.2,488.3h5.9v5.8h-5.9V488.3z M783.1,494.3
c0,0,0.4-1,1.7-1c1.4,0,1.5,0.6,2.4,0.5c0.8-0.1,1.6-0.5,1.6-0.5s-0.8,1.2-1.8,1.3c-1.1,0.1-1.8-0.7-2.6-0.6
C783.6,494.2,783.1,494.3,783.1,494.3 M782.1,493.1c0,0,0.4-1.6,2-1.6c1.6,0,1.9,0.6,3.3,0.4c1.4-0.3,2.3-0.7,2.3-0.7
s-1,1.4-2.5,1.6c-1.6,0.2-2.1-0.8-3.4-0.5C782.5,492.6,782.1,493.1,782.1,493.1 M782.1,485.7c0,0,0-1.6,0.6-3.7
c0.6-2.1,2.1-3.4,2.1-3.4s-0.1,1.2,0.1,2c0.2,0.8,1.1,1.9,1.1,1.9s0.4-1.6,1.1-2.5c0.7-0.9,1.4-1.6,1.4-1.6s-0.6,3.1-0.3,4.4
c0.3,1.3,0.8,3,0.8,3L782.1,485.7z M778.1,489.1h11.3c0,0-0.3,1.4-1.6,1.5c-1.3,0.1-2.5-1.2-4.5-0.4c-2,0.8-2.5,2.2-2.5,2.2
s-1.3-1.1-1.8-1.8C778.5,489.9,778.1,489.1,778.1,489.1 M762,471.5h1.5v2.9h6.8v-2.9h1.6v6.1h-1.6v-1.7h-6.8v1.7H762V471.5z
 M758.9,477.5v-10.9c0,0,0.4-1.1,1.4-1.1h11.6v1.8h-11.3v2.1h11.3v1.7h-11.3v6.5H758.9z M754.5,462.8h2l-0.1,1.7
c0,0,0.9-1.8,1.6-1.8h13.9v1.5l-13.4,0c0,0-1.6,3.3-1.7,7.1c-0.2,5.4,1.4,7.2,1.4,7.2H772l-0.1,1.8h-14c0,0-0.7-0.2-1.2-1.6v1.3
h-2.2V462.8z M792.5,463.4v33.9h-38v-12.8H779v-21.1H792.5z M812.1,463.4v53.5h-57.7v-13.6h43.7v-39.9H812.1z M817,463.4h14.3v72.3
h-76.9v-12.8H817V463.4z M784.1,570.5l-11.4-11.2h71.7c0,0,6-0.6,7-5.1c1-4.5,0-6.3,0-6.3l11.4-10.5v21.3c0,0-3.4,11.8-15.6,11.8
H784.1z M837.1,553.7l-16,0.2l50.7-50.7c0,0,3.8-4.7,1.3-8.5c-2.5-3.8-4.5-4.5-4.5-4.5l0.7-15.5l15.1,15.1c0,0,5.9,10.8-2.7,19.4
L837.1,553.7z M845.2,454.2l0.2,16l-50.7-50.7c0,0-4.7-3.8-8.5-1.3c-3.8,2.5-4.5,4.5-4.5,4.5l-15.5-0.7l15.1-15.1
c0,0,10.8-5.9,19.4,2.7L845.2,454.2z M863,506.5L851.9,518v-71.7c0,0-0.6-6-5.1-7c-4.5-0.9-6.4,0-6.4,0l-10.5-11.5h21.3
c0,0,11.8,3.5,11.8,15.6V506.5z M736.9,545.6l-0.2-16l50.7,50.7c0,0,4.7,3.8,8.5,1.3c3.8-2.5,4.5-4.5,4.5-4.5l15.5,0.7l-15.1,15.1
c0,0-10.8,5.9-19.3-2.7L736.9,545.6z M719,491.7l11.2-11.4V552c0,0,0.6,6,5.1,6.9c4.5,0.9,6.3,0,6.3,0l10.5,11.4h-21.3
c0,0-11.8-3.4-11.8-15.6V491.7z M745.6,443.3l16-0.2l-50.7,50.7c0,0-3.8,4.7-1.3,8.5c2.5,3.8,4.5,4.5,4.5,4.5l-0.7,15.5l-15.1-15.1
c0,0-5.9-10.8,2.7-19.4L745.6,443.3z M797.9,427.7l11.4,11.2h-71.7c0,0-6,0.6-7,5.1c-0.9,4.5,0,6.3,0,6.3l-11.4,10.5v-21.3
c0,0,3.4-11.8,15.6-11.8H797.9z"/>
</svg>
