<?xml version="1.0" encoding="UTF-8"?>
<svg xmlns="http://www.w3.org/2000/svg" viewBox="0 0 200 200">
 <rect width="200" height="200" fill="#fff"/>
 <g fill="#C19545" transform="translate(-129.34,-86.83) scale(0.4576)">
  <path d="M500.7,386.4c-66,0-120.3-49.6-127.8-113.7c-0.6,4.9-0.9,10-0.9,15.1c0,71.1,57.6,128.7,128.7,128.7
	c71.1,0,128.7-57.6,128.7-128.7c0-5.1-0.4-10.1-0.9-15.1C621.1,336.8,566.7,386.4,500.7,386.4"/>
  <path d="M502,341.8c-46.9,0-86.4-31.5-98.5-74.6c0.2,54.3,44.2,98.2,98.5,98.2c54.3,0,98.3-43.9,98.6-98.2
	C588.4,310.3,548.9,341.8,502,341.8"/>
  <path d="M503.4,309.5c-29.9,0-56.1-15.5-71.1-38.8c9,30.7,37.4,53.2,71.1,53.2c33.6,0,62.1-22.5,71-53.2
	C559.3,294,533.2,309.5,503.4,309.5"/>
  <path d="M500.7,271.9c-19.2,0-35.8-11.2-43.6-27.5c1.2,23.1,20.2,41.5,43.6,41.5c23.4,0,42.4-18.4,43.5-41.5
	C536.5,260.7,519.9,271.9,500.7,271.9"/>
  <path d="M656.3,283.7c0,0.5,0,1,0,1.5c0,85.6-69.4,155-155,155c-85.6,0-155-69.4-155-155c0-0.5,0-1,0-1.5
	c-3.4,13.1-5.3,26.8-5.3,40.9c0,88.5,71.7,160.2,160.2,160.2c88.5,0,160.2-71.7,160.2-160.2C661.6,310.5,659.7,296.8,656.3,283.7"/>
 </g>
 <g fill="#1D1D1B" transform="translate(39.77,84.0) scale(0.1203)">
  <path d="M159.6,717.5c4.2,7.9,8.5,16.1,13.1,24.4c0.6-1.1,1.5-2.7,2.6-4.8c1.1-2.1,2.4-4.5,3.9-7.2
	c1.5-2.7,3.1-5.7,4.8-8.8c1.7-3.1,3.4-6.4,5.1-9.6c1.8-3.2,3.5-6.5,5.2-9.6c1.7-3.1,3.3-6.1,4.8-8.8h1.2c0.7,5.7,1.3,11.2,1.8,16.5
	c0.6,5.3,1.1,10.5,1.8,15.7c0.6,5.1,1.2,10.2,1.8,15.2c0.6,5,1.3,10,1.9,14.9c-0.7-0.1-1.4-0.2-2.1-0.2h-2.1h-2.1
	c-0.7,0-1.4,0.1-2.1,0.2c-0.6-7.9-1.3-15.5-1.9-22.9c-0.6-7.4-1.5-15-2.4-22.6h-0.2c-4.1,7.4-8.1,14.9-12,22.2
	c-3.9,7.4-7.7,15.1-11.2,23.1h-0.8c-3.5-7.5-7.3-14.9-11.2-22.4c-3.9-7.5-7.8-15.1-11.7-23h-0.2c-0.4,3.7-0.9,7.6-1.4,11.9
	c-0.5,4.3-0.9,8.5-1.4,12.7c-0.4,4.2-0.8,8.1-1.1,11.8c-0.3,3.7-0.4,6.7-0.4,9.1c-0.9-0.1-2-0.2-3.1-0.2c-1.2,0-2.2,0.1-3.1,0.2
	c0.7-4.8,1.5-9.9,2.4-15.2c0.8-5.3,1.6-10.7,2.4-16.1c0.8-5.4,1.5-10.7,2.1-15.9c0.6-5.2,1.2-10.2,1.7-15h1.5
	C151.3,701.4,155.4,709.6,159.6,717.5"/>
  <path d="M265.9,755.2c-0.8-0.1-1.6-0.2-2.3-0.2h-2.4h-2.3c-0.7,0-1.5,0.1-2.4,0.2c-0.4-1.4-1-3-1.7-4.9
	c-0.7-1.9-1.5-3.9-2.4-6.1c-0.9-2.1-1.7-4.2-2.6-6.4c-0.9-2.2-1.7-4.2-2.5-6.2c-1.9-0.1-3.8-0.1-5.8-0.2c-1.9,0-3.9,0-5.9,0
	c-1.9,0-3.6,0-5.4,0c-1.8,0-3.6,0.1-5.4,0.2c-1.9,4.6-3.6,9-5.1,13.2c-1.5,4.2-2.7,7.6-3.5,10.3c-1-0.1-2.1-0.2-3.3-0.2
	c-1.2,0-2.3,0.1-3.3,0.2c4.8-10.4,9.5-20.7,14-30.9c4.5-10.3,9.1-20.7,13.7-31.3h1.7c1.4,3.4,3,7.2,4.6,11.2c1.6,4,3.3,8,5,12.1
	c1.7,4.1,3.4,8.1,5.2,12.2c1.7,4,3.3,7.8,4.8,11.2c1.5,3.4,2.9,6.5,4.1,9.3C264.2,751.7,265.2,753.7,265.9,755.2 M226.6,727.5
	c1.6,0,3.1,0,4.8,0.1c1.7,0.1,3.3,0.1,4.8,0.1c1.6,0,3.3,0,5,0c1.7,0,3.3-0.1,5-0.1l-9.8-22.5L226.6,727.5z"/>
  <path d="M272.5,746.8c0.8,1.1,1.8,2.1,2.9,3c1.1,0.9,2.5,1.6,4,2.2c1.5,0.6,3.2,0.8,5.2,0.8c1.9,0,3.7-0.3,5.3-1
	c1.6-0.7,2.9-1.6,4-2.8c1.1-1.2,2-2.5,2.5-4.1c0.6-1.6,0.9-3.3,0.9-5c0-2.7-0.7-4.9-2.1-6.5c-1.4-1.6-3.1-2.9-5.2-4
	c-2-1.1-4.3-2-6.7-2.9c-2.4-0.9-4.7-2-6.7-3.3c-2-1.3-3.8-3-5.2-5.1c-1.4-2.1-2.1-4.9-2.1-8.3c0-2.5,0.5-4.8,1.3-6.8
	c0.9-2,2.2-3.8,3.9-5.3c1.7-1.5,3.7-2.6,6.1-3.5c2.4-0.8,5-1.3,8-1.3c2.9,0,5.3,0.3,7.4,1c2,0.7,4,1.8,5.7,3.2c-0.5,1-1,2.1-1.3,3.2
	c-0.4,1.1-0.7,2.5-1.1,4.3h-1.1c-0.3-0.8-0.7-1.7-1.2-2.7c-0.5-1-1.2-1.9-2.1-2.7c-0.8-0.8-1.9-1.5-3.1-2.1
	c-1.2-0.6-2.6-0.8-4.2-0.8c-1.7,0-3.2,0.3-4.6,0.8c-1.4,0.5-2.6,1.3-3.6,2.3c-1,1-1.8,2.1-2.4,3.5c-0.6,1.4-0.9,2.8-0.9,4.4
	c0,2.8,0.7,5,2.1,6.6c1.4,1.6,3.1,3,5.2,4c2,1.1,4.3,2.1,6.7,3c2.4,0.9,4.6,1.9,6.7,3.1c2.1,1.2,3.8,2.8,5.2,4.8
	c1.4,2,2.1,4.5,2.1,7.8c0,2.7-0.5,5.3-1.5,7.7c-1,2.4-2.4,4.6-4.3,6.4c-1.9,1.8-4.1,3.2-6.8,4.2c-2.7,1-5.7,1.5-9.2,1.5
	c-3.7,0-6.6-0.5-8.9-1.5c-2.3-1-4.2-2.1-5.7-3.3c0.5-1.3,0.9-2.6,1.1-3.7c0.2-1.1,0.4-2.5,0.6-4.2h1.1
	C271.1,744.7,271.7,745.7,272.5,746.8"/>
  <path d="M313.2,705.7c-0.1-3.7-0.3-7.6-0.5-11.5c1.7,0.1,3.4,0.2,5,0.3c1.7,0.1,3.3,0.1,5.1,0.1c1.7,0,3.4-0.1,5-0.2
	c1.7-0.1,3.4-0.2,5.1-0.2c2.5,0,4.9,0.2,7.1,0.7c2.2,0.5,4.2,1.3,5.9,2.4c1.7,1.1,3,2.5,4,4.3c1,1.8,1.5,4,1.5,6.7
	c0,2.8-0.6,5.3-1.9,7.3c-1.3,2-2.8,3.7-4.7,5.1c-1.8,1.3-3.8,2.3-5.9,3.1c-2.1,0.7-4,1.2-5.7,1.5c0.7,0.9,1.7,2.1,2.9,3.7
	c1.3,1.6,2.7,3.4,4.2,5.3c1.5,1.9,3.1,3.9,4.8,6c1.7,2.1,3.2,4.1,4.8,6c1.6,1.9,3,3.7,4.4,5.3c1.3,1.6,2.4,2.8,3.3,3.7
	c-0.9-0.1-1.8-0.2-2.7-0.2h-2.6h-2.6c-0.9,0-1.8,0.1-2.6,0.2c-0.9-1.2-2.2-3.1-4-5.6c-1.8-2.5-3.8-5.2-6-8c-2.2-2.9-4.5-5.7-6.7-8.5
	c-2.3-2.8-4.4-5.2-6.3-7.2h-3.4v6.5c0,3.9,0.1,7.7,0.2,11.5c0.2,3.8,0.3,7.5,0.5,11.2c-1.4-0.1-2.8-0.2-4.4-0.2
	c-1.5,0-3,0.1-4.3,0.2c0.2-3.7,0.3-7.4,0.5-11.2c0.2-3.8,0.2-7.6,0.2-11.5v-15.3C313.4,713.2,313.4,709.4,313.2,705.7 M323.4,722.6
	c1,0,2,0.1,3.2,0.1c1.9,0,3.8-0.2,5.7-0.6c2-0.4,3.8-1.1,5.5-2.1c1.7-1,3-2.4,4.1-4.2c1.1-1.7,1.6-4,1.6-6.6c0-2.3-0.4-4.2-1.3-5.7
	c-0.9-1.5-2-2.7-3.3-3.6c-1.4-0.9-2.8-1.5-4.4-1.8c-1.6-0.3-3.2-0.5-4.7-0.5c-2.1,0-3.8,0-5.1,0.1c-1.4,0.1-2.5,0.2-3.5,0.3
	c-0.1,3.3-0.2,6.5-0.4,9.7c-0.1,3.2-0.2,6.4-0.2,9.6v5.1C321.6,722.4,322.5,722.5,323.4,722.6"/>
  <path d="M413.1,755.2c-0.8-0.1-1.6-0.2-2.3-0.2h-2.4h-2.3c-0.7,0-1.5,0.1-2.4,0.2c-0.4-1.4-1-3-1.7-4.9
	c-0.7-1.9-1.5-3.9-2.4-6.1c-0.9-2.1-1.7-4.2-2.6-6.4c-0.9-2.2-1.7-4.2-2.5-6.2c-1.9-0.1-3.8-0.1-5.8-0.2c-1.9,0-3.9,0-5.9,0
	c-1.8,0-3.6,0-5.4,0c-1.8,0-3.6,0.1-5.4,0.2c-1.9,4.6-3.6,9-5.1,13.2c-1.6,4.2-2.7,7.6-3.5,10.3c-1-0.1-2.1-0.2-3.3-0.2
	c-1.2,0-2.3,0.1-3.3,0.2c4.8-10.4,9.5-20.7,14-30.9c4.5-10.3,9.2-20.7,13.8-31.3h1.7c1.5,3.4,3,7.2,4.7,11.2c1.6,4,3.3,8,5,12.1
	c1.7,4.1,3.5,8.1,5.2,12.2c1.7,4,3.3,7.8,4.8,11.2c1.5,3.4,2.9,6.5,4.1,9.3C411.4,751.7,412.4,753.7,413.1,755.2 M373.8,727.5
	c1.5,0,3.1,0,4.8,0.1c1.6,0.1,3.2,0.1,4.8,0.1c1.7,0,3.3,0,5,0c1.7,0,3.3-0.1,5-0.1l-9.9-22.5L373.8,727.5z"/>
  <path d="M419.6,705.7c-0.2-3.7-0.3-7.6-0.5-11.5c2.7,0.1,5.3,0.2,7.9,0.3c2.6,0.1,5.3,0.1,8,0.1c2.7,0,5.4,0,8.1-0.1
	c2.7-0.1,5.7-0.2,8.9-0.3c-0.2,0.9-0.3,1.8-0.3,2.7c0,0.9,0.1,1.8,0.3,2.7c-1.6-0.2-3.5-0.3-5.8-0.5c-2.3-0.1-4.5-0.2-6.9-0.3
	c-2.3-0.1-4.6-0.2-6.7-0.3c-2.2,0-4-0.1-5.4-0.1c0,2.1-0.1,4.1-0.1,6c0,1.9,0,3.8,0,5.7c0,2.1,0,4,0,5.7c0,1.7,0.1,3.6,0.1,5.5
	c3.9,0,7.7-0.1,11.6-0.2c3.8-0.1,7.6-0.4,11.3-0.7c-0.2,0.9-0.4,1.8-0.4,2.7c0,0.9,0.1,1.8,0.4,2.7c-1.5-0.2-3.1-0.3-5-0.4
	c-1.9-0.1-3.8-0.2-5.8-0.2c-2,0-4-0.1-6.1-0.1h-5.9v7.6c0,3.9,0,7.7,0.2,11.5c0.2,3.8,0.3,7.5,0.5,11.2c-1.4-0.1-2.8-0.2-4.3-0.2
	c-1.6,0-3,0.1-4.4,0.2c0.2-3.7,0.3-7.4,0.5-11.2c0.1-3.8,0.2-7.6,0.2-11.5v-15.3C419.8,713.2,419.7,709.4,419.6,705.7"/>
  <path d="M536.7,752.5c-0.8-0.1-1.6-0.2-2.4-0.2H532h-2.4c-0.7,0-1.5,0.1-2.4,0.2c-0.4-1.3-1-3-1.7-4.9
	c-0.7-1.9-1.5-4-2.3-6.1c-0.9-2.1-1.7-4.2-2.6-6.4c-0.9-2.2-1.7-4.2-2.5-6.2c-1.9,0-3.8-0.1-5.8-0.1c-2,0-3.9,0-5.9,0
	c-1.8,0-3.6,0-5.4,0c-1.8,0-3.6,0.1-5.4,0.1c-1.9,4.6-3.6,9-5.1,13.2c-1.5,4.2-2.7,7.6-3.5,10.3c-1-0.1-2.1-0.2-3.3-0.2
	c-1.2,0-2.3,0.1-3.3,0.2c4.8-10.3,9.5-20.7,14-30.9c4.6-10.2,9.1-20.7,13.8-31.3h1.7c1.4,3.4,3,7.2,4.6,11.1c1.7,4,3.3,8,5.1,12.1
	c1.7,4.1,3.4,8.1,5.2,12.2c1.7,4,3.3,7.7,4.8,11.2c1.5,3.5,2.9,6.5,4.1,9.3C534.9,749,535.9,751.1,536.7,752.5 M497.4,724.9
	c1.5,0,3.1,0,4.8,0.1c1.6,0,3.2,0.1,4.8,0.1c1.6,0,3.3,0,5-0.1c1.7,0,3.3-0.1,5-0.1l-9.9-22.6L497.4,724.9z"/>
  <path d="M543.1,703c-0.2-3.7-0.3-7.6-0.5-11.5c0.8,0.1,1.5,0.2,2.2,0.3c0.7,0.1,1.4,0.1,2.2,0.1c0.7,0,1.4-0.1,2.1-0.1
	c0.7-0.1,1.5-0.2,2.2-0.3c-0.2,3.9-0.4,7.7-0.5,11.5c-0.1,3.8-0.2,7.6-0.2,11.5c0,7.4,0,13.9,0.1,19.4c0,5.5,0.1,10.4,0.2,14.7
	c4.2,0,8.2,0,12.1-0.1c3.9-0.1,8-0.4,12.4-1c-0.3,1.1-0.4,1.9-0.4,2.7c0,0.6,0.1,1.4,0.4,2.4c-2.7-0.1-5.5-0.2-8.2-0.2h-8.2h-8.2
	c-2.6,0-5.4,0.1-8.2,0.2c0.2-3.7,0.3-7.4,0.5-11.2c0.1-3.8,0.2-7.6,0.2-11.5v-15.3C543.4,710.6,543.3,706.8,543.1,703"/>
  <path d="M615,704.4c-0.1-3.8-0.3-7.6-0.5-11.5c1.7,0.1,3.4,0.2,5,0.3c1.6,0.1,3.3,0.1,5,0.1c1.7,0,3.3-0.1,5-0.2
	c1.6-0.1,3.3-0.2,5-0.2c2.5,0,4.8,0.2,7,0.7c2.2,0.5,4.2,1.3,5.8,2.3c1.7,1.1,3,2.5,4,4.3c0.9,1.8,1.4,4,1.4,6.7
	c0,2.8-0.6,5.3-1.9,7.3c-1.2,2.1-2.7,3.7-4.5,5.1c-1.8,1.3-3.8,2.4-5.8,3.1c-2.1,0.7-4,1.2-5.6,1.5c0.7,0.9,1.7,2.1,2.9,3.7
	c1.2,1.6,2.6,3.4,4.1,5.3c1.5,1.9,3.1,3.9,4.7,6c1.6,2.1,3.2,4.1,4.7,6c1.5,1.9,3,3.7,4.3,5.3c1.3,1.6,2.4,2.8,3.2,3.6
	c-0.9-0.1-1.8-0.2-2.6-0.2h-2.6h-2.6c-0.8,0-1.7,0-2.5,0.2c-0.9-1.2-2.2-3.1-4-5.6c-1.8-2.5-3.7-5.1-5.9-8c-2.2-2.8-4.3-5.7-6.6-8.5
	c-2.3-2.8-4.3-5.2-6.2-7.2h-3.3v6.5c0,3.9,0.1,7.8,0.2,11.5c0.1,3.8,0.3,7.5,0.5,11.2c-1.4-0.1-2.8-0.2-4.3-0.2
	c-1.5,0-2.9,0-4.3,0.2c0.2-3.7,0.4-7.4,0.5-11.2c0.2-3.8,0.3-7.6,0.3-11.5V716C615.3,712,615.2,708.2,615,704.4 M625.1,721.4
	c0.9,0.1,2,0.1,3.2,0.1c1.8,0,3.7-0.2,5.6-0.6c2-0.4,3.7-1.1,5.4-2.2c1.6-1,3-2.4,4.1-4.2c1.1-1.7,1.6-3.9,1.6-6.6
	c0-2.3-0.5-4.2-1.3-5.8c-0.8-1.5-1.9-2.7-3.3-3.6c-1.4-0.9-2.8-1.5-4.4-1.8c-1.6-0.3-3.1-0.5-4.6-0.5c-2,0-3.7,0.1-5.1,0.2
	c-1.3,0.1-2.5,0.2-3.4,0.3c-0.1,3.3-0.3,6.5-0.3,9.7c-0.1,3.2-0.2,6.4-0.2,9.6v5C623.2,721.2,624.1,721.3,625.1,721.4"/>
  <path d="M713.3,753.9c-0.8-0.1-1.6-0.2-2.3-0.2h-2.3h-2.3c-0.7,0-1.5,0-2.3,0.2c-0.4-1.4-1-3-1.7-4.9
	c-0.7-1.9-1.5-3.9-2.3-6c-0.8-2.1-1.7-4.2-2.6-6.4c-0.9-2.2-1.7-4.2-2.5-6.2c-1.9-0.1-3.7-0.1-5.7-0.2c-1.9,0-3.8,0-5.7,0
	c-1.8,0-3.6,0-5.4,0c-1.7,0-3.5,0.1-5.3,0.2c-1.9,4.6-3.5,9-5.1,13.1c-1.5,4.2-2.6,7.6-3.4,10.4c-1-0.1-2-0.2-3.2-0.2
	c-1.2,0-2.2,0-3.2,0.2c4.7-10.4,9.3-20.7,13.8-30.9c4.5-10.2,9-20.6,13.5-31.2h1.6c1.4,3.4,2.9,7.1,4.5,11.1c1.6,4,3.3,8,5,12.1
	c1.7,4.1,3.4,8.1,5.1,12.2c1.7,4,3.3,7.8,4.8,11.2c1.5,3.5,2.8,6.6,4,9.3C711.6,750.5,712.6,752.5,713.3,753.9 M674.7,726.3
	c1.5,0,3.1,0,4.7,0.1c1.6,0,3.2,0.1,4.7,0.1c1.6,0,3.3,0,4.9-0.1c1.6,0,3.3,0,4.9-0.1l-9.7-22.6L674.7,726.3z"/>
  <path d="M725.4,724.6c-1.2-1.9-2.4-4.1-3.8-6.4c-1.3-2.3-2.8-4.8-4.3-7.3c-1.5-2.6-3-5-4.3-7.4
	c-1.4-2.3-2.6-4.4-3.7-6.3c-1.1-1.9-2-3.3-2.5-4.2c0.8,0.1,1.6,0.2,2.4,0.3c0.8,0.1,1.6,0.1,2.4,0.1c0.8,0,1.6,0,2.4-0.1
	c0.8-0.1,1.6-0.2,2.4-0.3c2.6,5.1,5.3,10.2,8,15.2c2.7,5,5.6,10.1,8.6,15.5c1.3-2.1,2.7-4.5,4.2-7c1.5-2.6,2.9-5.2,4.4-7.8
	c1.5-2.6,2.9-5.3,4.2-8c1.3-2.7,2.6-5.3,3.7-7.9c1.5,0.3,2.6,0.4,3.4,0.4c0.8,0,2-0.2,3.4-0.4c-2.8,4.3-5.3,8.2-7.5,11.7
	c-2.2,3.5-4.1,6.7-5.8,9.5c-1.7,2.8-3.2,5.4-4.5,7.7c-1.3,2.3-2.4,4.3-3.3,6.2c0,2.2,0,4.5,0,7c0,2.5,0.1,4.9,0.1,7.3
	c0.1,2.4,0.1,4.6,0.2,6.7c0.1,2,0.2,3.7,0.3,4.9c-1.3-0.1-2.8-0.2-4.3-0.2c-1.5,0-2.9,0-4.3,0.2c0.4-3.1,0.6-6.8,0.6-11.2
	c0-4.3,0.1-9,0.1-13.8C727.4,728,726.6,726.5,725.4,724.6"/>
  <path d="M806.7,753.9c-0.8-0.1-1.6-0.2-2.3-0.2h-2.3h-2.3c-0.7,0-1.5,0-2.3,0.2c-0.4-1.4-1-3-1.7-4.9
	c-0.7-1.9-1.4-3.9-2.3-6c-0.8-2.1-1.7-4.2-2.6-6.4c-0.9-2.2-1.7-4.2-2.4-6.2c-1.9-0.1-3.8-0.1-5.7-0.2c-1.9,0-3.9,0-5.8,0
	c-1.8,0-3.6,0-5.3,0c-1.8,0-3.5,0.1-5.3,0.2c-1.9,4.6-3.6,9-5,13.1c-1.5,4.2-2.7,7.6-3.4,10.4c-1-0.1-2.1-0.2-3.2-0.2
	s-2.2,0-3.2,0.2c4.7-10.4,9.3-20.7,13.8-30.9c4.5-10.2,9-20.6,13.5-31.2h1.7c1.4,3.4,2.9,7.1,4.6,11.1c1.6,4,3.3,8,5,12.1
	c1.7,4.1,3.4,8.1,5.1,12.2c1.7,4,3.3,7.8,4.8,11.2c1.5,3.5,2.8,6.6,4,9.3C805,750.5,805.9,752.5,806.7,753.9 M768,726.3
	c1.5,0,3.1,0,4.7,0.1c1.6,0,3.2,0.1,4.7,0.1c1.6,0,3.3,0,4.9-0.1c1.6,0,3.3,0,4.9-0.1l-9.7-22.6L768,726.3z"/>
  <path d="M841,730.9c-7.6-8.3-15.1-16.5-22.7-24.6c-0.1,1.7-0.1,3.9-0.2,6.6c-0.1,2.8-0.1,6.6-0.1,11.4
	c0,1.3,0,2.8,0,4.6c0,1.9,0.1,3.8,0.1,5.8c0,2,0.1,4,0.1,6.1c0.1,2.1,0.1,4,0.2,5.8c0.1,1.8,0.1,3.3,0.2,4.7
	c0.1,1.3,0.1,2.2,0.2,2.7c-0.9-0.1-1.9-0.2-3.1-0.2c-1.2,0-2.3,0.1-3.2,0.2c0.1-0.6,0.3-1.7,0.4-3.3c0.1-1.6,0.2-3.5,0.4-5.7
	c0.1-2.2,0.2-4.6,0.4-7.2c0.1-2.6,0.2-5.2,0.3-7.8c0.1-2.6,0.2-5.2,0.2-7.6c0-2.5,0.1-4.7,0.1-6.7c0-5.7,0-10.6,0-14.6
	c0-4.1-0.1-7.1-0.2-9.1h1.4c3.5,3.9,7.4,8.1,11.4,12.6c4,4.5,8.1,8.9,12,13.2c4,4.4,7.8,8.5,11.4,12.3c3.6,3.9,6.7,7.2,9.4,9.9
	v-12.1c0-6.2,0-12.3-0.1-18.1c-0.1-5.9-0.3-11.5-0.6-16.7c1.2,0.3,2.2,0.5,3,0.5c0.7,0,1.6-0.2,2.8-0.5c-0.1,1.3-0.3,3.3-0.4,5.9
	c-0.1,2.6-0.3,5.4-0.4,8.3c-0.1,3-0.3,5.9-0.4,8.7c-0.1,2.8-0.2,5.1-0.2,6.8v5.3c0,2,0,4.1,0,6.3c0,2.2,0.1,4.4,0.1,6.6
	c0,2.2,0.1,4.3,0.1,6.2c0.1,1.9,0.1,3.6,0.1,5v2.9h-1.2C855.7,747.3,848.6,739.2,841,730.9"/>
  <path d="M846.6,602.4c-3.8-5.1-4.7-9.9-4.8-10.4v0c0,0,10.1,13.6,24,13.5c13.9-0.1,20-9.8,20-9.8c2.9-3.9,4-10.4,4-16.1
	c0-1-0.1-2.2-0.1-3.2c-1.5-13.2-10.5-21.3-24.5-21.3h-1.6c-10.3,0.1-17.4,5.4-22.3,13.1c-4.8,7.6-7.2,17.3-8.1,23
	c-0.8,5.6-4.8,9.7-8.9,11.4c-4.1,1.8-20.6,1.5-20.6,1.6c-0.5,0-8.8,0-21.6,0c-24.4,0-65,0-99.6,0c-34.6,0-63,0-63.1,0v-10.5
	c0,0,113.9,0,162.6,0c12.8,0,21.1,0,21.6,0c2.1,0.1,14.5,0.2,16.3-0.7c1.8-1,2.3-1.4,2.8-3.4c3.2-17.1,9.5-26.9,9.5-26.9
	c9-15.8,21.3-18.7,35-18.6c16.1,0.1,32.7,12.8,32.8,31.6c0.1,1.2,0.2,2.6,0.2,4c0,7.2-1.6,15-6.3,21.4c-4.6,6.5-12.5,11-23.1,11.7
	c-0.7,0-1.5,0.1-2.4,0.1h-0.3C857.5,612.7,850.3,607.5,846.6,602.4"/>
  <path d="M669.2,563.6l10.9-10.6l0,27.9c8.3-10.9,20.3-26,27-31.9c7-5.9,19.5-10.5,33.4-10.6c10.9,0,22.8,3.2,32.1,12.1
	c13.2,12.8,15.4,29.3,15.4,39.4c0,5.8-0.7,9.7-0.8,9.9l-10.3-2c-0.1,0,0.6-3,0.6-7.9c0-8.7-2-22.1-12.2-31.9
	c-6.9-6.6-15.8-9.2-24.8-9.2c-11.3-0.1-22.5,4.4-26.5,8.1c-4.2,3.6-13.2,14.5-20.7,24.1c-7.6,9.7-13.9,18.3-13.9,18.3l-10,2.5
	L669.2,563.6z"/>
  <path d="M615.5,603.2L615.5,603.2v-46.9h10.5v47.5l0,0.1c0.1,0.6-3.3,38.5-46.5,49.9
	C579.4,653.8,611.5,640.4,615.5,603.2"/>
  <path d="M493.1,607.4l-0.4,0c-0.6,0-32.7-5.7-37.8-43.9c0,0,5,21.8,35.8,32.5c1.7,0.6,2.8,0.8,3.3,0.9h78.2v-40.7
	c-0.1-9-3.7-14.7-9.1-17.7c-1.2-0.7-5-1.8-9-1.8c-8.4,0.3-16.9,3-20,16c-0.4,1.9-0.6,3.7-0.6,5.3c0.3,30.7,31.4,29.1,31.4,29.1
	s-16.7,2.8-30.1-5.2c-5.6-4.6-11.8-12.6-11.8-23.9c0-2.4,0.2-5,0.9-7.6c3.9-18.4,19.2-24.6,30.3-24.2c5.7,0,10.5,1.1,14.1,3.1
	c9.1,4.9,14.6,14.9,14.5,26.9v45.9v5.3H493.1z"/>
  <path d="M410.2,596.3c0-2.5-0.6-78.5-0.6-78.6l10.5-0.1c0,0,0.6,76,0.6,78.7c0,24.5,8.6,31.8,8.6,31.8
	C410.5,620.2,410.3,599.3,410.2,596.3"/>
  <path d="M315.1,604.2L315.1,604.2L315.1,604.2z M315.1,604.2v-10.5l61,0v-68.2l10.5-7.2v85.9H315.1z"/>
  <path d="M310.1,609.1L310.1,609.1c0,0,0-0.1,0-0.2c0.1-0.4,0.1-1,0.1-1.7c0.1-1.5,0.2-3.6,0.3-6.1
	c0.1-4.9,0.1-11.3,0.1-17.5c0-12.5-0.1-14.1-0.1-14.1l10.5-10.6c0,0,0.2,12.2,0.2,24.8c0,9.5-0.1,19.1-0.4,24.3
	c-0.2,1.9-0.1,2.7-0.8,4.8c-0.9,2.3-9.2,35.6-45.2,41.9C274.7,654.6,306.8,644,310.1,609.1"/>
  <path d="M148.7,650.6c-29.1-0.1-47.5-22.3-47.6-44.4c0-1.5,0.1-3.1,0.3-4.6c2-17.6,12.9-26,19.2-28.7
	c2.4-0.9,3.3-1.4,5.5-1.5c0.1,0.1,0.2,0,0.3,0c0.3-0.1-17.2,9.1-14.9,34.9c1.7,18.3,13.7,33.9,37.1,33.9c2.2,0,4.6-0.2,7-0.5
	c22.2-3.3,27.1-16.9,29-23.8c0.5-2.3,0.5-3.4,0.5-3.2v-45.2l10.5-10.5v56c0,0.5-0.4,8.2-5.5,16.8c-5,8.6-15.3,17.9-33.1,20.3
	c-2.8,0.4-5.6,0.6-8.3,0.6H148.7z"/>
  <polygon points="213.5,606.8 213.5,525.5 224,515 224,596.3 281,596.3 281,568.7 291.5,558.3 291.5,606.8 "/>
  <polygon points="241.7,633.5 227.7,633.5 241.7,619.5 "/>
  <polygon points="556.9,521.1 542.9,521.1 556.9,507.1 "/>
  <polygon points="163.9,561.8 149.9,561.8 163.9,547.8 "/>
  <polygon points="264,633.5 250,633.5 264,619.5 "/>
 </g>
</svg>
