<?xml version="1.0" encoding="UTF-8"?>
<svg xmlns="http://www.w3.org/2000/svg" viewBox="18.14 -20.31 163.72 163.72">
 <rect x="18.14" y="-20.31" width="163.72" height="163.72" fill="#fff"/>
 <path fill="#e83860" d="m168.215 89.607a6.317 6.317 0 0 1 -1.85 4.467l-28.29 28.29c-1.592 1.592-4.314.464-4.314-1.787v-63.391l34.061-33.87h.393z"/>
 <path fill="#dfc586" d="m145.64.74a2.526 2.526 0 0 0 -3.574 0l-42.066 42.066h-.584v47.478l.584 1.247 33.761-33.761 34.454-34.454z"/>
 <path fill="#327787" d="m31.785 89.607c0 1.676.665 3.282 1.85 4.467l28.29 28.29c1.592 1.592 4.314.464 4.314-1.787v-63.391l-34.062-33.87h-.392z"/>
 <path fill="#8abb9c" d="m57.934.74a2.527 2.527 0 0 0 -3.574 0l-22.575 22.576 34.454 34.454 33.761 33.76v-48.724z"/>
</svg>
