<?xml version="1.0" encoding="UTF-8"?>
<svg xmlns="http://www.w3.org/2000/svg" viewBox="137.25 404.75 190.4 190.4">
 <rect x="137.25" y="404.75" width="190.4" height="190.4" fill="#fff"/>
 <path fill="#2A3466" d="M233.4,575.3l5-31.7l0.3-1.8c0.2-1.5,1-2.9,2.2-3.9s2.7-1.6,4.2-1.6h4c6.6,0,12.7-0.7,18.1-2.1
	c5.7-1.5,10.8-3.8,15.2-6.9c4.6-3.3,8.4-7.5,11.4-12.5c3.2-5.3,5.5-11.7,6.9-19.1c1.3-6.5,1.5-12.2,0.7-17.2
	c-0.8-5.2-2.9-9.7-6-13.3c-1.9-2.2-4.3-4-7.2-5.6l-0.1,0l0-0.1c1-6.5,1-11.8-0.1-16.5c-1.1-4.6-3.3-8.8-6.8-12.8
	c-7.2-8.2-20.2-12.3-38.8-12.3h-51c-1.7,0-3.4,0.6-4.7,1.7c-1.3,1.1-2.2,2.6-2.4,4.3l-21.2,134.7c-0.2,1.2,0.2,2.5,1,3.4
	c0.8,0.9,2,1.5,3.2,1.5H199l0,0.2l-2.2,13.8c-0.2,1.1,0.1,2.2,0.8,3c0.7,0.8,1.7,1.3,2.8,1.3H227c1.5,0,2.9-0.5,4.1-1.5
	c1.1-1,1.9-2.3,2.1-3.8L233.4,575.3"/>
 <path fill="#498DBD" d="M288.3,459.6L288.3,459.6c-0.2,1-0.3,2-0.5,3c-6.7,34.5-29.7,46.5-59.1,46.5h-15
	c-3.6,0-6.6,2.6-7.2,6.2l-9.8,62.4c-0.4,2.3,1.4,4.4,3.8,4.4H227c3.1,0,5.8-2.3,6.3-5.4l0.3-1.3l5-31.7l0.3-1.8
	c0.5-3.1,3.2-5.4,6.3-5.4h4c25.7,0,45.8-10.4,51.7-40.7c2.5-12.6,1.2-23.2-5.3-30.6C293.6,463,291.2,461.1,288.3,459.6"/>
 <path fill="#20264C" d="M281.3,456.8c-1-0.3-2.1-0.6-3.2-0.8c-1.1-0.2-2.2-0.5-3.4-0.6c-4-0.7-8.5-1-13.2-1h-40
	c-1,0-1.9,0.2-2.8,0.6c-1.8,0.9-3.2,2.6-3.5,4.8l-8.5,53.9l-0.2,1.6c0.6-3.5,3.6-6.2,7.2-6.2h15c29.4,0,52.4-11.9,59.1-46.5
	c0.2-1,0.4-2,0.5-3c-1.7-0.9-3.5-1.7-5.5-2.3C282.3,457.1,281.8,457,281.3,456.8"/>
</svg>
