<?xml version="1.0" encoding="UTF-8"?>
<svg xmlns="http://www.w3.org/2000/svg" viewBox="428.25 428.28 143.6 143.6">
 <rect x="428.25" y="428.28" width="143.6" height="143.6" fill="#cf343e"/>
 <g fill="#fff">
  <path d="M537.1,477.2c-.2.4-.4.9-.7,1.3l-.5,1h0c-.7,1.2-1.6,2.4-2.5,3.6h0s-.5.6-.5.6c-1.5,1.8-2.6,2.8-2.7,2.8,0,0-3.7,3.5-3.7,3.5l-3.7,3.6h0s-.5.6-.5.6c0,0-2.1,2-3.9,3.8l-2.8,2.7c-1.7,1.7-12.9,12.5-15.5,15,.8.9,4.2,4.4,5.1,5.2,1-1,15.7-15.3,15.7-15.3l6.4-6.2,5.2-5,1.1-1.1c1.5-1.5,2.9-3,4-4.5,1.3-1.7,2.3-3.5,2.9-5.2.9-2.1,1.3-4.2,1.3-6.3s-.3-3.8-1.1-5.7c-.5-1.5-1.2-2.7-1.9-3.7,0,.4,0,.8.1,1.3,0,.1,0,.2,0,.4s0,.3,0,.4,0,.3,0,.4c0,.3,0,.6,0,.9,0,.1,0,.2,0,.3,0,.4-.1.8-.2,1.2,0,0,0,.2,0,.3,0,.3-.2.7-.3,1,0,.1,0,.3-.1.4,0,.3-.2.6-.3.9,0,.2-.1.3-.2.5-.1.3-.3.6-.4.9,0,.1-.1.3-.2.4"/>
  <path d="M540.5,497.1s-3.7,3.5-3.7,3.5c0,0-25.3,24.5-26.4,25.6.2.2.4.4.6.6l2,2.1s0,0,0,0c0,0,0,0,0,0,0,0,0,0,.1.1,0,0,0,0,0,0,0,0,.1.1.2.2,0,0,0,0,0,0,0,0,.2.2.3.3,0,0,0,0,0,0,.1.1.2.2.3.3,0,0,0,0,0,0,.1.1.3.3.4.4,0,0,0,0,0,0,.1.1.3.3.5.4,0,0,0,0,0,0,.2.2.3.3.5.5h0c1-.9,15.6-15.1,15.6-15.1l6.4-6.2,4.3-4.1,2-1.9c1.5-1.5,2.9-3,4-4.5,1.2-1.7,2.2-3.5,2.9-5.2.8-2.1,1.3-4.2,1.3-6.3s-.4-3.8-1.1-5.7c-.5-1.5-1.2-2.7-1.9-3.7,0,.6.1,1.1.1,1.7,0,2.8-.9,5.9-2.5,8.9-.9,1.7-2.1,3.5-3.5,5.1-1.5,1.8-2.6,2.8-2.7,2.8"/>
  <path d="M561.4,492.9c-.5-1.5-1.3-2.7-1.9-3.7,0,.5.1,1.1.1,1.6,0,2.8-.9,5.9-2.6,8.9-1,1.7-2.1,3.5-3.5,5.1-1.5,1.8-2.6,2.8-2.7,2.8,0,0-3.6,3.5-3.6,3.5l-10.6,10.3s-11.2,10.9-14.4,13.9c3.2,1.5,6.2,2,9.1,1.4.4-.4,13-12.6,13-12.6l10-9.7c1.5-1.5,2.9-3,4-4.5,1.2-1.7,2.2-3.5,2.9-5.2.9-2.1,1.3-4.2,1.3-6.3s-.4-3.8-1.1-5.7"/>
  <path d="M463,522.8c.1-.3.3-.7.5-1l.5-1h0c.7-1.2,1.5-2.4,2.5-3.6h0s.5-.6.5-.6c1-1.2,1.8-2.1,2.3-2.6,0-.1.2-.2.3-.3.1-.1.2-.2.2-.2,0,0,3.5-3.3,3.5-3.3l.6-.6c.9-.9,2.7-2.6,3.4-3.3l7.3-7.1c2.5-2.4,12.7-12.3,15.2-14.7-.8-.9-4.2-4.4-5.1-5.2-.8.8-2.8,2.8-2.8,2.8l-12.9,12.5-8.1,7.8-4.3,4.2c-1.6,1.5-3,3.1-4.2,4.7-1.2,1.7-2.2,3.5-2.9,5.3-.8,2-1.2,4.1-1.2,6s.4,4.3,1.3,6.3c.5,1.2,1.1,2.2,1.6,3,0-.5,0-1,0-1.5v-.2c0-.3,0-.6,0-.9,0,0,0-.1,0-.2,0-.3,0-.5,0-.8,0,0,0-.1,0-.2,0-.3.1-.6.2-.9,0,0,0-.1,0-.2,0-.3.1-.6.2-.9,0,0,0-.1,0-.1,0-.3.2-.6.3-1,0,0,0-.1,0-.2.1-.3.2-.6.4-.9,0,0,0,0,0,0,.1-.3.3-.7.4-1,0,0,0-.1.1-.2"/>
  <path d="M459.5,502.9s3.5-3.3,3.5-3.3l4.3-4.1h0l6.4-6.2s12.9-12.5,15.7-15.3c-.4-.4-.9-1-1.4-1.5,0,0,0,0,0,0-.5-.5-.9-.9-1.1-1.2-.1-.2-.2-.3-.2-.3,0,0,0,0,0,0,0,0,0,0,0,0,0,0,0,0,0,0,0,0,0,0-.1-.1,0,0,0,0,0,0,0,0-.1-.1-.2-.2,0,0,0,0,0,0,0,0-.2-.2-.2-.2,0,0,0,0-.1-.1,0,0-.2-.2-.3-.3,0,0,0,0-.1-.1-.1,0-.2-.2-.3-.3,0,0,0,0-.1-.1-.1-.1-.3-.2-.4-.4h0c-.9.8-5.1,4.9-5.1,4.9l-10.6,10.3-6.4,6.2-6,5.8c-1.6,1.6-3,3.2-4.2,4.8-1.2,1.7-2.2,3.5-2.9,5.3-.8,2-1.2,4-1.2,6s.4,4.3,1.3,6.3c.5,1.2,1.1,2.3,1.7,3.1,0-.6-.2-1.1-.2-1.7,0-2.8.8-5.7,2.4-8.7.9-1.7,2.1-3.5,3.5-5.2,1.5-1.9,2.8-3,2.9-3.1"/>
  <path d="M449.2,492.3s3.5-3.4,3.5-3.4l4.3-4.1s19.4-18.8,20.9-20.2c-3.1-1.5-6-2.1-8.8-1.7-.4.4-4.9,4.7-4.9,4.7l-8.1,7.8-10.3,9.9-2,2.1c-.8.9-1.5,1.7-2.1,2.6-1.2,1.8-2.2,3.5-2.9,5.3-.8,2-1.2,4.1-1.2,6.1s.4,4.2,1.3,6.3c.5,1.2,1.1,2.3,1.7,3.1,0-.6-.1-1.1-.1-1.7,0-2.8.8-5.7,2.4-8.7.9-1.8,2.1-3.5,3.5-5.2,1.5-1.9,2.8-3,2.8-3.1"/>
  <path d="M499.1,557.1c-1.7-.9-3.5-2.1-5.2-3.4-2-1.6-3.2-3-3.3-3l-7.3-7.5s-17.5-18.1-18.9-19.6c-.8,1.7-1.3,3.3-1.6,4.9,0,.2,0,.3,0,.5,0,.1,0,.3,0,.4,0,.3,0,.5,0,.8,0,0,0,.2,0,.3,0,.2,0,.4,0,.6,0,.5,0,1,.1,1.4.4.4,14.1,14.6,14.1,14.6l6.8,7c1.3,1.3,2.5,2.5,3.8,3.5l1.2.9c1.7,1.2,3.5,2.2,5.3,2.8,4.3,1.6,8.6,1.4,12.8-.6.9-.4,1.7-.9,2.4-1.3-3.2.4-6.6-.4-10.1-2.2"/>
  <path d="M508.2,526.2h.1c0,.1-.1,0-.1,0ZM524.3,538.1c-.4-.1-.8-.2-1.2-.4,0,0,0,0-.1,0-.4-.1-.8-.3-1.2-.5,0,0,0,0-.1,0-.4-.2-.8-.4-1.2-.6h0c-.3-.2-.6-.4-.9-.5h0s0,0,0,0c-1.2-.7-2.5-1.5-3.7-2.5h0s0,0,0,0c-.2-.1-.4-.3-.5-.4l.5.4-.5-.4c-1.3-1-2.2-1.9-2.7-2.5-.3-.3-.5-.5-.5-.6,0,0-3.2-3.3-3.2-3.3,0,0,0,0,0,0h0c0-.2-.2-.3-.4-.5h0c-2.1-2.2-9.8-10.1-9.8-10.1,0,0,0,0-.2-.2l-.3-.3c-2.3-2.4-11.2-11.5-13.5-13.9-.4.4-1.3,1.2-2.2,2.1l-.3.3c-1.1,1.1-2.3,2.2-2.8,2.7,1,1,14,14.5,14,14.5l6.2,6.4s5.7,5.9,5.7,5.9c1.6,1.7,3.3,3.2,5,4.3,1.8,1.2,3.5,2.2,5.3,2.8,4.3,1.6,8.6,1.4,12.8-.5.9-.4,1.7-.9,2.4-1.4-.5,0-1,0-1.5.1-1.5,0-3.1-.2-4.7-.7,0,0,0,0,0,0"/>
  <path d="M530.5,538.7c-2,.2-4,0-6.1-.6,1.6.5,3.1.7,4.6.7.5,0,1,0,1.5-.1h0"/>
  <path d="M509.7,546.8c-1.7-.9-3.5-2.1-5.2-3.4-2-1.6-3.2-3-3.3-3,0,0-3.2-3.3-3.2-3.3,0,0-23.3-24.1-24.3-25.1-.7.7-2.3,2.2-2.8,2.7h-.1c0,.1,0,.1,0,.2,0,0,0,0,0,0,0,0,0,0,0,0,0,0-.1.1-.2.2,0,0,0,0,0,0,0,0-.1.1-.2.2,0,0,0,0,0,0,0,0-.2.2-.3.3,0,0,0,0,0,0,0,0-.2.2-.3.3,0,0,0,0,0,.1-.1.1-.2.2-.3.4,0,0,0,0,0,.1-.1.1-.2.3-.4.4h0c.9.9,24.4,25.3,24.4,25.3l1.3,1.4c1.6,1.7,3.3,3.1,5,4.3,1.7,1.2,3.5,2.2,5.3,2.8,4.3,1.6,8.6,1.4,12.8-.5.9-.4,1.7-.9,2.4-1.4-3.2.4-6.5-.4-10.1-2.2"/>
  <path d="M500.8,443c1.7.9,3.5,2.1,5.1,3.5,1.8,1.5,2.9,2.7,3,2.8,0,0,3.4,3.5,3.4,3.5l10.3,10.7s9.9,10.3,12.8,13.2c.7-1.5,1.3-3.1,1.6-4.6,0,0,0,0,0,0,0-.3.1-.6.1-.9,0-.3,0-.6,0-.9,0-.1,0-.2,0-.3,0-.2,0-.5,0-.8,0-.1,0-.3,0-.4h0c0-.3,0-.5,0-.7-.4-.4-21.4-22.1-21.4-22.1-3.2-3.3-6.6-5.7-9.9-7-4.1-1.6-8.2-1.6-12.2,0-1.3.5-2.4,1.2-3.3,1.8,3.3-.4,6.8.4,10.5,2.3"/>
  <path d="M537.3,469.2c0,.3,0,.5,0,.8,0-.1,0-.3,0-.4s0-.2,0-.3"/>
  <path d="M476.6,462.4c0,0,.1,0,.2,0,0,0,.1,0,.2,0,.4.1.8.3,1.2.5.5.2.9.4,1.4.7l1,.5h0c1.2.7,2.4,1.6,3.6,2.5h0s0,0,0,0h0c.2.1.3.3.5.4h0c1.8,1.6,2.9,2.8,3,2.8,0,0,3.4,3.5,3.4,3.5l3.6,3.7.5.5h0c0,0,19.2,19.9,20.2,20.9.6-.6,2.7-2.6,4.1-3.9h0c.5-.5.9-.9,1.2-1.1-1-1.1-14-14.5-14-14.5l-6.2-6.4-4.1-4.3s-1.8-1.8-1.8-1.8c-1.5-1.6-3.1-2.9-4.6-4.1-1.7-1.3-3.5-2.2-5.2-2.9-4.1-1.6-8.2-1.6-12.2,0-1.3.5-2.4,1.2-3.3,1.8,0,0,0,0,0,0,2.4-.3,4.9,0,7.5,1"/>
  <path d="M479.5,463.7c.3.2.6.4,1,.5h0s-1-.5-1-.5Z"/>
  <path d="M490.2,453.4c1.8.9,3.5,2.1,5.1,3.5,1.8,1.5,2.9,2.7,3,2.8l3.4,3.5s21.7,22.4,24.3,25.1c.4-.4,1.3-1.3,2.1-2h0c.3-.3.5-.6.7-.7h.1c0-.2.1-.2.1-.2,0,0,.9-.8,2.1-2.2-.8-.9-21.7-22.4-21.7-22.4l-2.6-2.7-1.8-1.8c-1.5-1.6-3.1-2.9-4.6-4.1-1.7-1.3-3.5-2.2-5.2-2.9-4.1-1.6-8.2-1.6-12.2,0-1.3.5-2.4,1.2-3.4,1.8,3.3-.4,6.8.4,10.5,2.3"/>
 </g>
</svg>
