<?xml version="1.0" encoding="UTF-8"?>
<svg xmlns="http://www.w3.org/2000/svg" viewBox="0 0 200 200">
 <rect width="200" height="200" fill="#fff"/>
 <defs>
  <linearGradient id="qnbG9" gradientUnits="userSpaceOnUse" x1="172.6393" y1="510.3177" x2="167.6672" y2="617.6302">
   <stop offset="0" stop-color="#1C8FC0"/>
   <stop offset="0.0969" stop-color="#146B9F"/>
   <stop offset="0.2209" stop-color="#031A54"/>
   <stop offset="1" stop-color="#001B58"/>
  </linearGradient>
  <linearGradient id="qnbG10" gradientUnits="userSpaceOnUse" x1="162.6689" y1="499.609" x2="10.6083" y2="500.8521">
   <stop offset="0" stop-color="#1C8FC0"/>
   <stop offset="0.0969" stop-color="#146B9F"/>
   <stop offset="0.2209" stop-color="#031A54"/>
   <stop offset="1" stop-color="#001B58"/>
  </linearGradient>
  <linearGradient id="qnbG11" gradientUnits="userSpaceOnUse" x1="171.7244" y1="499.9721" x2="349.888" y2="499.9721">
   <stop offset="0" stop-color="#1C8FC0"/>
   <stop offset="0.0969" stop-color="#146B9F"/>
   <stop offset="0.2209" stop-color="#031A54"/>
   <stop offset="1" stop-color="#001B58"/>
  </linearGradient>
  <linearGradient id="qnbG12" gradientUnits="userSpaceOnUse" x1="157.7942" y1="476.8813" x2="187.6263" y2="408.9305">
   <stop offset="0" stop-color="#870051"/>
   <stop offset="0.05" stop-color="#870051"/>
   <stop offset="0.062" stop-color="#80004A"/>
   <stop offset="0.1548" stop-color="#510015"/>
   <stop offset="0.2" stop-color="#3E0000"/>
   <stop offset="1" stop-color="#3E0000"/>
  </linearGradient>
 </defs>
 <g transform="translate(-48.7,-354.8) scale(0.8696)">
  <path fill="url(#qnbG9)" d="M164.2,514.1L126,552.4c3.8,3.3,8.1,6.1,12.6,8.5l24.9-24.9v32.5c2.4,0.3,4.8,0.4,7.2,0.4
	c2.4,0,4.8-0.1,7.2-0.4v-32.5l24.9,24.9c4.5-2.4,8.7-5.2,12.6-8.5l-38.2-38.2c-1.7-1.6-4-2.6-6.5-2.6
	C168.2,511.5,165.9,512.5,164.2,514.1"/>
  <path fill="url(#qnbG10)" d="M109.6,467.7l25.3,25.3H102c-0.2,2.3-0.3,4.5-0.3,6.8c0,2.5,0.1,5.1,0.4,7.5h32.8l-25,25
	c2.4,4.5,5.3,8.7,8.6,12.5l38.2-38.2c1.6-1.7,2.6-4,2.6-6.5c0-2.5-1-4.8-2.6-6.5l-38.6-38.6C114.8,458.9,112,463.2,109.6,467.7"/>
  <path fill="url(#qnbG11)" d="M184.7,493.7c-1.6,1.7-2.6,4-2.6,6.5c0,2.5,1,4.8,2.6,6.5l38.2,38.2c3.3-3.8,6.2-8,8.6-12.5l-25-25h32.8
	c0.3-2.5,0.4-5,0.4-7.5c0-2.3-0.1-4.6-0.3-6.8h-32.9l25.3-25.3c-2.4-4.5-5.2-8.7-8.5-12.6L184.7,493.7z"/>
  <path fill="url(#qnbG12)" d="M163.5,431.1v33.2l-25.4-25.4c-4.5,2.4-8.7,5.3-12.5,8.6l38.6,38.6c1.7,1.6,4,2.6,6.5,2.6c2.5,0,4.8-1,6.5-2.6
	l38.6-38.6c-3.8-3.3-8-6.2-12.5-8.6l-25.4,25.4v-33.2c-2.4-0.2-4.8-0.4-7.2-0.4C168.3,430.8,165.9,430.9,163.5,431.1"/>
 </g>
 <path fill="#001B58" transform="translate(-21.24,21.5) scale(0.283)" d="M565.5,497.6v-0.4c9.4-4.5,13.2-12.7,13.2-22c0-15.2-12.2-25.6-32.4-25.6h-50.9v98.5h53.5
	c22,0,34.6-11.9,34.6-27.6C583.5,509.5,578.5,502.4,565.5,497.6 M548.3,533.4h-36.6v-69.7h32.8c11.6,0,17.2,4,17.2,13.3
	c0,10.1-8.4,14.1-17.8,14.1h-26.3c0,7.7,4.2,14.6,12,14.6H547c10.9,0,19.7,5.9,19.7,13.7C566.7,528.6,559,533.4,548.3,533.4
	 M325.4,447c-30,0-51.2,23-51.2,52c0,29,21.2,52,51.2,52c9.5,0,18.2-2.3,25.6-6.4l3.3,3.4c3,2.9,6.5,4.6,10.7,4.6
	c4.7,0,9.1-2.2,10.8-4.5l-12.9-13c8.6-9.3,13.6-22,13.6-36.1C376.6,470,355.4,447,325.4,447 M351.4,523.4l-8.6-8.7
	c-2.9-2.9-6.5-3.9-10-3.9c-3.4,0-8.3,1.1-11,3.9l18.2,18.6c-4.3,2.3-9.3,3.5-14.6,3.5c-20.5,0-33.5-16.6-33.5-37.8
	c0-21.3,13-37.8,33.5-37.8c20.5,0,33.5,16.5,33.5,37.8C358.9,508.4,356.2,516.9,351.4,523.4 M462.3,520.5c0,0-45.6-59.9-48.7-63.9
	c-3-4-7.7-7-12.8-7h-10.7v98.5h16.4v-73.8c0,0,52,67.4,53.1,68.8c2.4,3.1,5.4,5,9.3,5h9.9v-98.5h-16.4V520.5z"/>
</svg>
