<?xml version="1.0" encoding="utf-8"?>
<!-- Generator: Adobe Illustrator 26.0.1, SVG Export Plug-In . SVG Version: 6.00 Build 0)  -->
<svg version="1.1" id="Layer_1" xmlns="http://www.w3.org/2000/svg" xmlns:xlink="http://www.w3.org/1999/xlink" x="0px" y="0px"
	 viewBox="0 0 614.7 543.5" style="enable-background:new 0 0 614.7 543.5;" xml:space="preserve">
<g>
	<g>
		<defs>
			<polygon id="SVGID_1_" points="255.6,93.2 354.1,93.2 305.2,142.1 305,142.3 255.6,93.2 			"/>
		</defs>
		<use xlink:href="#SVGID_1_"  style="overflow:visible;fill-rule:evenodd;clip-rule:evenodd;fill:#D42027;"/>
		<clipPath id="SVGID_00000143588318503156348420000015925920412934726534_">
			<use xlink:href="#SVGID_1_"  style="overflow:visible;"/>
		</clipPath>
	</g>
	<g>
		<defs>
			<polygon id="SVGID_00000059300578964170518850000016291983342758544290_" points="255.6,191.5 354.1,191.5 305.2,142.6 
				305,142.3 255.6,191.5 			"/>
		</defs>
		
			<use xlink:href="#SVGID_00000059300578964170518850000016291983342758544290_"  style="overflow:visible;fill-rule:evenodd;clip-rule:evenodd;fill:#D42027;"/>
		<clipPath id="SVGID_00000108267710400924004700000008769879403120054940_">
			<use xlink:href="#SVGID_00000059300578964170518850000016291983342758544290_"  style="overflow:visible;"/>
		</clipPath>
	</g>
	<g>
		<defs>
			<polygon id="SVGID_00000048462805315725768840000000763431082648010417_" points="256.5,93 256.5,191.5 207.5,142.6 207.3,142.3 
				256.5,93 			"/>
		</defs>
		
			<use xlink:href="#SVGID_00000048462805315725768840000000763431082648010417_"  style="overflow:visible;fill-rule:evenodd;clip-rule:evenodd;fill:#D42027;"/>
		<clipPath id="SVGID_00000000937521108732931730000005687380554756431744_">
			<use xlink:href="#SVGID_00000048462805315725768840000000763431082648010417_"  style="overflow:visible;"/>
		</clipPath>
	</g>
	<g>
		<defs>
			<polygon id="SVGID_00000010994847005380693890000015088966021581135253_" points="353.9,93 353.9,191.5 402.9,142.6 403.1,142.3 
				353.9,93 			"/>
		</defs>
		
			<use xlink:href="#SVGID_00000010994847005380693890000015088966021581135253_"  style="overflow:visible;fill-rule:evenodd;clip-rule:evenodd;fill:#D42027;"/>
		<clipPath id="SVGID_00000003785830909113152750000018376111501856830392_">
			<use xlink:href="#SVGID_00000010994847005380693890000015088966021581135253_"  style="overflow:visible;"/>
		</clipPath>
	</g>
	<g>
		<defs>
			<path id="SVGID_00000094618444477832412050000014309920788736699831_" d="M454.2,283.8c0,7.2-2.3,13.9-5.3,19.5
				c-0.3,0.1-18.5,3.6-26.7-2.2c-1.2-0.8-2.7-1.8-2.6-1.8c-0.4,0.1-5.5,3.7-5.5,3.7l-39.5,0.2l-3-5.1c0,0-4.2,5.7-9.6,5.1
				c0,0.1-81.8,0.4-81.8,0.4v-78.1l9.4-12.2l1.2,67c0,0-1.8,8.7,6.3,9c0,0.7,71.2,0.1,71.2,0c0,0,5.9,1.1,4.3-13
				c0,0.5,12.6-13.6,12.6-13.6s0.4,19-6,25.6c0,1.9,39.3,1.1,39.5,0.9c0,0,1.2-5.2,0-10.2c0.4,0.1,1.5-5.7,13.2-14.5
				c0.4,0.1-5.7,23.6-5.7,23.6s6.3,2.3,12.2,2c0,0.5,7.9,0.2,7.9,0.2c0,0-3.1-15.4-2.9-15.3c-0.3-0.3,10.9-12.5,11-12.6
				C454.2,262.6,454.3,272.8,454.2,283.8L454.2,283.8z M261.9,293.8c-0.4,0.8-2.2,9.6-2.2,9.6h-71.4c0,0-32.4-0.8-28.1-27.3
				c0,0,5.9-19.2,13.4-22.2c0.3,0.1-1.1,4.1-1.2,4.1c0,0-3.4,5.6-4.3,12.1c-0.4,2.8,0,5.2,1,8.1c0.7,2,2.1,4,3.7,5.9
				c0,0.2,6.4,6,13.4,5.5c0,0.2,69.6,0,69.6,0s1.2-8.3-9.6-25.2l7.5-14.4c0,0,8.3,12.8,10.4,27.7
				C264.1,278.1,263.7,290.3,261.9,293.8L261.9,293.8z M217.7,335.5l-15.1-9.2l6.7-11l15.1,9L217.7,335.5L217.7,335.5z"/>
		</defs>
		<use xlink:href="#SVGID_00000094618444477832412050000014309920788736699831_"  style="overflow:visible;fill:#080505;"/>
		<clipPath id="SVGID_00000099627254185882515980000000818317061837060508_">
			<use xlink:href="#SVGID_00000094618444477832412050000014309920788736699831_"  style="overflow:visible;"/>
		</clipPath>
	</g>
	<g>
		<defs>
			<path id="SVGID_00000041987998810451234900000017384502722782533039_" d="M444.7,394c2.6-3.4,3.9-7.3,3.9-11.6
				c0-5-1.6-9.5-4.9-13.4c-3.3-3.9-8-6.6-14.2-8.1c-4.1-1-9.6-1.5-16.4-1.5h-36.4v2.3h3.2c3.2,0,5.6,0.9,7.2,2.8
				c1.2,1.4,1.8,4.8,1.8,10.1v55.6c0,4.8-0.5,8-1.4,9.5c-1.5,2.3-4.1,3.4-7.6,3.4h-3.2v2.3h39.8c9.5,0,16.6-0.9,21.2-2.7
				c4.6-1.8,8.3-4.7,10.9-8.6c2.7-3.9,4-8,4-12.3c0-5.6-2-10.4-6-14.3c-2.9-2.8-7.3-4.8-13.1-6.1C438.3,399.9,442.1,397.4,444.7,394
				L444.7,394z M400.7,365.1c3.3-0.9,7-1.4,11.2-1.4c7.7,0,13.6,1.8,17.6,5.3c4,3.6,6,7.8,6,12.9c0,3.3-0.8,6.3-2.4,9
				c-1.6,2.7-3.9,4.8-7,6.1c-3,1.3-7.6,2-13.7,2c-2.4,0-4.5-0.1-6.5-0.2c-2-0.1-3.7-0.4-5.3-0.7V365.1L400.7,365.1z M400.7,403.9
				c1.1-0.2,2.6-0.4,4.4-0.4c1.8-0.1,4-0.1,6.6-0.1c5.9,0,10.9,0.9,14.9,2.7c4,1.8,6.9,4.2,8.7,7.3c1.8,3.1,2.7,6.3,2.7,9.6
				c0,5.1-2,9.3-5.9,12.8c-3.9,3.4-9.7,5.2-17.2,5.2c-4.7,0-9.4-0.6-14.2-1.7V403.9L400.7,403.9z"/>
		</defs>
		<use xlink:href="#SVGID_00000041987998810451234900000017384502722782533039_"  style="overflow:visible;fill:#010101;"/>
		<clipPath id="SVGID_00000041294135975138649270000011097743233115395761_">
			<use xlink:href="#SVGID_00000041987998810451234900000017384502722782533039_"  style="overflow:visible;"/>
		</clipPath>
	</g>
	<g>
		<defs>
			<path id="SVGID_00000011746303408485001940000016225503243906946237_" d="M370,394c2.6-3.4,3.9-7.3,3.9-11.6
				c0-5-1.6-9.5-4.9-13.4c-3.3-3.9-8-6.6-14.2-8.1c-4.1-1-9.6-1.5-16.4-1.5h-36.4v2.3h3.2c3.2,0,5.6,0.9,7.2,2.8
				c1.2,1.4,1.8,4.8,1.8,10.1v55.6c0,4.8-0.5,8-1.4,9.5c-1.5,2.3-4.1,3.4-7.6,3.4h-3.2v2.3h39.8c9.5,0,16.6-0.9,21.2-2.7
				c4.6-1.8,8.3-4.7,10.9-8.6c2.7-3.9,4-8,4-12.3c0-5.6-2-10.4-6-14.3c-2.9-2.8-7.3-4.8-13.1-6.1C363.6,399.9,367.4,397.4,370,394
				L370,394z M326,365.1c3.3-0.9,7.1-1.4,11.2-1.4c7.7,0,13.6,1.8,17.6,5.3c4,3.6,6,7.8,6,12.9c0,3.3-0.8,6.3-2.4,9
				c-1.6,2.7-3.9,4.8-7,6.1c-3,1.3-7.6,2-13.7,2c-2.4,0-4.5-0.1-6.5-0.2c-2-0.1-3.7-0.4-5.3-0.7V365.1L326,365.1z M326,403.9
				c1.1-0.2,2.6-0.4,4.4-0.4c1.8-0.1,4-0.1,6.6-0.1c5.9,0,10.9,0.9,14.9,2.7c4,1.8,6.9,4.2,8.7,7.3c1.8,3.1,2.7,6.3,2.7,9.6
				c0,5.1-2,9.3-5.9,12.8c-3.9,3.4-9.7,5.2-17.2,5.2c-4.7,0-9.4-0.6-14.2-1.7V403.9L326,403.9z"/>
		</defs>
		<use xlink:href="#SVGID_00000011746303408485001940000016225503243906946237_"  style="overflow:visible;fill:#010101;"/>
		<clipPath id="SVGID_00000093858311761128696110000002008559334180034478_">
			<use xlink:href="#SVGID_00000011746303408485001940000016225503243906946237_"  style="overflow:visible;"/>
		</clipPath>
	</g>
	<g>
		<defs>
			<path id="SVGID_00000098205728358095034000000010684361099394384297_" d="M204.9,357.4c-0.4,2-1,3.3-1.6,4c-0.7,0.7-1.6,1-2.6,1
				c-1,0-2.6-0.5-4.9-1.6c-5-2.2-9.8-3.4-14.2-3.4c-7.2,0-13.1,2.2-17.7,6.7c-4.6,4.5-7,9.8-7,16c0,3.6,0.8,6.8,2.4,9.8
				c1.6,3,3.9,5.7,6.9,8.1c3,2.5,8.2,5.7,15.4,9.9c7.2,4.1,11.6,6.8,13.2,8.1c2.4,1.9,4.2,3.9,5.3,6c1.1,2.2,1.7,4.3,1.7,6.4
				c0,3.8-1.5,7.1-4.5,9.9c-3,2.8-7.1,4.2-12.3,4.2c-4.5,0-8.6-1-12.3-3c-3.8-2-6.5-4.6-8.4-7.6c-1.8-3.1-3.3-7.7-4.4-13.9h-2.3
				v29.5h2.3c0.3-2,0.7-3.3,1.3-3.9c0.6-0.6,1.4-1,2.5-1c1.1,0,3.6,0.7,7.7,2c4,1.3,6.7,2.1,8,2.3c2.2,0.4,4.5,0.6,6.9,0.6
				c7.8,0,14.2-2.4,19.1-7.1c5-4.7,7.4-10.3,7.4-16.8c0-3.4-0.8-6.7-2.3-9.8c-1.6-3.1-3.8-5.8-6.7-8.2c-2.9-2.3-8.3-5.6-16.1-9.9
				c-9.7-5.3-15.8-9.5-18.3-12.7c-1.8-2.2-2.7-4.5-2.7-7.2c0-3.4,1.4-6.5,4.2-9.2c2.8-2.7,6.4-4,10.7-4c3.8,0,7.5,1,11.1,3
				c3.6,2,6.3,4.7,8.2,8.1c1.9,3.4,3.3,7.9,4,13.6h2.3v-29.8H204.9L204.9,357.4z"/>
		</defs>
		<use xlink:href="#SVGID_00000098205728358095034000000010684361099394384297_"  style="overflow:visible;fill:#010101;"/>
		<clipPath id="SVGID_00000165945314663945860210000004169721379186969232_">
			<use xlink:href="#SVGID_00000098205728358095034000000010684361099394384297_"  style="overflow:visible;"/>
		</clipPath>
	</g>
	<g>
		<defs>
			<path id="SVGID_00000175305020658580827880000002536198521439293102_" d="M277.1,429c1.7,4,2.5,7,2.5,8.8c0,1.4-0.6,2.6-1.8,3.6
				c-1.2,1-3.5,1.5-6.8,1.7v2.3h33.3v-2.3c-3.4-0.2-6.1-1.2-8.1-2.9c-1.9-1.7-4.1-5.4-6.4-11.2l-29.4-71.6h-2.2l-29.7,70.8
				c-2.6,6.2-4.9,10.3-7,12.4c-1,1-3.3,1.8-6.8,2.5v2.3h26.6v-2.3c-4.1-0.3-6.7-0.9-7.9-1.9c-1.2-1-1.8-2.1-1.8-3.5
				c0-1.7,0.7-4.1,2.1-7.5l5.7-13.6H272L277.1,429L277.1,429z M241.2,411.9l14.7-34.8l14.3,34.8H241.2L241.2,411.9z"/>
		</defs>
		<use xlink:href="#SVGID_00000175305020658580827880000002536198521439293102_"  style="overflow:visible;fill:#010101;"/>
		<clipPath id="SVGID_00000094618852660952751790000016788009378865392570_">
			<use xlink:href="#SVGID_00000175305020658580827880000002536198521439293102_"  style="overflow:visible;"/>
		</clipPath>
	</g>
</g>
</svg>
