<?xml version="1.0" encoding="UTF-8"?>
<svg xmlns="http://www.w3.org/2000/svg" viewBox="0 0 200 200">
 <rect width="200" height="200" fill="#fff"/>
 <defs>
  <linearGradient id="snbGrad2" x1="0" y1="1" x2="0" y2="0">
   <stop offset="0" stop-color="#82C341"/>
   <stop offset="1" stop-color="#007054"/>
  </linearGradient>
 </defs>
 <path fill="url(#snbGrad2)" transform="translate(-152.8,-311.31) scale(2.809)" d="M65.06,142.74c3.26,4.66,5.82,9.56,7.45,14.91
	c3.49-7.92,9.78-14.44,17.47-18.17c7.93,3.72,13.98,10.25,17.47,18.17c1.63-5.35,4.2-10.48,7.45-14.91
	c-6.05-8.39-14.91-14.68-25.16-18.18C79.96,128.06,71.35,134.35,65.06,142.74"/>
 <g fill="#004433" transform="translate(22.71,83.68) scale(0.351)">
  <path d="M35.47,203.32c0.46-3.26,0.46-6.53,0-9.56c5.59,5.13,18.4,7.69,29.35,7.69c8.86,0,12.59-1.87,12.59-5.82
		c0-5.12-5.6-5.59-18.88-6.75C43.85,187.71,35,185.38,35,176.53s7.92-12.81,24.23-12.81c9.08,0,17.94,1.16,26.56,3.49
		c-0.46,3.03-0.46,6.06,0,9.08c-8.62-3.49-17.7-5.59-27.02-5.59s-13.05,1.87-13.05,5.59c0,4.66,4.9,5.82,17.01,6.76
		c15.38,1.16,25.39,3.26,25.39,12.58c0,8.62-8.15,12.59-24.23,12.59C54.11,208.22,44.55,206.58,35.47,203.32"/>
  <path d="M106.53,172.57c-0.24,11.65,0,23.54,0.46,35.19H96.51c0.46-14.45,0.46-28.9,0-43.11
		c4.9,0.47,9.78,0.47,14.68,0c9.32,11.89,18.87,23.77,28.89,35.42c0.24-11.89,0-23.76-0.46-35.42c3.49,0.47,7.23,0.47,10.72,0
		c-0.47,14.45-0.47,28.9,0.23,43.11h-14.44C126.56,195.63,116.78,183.98,106.53,172.57"/>
  <path d="M171.31,200.99c4.89,0.24,8.38,0.24,15.84,0.24c10.72,0,13.52-3.03,13.52-6.53s-2.79-5.6-13.04-5.6h-16.55
		C171.07,193.07,171.07,197.26,171.31,200.99 M187.61,183.52c7.22,0,10.95-2.09,10.95-6.29s-3.96-6.06-10.95-6.06h-16.55
		c0,3.73-0.24,7.93,0,12.35C176.19,183.28,181.79,183.52,187.61,183.52 M160.58,164.41c8.15,0,15.61-0.24,27.03-0.24
		c13.98,0,21.66,3.27,21.66,10.72c0,6.75-6.29,9.55-13.98,9.78v0.7c9.56,0.23,16.78,3.26,16.78,10.71
		c0,10.48-14.68,11.65-25.4,11.65c-12.58,0-17.94-0.23-26.09-0.23C161.28,196.8,161.28,175.13,160.58,164.41"/>
  <path d="M254.25,214.74c-0.93,0-1.87,0.23-2.57,0.93c-0.69,0.46-0.93,1.4-0.93,2.33c0,0.93,0.24,1.86,0.93,2.33
		c0.7,0.69,1.64,0.93,2.57,0.93s1.87-0.24,2.33-0.93c0.7-0.7,1.16-1.4,0.93-2.33c0-0.93-0.46-1.64-0.93-2.33
		C256.11,214.97,255.17,214.74,254.25,214.74"/>
  <path d="M244.93,214.74c-0.93,0-1.87,0.23-2.57,0.93c-0.69,0.46-0.93,1.4-0.93,2.33c0,0.93,0.24,1.86,0.93,2.33
		c0.7,0.69,1.64,0.93,2.57,0.93c0.93,0,1.87-0.24,2.33-0.93c0.7-0.7,0.93-1.4,0.93-2.33c0-0.93-0.23-1.64-0.93-2.33
		C246.56,214.97,245.63,214.74,244.93,214.74"/>
  <path d="M328.8,188.64v14.22h-2.09c-6.99,0-8.63-4.9-8.63-6.76C317.85,191.9,321.58,187.48,328.8,188.64
		 M342.55,175.36c-3.96-3.03-8.85-4.42-13.74-4.2c-11.65,0-15.38,6.53-16.07,7.92l4.89,2.1c2.57-3.49,6.53-5.36,10.72-4.9
		c11.19,0,12.58,7.23,12.58,10.95v12.35c0,2.1-1.87,3.73-3.96,3.49h-2.33v-17.24c-2.57-1.16-5.36-1.87-7.92-1.87
		c-7.93,0-14.22,3.26-14.22,12.58c0,2.33,0.93,4.66,2.33,6.53h-13.74v-42.17l-6.3,2.33v34.25c0,3.03-1.16,5.36-7.22,5.36h-7.23
		c-0.93,0-2.09,0-4.2-3.27l-14.21-24.69l-2.33-3.96c-5.6,3.26-9.32,9.08-9.78,15.37c0.23,3.49,1.39,6.75,3.26,9.56l4.9,6.99h-18.41
		c-4.89,0-7.22-2.57-7.22-8.15c0.23-3.27,1.16-6.53,3.26-9.09l-3.73-2.33c-2.79,3.49-4.42,7.93-4.42,12.59
		c0,7.22,4.42,11.65,12.58,11.65h27.5l-8.38-12.12c-3.27-5.12-5.6-9.78-1.16-15.84c2.33,3.96,13.28,22.6,13.98,23.53
		c1.86,3.03,5.12,4.66,8.62,4.43h7.45c1.4,0,2.79,0,4.2-0.47c0.93-0.23,1.87-0.46,2.79-0.93v1.16h44.03
		c4.43,0.24,8.39-3.26,8.63-7.69v-12.81C347.68,182.82,345.81,178.39,342.55,175.36"/>
  <path d="M362.12,171.17l11.89-4.42v-3.03l-5.82,2.09l-0.7-1.63c-0.24-0.7,0-1.39,0.93-1.87
		c0.24-0.23,0.7-0.23,1.16-0.23c0.46,0,0.7,0.23,0.94,0.46l0.69,0.46l0.7-2.56l-0.46-0.24c-1.4-0.93-3.26-1.16-4.9-0.46
		c-1.16,0.46-2.33,1.16-2.79,2.33s-0.46,2.33,0.24,3.49l0.7,1.63l-1.16,0.46L362.12,171.17z"/>
  <path d="M382.16,197.96c-0.23,3.03-2.79,5.36-5.82,5.12h-3.95v-32.62l-6.3,2.33v30.29h-8.15l-2.09,4.66h21.43
		c4.66,0,10.95-3.96,10.95-10.25v-36.58l-6.29,2.33v34.71H382.16z"/>
  <path d="M398.94,163.48v44.04H405v-46.13L398.94,163.48z"/>
 </g>
</svg>
