<?xml version="1.0" encoding="UTF-8"?>
<svg id="Layer_1" xmlns="http://www.w3.org/2000/svg" version="1.1" viewBox="0 0 450 132.3">
  <!-- Generator: Adobe Illustrator 30.6.0, SVG Export Plug-In . SVG Version: 2.1.4 Build 109)  -->
  <defs>
    <style>
      .st0 {
        fill: #512d83;
      }

      .st1 {
        fill: #04aa7d;
      }
    </style>
  </defs>
  <path class="st1" d="M291.9,97.7V27.8h11.9v5.6c3.6-4.5,9-7,15.6-7,13.7,0,23.4,10.9,23.4,26.5s-9.9,26.7-23.4,26.7-12-2.6-15.6-7.1v25.2h-11.9ZM303.7,46.5v12.9c2.5,5.2,7,9,13.5,9s13.1-5.9,13.1-15.5-5.3-15.3-13.1-15.3c-6.5,0-11,3.6-13.5,9"/>
  <path class="st1" d="M350.4,63.8c0-8.5,5.3-14.4,14-15.5l20.2-2.6v-2.5c0-3-1.5-4.6-4.4-4.6h-25.3v-10.8h25.8c10.2,0,15.8,5,15.8,13.9v36.4h-12v-6.1c-3.5,4.9-9.2,7.7-16.6,7.7-10.4,0-17.5-6.4-17.5-15.8M370.8,70c6.1,0,11.7-3.4,13.7-8.4v-6.3l-15.4,2.1c-4.3.6-6.6,2.8-6.6,6.5,0,3.9,3,6.1,8.3,6.1"/>
  <path class="st1" d="M405.2,87h8.6c3.3,0,4.8-1.4,5.9-4.4l1.5-4.4-18.3-50.3h12.4l11.4,35h.3l10.9-35h12.2l-20,57.8c-2.7,7.9-6.3,12.2-15.1,12.2h-9.7v-10.8h0Z"/>
  <path class="st0" d="M43.5,132.3c13.8,0,25.1-4.3,32.6-11.5,5.6-5.5,8.9-13,8.9-21.6s-2.9-14.8-8.2-20.2-13-9.3-22.7-11.1l-15.8-3.1c-6.6-1.2-10.3-4.5-10.3-9.1s5.8-10.1,15.1-10.1,10.8,1.9,14,5.2c2.1,2.3,3.5,5.2,3.9,8.4l22.9-5.2c-.6-6.6-3.7-12.4-8.4-17.1-7.5-7.4-19.1-12.1-32.7-12.1s-23.1,4.1-30.3,10.7c-6.2,5.8-9.7,13.6-9.7,22.3s2.4,14,7.4,18.9c5,5,12.2,8.6,21.6,11l15.7,3.7c7.9,1.9,11.3,4.8,11.3,9.9s-5.8,10.1-15.3,10.1-12.4-2.3-15.8-6c-2.4-2.4-3.9-5.8-4.1-9.5L0,101.1c.6,7,3.9,13.2,8.9,18.2,7.8,8.2,20.4,13.1,34.6,13.1M217.5,132.3c15.3,0,27-5.5,35-13.4,6.4-6.2,10.3-13.4,12.4-20.8l-24.1-8.1c-1,3.7-3.1,7.7-6.4,10.7-3.9,3.7-9.3,6.4-16.9,6.4s-13.6-2.7-18.4-7.4c-4.8-5-7.7-12.2-7.7-21.3s2.9-16.3,7.7-21.3c4.7-4.8,11.1-7.2,18.2-7.2s12.6,2.4,16.3,6.2c3.1,3.1,5,7,6.2,10.9l24.5-8.2c-1.9-7.2-5.8-14.4-11.5-20.4-8.2-8.1-20.2-13.8-36.1-13.8s-27.8,5.5-37.3,15.1c-9.5,9.7-15.3,23.1-15.3,38.8s6,29.1,15.7,38.8c9.4,9.5,22.8,15,37.7,15M134.2,132.3c10.7,0,18.4-3.3,21.6-6.2v-22.3c-2.5,1.9-7.4,4.1-13.8,4.1s-7.9-1-10.3-3.3c-2.1-2.1-3.1-5.6-3.1-10.3V0h-27.2v27.8h54.4v26.4h-54.4v46.8c0,9.5,2.9,17.1,8.1,22.5,5.8,5.7,14.3,8.8,24.8,8.8"/>
</svg>