<?xml version="1.0" encoding="UTF-8"?>
<svg xmlns="http://www.w3.org/2000/svg" viewBox="146.8 -5.96 470.9 470.9">
 <rect x="146.8" y="-5.96" width="470.9" height="470.9" fill="#fff"/>
 <path fill="#F10D25" d="M 473 17.695313 C 431.398438 26.894531 400.101563 64.195313 400.101563 108.796875 C 400.101563 109.796875 400.300781 110.894531 400.398438 111.894531 C 466.199219 125.996094 499.300781 170.59375 499.300781 229.59375 C 499.300781 295.796875 445.601563 349.394531 379.898438 349.394531 C 314.199219 349.394531 252.898438 294.195313 252.898438 212.296875 C 252.898438 112.296875 337.898438 18.59375 459.101563 15.59375 C 461.300781 15.59375 464.699219 15.59375 468.300781 15.796875 C 441.699219 5.59375 412.699219 -0.00390625 382.300781 -0.00390625 C 252.300781 -0.00390625 146.800781 102.796875 146.800781 229.496094 C 146.800781 356.195313 252.199219 458.996094 382.300781 458.996094 C 512.300781 458.996094 617.699219 356.195313 617.699219 229.496094 C 617.601563 134.195313 557.898438 52.394531 473 17.695313 Z"/>
</svg>
