<?xml version="1.0" encoding="iso-8859-1"?>
<!-- Generator: Adobe Illustrator 23.0.1, SVG Export Plug-In . SVG Version: 6.00 Build 0)  -->
<svg version="1.1" id="Layer_1" xmlns="http://www.w3.org/2000/svg" xmlns:xlink="http://www.w3.org/1999/xlink" x="0px" y="0px"
	 viewBox="0 0 512 512" style="enable-background:new 0 0 512 512;" xml:space="preserve">
<g>
	<g>
		<path style="fill:#7A6E66;" d="M219.708,238.93c0.679-1.019,2.435-4.473,2.435-5.605c-1.868-1.812-4.529-2.151-5.379-3.227
			c-0.283-0.396,3.397-2.718,3.454-3.171l0.623-2.888c-0.17-0.34-7.474,5.096-7.417,9.229v0.34
			c-0.057,1.868,5.492,3.624,5.492,3.624c-1.076,1.359-11.324,5.718-13.645,6.341l0,0
			C210.706,243.912,216.65,243.686,219.708,238.93"/>
		<path style="fill:#7A6E66;" d="M76.804,239.439c-3.397-4.586-10.418-9.795-19.816-20.099c0,0-4.643-4.643-7.36-7.643l-0.963,6.794
			c5.265,7.134,15.117,17.099,26.894,27.007c0.453,0.396-0.396,0.906-0.736,1.019l0,0c-7.36,3.624-26.101,11.72-33.235,11.833
			c-10.984,0.17-6.794-14.381-5.888-16.872c0,0,0.34-1.019-0.17-1.246c-2.095,4.813-10.984,25.761,5.265,25.535
			c9.285-0.113,28.932-9.512,35.613-12.909c2.265-1.132,2.265-4.529,2.321-6.058C78.616,243.799,78.276,241.817,76.804,239.439"/>
		<path style="fill:#7A6E66;" d="M298.407,238.59l-0.396-0.453c-0.679,2.265-1.302,4.416-1.982,6.624
			c2.265,3.171,4.756,6.624,5.039,10.644c-0.283,2.548-6.738,3.454-11.89,3.51h-0.057c-12.739,0-11.437-7.643-11.324-10.927
			c-0.057,0.113-6.001,10.531-15.004,10.531c-10.361-0.51-13.645-6.964-13.815-11.55c-0.113-14.834-12.852-20.552-23.893-36.972
			l-0.34-0.51c0,0-3.624-5.718-3.963-6.171c1.812-1.755,46.087-11.38,53.844-12.909l0,0c1.642-0.226,3.057,0.113,1.868,4.303
			c-1.359,4.643-6.341,16.985-8.606,22.76c4.756-7.587,16.702-33.405,11.21-32.952c-9.059,1.642-53.73,11.89-60.015,14.438
			c-0.623,1.076-1.642,9.116-1.132,9.512c9.342,15.23,22.874,26.894,26.554,33.291c0.736,1.302,1.019,2.604,0.906,2.944
			c-3.51,8.379-32.838,14.664-42.237,14.664c-1.585,0-3.567-0.057-5.662-0.283c12.343-19.533-17.891-57.75-24.799-69.017
			c-2.151-3.284-3.001-4.756-3.001-4.756l-2.661,5.662c1.189,6.398,4.133,50.107,4.133,53.164c0.057,3.68,0.113,3.737,0.113,8.096
			c0,5.605-10.531,5.379-11.89,5.209c-3.68-0.679-5.435-8.323-5.662-13.532c-12.399,16.023-26.667,14.947-26.724,14.947
			c-13.588-1.529-14.041-19.533-14.494-30.177c-0.113-3.51-0.057-34.027-0.736-43.766c0,0-4.19,5.945-4.416,6.907
			c0,2.888,1.132,31.706,1.585,40.086c0.51,8.719-1.699,16.816-9.342,23.553c0.396-0.453,1.472-3.397,1.529-4.473
			c1.415-15.343-16.929-30.574-28.819-48.125l-0.396-0.51c0,0-5.096-8.606-6.171-10.021c-0.623,1.472-1.472,5.039-1.812,7.19
			c15.4,25.761,35.16,40.482,34.141,53.334c-0.226,2.548-0.566,3.567-2.095,5.096c-7.19,6.171-14.891,10.078-23.61,13.702h1.302
			c6.568,0.227,18.118-2.435,23.27-6.228c7.36-5.379,12.569-15.23,13.871-21.288l0.057-0.34l0.057,0.283
			c0.679,8.153,0.623,18.005,12.343,21.005c8.719,2.208,16.646-1.642,22.024-5.435c4.416-3.114,7.021-6.285,7.021-6.058
			c0,4.643,1.019,8.21,3.284,9.568c3.85,2.321,9.229,1.246,9.229,1.246c12.569-2.151,10.701-17.212,10.701-24.176
			c0-8.719-2.888-37.141-3.227-41.388c6.285,10.021,31.933,44.049,21.741,59.845c-3.171-0.566-6.228-1.585-7.983-3.397
			c0-0.113-3.737-2.774-3.68-7.53c0.057-6.398,4.699-12.569,4.699-12.569c-4.982,4.303-7.7,13.135-7.7,16.249
			c0,7.36,4.586,11.437,10.531,13.249c-2.888,3.34-3.397,4.076-5.265,6.001c3.171-1.642,5.832-3.454,7.983-5.379
			c1.812,0.34,3.68,0.453,5.492,0.453c24.402,0,45.294-9.399,48.465-17.099c-0.226,19.363,18.741,15.966,18.741,15.966
			c6.738-1.132,9.115-4.473,11.267-7.134v0.113c3.114,11.946,21.628,6.624,21.798,6.624c4.19-0.963,5.605-9.965,5.605-13.305
			C303.899,246.29,301.238,242.157,298.407,238.59"/>
		<path style="fill:#7A6E66;" d="M281.931,234.06l-5.549-4.077l-3.227,4.303c0,0-0.34,0.34,0,0.623l5.662,4.02l3.114-4.077
			C282.214,234.4,282.101,234.23,281.931,234.06"/>
		<path style="fill:#7A6E66;" d="M293.311,274.712l-5.549-4.133l-3.227,4.303c0,0-0.34,0.34,0,0.623l5.662,4.02l3.114-4.076
			C293.594,275.052,293.481,274.882,293.311,274.712"/>
		<path style="fill:#7A6E66;" d="M159.636,274.712l-5.549-4.077l-3.284,4.303c0,0-0.34,0.34,0,0.623l5.662,4.02l3.114-4.077
			C159.919,275.052,159.806,274.882,159.636,274.712"/>
		<path style="fill:#7A6E66;" d="M43.343,321.875c1.019,0,2.038-0.057,3.171-0.17c1.076-0.113,2.095-0.396,3.001-0.793
			c0.906-0.453,1.642-1.076,2.265-1.925c0.566-0.849,0.906-1.982,0.906-3.454c0-1.415-0.283-2.548-0.849-3.397
			c-0.566-0.849-1.302-1.529-2.151-2.038c-0.906-0.51-1.812-0.849-2.888-1.019c-1.076-0.17-2.095-0.283-3.057-0.283h-7.134v13.079
			H43.343z M43.513,303.984c0.849,0,1.699-0.113,2.548-0.34c0.849-0.227,1.642-0.566,2.321-1.019
			c0.736-0.453,1.302-1.076,1.699-1.812c0.453-0.736,0.623-1.642,0.623-2.718c0-1.189-0.226-2.095-0.623-2.831
			c-0.453-0.736-1.019-1.302-1.699-1.699s-1.472-0.679-2.321-0.793c-0.849-0.113-1.699-0.227-2.548-0.227h-6.964v11.38h6.964
			V303.984z M31.113,287.734h13.192c2.038,0,3.793,0.283,5.265,0.793s2.718,1.246,3.68,2.151s1.699,1.925,2.151,3.171
			c0.51,1.189,0.736,2.491,0.736,3.85c0,1.246-0.226,2.378-0.679,3.397c-0.453,1.019-1.019,1.868-1.642,2.604
			c-0.623,0.679-1.359,1.246-2.095,1.699c-0.793,0.453-1.472,0.679-2.095,0.793c0.793,0.113,1.699,0.34,2.718,0.736
			c1.019,0.34,1.925,0.906,2.774,1.642c0.849,0.736,1.585,1.699,2.151,2.888c0.566,1.189,0.849,2.661,0.849,4.416
			c0,2.095-0.396,3.85-1.132,5.265c-0.736,1.359-1.812,2.491-3.114,3.34s-2.831,1.472-4.643,1.812
			c-1.812,0.34-3.737,0.51-5.718,0.51H31L31.113,287.734z"/>
		<path style="fill:#7A6E66;" d="M79.691,313.892c-0.17-0.057-0.453-0.113-0.906-0.17c-0.453-0.057-0.963-0.113-1.529-0.17
			c-0.623-0.057-1.246-0.057-1.868-0.113c-0.679-0.057-1.302-0.057-1.925-0.057c-1.472,0-2.718,0.17-3.624,0.51
			c-0.906,0.34-1.642,0.793-2.151,1.302c-0.51,0.51-0.906,1.132-1.076,1.755c-0.226,0.623-0.283,1.246-0.283,1.812
			c0,1.472,0.51,2.604,1.529,3.34c1.019,0.736,2.435,1.132,4.19,1.132c1.019,0,1.982-0.17,2.888-0.51
			c0.906-0.34,1.699-0.793,2.435-1.415c0.679-0.566,1.246-1.302,1.699-2.038c0.453-0.793,0.623-1.585,0.623-2.378L79.691,313.892z
			 M79.805,323.46c-1.019,1.359-2.378,2.378-4.02,3.057c-1.642,0.679-3.34,1.019-5.096,1.019c-1.132,0-2.265-0.17-3.34-0.453
			c-1.132-0.283-2.151-0.793-3.057-1.472c-0.906-0.679-1.642-1.529-2.208-2.661c-0.566-1.076-0.849-2.378-0.849-3.963
			c0-2.944,1.019-5.265,3.057-7.021c2.038-1.755,4.982-2.661,8.832-2.661c0.623,0,1.302,0,1.982,0.057s1.359,0.057,1.982,0.113
			c0.623,0.057,1.189,0.057,1.642,0.113c0.453,0.057,0.793,0.057,1.019,0.113v-1.019c0-2.038-0.623-3.454-1.868-4.36
			c-1.246-0.906-2.888-1.302-4.982-1.302c-2.038,0-3.68,0.283-4.926,0.849c-1.189,0.566-2.208,1.132-3.057,1.699l-2.435-3.567
			c0.453-0.396,1.019-0.793,1.699-1.189c0.679-0.396,1.415-0.736,2.321-1.076c0.906-0.34,1.925-0.623,3.057-0.793
			c1.132-0.226,2.435-0.34,3.907-0.34c3.51,0,6.285,0.849,8.266,2.548c1.982,1.699,3.001,4.077,3.001,7.19v12.852v2.944
			c0,0.962,0,1.755,0.057,2.435h-4.869L79.805,323.46z"/>
		<path style="fill:#7A6E66;" d="M89.883,305.456v-3.114c0-0.906,0-1.812-0.057-2.774h5.039l0.17,4.077
			c0.34-0.453,0.793-0.963,1.302-1.529c0.51-0.566,1.132-1.076,1.868-1.585c0.736-0.453,1.585-0.849,2.604-1.132
			c1.019-0.34,2.095-0.453,3.34-0.453c3.567,0,6.171,1.019,7.927,3.114c1.699,2.095,2.548,4.869,2.548,8.436v16.306h-5.265v-15.91
			c0-2.548-0.566-4.416-1.642-5.605c-1.076-1.189-2.604-1.755-4.586-1.812c-1.529,0-2.774,0.34-3.793,0.963
			c-1.019,0.623-1.812,1.415-2.435,2.435c-0.623,0.962-1.076,2.151-1.302,3.397c-0.283,1.246-0.396,2.548-0.396,3.85v12.626h-5.265
			v-21.288H89.883z"/>
	</g>
	<polygon style="fill:#7A6E66;" points="119.607,287.734 124.816,287.734 124.816,310.721 136.253,299.511 142.537,299.568 
		132.29,309.589 144.066,326.744 137.838,326.744 128.609,313.099 124.816,316.723 124.816,326.744 119.607,326.744 	"/>
	<path style="fill:#7A6E66;" d="M175.942,311.118l-6.285-17.155l-6.398,17.155H175.942z M166.94,287.734h5.718l15.287,39.01h-6.228
		l-4.02-10.871h-16.023l-4.02,10.871h-5.888L166.94,287.734z"/>
	<polygon style="fill:#7A6E66;" points="190.153,287.734 195.419,287.734 195.419,326.744 190.153,326.744 	"/>
	<g>
		<path style="fill:#7A6E66;" d="M205.836,322.215c0.566,0.17,1.246,0.34,2.038,0.51s1.982,0.283,3.567,0.283
			c1.529,0,2.888-0.227,4.077-0.736c1.246-0.453,2.265-1.189,3.171-2.038c0.849-0.906,1.529-1.925,1.982-3.171
			c0.453-1.246,0.679-2.548,0.736-4.02c0-1.246-0.17-2.435-0.453-3.567c-0.283-1.132-0.736-2.151-1.415-3.057
			c-0.623-0.849-1.472-1.585-2.435-2.095c-0.963-0.51-2.151-0.793-3.567-0.793c-1.302,0-2.435,0.227-3.34,0.679
			c-0.963,0.453-1.755,1.019-2.378,1.755s-1.132,1.585-1.415,2.491c-0.34,0.962-0.453,1.925-0.453,2.944v10.814H205.836z
			 M200.628,287.734h5.265v14.777c0.283-0.34,0.623-0.736,1.132-1.189c0.51-0.453,1.076-0.849,1.812-1.189
			c0.736-0.396,1.529-0.679,2.435-0.906c0.906-0.227,1.925-0.34,3.057-0.34c2.038,0,3.793,0.34,5.322,1.076
			c1.529,0.736,2.831,1.699,3.907,3.001c1.076,1.246,1.868,2.774,2.378,4.473c0.51,1.699,0.793,3.51,0.793,5.492
			c0,2.151-0.34,4.133-1.132,5.888c-0.736,1.812-1.812,3.34-3.114,4.643c-1.359,1.302-2.944,2.321-4.813,3.001
			c-1.868,0.736-3.963,1.076-6.228,1.076c-2.208,0-4.303-0.17-6.171-0.51c-1.925-0.34-3.454-0.793-4.586-1.246v-38.047H200.628z"/>
	</g>
	<path style="fill:#7A6E66;" d="M230.862,299.568h5.265v27.177h-5.265V299.568z M230.465,288.753h5.888v5.888h-5.888V288.753z"/>
	<polygon style="fill:#7A6E66;" points="241.562,287.734 246.828,287.734 246.828,326.744 241.562,326.744 	"/>
	<g>
		<path style="fill:#7A6E66;" d="M268.966,313.892c-0.17-0.057-0.453-0.113-0.906-0.17c-0.453-0.057-0.962-0.113-1.529-0.17
			c-0.623-0.057-1.189-0.057-1.868-0.113c-0.679-0.057-1.302-0.057-1.925-0.057c-1.472,0-2.661,0.17-3.624,0.51
			c-0.906,0.34-1.642,0.793-2.151,1.302c-0.51,0.51-0.906,1.132-1.076,1.755c-0.226,0.623-0.283,1.246-0.283,1.812
			c0,1.472,0.51,2.604,1.529,3.34c1.019,0.736,2.378,1.132,4.19,1.132c1.019,0,1.982-0.17,2.888-0.566
			c0.906-0.34,1.699-0.793,2.435-1.415c0.736-0.566,1.246-1.246,1.699-2.038c0.396-0.793,0.623-1.585,0.623-2.378V313.892z
			 M269.022,323.46c-1.019,1.359-2.378,2.378-4.02,3.057c-1.642,0.679-3.34,1.019-5.096,1.019c-1.132,0-2.265-0.17-3.34-0.453
			c-1.132-0.283-2.151-0.793-3.057-1.472c-0.906-0.679-1.642-1.529-2.208-2.661c-0.566-1.076-0.849-2.378-0.849-3.963
			c0-2.944,1.019-5.265,3.057-7.021c2.038-1.755,4.982-2.604,8.832-2.661c0.623,0,1.302,0,1.982,0.057
			c0.679,0.057,1.359,0.057,1.982,0.113c0.623,0.057,1.189,0.057,1.642,0.113c0.453,0.057,0.793,0.057,1.019,0.113v-0.963
			c0-2.038-0.623-3.454-1.868-4.36c-1.246-0.906-2.888-1.302-4.982-1.302c-2.038,0-3.68,0.283-4.926,0.849
			c-1.189,0.566-2.208,1.132-3.057,1.699l-2.435-3.567c0.453-0.396,1.019-0.793,1.699-1.189c0.679-0.396,1.415-0.736,2.321-1.076
			c0.906-0.34,1.925-0.623,3.057-0.793c1.132-0.226,2.435-0.34,3.907-0.34c3.51,0,6.285,0.849,8.266,2.548
			c2.038,1.699,3.001,4.077,3.001,7.19v12.852v2.944c0,0.962,0,1.755,0.057,2.435h-4.926L269.022,323.46z"/>
		<path style="fill:#7A6E66;" d="M298.747,305.569c-0.396-0.283-1.132-0.736-2.151-1.246c-1.076-0.51-2.548-0.793-4.529-0.793
			c-1.302,0-2.491,0.226-3.51,0.679c-1.076,0.453-2.038,1.132-2.831,1.982s-1.415,1.925-1.868,3.171
			c-0.453,1.246-0.679,2.661-0.679,4.19c0,1.302,0.17,2.491,0.453,3.68c0.34,1.132,0.793,2.151,1.415,3.001s1.472,1.529,2.435,2.038
			c1.019,0.453,2.208,0.736,3.567,0.736c1.359,0,2.548-0.226,3.51-0.736c0.963-0.51,1.755-1.132,2.378-1.925
			c0.623-0.736,1.019-1.585,1.359-2.491c0.283-0.906,0.453-1.755,0.453-2.548V305.569z M298.747,323.29
			c-0.226,0.226-0.51,0.623-0.963,1.076c-0.453,0.51-1.019,0.963-1.812,1.415c-0.736,0.453-1.585,0.906-2.604,1.246
			c-1.019,0.34-2.151,0.51-3.454,0.51c-1.699,0-3.34-0.34-4.813-0.962c-1.472-0.679-2.774-1.585-3.85-2.831
			c-1.076-1.189-1.925-2.661-2.548-4.416c-0.623-1.755-0.906-3.68-0.906-5.832c0-2.548,0.453-4.756,1.359-6.624
			c0.906-1.868,2.038-3.397,3.454-4.586c1.359-1.189,2.888-2.038,4.473-2.604c1.642-0.566,3.171-0.793,4.586-0.793
			c1.982,0,3.51,0.226,4.586,0.679c1.076,0.453,1.925,0.849,2.548,1.076v-12.909h5.265v33.065v3.114c0,0.906,0,1.812,0.057,2.774
			h-5.152L298.747,323.29z"/>
		<path style="fill:#F5B335;" d="M456.767,184.463H339.228v71.225c20.213-11.833,43.709-18.627,68.791-18.627
			c26.837,0,51.862,7.757,72.981,21.119v-49.541C481,195.277,470.129,184.463,456.767,184.463"/>
		<path style="fill:#CE0E2D;" d="M387.863,251.952c-17.778,0-34.367,4.869-48.578,13.305v36.745
			c0,13.362,10.814,24.232,24.176,24.232h117.482C471.262,283.714,433.271,251.952,387.863,251.952"/>
	</g>
</g>
</svg>
