<?xml version="1.0" encoding="UTF-8"?>
<svg id="Layer_1" xmlns="http://www.w3.org/2000/svg" version="1.1" viewBox="0 0 1000 491.1">
  <!-- Generator: Adobe Illustrator 29.0.1, SVG Export Plug-In . SVG Version: 2.1.0 Build 192)  -->
  <defs>
    <style>
      .st0 {
        fill: #002134;
      }
    </style>
  </defs>
  <path class="st0" d="M712.3,362.9c88.2,0,98-9.8,98-98.1v-39.2c0-88.3-9.8-98.1-98-98.1h-39.2c-88.2,0-98,9.8-98,98.1v39.2c0,88.3,9.8,98.1,98,98.1h39.2ZM722.1,313.9l-58.8,19.6v-157l58.8-19.6v157Z"/>
  <path class="st0" d="M281,284.1l12.5-4.2v53.6h-12.5v-49.4ZM256,333.5h12.5v-78.4h-12.5v78.4ZM231,279.9h12.5v53.6h-12.5v-7.8c-3.4,6.1-9.8,9.2-19,9.2-14.2,0-22.4-8.1-22.4-28.2s8.1-28.2,22.4-28.2,15.6,3,19,9.2v-7.8h0ZM231,305.3c0-10.5-3.7-14.6-14.6-14.6s-14.2,4.1-14.2,14.6v2.7c0,10.5,3.7,14.6,14.2,14.6s14.6-4.1,14.6-14.6v-2.7ZM504.2,279.9h12.2v53.6h-12.2v-7.8c-3.7,6.1-10.2,9.2-19.3,9.2-14.2,0-22-8.1-22-28.2s7.8-28.2,22-28.2,15.6,3,19.3,9.2v-7.8h0ZM504.2,305.3c-.3-10.5-4.1-14.6-14.6-14.6s-14.6,4.1-14.6,14.6v2.7c0,10.5,4.1,14.6,14.6,14.6s14.2-4.1,14.6-14.6v-2.7ZM432,278.5c-8.8,0-14.6,3.4-17.3,9.8-2.7-6.5-8.5-9.8-17.3-9.8s-12.5,2.4-15.6,7.1v-5.8h-12.2v53.6h12.2v-31.5c0-8.1,3-11.2,11.2-11.2s10.9,3,10.9,11.2v31.5h12.5v-31.5c0-8.1,2.7-11.2,10.9-11.2s11.2,3,11.2,11.2v31.5h12.2v-36.3c0-11.9-6.8-18.7-18.6-18.7h0ZM281,273.8h12.5v-12.2h-12.5v12.2ZM336.4,278.5c-8.5,0-14.6,3-18,8.5v-7.1h-12.5v53.6h12.5v-29.2c0-9.8,3.4-13.6,13.2-13.6s13.6,3.7,13.6,13.6v29.2h12.2v-33.9c0-13.6-7.5-21-21-21h0ZM371.6,230.4c-9.3,0-14.4-2.5-14.4-14.4s5.1-14.4,14.4-14.4,14.4,2.5,14.4,14.4-5.1,14.4-14.4,14.4ZM425.1,184.1v39.1h-12.9c-10.4,0-13.2-3.6-14-11.4-1.6-17.3-13.6-22.4-26.7-22.4s-26.9,5.9-26.9,26.6.2,5,.6,7.1h-76.9c-9.8,0-13.6-1.5-13.6-13.6v-52.7h-12.5v57.1c0,15.8,7,21.4,21,21.4h87.7c5.1,5.4,12.6,7.2,20.6,7.2s18.9-2.8,23.6-11.5c3.3,2.9,8.2,4.2,17.1,4.2h25.4v-51.3h-12.5ZM425.1,163.1v12.5h12.5v-12.5h-12.5ZM469.5,258v-5.6h-4.4c-3,0-5.3-1-5.3-3.5s1.6-2.7,4.6-2.7h2.5v-5.5h-4.3c-5.8,0-8.7,2.6-8.7,6.6s.8,4,2,5.2h-4.4v5.7h18ZM491.7,235.4v-78.5h-12.5v66.3h-33.1v12.2h45.6,0ZM503.9,156.9v78.5h12.5v-78.5h-12.5,0ZM236.2,235.4v-12.2h-9.4c-10.5,0-16.8-3.8-16.8-11.5s3.4-7,10.1-7h7.8v-12.2h-11.6c-11.3,0-18.8,6.8-18.8,16.7s1.5,10.3,4.7,14h-12.5v12.2h46.6,0ZM454.4,161.1l12.5-4.2v57.9h-12.5v-53.7h0Z"/>
</svg>