<?xml version="1.0" encoding="UTF-8"?>
<svg xmlns="http://www.w3.org/2000/svg" version="1.1" viewBox="149.4 339.5 701.3 320.8">
  <defs>
    <style>
      .cls-1 {
        fill: #54585a;
      }

      .cls-2 {
        fill: #d22630;
      }
    </style>
  </defs>
  <!-- Generator: Adobe Illustrator 28.7.1, SVG Export Plug-In . SVG Version: 1.2.0 Build 142)  -->
  <g>
    <g id="Layer_1">
      <g id="BB_Corporate_Brandmark_Primary_RGB-01">
        <g id="Group">
          <g>
            <polygon id="Rectangle-path" class="cls-1" points="310.1 505.6 320.6 505.6 320.6 514.5 310.1 514.5 310.1 505.6"/>
            <path id="Shape" class="cls-1" d="M329.6,521c0,9.6-7,15.8-15,15.8s-14.7-7.3-14.7-15.5,2.3-11.7,2.3-11.7h-10.8c-1.2,4.1-1.7,6.7-1.7,11.7,0,14.6,11.2,26,24.7,26s25.4-10.2,25.4-25.8v-21.8h-10.3v21.4h0Z"/>
            <polygon class="cls-1" points="403.5 538.3 414.1 538.3 414.1 547.2 403.5 547.2 403.5 538.3"/>
            <polygon class="cls-1" points="418.7 538.3 429.3 538.3 429.3 547.2 418.7 547.2 418.7 538.3"/>
            <path class="cls-1" d="M488.6,519c0,3-1.8,4.6-4.6,4.6h-47.5c-4.6,0-7.5-2.9-7.5-7.5v-14h-10.4v15.5c0,4.4-2.1,6.1-6.1,6.1h-47.2c-2.8,0-4.4-1.7-4.4-4.6v-35.1h-10.3v34.4c0,4.4.9,15.5,13.9,15.5h50.9c4.7,0,8.8-2.1,10.7-5.3,2,2.7,5.4,5.3,11,5.3h47.9c13,0,13.9-11.1,13.9-15.5v-18.8h-10.4v19.4Z"/>
            <polygon class="cls-1" points="486.3 538.3 496.8 538.3 496.8 547.2 486.3 547.2 486.3 538.3"/>
            <polygon class="cls-1" points="598.8 538.3 609.4 538.3 609.4 547.2 598.8 547.2 598.8 538.3"/>
            <path class="cls-1" d="M601.2,519c0,3-1.8,4.6-4.6,4.6h-53.8v-24h-16.7c-11.2,0-18.2,7.1-18.2,16.7s7.9,17.5,18.2,17.5h5.8c-1.9,4.3-7.5,4.3-9.2,4.3-2.5,0-4.9-.5-6.7-1.1l2.8,9.1c1.4.4,3.5.8,5.4.9,7.5.3,17.1-2.7,18.6-13.2h54.8c13,0,13.9-11.1,13.9-15.5v-18.8h-10.4v19.5h0ZM532.5,523.7h-6.6c-4.6,0-7.2-3.5-7.2-7.3s2.6-7.5,7.2-7.5h6.6v14.8Z"/>
            <path class="cls-1" d="M677,504.2l-3.8-3.5c-.6,1.5-2.3,1.2-2.5,1.2h-5v-2.5c0-1.8.4-3.2,2-3.2s2,.5,2.1,2.1h5.7c-.4-5.3-2.9-7.8-7.8-7.8s-7.6,4.3-7.6,8.8v2.5h-3.2l-1.8,5.9h15.2c2.2.3,5.3-.7,6.7-3.5Z"/>
            <polygon class="cls-1" points="763.8 484 774.4 484 774.4 493 763.8 493 763.8 484"/>
            <path class="cls-1" d="M840.4,499.6v19.4c0,3-1.8,4.6-4.6,4.6h-54.1c-4.6,0-7.5-2.9-7.5-7.5v-14h-10.3v15.5c0,4.4-2.1,6.1-6.1,6.1h-52.2c-4.7,0-7.5-2.9-7.5-7.5v-32.2h-10.5v35.1c0,3-1.7,4.6-4.4,4.6h-30.9c-3.5,0-6.3-2.6-6.9-5.3-.8-3.5,1.5-6.5,1.5-6.5,0,0-3.2-2.6-7.5-6.7-4.1,5.3-4.3,10.5-4.1,13.1.4,7.9,7.9,15.5,17.4,15.5h31.4c5.8,0,9.2-2.3,11.2-5,2.1,2.6,5.4,5,11,5h54.5c4.7,0,8.8-2.1,10.7-5.3,2,2.7,5.4,5.3,11,5.3h54.3c13,0,13.9-11.1,13.9-15.5v-18.8h-10.3Z"/>
            <polygon class="cls-1" points="837.9 538.3 848.5 538.3 848.5 547.2 837.9 547.2 837.9 538.3"/>
          </g>
          <g>
            <path class="cls-1" d="M320.6,605.9h0c2.8-1.2,5-3.1,6.8-5.4,1.8-2.5,2.6-5.2,2.6-8.2,0-11.9-8.1-17.8-24.3-17.8s-9.6.6-16.1,1.8v61.5c2.9.5,5.7.9,8.3,1.1s5.2.4,7.6.4c17.9,0,26.7-6.1,26.7-18.3s-1-7-3.2-9.7c-1.9-2.8-4.7-4.6-8.5-5.4ZM301.3,584.9c.9,0,1.8-.3,2.6-.4s1.7,0,2.4,0c3.7,0,6.4.4,8.2,1.2,2.5,1.2,3.7,3.6,3.7,6.9,0,5.6-3.8,8.5-11.3,8.5h-5.7v-16.1h.2ZM306.4,629.2c-.8,0-1.7,0-2.5,0s-1.8-.3-2.6-.4v-17.8h5.9c8.9,0,13.3,3.2,13.3,9.3,0,6-4.7,8.9-14,8.9Z"/>
            <path class="cls-1" d="M361,591.4c-6.9,0-12.5,2.3-16.8,6.8s-6.4,10.3-6.4,17.2,2.1,12.6,6.3,17.2c4.4,4.5,10.1,6.8,16.8,6.8s12.5-2.3,16.8-6.8c4.3-4.5,6.4-10.3,6.4-17.2s-2.1-12.6-6.4-17.2c-4.1-4.6-9.8-6.8-16.7-6.8ZM369.5,625.4c-2,3-4.7,4.6-8.5,4.6s-6.6-1.5-8.5-4.6c-1.7-2.5-2.4-5.8-2.4-9.9s.8-7.3,2.4-9.9c2-3,4.7-4.6,8.5-4.6s6.6,1.5,8.5,4.6c1.7,2.6,2.4,5.9,2.4,9.9,0,4.1-.8,7.4-2.4,9.9Z"/>
            <path class="cls-1" d="M431.6,628.4v-35.9h-11v34.3c0,.3,0,.8,0,1.2-3.5,1.4-6.7,2-9.3,2-6.1,0-9.2-2.9-9.2-8.5v-28.9h-11v30.7c0,10.9,6.7,16.3,20.1,16.3s12.5-1.5,21-4.5c-.3-1.5-.4-2.7-.5-3.8,0-1.2,0-2.1,0-2.9Z"/>
            <path class="cls-1" d="M463.1,591.4c-3.8,0-7.2.9-10.3,2.5v-23.1h-11v60c0,.6,0,1.4,0,2.3s-.3,2-.4,3.2c5.4,2,11.3,3,17.6,3s13.2-2.3,18-6.8c4.9-4.5,7.5-10.3,7.5-17.2s-1.8-12.5-5.3-16.9c-3.9-4.7-9.2-7.1-16-7.1ZM468.7,625.5c-2.4,3-5.5,4.4-9.6,4.4s-4.7-.4-6.7-1c0-.3,0-.6,0-.9v-24.8c1.9-1.5,4.4-2.3,7.5-2.3s6.8,1.5,8.9,4.4c1.8,2.6,2.6,5.9,2.6,9.9.2,4.1-.8,7.6-3,10.3Z"/>
            <path class="cls-1" d="M511.9,627.4l-13.2-35h-12.5l17.2,41.1c1.4,3.2,3,5,5.2,5.3-2.9,7.1-7.6,11.7-14.6,13.5l5.8,8c8.1-1.8,13.9-8.2,18-19.3l17.6-48.7h-11.7l-11.8,35.1Z"/>
            <path class="cls-1" d="M575.9,606.4c0-5.2-1.7-8.9-4.9-11.5-3-2.4-7.2-3.5-12.5-3.5s-12.5,1.4-18.2,4l3.8,8.4c4.3-1.8,8.5-2.7,12.8-2.7s7.8,1.4,7.8,4.3-2.5,3.6-7.5,4.6c-7.3,1.7-11.9,2.9-13.9,3.9-4.9,2.5-7.5,6.4-7.5,11.7s2.4,8.7,7,11c3.7,1.8,8.2,2.9,13.7,2.9s11.7-1.1,19.7-3.5c-.4-2.5-.6-4.5-.6-5.8v-23.8h.2ZM557,630.3c-5.8,0-8.5-1.8-8.5-5.6s1.1-3.4,3.4-4.4c1-.5,3.4-1.1,7.2-1.8,3-.6,4.9-1.4,5.9-2.4v12.1c0,.3,0,.6,0,1-2.8.6-5.4,1.1-8.1,1.1Z"/>
            <path class="cls-1" d="M606.8,591.4c-5.3,0-12.4,1.5-21,4.6.3,1.5.4,2.7.5,3.9s0,2,0,2.6v35.9h11v-34.4c0-.3,0-.6,0-1.1,3.5-1.4,6.7-2,9.3-2,6.1,0,9.2,2.9,9.2,8.5v28.9h11v-30.7c0-11-6.8-16.3-20.2-16.3Z"/>
            <path class="cls-1" d="M689.6,605.9h0c2.8-1.2,5-3.1,6.8-5.4,1.8-2.5,2.6-5.2,2.6-8.2,0-11.9-8.1-17.8-24.3-17.8s-9.6.6-16.1,1.8v61.5c2.9.5,5.7.9,8.3,1.1s5.2.4,7.6.4c17.9,0,26.7-6.1,26.7-18.3s-1-7-3.2-9.7c-1.9-2.8-4.8-4.6-8.5-5.4ZM670.3,584.9c.9,0,1.8-.3,2.6-.4.9,0,1.7,0,2.4,0,3.7,0,6.4.4,8.2,1.2,2.5,1.2,3.7,3.6,3.7,6.9,0,5.6-3.8,8.5-11.3,8.5h-5.7v-16.1h.2ZM675.4,629.2c-.8,0-1.7,0-2.5,0s-1.8-.3-2.6-.4v-17.8h5.9c8.9,0,13.3,3.2,13.3,9.3,0,6-4.6,8.9-14,8.9Z"/>
            <path class="cls-1" d="M746.6,606.4c0-5.2-1.7-8.9-4.9-11.5-3.2-2.4-7.2-3.5-12.4-3.5s-12.5,1.4-18.2,4l3.8,8.4c4.3-1.8,8.5-2.7,12.8-2.7s7.8,1.4,7.8,4.3-2.5,3.6-7.5,4.6c-7.3,1.7-11.9,2.9-13.9,3.9-4.9,2.5-7.5,6.4-7.5,11.7s2.4,8.7,7,11c3.7,1.8,8.2,2.9,13.7,2.9s11.7-1.1,19.7-3.5c-.4-2.5-.6-4.5-.6-5.8v-23.7h0v-.2ZM727.7,630.3c-5.8,0-8.5-1.8-8.5-5.6s1.1-3.4,3.4-4.4c1-.5,3.4-1.1,7.2-1.8,3-.6,4.9-1.4,5.9-2.4v12.1c0,.3,0,.6,0,1-2.8.6-5.5,1.1-8.1,1.1Z"/>
            <path class="cls-1" d="M777.6,591.4c-5.3,0-12.4,1.5-21,4.6.3,1.5.4,2.7.5,3.9s0,2,0,2.6v35.9h11v-34.4c0-.3,0-.6,0-1.1,3.5-1.4,6.7-2,9.3-2,6.1,0,9.2,2.9,9.2,8.5v28.9h11v-30.7c0-11-6.7-16.3-20.2-16.3Z"/>
            <path class="cls-1" d="M830.8,615.1c-1-1.1-2.4-2-3.9-2.5l21.4-20.3h-14.5l-15,15.7v-37.2h-11.2v67.5h11v-21.4c1.8,1.2,3.2,2.4,4,3.4l14.7,17.9h13.4l-20.1-23.1Z"/>
          </g>
        </g>
        <g>
          <path class="cls-2" d="M418.8,349c2.3,0,3.2-2.9,1-3.4-17.6-4.1-35.2-6.1-52.9-6.1-89.3,0-173.6,52.2-215.5,136.2-4,8.2-2,16.5,6.9,19.7l48.2,17.3c7.5,2.7,16-.9,18.8-8,40.3-100.6,110.2-158.3,193.5-155.6"/>
          <path class="cls-2" d="M497,416.4c-21.7-36.7-55.9-56-94-56s-7.8.3-11.8.6c-.5,0-1,.6-1.2,1.1,0,.4-.3.8-.3,1.2,0,1,.6,1.8,1.4,2.3h.8c17,4.5,28.8,15.4,40.2,36.2.5.9,2.1,4.1,7.2,5.3l53.7,15.7c.4,0,.6,0,1,0,2.1,0,3.8-1.8,3.8-4.2,0-.8-.2-1.5-.7-2.3"/>
        </g>
      </g>
    </g>
  </g>
</svg>