<svg xmlns="http://www.w3.org/2000/svg" width="1571" height="550"><g fill="#636569"><path d="M776.3 429.2q-2.7-3.9-5.5-7.8t-5.7-7.7q-2.9-3.9-5.9-7.6t-6.2-7.3c-8-8.9-16.7-20.7-25.8-29.7l5.6-5.6c2.8-3 5.9-6 8.9-9l10-9.9 9-9 7.3-7.2 3.9-3.9 1.1-1.2-.9-1.5q-.5-.5-1-1.1-.4-.5-1-1-.5-.5-1.1-1-.5-.4-1.1-.8-1-.7-2.1-1.2-1-.5-2.2-.9-1.1-.3-2.3-.4-1.2-.2-2.4-.1-1.1 0-2.2.1-1 .1-2.1.4l-2 .8q-1 .5-1.9 1.1c-2.1 1.5-4.3 3.3-6.8 5.6L736 331l-9.7 10.2-11.3 11.6-6.6 6.3v-41.3q-1.1-.7-2.4-1.3-1.2-.6-2.5-.9-1.3-.4-2.7-.6-1.3-.2-2.7-.2c-1.4 0-2.8.2-4.1.8-1.3.5-2.5 1.3-3.5 2.3s-1.8 2.2-2.3 3.5c-.6 1.3-.8 2.7-.8 4.1v107.4h21v-49.3c3.2 2.9 6.5 6.1 9.9 9.5 3.3 3.4 8.9 8.9 12.9 13.6 3.9 4.6 7.9 8.9 11.4 13.5s6.6 8.2 9 11.6l.5.7h26zM523.3 140.9q1.1 0 2.2-.2t2.1-.6 1.9-1 1.7-1.4 1.4-1.7q.7-.9 1.1-1.9t.6-2.1.2-2.2-.2-2.2-.6-2.1-1.1-1.9q-.6-.9-1.4-1.7-.8-.7-1.7-1.4-.9-.6-1.9-1t-2.1-.6-2.2-.2-2.1.2q-1.1.2-2.1.6t-1.9 1-1.7 1.4q-.7.8-1.3 1.7-.6 1-1 2t-.6 2.1q-.2 1-.2 2.1t.2 2.2.6 2.1 1 1.9 1.3 1.7q.8.8 1.7 1.4t1.9 1q1 .5 2.1.6 1 .2 2.1.2M964.6 189.6c-2.9-3.7-5.7-7.2-8.4-10.1q-4.05-4.5-9-8.4-1-1-2.1-1.9l-2.2-1.8q-1.1-.9-2.3-1.7-1.1-.8-2.3-1.5t-2.5-1.4q-1.2-.7-2.5-1.3l-2.6-1q-1.4-.5-2.7-1-1.5-.4-3.1-.7-1.5-.3-3-.5-1.6-.3-3.2-.4-1.5-.1-3.1-.1t-3.3.1q-1.6.1-3.3.4-1.6.4-3.2.9t-3.1 1.1q-1.1.6-2 1.4t-1.5 1.8-.9 2.2q-.3 1.1-.3 2.3-.1.9 0 1.7.1.9.3 1.7t.5 1.6l.8 1.6c1.2 1.7 2 2.8 2.6 3.5q2.9-1.2 6-1.7 3-.5 6.1-.2 3.1.2 6.1 1.1t5.7 2.5q2 1.2 3.9 2.6 2 1.3 3.8 2.9 1.8 1.5 3.4 3.2 1.7 1.6 3.2 3.4c2.6 3.1 5.8 6.8 9 11.6q1.5 1.8 3 3.7 1.5 1.8 2.9 3.7 1.5 1.9 2.9 3.9 1.3 1.9 2.6 3.9H609.9v-97.9l-3.6-1.3-1.4-.4q-.8-.1-1.5-.3-.8-.1-1.6-.1-.7-.1-1.5-.1-1 0-2.1.1-1 .1-2 .4t-1.9.8-1.8 1.1q-.7.7-1.3 1.6t-.9 1.8q-.4 1-.5 2t0 2.1v107.9h395.3v-17.9zM918.1 140.8c1.5 0 2.9-.3 4.3-.8q2.1-.9 3.6-2.4c1.1-1 1.9-2.3 2.5-3.6.6-1.4.9-2.8.9-4.3q0-1-.2-2.1-.3-1-.7-2t-1-1.9q-.6-.8-1.4-1.6c-1.1-1-2.3-1.9-3.7-2.4-1.4-.6-2.8-.9-4.3-.9s-3 .3-4.4.9c-1.3.5-2.6 1.4-3.6 2.4q-.8.7-1.5 1.6-.6.9-1 1.9-.5.9-.7 2-.2 1-.2 2.1t.2 2.2.7 2.1q.4 1 1 1.9.7.9 1.5 1.6.7.8 1.7 1.4.9.7 2 1.1 1 .4 2.1.6t2.2.2M1099.7 212.5q.1-3-.2-6.1-.2-3.1-.8-6.1t-1.5-5.9-2-5.8q-1.1-2.4-2.4-4.7t-2.9-4.5q-1.5-2.1-3.3-4.1-1.8-1.9-3.8-3.7-2-1.7-4.2-3.2-2.2-1.6-4.6-2.9-2.3-1.2-4.7-2.3-2.5-1.1-5-1.9-2.8-.9-5.6-1.5-2.9-.7-5.8-1.1-2.8-.5-5.7-.7t-5.9-.2q-1.2 0-2.4.1-1.2 0-2.4.1-1.2 0-2.4.1-1.1.1-2.3.3-1.2.1-2.3.3t-2.3.4q-1.1.2-2.2.5l-2.2.6q-1 .3-1.9.7-1 .4-1.9.9-.9.4-1.8 1t-1.6 1.2-1.3 1.3q-.5.6-.9 1.5-.4.8-.6 1.6-.1.9-.1 1.8 0 .8.1 1.7.1.8.3 1.6t.6 1.6q.3.7.8 1.4.3.6.7 1.1.3.5.7 1t.9.9q.4.5.9.9 1-.5 2-.9t2.1-.7q1-.4 2.1-.7t2.1-.5q1.7-.4 3.4-.7t3.4-.5 3.4-.3h3.4q1.9 0 3.8.1t3.7.4q1.9.2 3.7.6 1.9.4 3.7.9 1.7.4 3.4 1 1.7.7 3.3 1.5t3.1 1.8 2.8 2.1q1.5 1.2 2.8 2.5 1.3 1.4 2.4 2.8 1.1 1.5 2.1 3.1.9 1.6 1.7 3.3.9 2.2 1.5 4.4t1.1 4.4q.4 2.3.6 4.6.1 2.2.1 4.5v4.6h-76.8v17.9h97.1zM1265.8 162.1h-9.8q-.8 0-1.6-.1t-1.6-.3-1.5-.5q-.8-.3-1.5-.7t-1.3-1-1-1.4-.6-1.6q-.1-.9-.1-1.7 0-.6.2-1.1.1-.6.3-1.1t.6-1q.3-.5.7-.8.5-.4 1.1-.7.5-.3 1.1-.5t1.2-.3q.7-.1 1.3-.1.7 0 1.3.1l1.4.2 1.2.4q.7.2 1.3.5l2.7 1.5q.4-.3.7-.7.4-.4.7-.8.4-.3.7-.8l.6-.8q.1-.3.3-.6l.2-.6q.1-.3.1-.7.1-.3.1-.6 0-.9-.3-1.7t-.9-1.4q-.5-.7-1.2-1.1-.7-.5-1.6-.6-1-.4-2-.7t-2-.4q-1.1-.2-2.1-.3-1.1-.1-2.1-.1-1.5 0-3 .2t-3 .7q-1.5.4-2.8 1.1-1.4.6-2.7 1.5-1.2.9-2.2 2.1t-1.6 2.6q-.7 1.5-.9 3-.3 1.5-.2 3.1v1.2q.1.7.2 1.3l.4 1.2.6 1.2.4.8q.2.4.5.7.3.4.5.7.3.4.6.7h-8.9v10.1h35.2z"/><path d="M1392.9 218.7q1.4.1 2.7 0 1.4-.1 2.8-.3 1.3-.1 2.7-.4 1.3-.3 2.6-.7 1-.3 1.8-.7.9-.5 1.7-1 .8-.6 1.5-1.3.7-.6 1.3-1.4t1.1-1.7l.8-1.8q.4-.9.6-1.9l.4-2q.1-1.3.3-2.6l.2-2.6q.1-1.3.1-2.7.1-1.3.1-2.6v-27.7c0-6.2 3.5-9.5 10.5-9.5q.8 0 1.5.1.8 0 1.5.1.8.1 1.5.3.7.1 1.5.3l3.6 1.2V195q0 1.3.1 2.6 0 1.3.1 2.6l.2 2.6q.1 1.3.3 2.6.1 1 .3 1.9.2 1 .6 1.9.3.9.8 1.8t1 1.7q.6.8 1.3 1.5t1.5 1.2q.8.6 1.7 1 .9.5 1.8.8 1.3.4 2.7.7t2.8.5 2.8.3 2.8 0h95.6v-51.3q0-9.4 10.5-9.4.8 0 1.5.1.8 0 1.5.1.8.1 1.5.3.8.1 1.5.3l3.7 1.2v76.4h-124.4c-2.2.2-4.4.1-6.6-.4s-4.3-1.3-6.2-2.3c-1.9-1.1-3.7-2.5-5.3-4.1-1.5-1.6-2.8-3.4-3.8-5.3q-.6 1-1.2 1.9-.7 1-1.4 1.8-.8.9-1.7 1.7-.8.8-1.7 1.4-.9.7-1.9 1.2-.9.5-1.9 1l-2 .8-2 .6q-1.1.3-2.2.5-1.1.3-2.3.5-1.1.1-2.2.3-1.1.1-2.3.2h-167.7q-3.1.1-6.2-.1t-6.1-.6q-3.1-.4-6.1-1.1t-6-1.6q-2.3-.7-4.6-1.7-2.2-.9-4.4-2.1-2.2-1.1-4.2-2.5-2-1.3-3.9-2.9-1.7-1.4-3.3-3-1.5-1.7-2.9-3.5-1.3-1.7-2.4-3.7-1.2-1.9-2.1-3.9-.9-2.1-1.6-4.3t-1.1-4.5q-.5-2.2-.7-4.5t-.2-4.6q0-1.8.1-3.5t.4-3.4.8-3.4q.5-1.6 1.1-3.2.7-1.4 1.7-2.4 1-1.1 2.3-1.8 1.3-.8 2.8-1.1 1.4-.3 2.9-.1h1.3q.7 0 1.4.1.6.1 1.3.2.6.2 1.3.3l1.2.4q.7.1 1.3.4l1.2.4q.6.3 1.2.5-.2 1.1-.5 2.1-.2 1.1-.4 2.1-.2 1.1-.3 2.1-.2 1.1-.3 2.1v6.7q-.1 3.1.4 6 .6 3 1.8 5.7 1.3 2.7 3.1 5.1t4.2 4.3q3.1 2.1 6.5 3.6 3.4 1.6 7 2.5 3.7 1 7.4 1.3 3.7.4 7.5.1h59.6v-90.2q-.1-1.1 0-2.1.2-1 .5-2 .4-.9 1-1.8.5-.9 1.3-1.6.8-.6 1.7-1.1 1-.5 2-.8t2-.4 2.1-.1q.7 0 1.5.1.8 0 1.5.1.8.2 1.5.3.7.2 1.5.4l3.6 1.3v97.9z"/><path d="M1423.8 140.8c1.4 0 2.9-.3 4.2-.8q2.1-.9 3.6-2.4 1.5-1.65 2.4-3.6c.5-1.4.8-2.8.8-4.3q0-1.1-.2-2.2-.2-1-.6-2-.4-1.1-1-2t-1.4-1.7q-.8-.7-1.7-1.3-.9-.7-1.9-1.1t-2.1-.6q-1-.2-2.1-.2t-2.2.2q-1 .2-2.1.6-1 .4-1.9 1-.9.7-1.6 1.4-.8.8-1.4 1.7l-1 2q-.4 1-.6 2.1-.2 1-.1 2.1-.1 1.1.1 2.2t.6 2.1 1 1.9 1.4 1.7q.7.8 1.6 1.4t1.9 1q1.1.5 2.1.7 1.1.2 2.2.1M1542.5 252.4q-.8.7-1.4 1.6-.6.8-1 1.8-.5 1-.7 2.1-.2 1-.2 2.1t.2 2.1q.2 1.1.7 2.1.4 1 1 1.9t1.4 1.7c1.1 1 2.3 1.8 3.7 2.4 1.3.6 2.8.9 4.2.9 1.5 0 3-.3 4.3-.9 1.4-.6 2.6-1.4 3.7-2.4q.8-.8 1.4-1.7t1-1.9q.5-1 .7-2.1.2-1 .2-2.1t-.2-2.1q-.2-1.1-.7-2.1-.4-1-1-1.8-.6-.9-1.4-1.6c-1.1-1.1-2.3-1.9-3.7-2.5-1.3-.6-2.8-.9-4.3-.9-1.4 0-2.9.3-4.2.9-1.4.6-2.6 1.4-3.7 2.5"/></g><path fill="#4197cb" d="M393.4 207.4c-.2-27.3-5.8-54.2-16.4-79.4-10.6-25.1-26-47.9-45.5-67.1-19.4-19.1-42.4-34.3-67.7-44.6C238.6 6 211.5.8 184.2 1H37.4c-4.7 0-9.4.9-13.8 2.7s-8.4 4.4-11.7 7.7c-3.4 3.3-6.1 7.3-8 11.6-1.8 4.4-2.8 9.1-2.9 13.8v136.3c.1-4.7 1-9.4 2.9-13.8 1.9-4.3 4.6-8.3 8-11.6s7.4-5.9 11.8-7.7 9.1-2.7 13.8-2.7h146.7c21.5 0 42.8 3.2 63.3 9.6s39.8 15.9 57.4 28.2 33.2 27.3 46.2 44.3 23.4 36 30.6 56.1q2.9-8.1 5.1-16.6 2.2-8.4 3.7-16.9 1.4-8.6 2.2-17.2.7-8.7.7-17.4"/><path fill="#3dae2b" d="M184.2 413.9H37.4c-4.7.1-9.4-.8-13.8-2.6s-8.4-4.4-11.8-7.7-6.1-7.3-8-11.7c-1.8-4.3-2.8-9-2.9-13.8v136c.1 4.8 1.1 9.4 2.9 13.8 1.9 4.4 4.6 8.3 8 11.6 3.4 3.4 7.4 6 11.8 7.8s9.1 2.6 13.8 2.6h146.8c27.3.2 54.3-5 79.6-15.3s48.3-25.4 67.7-44.6c19.4-19.1 34.9-41.9 45.5-67s16.2-52.1 16.4-79.3q0-8.7-.7-17.4-.8-8.6-2.2-17.2-1.5-8.6-3.7-17t-5.1-16.6c-7.2 20.2-17.5 39.2-30.6 56.3-13 17-28.6 32-46.2 44.3-17.5 12.3-36.9 21.8-57.4 28.3-20.5 6.4-41.8 9.6-63.3 9.5"/><path fill="#002d74" d="M184.2 137.2H37.4c-4.7-.1-9.4.8-13.8 2.6s-8.4 4.4-11.8 7.7-6.1 7.3-8 11.7C2 163.5 1 168.2.9 173v205c.1 4.7 1.1 9.4 2.9 13.8 1.9 4.3 4.6 8.3 8 11.6s7.4 5.9 11.8 7.7 9.1 2.7 13.8 2.7h146.8c21.5 0 42.8-3.2 63.3-9.6s39.8-15.9 57.4-28.2 33.2-27.3 46.2-44.3 23.4-36 30.6-56.2c-7.2-20.1-17.5-39.1-30.6-56.2-13-17-28.6-32-46.2-44.3-17.5-12.3-36.9-21.8-57.4-28.3-20.5-6.4-41.8-9.6-63.3-9.5"/><g fill="#636569"><path fill-rule="evenodd" d="M1342.3 403.4h-46.8c-6.5 17.3-11 29.1-11 29.1h-20.9s22.2-59.9 40.1-107.5c1.2-3 3.3-5.6 6-7.5s5.9-2.9 9.1-2.9c3.3 0 6.5 1 9.2 2.9s4.8 4.5 6 7.5c17.9 48 40.2 107.5 40.2 107.5h-21.1zm-7.8-20.9c-4.9-13.1-10.3-27.5-15.5-41.3l-15.6 41.2z"/><path d="M1460 314.8c-1.4 0-2.8.2-4.1.8-1.4.5-2.5 1.3-3.5 2.3s-1.8 2.2-2.4 3.5c-.5 1.3-.8 2.7-.8 4.1v66.4l-43.6-71.6q-.7-1.1-1.7-2-1-1-2.1-1.6-1.2-.7-2.5-1t-2.6-.3h-4.8c-1.4 0-2.8.3-4.1.8s-2.5 1.3-3.5 2.3-1.8 2.2-2.3 3.5c-.6 1.3-.8 2.7-.8 4.1v107.4h20.9v-79.2l47.4 78.2h20.9V317.8q-1.1-.7-2.4-1.3-1.2-.6-2.6-1-1.3-.4-2.7-.6t-2.7-.1M664.4 314.8c-1.4 0-2.8.2-4.1.8-1.3.5-2.5 1.3-3.5 2.3s-1.7 2.2-2.3 3.5c-.5 1.3-.8 2.7-.8 4.1v50.4q0 2-.1 3.9l-.2 4q-.2 1.9-.5 3.9-.3 1.9-.6 3.9-.3 1.4-.7 2.8t-1 2.7q-.5 1.4-1.2 2.7t-1.5 2.5q-.8 1-1.7 2-.8.9-1.8 1.7t-2.1 1.5q-1.1.6-2.3 1.2-3 1.1-6.2 1.6-3.2.6-6.4.6-3.3 0-6.4-.6-3.2-.5-6.3-1.6l-2.2-1.2q-1.1-.7-2.1-1.5t-1.9-1.7q-.9-1-1.6-2-.8-1.2-1.5-2.5t-1.3-2.7q-.5-1.3-.9-2.7t-.7-2.8q-.4-2-.7-3.9-.3-2-.5-3.9-.2-2-.3-4-.1-1.9 0-3.9v-58.1q-1.2-.7-2.4-1.3t-2.5-.9q-1.3-.4-2.7-.6-1.3-.2-2.7-.2c-1.4 0-2.8.2-4.1.8-1.3.5-2.5 1.3-3.5 2.3-.9 1-1.7 2.2-2.3 3.5-.5 1.3-.8 2.7-.8 4.1v52q-.3 5.4.3 10.8t2.2 10.6q1.5 5.2 3.9 10 2.4 4.9 5.6 9.2c4.7 4.6 10.3 8.2 16.3 10.7 6.1 2.4 12.6 3.7 19.2 3.7 6.5 0 13-1.3 19.1-3.7 6.1-2.5 11.6-6.1 16.3-10.7q3.2-4.3 5.6-9.2t3.9-10q1.5-5.2 2.1-10.6t.2-10.8v-59.7q-1.1-.7-2.3-1.3-1.3-.6-2.6-1-1.3-.3-2.6-.5-1.4-.2-2.8-.2M872.7 314.8c-1.4 0-2.8.2-4.1.8-1.3.5-2.5 1.3-3.5 2.3s-1.8 2.2-2.3 3.5-.8 2.7-.8 4.1v37h-52.7v-44.8q-1.1-.7-2.4-1.3-1.2-.6-2.5-.9-1.3-.4-2.7-.6-1.3-.2-2.7-.2c-1.4 0-2.8.2-4.1.8-1.3.5-2.4 1.3-3.4 2.3s-1.8 2.2-2.3 3.5c-.6 1.3-.8 2.7-.8 4.1v107.4h20.9v-49.4H862v49.1h21V317.8q-1.1-.7-2.4-1.3-1.2-.6-2.5-.9-1.3-.4-2.7-.6-1.3-.2-2.7-.2"/><path fill-rule="evenodd" d="M567.1 355.2q.8 3 1.3 6t.8 6.1q.2 3 .1 6.1.1 3.1-.2 6.3-.2 3.1-.7 6.2t-1.3 6.2q-.8 3-1.9 6-.9 2.7-2.2 5.2-1.2 2.5-2.7 4.9t-3.3 4.6-3.8 4.2q-2.1 2-4.4 3.7-2.3 1.8-4.7 3.3-2.5 1.5-5.1 2.7t-5.4 2.2q-3.1 1-6.2 1.8-3.2.7-6.4 1.2t-6.4.8q-3.3.2-6.5.2h-36.6V325.5c0-1.4.2-2.8.8-4.1.5-1.3 1.3-2.5 2.3-3.5s2.2-1.8 3.5-2.3c1.3-.6 2.7-.8 4.1-.8h26q3.2-.1 6.5.2 3.2.2 6.4.7t6.3 1.3q3.2.8 6.2 1.9 2.7.9 5.3 2.1 2.5 1.2 5 2.7 2.4 1.5 4.6 3.2 2.3 1.7 4.4 3.7 2 2 3.8 4.2t3.3 4.5q1.6 2.4 2.9 4.9 1.2 2.5 2.2 5.2 1.1 2.9 2 5.8M542.7 395q2-3.3 3.2-6.9 1.3-3.6 1.8-7.3.5-3.8.2-7.6.1-1.8-.1-3.7-.1-1.8-.4-3.6t-.7-3.6q-.5-1.8-1.1-3.5-.5-1.7-1.2-3.2-.7-1.6-1.6-3.1t-1.9-2.9-2.2-2.7-2.6-2.4q-1.4-1.2-2.9-2.2-1.6-1-3.2-1.8t-3.3-1.4q-2.1-.8-4.3-1.4t-4.5-.9q-2.2-.4-4.5-.6-2.3-.1-4.6-.1c-4.2 0-10.6.5-13.2.5h-2.7v74.8h16.3q3.9.3 7.9-.3 3.9-.6 7.7-1.9 3.7-1.3 7.1-3.4t6.4-4.8q2.5-2.8 4.4-6M1255.1 375.5c1.8 1.7 3.3 3.7 4.6 5.8 1.3 2.2 2.2 4.5 2.9 6.8.7 2.4 1 4.9 1 7.4.1 4.9-.9 9.7-2.7 14.3-1.8 4.5-4.5 8.6-7.9 12.1-3.5 3.5-7.6 6.2-12.1 8.1s-9.3 2.9-14.2 2.9h-48.4V325.5c-.1-1.4.2-2.8.7-4.1.6-1.3 1.4-2.5 2.3-3.5 1-1 2.2-1.8 3.5-2.3 1.3-.6 2.7-.8 4.1-.8h42.3c6.6 0 13 2.1 18.3 6s9.2 9.3 11.2 15.6 2 13-.1 19.3c-2.1 6.2-6.1 11.6-11.5 15.4 2.2 1.2 4.2 2.7 6 4.4m-55.9-14.5h27.4c3.6.3 7.2-.9 9.8-3.3 2.7-2.5 4.2-5.9 4.2-9.5s-1.5-7.1-4.2-9.5c-2.6-2.4-6.2-3.7-9.8-3.4h-27.4zm38.8 46.2c2.8-2.7 4.3-6.4 4.3-10.3 0-3.8-1.5-7.5-4.3-10.2-2.7-2.7-6.4-4.3-10.2-4.3h-28.9v29h28.9c3.8 0 7.5-1.5 10.2-4.2"/><path d="M1568 429.2q-2.6-3.9-5.4-7.8t-5.7-7.7q-2.9-3.9-6-7.6-3-3.7-6.1-7.3c-8-8.9-16.7-20.7-25.8-29.7l5.5-5.6q4.35-4.5 9-9l10-9.9 9-9 7.3-7.2 3.9-3.9 1-1.2-.9-1.5q-.4-.6-.9-1.1l-1-1-1.2-1q-.5-.4-1.2-.8-1.8-1.2-4-1.9-2.1-.6-4.3-.6-2.3 0-4.4.6-2.1.7-4 1.9c-2.1 1.5-4.3 3.3-6.8 5.5l-7.9 7.7-9.9 10.1-11.3 11.6-6.1 6.4v-41.4q-1.2-.7-2.4-1.3t-2.5-.9q-1.3-.4-2.7-.6-1.3-.2-2.7-.2c-1.4 0-2.8.2-4.1.8-1.3.5-2.5 1.3-3.5 2.3s-1.8 2.2-2.3 3.5c-.6 1.3-.8 2.7-.8 4.1v107.4h21v-49.3c3.2 2.9 6.5 6.1 9.8 9.5 3.4 3.4 9 8.9 12.9 13.6 4 4.6 8 8.9 11.5 13.5s6.6 8.2 9 11.6l.5.7h26z"/><path fill-rule="evenodd" d="M972 403.4h-46.7c-6.5 17.3-10.9 29.1-10.9 29.1h-21.1s22.2-59.9 40.1-107.5c1.2-3 3.3-5.6 6-7.5s5.9-2.9 9.2-2.9c3.2 0 6.5 1 9.2 2.9s4.7 4.5 5.9 7.5c17.9 48 40.2 107.5 40.2 107.5h-21.1s-4.4-11.8-10.8-29.1m-7.9-20.9-15.6-41.3-15.5 41.2z"/><path d="M1089.5 314.8c-1.4 0-2.8.2-4.1.8-1.3.5-2.5 1.3-3.5 2.3s-1.8 2.2-2.3 3.5c-.6 1.3-.8 2.7-.8 4.1v66.4l-43.6-71.6q-.8-1.1-1.7-2-1-1-2.2-1.6-1.2-.7-2.5-1t-2.6-.3h-5.2c-1.4 0-2.8.3-4.1.8s-2.5 1.3-3.5 2.3-1.8 2.2-2.3 3.5c-.6 1.3-.8 2.7-.8 4.1v107.4h20.9v-79.2l47.4 78.2h20.9V317.8q-1.1-.7-2.3-1.3-1.2-.5-2.5-.9-1.2-.4-2.5-.6-1.4-.2-2.7-.2M563.8 143.3q-1.1 0-2.1.1t-2.1.4q-1 .3-1.9.8-.9.4-1.8 1.1-.7.7-1.3 1.5-.6.9-.9 1.8-.4 1-.5 2-.2 1-.1 2v28.6q.2 3.6-.4 7.2-.5 3.5-1.6 7-1.2 3.4-2.9 6.6-1.8 3.2-4 6-1 1.2-2.1 2.2-1.1 1.1-2.4 2-1.2.9-2.6 1.6-1.3.7-2.8 1.3-1.4.6-2.9 1t-3.1.7q-1.5.3-3.1.4t-3.1.1q-3.2.3-6.3-.1-3.1-.5-6.1-1.7-2.9-1.1-5.5-2.9-2.6-1.9-4.7-4.2-2-2.9-3.5-6t-2.4-6.4-1.3-6.7q-.4-3.5-.2-6.9.2-2.8.5-5.5.4-2.8.9-5.5t1.1-5.4q.7-2.7 1.5-5.3-.4-.3-.9-.6t-.9-.5q-.5-.3-1-.5l-1-.4q-.7-.3-1.5-.6-.7-.2-1.5-.4l-1.6-.2q-.7-.1-1.5-.1t-1.6.1q-.7.1-1.5.2-.7.1-1.4.4-.8.2-1.5.5t-1.4.8l-1.2 1q-.6.6-1.1 1.3-.5.6-.8 1.4-.6 1-1 2.1-.5 1.1-.9 2.2-.3 1.2-.6 2.3-.3 1.2-.5 2.3l-.4 2.8q-.2 1.3-.4 2.7l-.2 2.8v2.7q0 2.8.2 5.6.3 2.8.8 5.5.5 2.8 1.2 5.5t1.7 5.3q.7 2.3 1.6 4.5.9 2.1 2 4.2 1.2 2.1 2.5 4.1t2.8 3.8q1.7 1.8 3.5 3.4 1.8 1.5 3.7 2.9 2 1.3 4.1 2.5 2.1 1.1 4.3 2 2.6 1 5.2 1.7 2.7.7 5.4 1.2t5.4.7q2.8.2 5.5.1 2.8.1 5.7-.2 2.8-.2 5.6-.7t5.5-1.2q2.7-.8 5.3-1.8 2.3-1 4.5-2.1 2.2-1.2 4.2-2.6t3.9-3.1q1.9-1.6 3.6-3.4 3.3-3.6 5.9-7.8t4.3-8.8 2.5-9.4q.8-4.9.6-9.8v-40.2l-3.6-1.2q-.7-.2-1.4-.3-.7-.2-1.5-.3-.7-.1-1.4-.1-.8-.1-1.5-.1"/></g></svg>