<?xml version="1.0" encoding="UTF-8"?>
<!DOCTYPE svg PUBLIC "-//W3C//DTD SVG 1.1//EN" "http://www.w3.org/Graphics/SVG/1.1/DTD/svg11.dtd">
<!-- Creator: CorelDRAW -->
<svg xmlns="http://www.w3.org/2000/svg" xml:space="preserve" version="1.1" style="shape-rendering:geometricPrecision; text-rendering:geometricPrecision; image-rendering:optimizeQuality; fill-rule:evenodd; clip-rule:evenodd"
viewBox="5002.39 4991.81 18577.29 5002.39"
 xmlns:xlink="http://www.w3.org/1999/xlink"
 xmlns:xodm="http://www.corel.com/coreldraw/odm/2003">
 <defs>
  <style type="text/css">
   <![CDATA[
    .fil0 {fill:black;fill-rule:nonzero}
    .fil2 {fill:#DB0011;fill-rule:nonzero}
    .fil1 {fill:white;fill-rule:nonzero}
   ]]>
  </style>
 </defs>
 <g id="HSBC_MASTERBRAND_LOGO_WW_CMYK">
  <metadata id="CorelCorpID_0Corel-Layer"/>
  <polygon class="fil0" points="17194.39,7644.7 16287.75,7644.7 16287.75,8540.75 15832.67,8540.75 15832.67,6448.78 16287.75,6448.78 16287.75,7306.03 17194.39,7306.03 17194.39,6448.78 17649.47,6448.78 17649.47,8540.75 17194.39,8540.75 "/>
  <path class="fil0" d="M18736.03 8579.56c-451.56,0 -821.97,-179.92 -832.56,-680.86l455.09 0c7.05,222.25 137.58,356.3 384.52,356.3 186.98,0 395.11,-91.72 395.11,-299.86 0,-162.27 -141.11,-215.19 -377.47,-282.22l-151.69 -42.33c-331.61,-95.25 -656.17,-222.25 -656.17,-599.72 0,-465.67 433.92,-620.89 832.56,-620.89 409.22,0 758.47,141.11 762,606.77l-455.09 0c-17.64,-190.5 -127,-299.86 -342.19,-299.86 -169.33,0 -335.14,88.2 -335.14,275.17 0,151.69 137.58,201.08 433.92,292.81l172.86 56.44c359.83,112.89 585.61,236.36 585.61,585.61 0,469.2 -458.61,652.64 -871.36,652.64z"/>
  <path class="fil0" d="M20637.5 8226.78c211.67,0 419.81,-49.39 419.81,-303.39 0,-250.47 -179.92,-306.91 -395.12,-306.91l-359.83 0 0 610.3 335.14 0zm-42.33 -910.16c201.08,0 402.16,-38.81 402.16,-282.23 0,-218.72 -190.5,-275.16 -373.94,-275.16l-317.5 0 0 557.39 289.28 0zm-730.25 -871.37l726.72 0c229.3,0 321.03,7.06 412.75,24.7 254,56.44 444.5,222.25 444.5,504.47 0,268.11 -169.33,409.22 -416.28,472.72 282.22,52.92 493.89,197.56 493.89,508 0,476.25 -469.19,585.61 -836.08,585.61l-821.98 0 0 -2095.5 -3.52 0z"/>
  <path class="fil0" d="M22708.31 8579.56c-673.81,0 -977.2,-430.39 -977.2,-1068.92 0,-631.47 335.14,-1104.19 1001.89,-1104.19 416.28,0 821.97,186.97 832.56,659.69l-469.2 0c-24.69,-208.14 -162.28,-317.5 -363.36,-317.5 -409.22,0 -532.69,440.98 -532.69,776.11 0,331.62 123.47,719.67 518.58,719.67 204.61,0 356.3,-109.36 388.05,-321.03l472.73 0c-52.92,476.25 -437.45,656.17 -871.36,656.17z"/>
  <polygon class="fil1" points="7500.06,4991.81 12498.92,4991.81 12498.92,9990.67 7500.06,9990.67 "/>
  <polygon class="fil2" points="12498.92,9994.2 15000.11,7493 12498.92,4991.81 "/>
  <polygon class="fil2" points="7500.06,9994.2 5002.39,7493 7500.06,4991.81 "/>
  <polygon class="fil2" points="12498.92,4991.81 10001.25,7493 7500.06,4991.81 "/>
  <polygon class="fil2" points="7500.06,9994.2 10001.25,7493 12498.92,9994.2 "/>
 </g>
</svg>
