<?xml version="1.0" encoding="utf-8"?>
<!-- Generator: Adobe Illustrator 28.1.0, SVG Export Plug-In . SVG Version: 6.00 Build 0)  -->
<svg version="1.1" id="Layer_1" xmlns="http://www.w3.org/2000/svg" xmlns:xlink="http://www.w3.org/1999/xlink" x="0px" y="0px"
	 viewBox="0 0 1000 1000" style="enable-background:new 0 0 1000 1000;" xml:space="preserve">
<style type="text/css">
	.st0{display:none;}
	.st1{display:inline;}
	.st2{fill:#EEF2F8;}
	.st3{fill:#8B4B9F;}
	.st4{fill:#500B75;}
	.st5{fill:#FD6E66;}
	.st6{fill:#FB6518;}
</style>
<g id="Layer_1_00000089563870127260836800000011711382912509721248_" class="st0">
	<g class="st1">
		<path class="st2" d="M141,141v718h718V141H141z M753,753H247V247h506V753z"/>
	</g>
</g>
<g id="Layer_2_00000087377800043711192430000009025601991983960977_">
</g>
<g id="Layer_1-2">
	<g>
		<path d="M579.9,517.9C579.9,517.9,579.8,517.8,579.9,517.9c-0.1-0.1-0.1-0.1-0.1-0.1C579.8,517.8,579.9,517.9,579.9,517.9z"/>
		<g>
			<path class="st3" d="M684.6,485.6c-4.8,19.9-23.9,35.4-44.5,35.7c-12,0.2-24,0.1-36,0.1h-2.9c-2.4,7.3-4.8,14.5-7.2,21.7h-21.7
				c0.2-0.8,0.3-1.4,0.5-2c1.9-6,11-30.8,15-42.2c4.3,0,14.7,0.1,15.1,0.1c14.9,0,29.8,0,44.6,0c7.1,0,12.9-4.7,14.4-11.4
				c1-4.4-1.4-7.8-5.8-8.3c-1.2-0.1-2.3-0.1-3.5-0.1c-18.8,0-37.6,0-56.3,0h-3.2c7.5-7.7,14.6-15,21.9-22.5h2.2
				c13.9,0,27.9-0.1,41.8,0.1c3.5,0,7,0.3,10.4,1.2C681.9,461.2,687.9,472.2,684.6,485.6L684.6,485.6z"/>
			<path class="st3" d="M734.3,456.5c2.8,0.8,5.2,3,6.7,5.4c1.8,3,2.5,6.3,3.4,9.7c1,3.7,1.8,7.5,2.8,11.3c1.8,7.5,3.7,15,5.6,22.5
				c3,12,6,24,8.9,36c0.1,0.4,0.2,0.9,0.3,1.6h-82.9c7-7.6,13.7-14.9,20.5-22.3h29.5c-2.7-10.3-5.3-20.4-8.1-31
				c-16.6,18-33,35.7-49.4,53.4h-27.1c0.9-1,1.5-1.8,2.2-2.5c21.8-23.8,43.7-47.5,65.4-71.3c2.9-3.2,6-6.2,9.5-8.7
				c3.1-2.2,6.7-4.5,10.7-4.5C732.9,456.2,733.6,456.3,734.3,456.5L734.3,456.5z"/>
			<path class="st3" d="M752,456.8h28c4.9,11.6,9.8,23.1,14.9,35c12.2-11.8,24.1-23.4,36.1-35h27.3c0.2,0.2,0.4,0.5,0.6,0.7
				c-0.7,0.5-1.6,0.9-2.2,1.5c-19,18-38,36-56.9,54c-1,1-1.9,2.3-2.3,3.6c-3,8.8-5.8,17.6-8.7,26.4h-21.9c0.3-1,0.5-1.8,0.8-2.7
				c2.6-7.9,5.1-15.8,7.8-23.7c0.6-1.7,0.5-3.1-0.2-4.7c-7.5-17.6-14.9-35.2-22.4-52.9C752.6,458.5,752.4,457.8,752,456.8L752,456.8
				z"/>
		</g>
		<g>
			<path class="st4" d="M511.3,515.4c0.7,2.8,5.2,18.9,7.5,27c-0.2,0.2-0.5,0.4-0.7,0.6h-83c7-7.6,13.6-14.9,20.4-22.3h29.6
				c-2.7-10.4-5.4-20.5-8.2-31.1c-16.7,18-33.1,35.8-49.4,53.4h-26.9c0.5-0.7,0.8-1.2,1.2-1.6c23.2-25.3,46.4-50.7,69.7-75.9
				c2.2-2.4,4.7-4.4,7.4-6c4.4-2.6,10-4.9,14.7-1.5c3.7,2.6,5.3,7.1,6.2,11.3c1.2,5.5,2.7,10.9,4,16.4
				C506.4,495.6,508.9,505.5,511.3,515.4z"/>
			<path class="st4" d="M246.7,543.8c-4.3-1.3-6.9-4.3-9.3-8c-8-12.6-16.3-25.1-24.4-37.6c-0.5-0.7-1-1.4-1.7-2.4
				c-5.2,16-10.4,31.6-15.5,47.3H174c0.2-0.7,0.3-1.4,0.5-2c7.9-24.2,15.8-48.5,23.9-72.7c0.9-2.8,2.6-5.6,4.6-7.7
				c5.6-6,14-5.1,18.5,1.8c8.6,13.1,17.1,26.2,25.6,39.3c0.4,0.7,0.9,1.4,1.6,2.4c5.3-16.1,10.4-31.7,15.6-47.4h21.8
				c-0.2,0.9-0.4,1.7-0.7,2.5c-7.9,24.1-15.8,48.2-23.7,72.2c-0.2,0.7-0.5,1.5-0.8,2.2c-1.8,4.7-4.7,8.4-9.6,10.1H246.7L246.7,543.8
				z"/>
			<path class="st4" d="M141,542.4c2.2-6.4,4.4-12.7,6.5-19.1c7.1-21.5,14.1-43,21.1-64.5c0.2-0.6,0.4-1.2,0.7-1.9h21.9
				c-9.5,28.9-18.9,57.6-28.3,86.5H141C141,543,141,542.7,141,542.4z"/>
			<path class="st4" d="M382.9,456.7c-7.5,7.8-14.5,15.1-21.5,22.5c-5.7,0-11.3,0-16.9,0c-11,0-22,0-33,0c-3.9,0-5.6,2-5.3,6.2
				c1.1,0.2,2.4,0.6,3.7,0.6c11.3,0,22.6-0.1,33.9,0.1c3.7,0.1,7.5,0.4,11,1.5c10.2,3.1,14.8,12.4,12.2,23.7
				c-4.2,18.3-20.8,31.7-40,31.9c-21.2,0.2-42.4,0.1-63.6,0.1c-0.4,0-0.7-0.1-1.8-0.1c7.3-7.6,14.3-14.9,21.3-22.2
				c3.6,0,7.3,0,10.9,0c13,0,26,0.1,39-0.1c2.9,0,5.8-1,8.5-2c1.4-0.5,2.7-1.9,3.5-3.3c1.7-2.7,0.8-5.1-2.1-6.2
				c-1.8-0.6-3.8-0.9-5.7-0.9c-11.7-0.1-23.4,0-35.1-0.1c-2.9,0-5.8-0.3-8.5-1c-10.1-2.5-15.2-10.9-12.9-21.1
				c3.5-15.9,18.2-28.6,34.6-29.3c9.6-0.4,19.3-0.2,29-0.2c11.8,0,23.7,0,35.5,0C380.5,456.7,381.4,456.7,382.9,456.7L382.9,456.7z"
				/>
			<path class="st4" d="M396.4,543.1h-22c7-21.4,13.9-42.5,20.9-63.9h-29.2c7.4-7.8,14.4-15,21.4-22.4H460
				c-7.3,7.6-14.4,14.9-21.5,22.3h-21.2C410.4,500.5,403.4,521.7,396.4,543.1L396.4,543.1z"/>
		</g>
		<g>
			<path class="st5" d="M568.7,499.3c-0.6,0.4-1.2,0.8-1.8,1.3c-15.4,13.5-32.9,29-48.4,42.6c-7,0-16.5,0-23.1,0l49.9-44.2
				c-0.6-1.1-1.1-1.9-1.5-2.7c-7.6-13.3-15.2-26.6-22.7-39.9h23.4c0.3,0.8,0.6,1.6,1,2.3c7.2,12.6,14.5,25.3,21.7,37.9
				C567.6,497.3,568,498,568.7,499.3L568.7,499.3z"/>
			<path class="st6" d="M601.8,498.7l-48.9,43.7l-0.8,0.7c-7,0.1-16.2,0-22.9-0.5c16.5-14.5,33-29.1,49.5-43.7
				c-8.2-14.3-16.3-28.5-24.4-42.6h23.4c0.3,0.6,0.5,1.3,0.9,1.9c7.4,13,14.5,25.3,21.8,38.3C600.8,497.1,600.4,496.6,601.8,498.7z"
				/>
		</g>
	</g>
</g>
</svg>
