<?xml version="1.0" encoding="utf-8"?>
<!-- Generator: Adobe Illustrator 23.0.1, SVG Export Plug-In . SVG Version: 6.00 Build 0)  -->
<svg version="1.1" id="Layer_1" xmlns="http://www.w3.org/2000/svg" xmlns:xlink="http://www.w3.org/1999/xlink" x="0px" y="0px"
	 viewBox="99.9 391 800.4 217.8" style="enable-background:new 0 0 1000 1000;" xml:space="preserve">
<style type="text/css">
	.st0{fill-rule:evenodd;clip-rule:evenodd;fill:#008752;}
	.st1{fill-rule:evenodd;clip-rule:evenodd;fill:#FFFFFF;}
</style>
<path class="st0" d="M704.9,391h173c12.4,0,22.4,10,22.4,22.4v173c0,12.3-10,22.4-22.4,22.4h-173c-12.4,0-22.4-10-22.4-22.4v-173
	C682.5,401.1,692.5,391,704.9,391"/>
<path class="st1" d="M824.8,472c0,0-1.7,0.2-1.7,1.7c0,1.4,1.6,1.9,1.6,1.9s-0.9-0.8-0.8-1.9C824.1,472.4,824.8,472,824.8,472
	 M822.1,483.2v-3.8c0,0,0.2-2.1,2.3-2.1c2.1,0,1.9,1.9,1.9,1.9v4H822.1z M820.2,502.2h7.5v4.3h-7.5V502.2z M820.2,484.3h7.5v4.3
	h-7.5V484.3z M821.7,490.3h4.5v10.8h-4.5V490.3z M821.7,508.2h4.5v24.7h-4.5V508.2z M768,530.7h8.3v-4.6h8.4v1.6h-5.8v3.1h5.5v1.9
	H768V530.7z M812.9,523.6c0,0-1.7,0.3-1.7,1.7c0,1.4,1.6,1.9,1.6,1.9s-0.9-0.8-0.8-1.9C812.3,524,812.9,523.6,812.9,523.6
	 M803.2,532.9c0,0,3.3-4.3,8.2-4.3c4.9,0,8.7,4.1,8.7,4.1L803.2,532.9z M804.9,489.3c1.9,0,4.2-1.5,4.3-4.9c0.1-2.7-3.4-5.7-4-7.3
	c-0.5-1.6-0.6-2.4-0.6-2.4s-1,1.5-1.5,3c-0.4,1.5-3.8,4.2-3.2,7.4C800.4,487.4,802,489.3,804.9,489.3 M802.4,490.4h5l2.2,23.8h-9.5
	L802.4,490.4z M777.6,507.2h6v5.7h-6V507.2z M768.2,507.2h5.9v5.7h-5.9V507.2z M768.2,488.3h5.9v5.8h-5.9V488.3z M783.1,494.3
	c0,0,0.4-1,1.7-1c1.4,0,1.5,0.6,2.4,0.5c0.8-0.1,1.6-0.5,1.6-0.5s-0.8,1.2-1.8,1.3c-1.1,0.1-1.8-0.7-2.6-0.6
	C783.6,494.2,783.1,494.3,783.1,494.3 M782.1,493.1c0,0,0.4-1.6,2-1.6c1.6,0,1.9,0.6,3.3,0.4c1.4-0.3,2.3-0.7,2.3-0.7
	s-1,1.4-2.5,1.6c-1.6,0.2-2.1-0.8-3.4-0.5C782.5,492.6,782.1,493.1,782.1,493.1 M782.1,485.7c0,0,0-1.6,0.6-3.7
	c0.6-2.1,2.1-3.4,2.1-3.4s-0.1,1.2,0.1,2c0.2,0.8,1.1,1.9,1.1,1.9s0.4-1.6,1.1-2.5c0.7-0.9,1.4-1.6,1.4-1.6s-0.6,3.1-0.3,4.4
	c0.3,1.3,0.8,3,0.8,3L782.1,485.7z M778.1,489.1h11.3c0,0-0.3,1.4-1.6,1.5c-1.3,0.1-2.5-1.2-4.5-0.4c-2,0.8-2.5,2.2-2.5,2.2
	s-1.3-1.1-1.8-1.8C778.5,489.9,778.1,489.1,778.1,489.1 M762,471.5h1.5v2.9h6.8v-2.9h1.6v6.1h-1.6v-1.7h-6.8v1.7H762V471.5z
	 M758.9,477.5v-10.9c0,0,0.4-1.1,1.4-1.1h11.6v1.8h-11.3v2.1h11.3v1.7h-11.3v6.5H758.9z M754.5,462.8h2l-0.1,1.7
	c0,0,0.9-1.8,1.6-1.8h13.9v1.5l-13.4,0c0,0-1.6,3.3-1.7,7.1c-0.2,5.4,1.4,7.2,1.4,7.2H772l-0.1,1.8h-14c0,0-0.7-0.2-1.2-1.6v1.3
	h-2.2V462.8z M792.5,463.4v33.9h-38v-12.8H779v-21.1H792.5z M812.1,463.4v53.5h-57.7v-13.6h43.7v-39.9H812.1z M817,463.4h14.3v72.3
	h-76.9v-12.8H817V463.4z M784.1,570.5l-11.4-11.2h71.7c0,0,6-0.6,7-5.1c1-4.5,0-6.3,0-6.3l11.4-10.5v21.3c0,0-3.4,11.8-15.6,11.8
	H784.1z M837.1,553.7l-16,0.2l50.7-50.7c0,0,3.8-4.7,1.3-8.5c-2.5-3.8-4.5-4.5-4.5-4.5l0.7-15.5l15.1,15.1c0,0,5.9,10.8-2.7,19.4
	L837.1,553.7z M845.2,454.2l0.2,16l-50.7-50.7c0,0-4.7-3.8-8.5-1.3c-3.8,2.5-4.5,4.5-4.5,4.5l-15.5-0.7l15.1-15.1
	c0,0,10.8-5.9,19.4,2.7L845.2,454.2z M863,506.5L851.9,518v-71.7c0,0-0.6-6-5.1-7c-4.5-0.9-6.4,0-6.4,0l-10.5-11.5h21.3
	c0,0,11.8,3.5,11.8,15.6V506.5z M736.9,545.6l-0.2-16l50.7,50.7c0,0,4.7,3.8,8.5,1.3c3.8-2.5,4.5-4.5,4.5-4.5l15.5,0.7l-15.1,15.1
	c0,0-10.8,5.9-19.3-2.7L736.9,545.6z M719,491.7l11.2-11.4V552c0,0,0.6,6,5.1,6.9c4.5,0.9,6.3,0,6.3,0l10.5,11.4h-21.3
	c0,0-11.8-3.4-11.8-15.6V491.7z M745.6,443.3l16-0.2l-50.7,50.7c0,0-3.8,4.7-1.3,8.5c2.5,3.8,4.5,4.5,4.5,4.5l-0.7,15.5l-15.1-15.1
	c0,0-5.9-10.8,2.7-19.4L745.6,443.3z M797.9,427.7l11.4,11.2h-71.7c0,0-6,0.6-7,5.1c-0.9,4.5,0,6.3,0,6.3l-11.4,10.5v-21.3
	c0,0,3.4-11.8,15.6-11.8H797.9z"/>
<path class="st0" d="M561.9,554.3c-0.3,2.1-0.9,3.9-1.9,5.5c-1,1.6-2.4,2.8-4.2,3.8c-1.8,0.9-4.2,1.4-7.3,1.4
	c-3.2,0-5.7-0.4-7.5-1.3c-1.8-0.9-3.2-2.1-4.1-3.6c-0.9-1.5-1.5-3.3-1.8-5.4c-0.3-2.1-0.4-4.3-0.4-6.6c0-2.1,0.1-4.2,0.4-6.3
	c0.3-2,0.9-3.9,1.9-5.5c1-1.6,2.4-2.9,4.2-3.9c1.8-1,4.2-1.5,7.3-1.5c3.2,0,5.6,0.4,7.5,1.4c1.8,0.9,3.2,2.1,4.1,3.7
	c0.9,1.6,1.5,3.4,1.8,5.4c0.3,2.1,0.4,4.3,0.4,6.6C562.4,550.2,562.2,552.3,561.9,554.3 M545.7,553.1c0.1,1.3,0.2,2.3,0.5,3.1
	c0.2,0.7,0.5,1.3,0.9,1.5c0.4,0.3,0.9,0.4,1.5,0.4c0.6,0,1.1-0.1,1.5-0.4c0.4-0.3,0.7-0.8,0.9-1.5c0.2-0.8,0.4-1.8,0.4-3.1
	c0.1-1.3,0.1-3,0.1-5c0-2,0-3.7-0.1-5c-0.1-1.3-0.2-2.4-0.4-3.1c-0.2-0.8-0.5-1.3-0.9-1.6c-0.4-0.3-0.9-0.4-1.5-0.4
	c-0.6,0-1.1,0.1-1.5,0.4c-0.4,0.3-0.7,0.8-0.9,1.6c-0.2,0.8-0.4,1.8-0.5,3.1c-0.1,1.3-0.1,3-0.1,5
	C545.6,550.1,545.6,551.8,545.7,553.1 M466.7,554.2c0,1.8,0.3,2.9,0.9,3.5c0.6,0.6,1.3,0.9,2,0.9c0.9,0,1.7-0.4,2.2-1.2
	c0.5-0.8,0.8-2.3,0.8-4.5h9.8c-0.1,4-1.1,7-3.1,9.1c-2,2-5.2,3-9.7,3c-2.6,0-4.8-0.3-6.5-0.9c-1.8-0.6-3.2-1.5-4.3-2.9
	c-1.1-1.3-1.9-3.1-2.3-5.3c-0.5-2.2-0.7-4.8-0.7-7.9c0-3.1,0.3-5.8,0.8-7.9c0.5-2.2,1.3-3.9,2.5-5.3c1.1-1.3,2.5-2.4,4.3-3
	c1.7-0.6,3.8-0.9,6.3-0.9c2.2,0,4.1,0.3,5.7,0.8c1.6,0.5,3,1.4,4.1,2.6c1.1,1.2,1.9,2.8,2.5,4.8c0.5,2,0.8,4.4,0.8,7.4v3.3h-16
	V554.2z M471.9,538.8c-0.4-0.8-1.2-1.2-2.4-1.2c-1.1,0-1.9,0.4-2.3,1.2c-0.4,0.8-0.6,2.1-0.6,3.8v1.5h5.9v-1.5
	C472.5,540.9,472.3,539.6,471.9,538.8 M382,562.6l-0.2-1.9c-0.7,1.5-1.7,2.5-2.9,3.3c-1.3,0.7-2.8,1.1-4.5,1.1c-1.6,0-3-0.2-4.2-0.6
	c-1.1-0.4-2.1-1-2.8-1.9c-0.7-0.8-1.2-1.8-1.6-3c-0.3-1.2-0.5-2.4-0.5-3.8c0-1.5,0.2-2.8,0.4-4c0.3-1.1,0.8-2.1,1.5-2.9
	c0.7-0.8,1.6-1.5,2.8-2.1c1.2-0.6,2.6-1.1,4.3-1.5l4.2-1c1.2-0.3,2-0.7,2.5-1.2c0.5-0.5,0.7-1.3,0.7-2.3c0-2-0.9-3-2.7-3
	c-1,0-1.8,0.3-2.2,0.9c-0.5,0.6-0.7,1.7-0.8,3.4h-9.4c0-2.3,0.4-4.2,1.3-5.6c0.8-1.4,1.9-2.5,3.1-3.3c1.2-0.8,2.6-1.3,4-1.6
	c1.4-0.3,2.8-0.4,4-0.4c1.9,0,3.6,0.1,5.2,0.4c1.6,0.3,2.9,0.8,4.1,1.6c1.1,0.8,2,1.8,2.6,3.2c0.6,1.3,0.9,3.1,0.9,5.2v15.9
	c0,1.5,0.1,2.9,0.2,4c0.1,1.1,0.4,2.2,0.8,3h-10.5C382.3,563.8,382.1,563.2,382,562.6 M381,556.5c0.5-0.9,0.8-2.2,0.8-4v-3.9
	c-0.4,0.4-0.9,0.7-1.6,0.8c-0.7,0.1-1.4,0.3-2.2,0.7c-0.8,0.4-1.4,0.9-1.7,1.6c-0.3,0.7-0.5,1.6-0.5,2.6c0,1.1,0.2,1.9,0.7,2.6
	c0.5,0.6,1.1,1,1.9,1C379.6,557.9,380.5,557.4,381,556.5 M331,564.3h-10.8v-32.5H331V564.3z M331,529.5h-10.8v-8H331V529.5z
	 M252.2,564.3h-10.8v-32.5h10.8V564.3z M252.2,529.5h-10.8v-8h10.8V529.5z M475.2,435.3c0-3.1,2.4-5.6,5.3-5.6c3,0,5.3,2.5,5.3,5.6
	c0,3.1-2.4,5.6-5.3,5.6C477.6,440.9,475.2,438.4,475.2,435.3 M487.5,435.3c0-3.1,2.4-5.6,5.3-5.6c2.9,0,5.3,2.5,5.3,5.6
	c0,3.1-2.4,5.6-5.3,5.6C489.9,440.9,487.5,438.4,487.5,435.3 M568.1,435.3c0-3.1,2.4-5.6,5.3-5.6c2.9,0,5.3,2.5,5.3,5.6
	c0,3.1-2.4,5.6-5.3,5.6C570.5,440.9,568.1,438.4,568.1,435.3 M580.4,435.3c0-3.1,2.4-5.6,5.3-5.6c2.9,0,5.3,2.5,5.3,5.6
	c0,3.1-2.4,5.6-5.3,5.6C582.8,440.9,580.4,438.4,580.4,435.3 M637.9,492c0-3.1,2.4-5.6,5.3-5.6c2.9,0,5.3,2.5,5.3,5.6
	c0,3.1-2.4,5.6-5.3,5.6C640.3,497.6,637.9,495.1,637.9,492 M603.2,492c0-3.1,2.4-5.6,5.3-5.6c2.9,0,5.3,2.5,5.3,5.6
	c0,3.1-2.4,5.6-5.3,5.6C605.6,497.6,603.2,495.1,603.2,492 M616.2,492c0-3.1,2.4-5.6,5.3-5.6c2.9,0,5.3,2.5,5.3,5.6
	c0,3.1-2.4,5.6-5.3,5.6C618.5,497.6,616.2,495.1,616.2,492 M372,492c0-3.1,2.4-5.6,5.3-5.6c2.9,0,5.3,2.5,5.3,5.6
	c0,3.1-2.4,5.6-5.3,5.6C374.4,497.6,372,495.1,372,492 M384.4,492c0-3.1,2.4-5.6,5.3-5.6c3,0,5.3,2.5,5.3,5.6c0,3.1-2.4,5.6-5.3,5.6
	C386.8,497.6,384.4,495.1,384.4,492 M155.6,492c0-3.1,2.4-5.6,5.3-5.6c2.9,0,5.3,2.5,5.3,5.6c0,3.1-2.4,5.6-5.3,5.6
	C158,497.6,155.6,495.1,155.6,492 M167.9,492c0-3.1,2.4-5.6,5.3-5.6c2.9,0,5.3,2.5,5.3,5.6c0,3.1-2.4,5.6-5.3,5.6
	C170.3,497.6,167.9,495.1,167.9,492 M126.4,435.1c0-3.1,2.4-5.6,5.3-5.6c2.9,0,5.3,2.5,5.3,5.6c0,3.1-2.4,5.6-5.3,5.6
	C128.8,440.7,126.4,438.2,126.4,435.1 M138.8,435.1c0-3.1,2.4-5.6,5.3-5.6c2.9,0,5.3,2.5,5.3,5.6c0,3.1-2.4,5.6-5.3,5.6
	C141.1,440.7,138.8,438.2,138.8,435.1 M103.6,492c0-3.1,2.4-5.6,5.3-5.6c2.9,0,5.3,2.5,5.3,5.6c0,3.1-2.4,5.6-5.3,5.6
	C106,497.6,103.6,495.1,103.6,492 M115.9,492c0-3.1,2.4-5.6,5.3-5.6c3,0,5.3,2.5,5.3,5.6c0,3.1-2.4,5.6-5.3,5.6
	C118.3,497.6,115.9,495.1,115.9,492 M178.5,450.1v31.1h-39.1v-20.5h-10.2v20.5H99.9v-31.5h12v19.7h7.8l0.1-20l30.1,0v21.2h18.3
	v-20.5H178.5z M197.8,460h8.2v10.6h-8.2V460z M300.6,435.4v45.8h-84.2c0,0-1.6,10.2-7.4,13.7c-5.2,3.1-16.3,2.1-16.3,2.1
	s8.1-4.3,10.7-7.7c2.6-3.5,2.1-8.1,2.1-8.1h-18v-30.8h28.6v20.1H271v-10.7h-36.8c0,0-6.9-0.4-6.9-7.7c0-7.3,5.6-10.3,5.6-10.3
	l16.3-13.2H268l-25.7,20.5h29.9c0,0,8.6,0.8,9,7.3c0.4,6.4,0,14.2,0,14.2h9.8v-35.1H300.6z M310,435.4h9.9v45.8H310V435.4z
	 M395.6,450.4v30.8h-26.1c0,0-4.3,15.2-17.6,15.4c-25.7,0.4-15-33.8-15-33.8s-1.6,19.7,11.1,19.7c13.7,0,11.5-12,11.5-12v-34.7h10.3
	v34.7h15v-20.1H395.6z M452.9,460.7h9.9v9.9h-9.9V460.7z M414,460.7h9.4v9.9H414V460.7z M507.3,435.3h9.4v45.9h-83.9
	c0,0-0.8,10.7-9.4,14.1c-8.6,3.4-15,0-15,0s5.6-0.4,10.7-5.6c5.1-5.1,3-8.6,3-8.6h-17.6V450h28.3v20.6h9.8v-20.1h30.4v20.1h13.3
	v-20.1H497v20.1h10.3V435.3z M525.3,435.4h9.9v45.8h-9.9V435.4z M649,450v31.2h-96.8v-30.8h19.7v8.1h-8.1v12h32.1V450h9.4v20.6h12
	V450h9.9v20.6h11.6V450H649z M639.9,538.8c-0.4-0.8-1.2-1.2-2.4-1.2c-1.1,0-1.9,0.4-2.3,1.2c-0.4,0.8-0.6,2.1-0.6,3.8v1.5h5.9v-1.5
	C640.5,540.9,640.3,539.6,639.9,538.8 M634.6,554.2c0,1.8,0.3,2.9,0.9,3.5c0.6,0.6,1.3,0.9,2,0.9c1,0,1.7-0.4,2.2-1.2
	c0.5-0.8,0.8-2.3,0.8-4.5h9.7c-0.1,4-1.1,7-3,9.1c-2,2-5.2,3-9.7,3c-2.6,0-4.8-0.3-6.5-0.9c-1.8-0.6-3.2-1.5-4.3-2.9
	c-1.1-1.3-1.9-3.1-2.3-5.3c-0.5-2.2-0.7-4.8-0.7-7.9c0-3.1,0.3-5.8,0.8-7.9c0.5-2.2,1.3-3.9,2.5-5.3c1.1-1.3,2.6-2.4,4.3-3
	c1.7-0.6,3.8-0.9,6.3-0.9c2.2,0,4,0.3,5.7,0.8c1.6,0.5,3,1.4,4.1,2.6c1.1,1.2,1.9,2.8,2.5,4.8c0.5,2,0.8,4.4,0.8,7.4v3.3h-16V554.2z
	 M605.5,556.1c0.1,0.5,0.3,1,0.6,1.4c0.5,0.8,1.3,1.1,2.3,1.1c0.8,0,1.5-0.2,2.2-0.7c0.6-0.5,0.9-1.2,0.9-2c0-1-0.4-1.7-1.2-2.2
	c-0.8-0.5-1.7-1-2.9-1.4l-3.7-1.3c-1.3-0.4-2.6-1.1-3.7-1.8c-1.2-0.8-2.1-1.8-2.9-3c-0.8-1.3-1.2-2.9-1.2-5c0-1.5,0.3-2.8,0.8-4
	c0.5-1.2,1.3-2.3,2.4-3.2c1.1-0.9,2.4-1.7,4-2.2c1.6-0.5,3.5-0.8,5.7-0.8c8.1,0,12.2,3.4,12.2,10.2h-9.4c0-1.4-0.2-2.3-0.7-2.9
	c-0.5-0.5-1.2-0.7-2.1-0.7c-0.8,0-1.4,0.2-2,0.7c-0.5,0.4-0.8,1-0.8,1.9c0,0.9,0.4,1.6,1.2,2.1c0.8,0.5,1.7,0.9,2.9,1.2l3.7,1.2
	c1.3,0.4,2.6,1,3.7,1.7c1.2,0.7,2.1,1.7,2.9,3c0.8,1.3,1.2,2.9,1.2,5c0,1.6-0.3,3.1-0.9,4.4c-0.6,1.3-1.4,2.5-2.6,3.4
	c-1.1,1-2.5,1.7-4.1,2.2c-1.6,0.5-3.5,0.7-5.5,0.7c-4.5,0-7.8-0.9-9.8-2.7c-2-1.8-3-4.4-3-8h9.5
	C605.3,554.9,605.4,555.5,605.5,556.1 M576.6,531.8v21.5c0,1.4,0.2,2.3,0.6,2.9c0.4,0.6,1.1,0.9,2,0.9c1,0,1.6-0.3,2.1-0.9
	c0.4-0.6,0.6-1.6,0.6-2.9v-21.5h10.8v32.5h-10.4l0-4c-1.4,3.1-4.1,4.6-8,4.6c-1.2,0-2.3-0.1-3.3-0.3c-1-0.2-1.9-0.7-2.7-1.3
	c-0.8-0.7-1.4-1.6-1.8-2.7c-0.4-1.1-0.7-2.6-0.7-4.3v-24.5H576.6z M513,521.4v15.8h6.8v-15.8h11.2v42.9h-11.2v-17.6H513v17.6h-11.2
	v-42.9H513z M443.9,541.4c-0.1-0.8-0.3-1.5-0.6-2c-0.4-0.9-1.2-1.4-2.4-1.4c-0.6,0-1.1,0.1-1.5,0.5c-0.4,0.3-0.7,0.8-1,1.6
	c-0.2,0.8-0.4,1.8-0.5,3.1c-0.1,1.3-0.2,2.9-0.2,4.9c0,2,0.1,3.6,0.2,4.9c0.1,1.3,0.3,2.3,0.5,3.1c0.3,0.8,0.6,1.3,1,1.6
	c0.4,0.3,0.9,0.4,1.5,0.4c1,0,1.8-0.4,2.3-1.1c0.5-0.8,0.8-2.2,0.8-4.2v-2.1h9.8c0,2.6-0.2,4.8-0.7,6.6c-0.4,1.8-1.2,3.3-2.2,4.4
	c-2,2.2-5.4,3.3-9.9,3.3c-2.1,0-4-0.2-5.7-0.5c-1.7-0.4-3.2-1.1-4.4-2.3c-1.2-1.2-2.2-2.8-2.8-5c-0.7-2.2-1-5-1-8.5
	c0-3.8,0.4-6.9,1.1-9.3c0.7-2.3,1.8-4.1,3.1-5.3c1.3-1.3,2.8-2.1,4.6-2.5c1.8-0.4,3.6-0.6,5.7-0.6c2.4,0,4.4,0.3,6,1
	c1.6,0.7,2.9,1.6,3.8,2.8c0.9,1.2,1.6,2.6,2,4.3c0.4,1.7,0.6,3.5,0.6,5.6h-9.8C444.1,543.3,444,542.2,443.9,541.4 M407.2,531.8v4
	c1.5-3.2,4.1-4.8,8-4.8c1.2,0,2.3,0.1,3.4,0.4c1,0.2,1.9,0.7,2.7,1.4c0.8,0.7,1.4,1.6,1.8,2.7c0.5,1.1,0.7,2.6,0.7,4.3v24.5h-10.8
	v-21.4c0-1.4-0.2-2.3-0.6-2.9c-0.4-0.6-1.1-0.9-2.1-0.9c-0.9,0-1.6,0.3-2,0.9c-0.4,0.6-0.6,1.6-0.6,2.9v21.4h-10.8v-32.5H407.2z
	 M346,531.8v4c1.5-3.2,4.1-4.8,8-4.8c1.2,0,2.3,0.1,3.4,0.4c1,0.2,1.9,0.7,2.7,1.4c0.8,0.7,1.4,1.6,1.8,2.7c0.4,1.1,0.7,2.6,0.7,4.3
	v24.5h-10.8v-21.4c0-1.4-0.2-2.3-0.6-2.9c-0.4-0.6-1.1-0.9-2.1-0.9c-0.9,0-1.6,0.3-2,0.9c-0.4,0.6-0.6,1.6-0.6,2.9v21.4h-10.8v-32.5
	H346z M317,521.4v9.1h-14.2v7.4h13.3v8.8h-13.3v17.6h-11.2v-42.9H317z M258.2,531.8v-9.5H269v9.5h4.3v7.3H269v15.5
	c0,0.9,0.2,1.6,0.6,1.9c0.4,0.4,1.1,0.6,1.9,0.6h1.7v7.2c-1,0-2,0-3,0.1c-1,0.1-2,0.1-2.9,0.1c-1.6,0-3-0.1-4.2-0.2
	c-1.2-0.1-2.1-0.5-2.8-1.1c-0.7-0.6-1.3-1.4-1.6-2.5c-0.3-1.1-0.5-2.5-0.5-4.4v-17.3h-3.6v-7.3H258.2z M175,531.8l2.7,23.4l3.3-23.4
	h11.5l3.2,23.4l2.8-23.4H209l-6.6,32.5h-12.3l-3.3-23l-3.4,23h-12.2l-6.6-32.5H175z M146.3,531.8v21.5c0,1.4,0.2,2.3,0.6,2.9
	c0.4,0.6,1.1,0.9,2.1,0.9c0.9,0,1.6-0.3,2-0.9c0.4-0.6,0.6-1.6,0.6-2.9v-21.5h10.8v32.5H152l0-4c-1.4,3.1-4,4.6-8,4.6
	c-1.2,0-2.3-0.1-3.3-0.3c-1.1-0.2-1.9-0.7-2.7-1.3c-0.8-0.7-1.4-1.6-1.8-2.7c-0.4-1.1-0.7-2.6-0.7-4.3v-24.5H146.3z M113.3,521.4
	v16.5l8.4-16.5h11.9l-10.8,18.7l12.1,24.1h-12.7l-6.6-15l-2.3,3.6v11.4h-11.2v-42.9H113.3z M226.5,562.6l-0.3-1.9
	c-0.7,1.5-1.7,2.5-2.9,3.3c-1.3,0.7-2.8,1.1-4.4,1.1c-1.6,0-3-0.2-4.2-0.6c-1.1-0.4-2.1-1-2.8-1.9c-0.7-0.8-1.2-1.8-1.5-3
	c-0.3-1.2-0.5-2.4-0.5-3.8c0-1.5,0.2-2.8,0.5-4c0.3-1.1,0.8-2.1,1.5-2.9c0.7-0.8,1.6-1.5,2.7-2.1c1.1-0.6,2.6-1.1,4.3-1.5l4.2-1
	c1.2-0.3,2-0.7,2.4-1.2c0.5-0.5,0.7-1.3,0.7-2.3c0-2-0.9-3-2.7-3c-1,0-1.8,0.3-2.3,0.9c-0.5,0.6-0.7,1.7-0.8,3.4h-9.4
	c0-2.3,0.4-4.2,1.3-5.6c0.8-1.4,1.9-2.5,3.1-3.3c1.3-0.8,2.6-1.3,4-1.6c1.4-0.3,2.8-0.4,4-0.4c1.9,0,3.6,0.1,5.2,0.4
	c1.6,0.3,3,0.8,4.1,1.6c1.1,0.8,2,1.8,2.6,3.2c0.6,1.3,0.9,3.1,0.9,5.2v15.9c0,1.5,0.1,2.9,0.2,4c0.1,1.1,0.4,2.2,0.8,3h-10.5
	C226.7,563.8,226.5,563.2,226.5,562.6 M225.4,556.5c0.5-0.9,0.8-2.2,0.8-4v-3.9c-0.4,0.4-0.9,0.7-1.6,0.8c-0.6,0.1-1.4,0.3-2.2,0.7
	c-0.8,0.4-1.4,0.9-1.7,1.6c-0.3,0.7-0.5,1.6-0.5,2.6c0,1.1,0.2,1.9,0.7,2.6c0.5,0.6,1.1,1,1.9,1
	C224.1,557.9,224.9,557.4,225.4,556.5"/>
</svg>
