<?xml version="1.0" encoding="UTF-8"?>
<svg xmlns="http://www.w3.org/2000/svg" version="1.1" viewBox="143 415.3 714 169.3">
  <defs>
    <style>
      .cls-1 {
        fill: #fff;
      }

      .cls-2 {
        fill: #cf343e;
      }
    </style>
  </defs>
  <!-- Generator: Adobe Illustrator 28.7.1, SVG Export Plug-In . SVG Version: 1.2.0 Build 142)  -->
  <g>
    <g id="Layer_2">
      <g>
        <rect class="cls-2" x="143" y="415.3" width="714" height="169.3"/>
        <path class="cls-1" d="M537.1,477.2c-.2.4-.4.9-.7,1.3l-.5,1h0c-.7,1.2-1.6,2.4-2.5,3.6h0s-.5.6-.5.6c-1.5,1.8-2.6,2.8-2.7,2.8,0,0-3.7,3.5-3.7,3.5l-3.7,3.6h0s-.5.6-.5.6c0,0-2.1,2-3.9,3.8l-2.8,2.7c-1.7,1.7-12.9,12.5-15.5,15,.8.9,4.2,4.4,5.1,5.2,1-1,15.7-15.3,15.7-15.3l6.4-6.2,5.2-5,1.1-1.1c1.5-1.5,2.9-3,4-4.5,1.3-1.7,2.3-3.5,2.9-5.2.9-2.1,1.3-4.2,1.3-6.3s-.3-3.8-1.1-5.7c-.5-1.5-1.2-2.7-1.9-3.7,0,.4,0,.8.1,1.3,0,.1,0,.2,0,.4s0,.3,0,.4,0,.3,0,.4c0,.3,0,.6,0,.9,0,.1,0,.2,0,.3,0,.4-.1.8-.2,1.2,0,0,0,.2,0,.3,0,.3-.2.7-.3,1,0,.1,0,.3-.1.4,0,.3-.2.6-.3.9,0,.2-.1.3-.2.5-.1.3-.3.6-.4.9,0,.1-.1.3-.2.4"/>
        <path class="cls-1" d="M540.5,497.1s-3.7,3.5-3.7,3.5c0,0-25.3,24.5-26.4,25.6.2.2.4.4.6.6l2,2.1s0,0,0,0c0,0,0,0,0,0,0,0,0,0,.1.1,0,0,0,0,0,0,0,0,.1.1.2.2,0,0,0,0,0,0,0,0,.2.2.3.3,0,0,0,0,0,0,.1.1.2.2.3.3,0,0,0,0,0,0,.1.1.3.3.4.4,0,0,0,0,0,0,.1.1.3.3.5.4,0,0,0,0,0,0,.2.2.3.3.5.5h0c1-.9,15.6-15.1,15.6-15.1l6.4-6.2,4.3-4.1,2-1.9c1.5-1.5,2.9-3,4-4.5,1.2-1.7,2.2-3.5,2.9-5.2.8-2.1,1.3-4.2,1.3-6.3s-.4-3.8-1.1-5.7c-.5-1.5-1.2-2.7-1.9-3.7,0,.6.1,1.1.1,1.7,0,2.8-.9,5.9-2.5,8.9-.9,1.7-2.1,3.5-3.5,5.1-1.5,1.8-2.6,2.8-2.7,2.8"/>
        <path class="cls-1" d="M561.4,492.9c-.5-1.5-1.3-2.7-1.9-3.7,0,.5.1,1.1.1,1.6,0,2.8-.9,5.9-2.6,8.9-1,1.7-2.1,3.5-3.5,5.1-1.5,1.8-2.6,2.8-2.7,2.8,0,0-3.6,3.5-3.6,3.5l-10.6,10.3s-11.2,10.9-14.4,13.9c3.2,1.5,6.2,2,9.1,1.4.4-.4,13-12.6,13-12.6l10-9.7c1.5-1.5,2.9-3,4-4.5,1.2-1.7,2.2-3.5,2.9-5.2.9-2.1,1.3-4.2,1.3-6.3s-.4-3.8-1.1-5.7"/>
        <path class="cls-1" d="M463,522.8c.1-.3.3-.7.5-1l.5-1h0c.7-1.2,1.5-2.4,2.5-3.6h0s.5-.6.5-.6c1-1.2,1.8-2.1,2.3-2.6,0-.1.2-.2.3-.3.1-.1.2-.2.2-.2,0,0,3.5-3.3,3.5-3.3l.6-.6c.9-.9,2.7-2.6,3.4-3.3l7.3-7.1c2.5-2.4,12.7-12.3,15.2-14.7-.8-.9-4.2-4.4-5.1-5.2-.8.8-2.8,2.8-2.8,2.8l-12.9,12.5-8.1,7.8-4.3,4.2c-1.6,1.5-3,3.1-4.2,4.7-1.2,1.7-2.2,3.5-2.9,5.3-.8,2-1.2,4.1-1.2,6s.4,4.3,1.3,6.3c.5,1.2,1.1,2.2,1.6,3,0-.5,0-1,0-1.5v-.2c0-.3,0-.6,0-.9,0,0,0-.1,0-.2,0-.3,0-.5,0-.8,0,0,0-.1,0-.2,0-.3.1-.6.2-.9,0,0,0-.1,0-.2,0-.3.1-.6.2-.9,0,0,0-.1,0-.1,0-.3.2-.6.3-1,0,0,0-.1,0-.2.1-.3.2-.6.4-.9,0,0,0,0,0,0,.1-.3.3-.7.4-1,0,0,0-.1.1-.2"/>
        <path class="cls-1" d="M459.5,502.9s3.5-3.3,3.5-3.3l4.3-4.1h0l6.4-6.2s12.9-12.5,15.7-15.3c-.4-.4-.9-1-1.4-1.5,0,0,0,0,0,0-.5-.5-.9-.9-1.1-1.2-.1-.2-.2-.3-.2-.3,0,0,0,0,0,0,0,0,0,0,0,0,0,0,0,0,0,0,0,0,0,0-.1-.1,0,0,0,0,0,0,0,0-.1-.1-.2-.2,0,0,0,0,0,0,0,0-.2-.2-.2-.2,0,0,0,0-.1-.1,0,0-.2-.2-.3-.3,0,0,0,0-.1-.1-.1,0-.2-.2-.3-.3,0,0,0,0-.1-.1-.1-.1-.3-.2-.4-.4h0c-.9.8-5.1,4.9-5.1,4.9l-10.6,10.3-6.4,6.2-6,5.8c-1.6,1.6-3,3.2-4.2,4.8-1.2,1.7-2.2,3.5-2.9,5.3-.8,2-1.2,4-1.2,6s.4,4.3,1.3,6.3c.5,1.2,1.1,2.3,1.7,3.1,0-.6-.2-1.1-.2-1.7,0-2.8.8-5.7,2.4-8.7.9-1.7,2.1-3.5,3.5-5.2,1.5-1.9,2.8-3,2.9-3.1"/>
        <path class="cls-1" d="M449.2,492.3s3.5-3.4,3.5-3.4l4.3-4.1s19.4-18.8,20.9-20.2c-3.1-1.5-6-2.1-8.8-1.7-.4.4-4.9,4.7-4.9,4.7l-8.1,7.8-10.3,9.9-2,2.1c-.8.9-1.5,1.7-2.1,2.6-1.2,1.8-2.2,3.5-2.9,5.3-.8,2-1.2,4.1-1.2,6.1s.4,4.2,1.3,6.3c.5,1.2,1.1,2.3,1.7,3.1,0-.6-.1-1.1-.1-1.7,0-2.8.8-5.7,2.4-8.7.9-1.8,2.1-3.5,3.5-5.2,1.5-1.9,2.8-3,2.8-3.1"/>
        <path class="cls-1" d="M499.1,557.1c-1.7-.9-3.5-2.1-5.2-3.4-2-1.6-3.2-3-3.3-3l-7.3-7.5s-17.5-18.1-18.9-19.6c-.8,1.7-1.3,3.3-1.6,4.9,0,.2,0,.3,0,.5,0,.1,0,.3,0,.4,0,.3,0,.5,0,.8,0,0,0,.2,0,.3,0,.2,0,.4,0,.6,0,.5,0,1,.1,1.4.4.4,14.1,14.6,14.1,14.6l6.8,7c1.3,1.3,2.5,2.5,3.8,3.5l1.2.9c1.7,1.2,3.5,2.2,5.3,2.8,4.3,1.6,8.6,1.4,12.8-.6.9-.4,1.7-.9,2.4-1.3-3.2.4-6.6-.4-10.1-2.2"/>
        <path class="cls-1" d="M508.2,526.2h.1c0,.1-.1,0-.1,0ZM524.3,538.1c-.4-.1-.8-.2-1.2-.4,0,0,0,0-.1,0-.4-.1-.8-.3-1.2-.5,0,0,0,0-.1,0-.4-.2-.8-.4-1.2-.6h0c-.3-.2-.6-.4-.9-.5h0s0,0,0,0c-1.2-.7-2.5-1.5-3.7-2.5h0s0,0,0,0c-.2-.1-.4-.3-.5-.4l.5.4-.5-.4c-1.3-1-2.2-1.9-2.7-2.5-.3-.3-.5-.5-.5-.6,0,0-3.2-3.3-3.2-3.3,0,0,0,0,0,0h0c0-.2-.2-.3-.4-.5h0c-2.1-2.2-9.8-10.1-9.8-10.1,0,0,0,0-.2-.2l-.3-.3c-2.3-2.4-11.2-11.5-13.5-13.9-.4.4-1.3,1.2-2.2,2.1l-.3.3c-1.1,1.1-2.3,2.2-2.8,2.7,1,1,14,14.5,14,14.5l6.2,6.4s5.7,5.9,5.7,5.9c1.6,1.7,3.3,3.2,5,4.3,1.8,1.2,3.5,2.2,5.3,2.8,4.3,1.6,8.6,1.4,12.8-.5.9-.4,1.7-.9,2.4-1.4-.5,0-1,0-1.5.1-1.5,0-3.1-.2-4.7-.7,0,0,0,0,0,0"/>
        <path class="cls-1" d="M530.5,538.7c-2,.2-4,0-6.1-.6,1.6.5,3.1.7,4.6.7.5,0,1,0,1.5-.1h0"/>
        <path class="cls-1" d="M509.7,546.8c-1.7-.9-3.5-2.1-5.2-3.4-2-1.6-3.2-3-3.3-3,0,0-3.2-3.3-3.2-3.3,0,0-23.3-24.1-24.3-25.1-.7.7-2.3,2.2-2.8,2.7h-.1c0,.1,0,.1,0,.2,0,0,0,0,0,0,0,0,0,0,0,0,0,0-.1.1-.2.2,0,0,0,0,0,0,0,0-.1.1-.2.2,0,0,0,0,0,0,0,0-.2.2-.3.3,0,0,0,0,0,0,0,0-.2.2-.3.3,0,0,0,0,0,.1-.1.1-.2.2-.3.4,0,0,0,0,0,.1-.1.1-.2.3-.4.4h0c.9.9,24.4,25.3,24.4,25.3l1.3,1.4c1.6,1.7,3.3,3.1,5,4.3,1.7,1.2,3.5,2.2,5.3,2.8,4.3,1.6,8.6,1.4,12.8-.5.9-.4,1.7-.9,2.4-1.4-3.2.4-6.5-.4-10.1-2.2"/>
        <path class="cls-1" d="M500.8,443c1.7.9,3.5,2.1,5.1,3.5,1.8,1.5,2.9,2.7,3,2.8,0,0,3.4,3.5,3.4,3.5l10.3,10.7s9.9,10.3,12.8,13.2c.7-1.5,1.3-3.1,1.6-4.6,0,0,0,0,0,0,0-.3.1-.6.1-.9,0-.3,0-.6,0-.9,0-.1,0-.2,0-.3,0-.2,0-.5,0-.8,0-.1,0-.3,0-.4h0c0-.3,0-.5,0-.7-.4-.4-21.4-22.1-21.4-22.1-3.2-3.3-6.6-5.7-9.9-7-4.1-1.6-8.2-1.6-12.2,0-1.3.5-2.4,1.2-3.3,1.8,3.3-.4,6.8.4,10.5,2.3"/>
        <path class="cls-1" d="M537.3,469.2c0,.3,0,.5,0,.8,0-.1,0-.3,0-.4s0-.2,0-.3"/>
        <path class="cls-1" d="M476.6,462.4c0,0,.1,0,.2,0,0,0,.1,0,.2,0,.4.1.8.3,1.2.5.5.2.9.4,1.4.7l1,.5h0c1.2.7,2.4,1.6,3.6,2.5h0s0,0,0,0h0c.2.1.3.3.5.4h0c1.8,1.6,2.9,2.8,3,2.8,0,0,3.4,3.5,3.4,3.5l3.6,3.7.5.5h0c0,0,19.2,19.9,20.2,20.9.6-.6,2.7-2.6,4.1-3.9h0c.5-.5.9-.9,1.2-1.1-1-1.1-14-14.5-14-14.5l-6.2-6.4-4.1-4.3s-1.8-1.8-1.8-1.8c-1.5-1.6-3.1-2.9-4.6-4.1-1.7-1.3-3.5-2.2-5.2-2.9-4.1-1.6-8.2-1.6-12.2,0-1.3.5-2.4,1.2-3.3,1.8,0,0,0,0,0,0,2.4-.3,4.9,0,7.5,1"/>
        <path class="cls-1" d="M479.5,463.7c.3.2.6.4,1,.5h0s-1-.5-1-.5Z"/>
        <path class="cls-1" d="M490.2,453.4c1.8.9,3.5,2.1,5.1,3.5,1.8,1.5,2.9,2.7,3,2.8l3.4,3.5s21.7,22.4,24.3,25.1c.4-.4,1.3-1.3,2.1-2h0c.3-.3.5-.6.7-.7h.1c0-.2.1-.2.1-.2,0,0,.9-.8,2.1-2.2-.8-.9-21.7-22.4-21.7-22.4l-2.6-2.7-1.8-1.8c-1.5-1.6-3.1-2.9-4.6-4.1-1.7-1.3-3.5-2.2-5.2-2.9-4.1-1.6-8.2-1.6-12.2,0-1.3.5-2.4,1.2-3.4,1.8,3.3-.4,6.8.4,10.5,2.3"/>
        <path class="cls-1" d="M206.3,531.5c18.4,0,21.8-19.2,21.8-33.2s-2.8-18.4-5.5-22.4c-2.2-3.4-7.3-8.1-15.8-8.1-16.5,0-22.1,15.8-22.1,31.8s3.6,32,21.5,32M253.6,544c-5.5-.1-15.9-.2-21.6-.2s-8.2.4-14.2.6c-5.9.4-11.8.7-13.8.7-32.8,0-38.6-30.4-38.6-44.5,0-23.9,12.5-46.2,42.2-46.2s39.5,15.4,39.5,44.1-9.1,28.8-13.2,32.6c4-.7,12.1-1.2,19.6-.8,0,0,0,13.7,0,13.7Z"/>
        <rect class="cls-1" x="272.3" y="455.8" width="18.8" height="87.9"/>
        <rect class="cls-1" x="309.9" y="455.8" width="18.8" height="87.9"/>
        <path class="cls-1" d="M365.5,529.7h12.7c8.6,0,18.3,0,18.3-11.8s-11.3-12.5-20.2-12.5h-10.8v24.3ZM365.5,491.9h13.1c5.3,0,15,0,15-11.3s-9.2-10.9-15.4-10.9h-12.7v22.2ZM347.5,456.2h32.7c5.1,0,14.9,0,21.6,4.1,8,5.1,9.8,13.6,9.8,18.7s-.6,9-5.1,13.1c-.6.7-4.8,4.6-9.9,5.9v.2c13.3,2.4,18.6,12.1,18.6,21.4s-6.1,17.2-12.9,20.6c-6.8,3.5-18.7,3.5-22.1,3.5h-32.7s0-87.6,0-87.6Z"/>
        <path class="cls-1" d="M793.1,528.1h-2.5v-6.6h-7.1v6.6h-2.5v-6.6h-7.1v6.6h-51.5v-20.1h-7.2v20.1h-9.5s0,7.1,0,7.1h91.5c.8,0,1.6-.4,2.1-1.1h0s0,0,0,0h0s0,0,0,0h0s0,0,0,0h0c.4-.5.6-1.1.7-1.8h0s0,0,0,0v-10.7h-7.1s0,6.6,0,6.6Z"/>
        <path class="cls-1" d="M712.9,508h-7.1v18.3h7.1v-18.3Z"/>
        <path class="cls-1" d="M807,543.4h-1.4v4.2h4.9s.9,0,1.1-.2c.2-.1.7-.4.9-.8h0c0,0,0-.1,0-.1h0c0-.5.1-.8.1-1.3v-1.7h-2.1s-.3-.4-.3-1,.3-.9.3-.9h2.1v-4.3h-3c-4.1,0-2.9,5.9-2.6,6.2"/>
        <path class="cls-1" d="M812.7,508h-7.1v18.3h7.1v-18.3Z"/>
        <path class="cls-1" d="M815,528.1h-9.4v7.1h16.4v-27.3h-7.1v20.1Z"/>
        <path class="cls-1" d="M827.6,508v27.3h7.1v-27.3s-7.1,0-7.1,0Z"/>
        <path class="cls-1" d="M822.1,455.8h-7.1v20.2h-69.8s0-1.8,0-1.8c0-2.4-.9-4.5-2.5-6.2-1.8-1.9-4.4-2.8-7.4-2.8h-5.8v7.1h4.4c1.1,0,1.8,0,2,0h0s0,0,0,0c.6.1.9.3,1.2.6.6.7.8,1.2.9,1.9v1.1h-8.6v7.1h92.6s0-27.3,0-27.3Z"/>
        <path class="cls-1" d="M827.6,483.1h7.1v-27.3h-7.1v27.3Z"/>
        <path class="cls-1" d="M715.1,475.1c0-1.5.3-2.5.7-2.9.6-.6,1.2-.9,2-.9h.1v5.8h-2.8s0-2,0-2ZM716,491.7c2.7,0,5-1,6.5-3,1-1.4,1.4-3.3,1.4-5.4v-18.2h-6.4c-2.6,0-5,1.2-6.6,3.3-.8,1-1.4,2.2-1.7,3.6-.1.9-.2,2-.2,3.6v7.5h7.6v.2c0,.7-.2,1.1-.3,1.2h0s0,0,0,0c0,0,0,.1-.4.2,0,0-.5,0-1,0h-5.9v7s7,0,7,0Z"/>
        <path class="cls-1" d="M696.4,476h-62.8v-10.9s-7.5,0-7.5,0c-5.7,0-7.4.7-9.1,2.2-2.1,1.8-3.1,4.5-3.1,7.5v9.7h-22v-15.3h-7.1v17.2c0,1.3.3,2.6,1.1,3.6.8,1,2.2,1.6,4,1.6h31.1v-16.8c0-2,1.5-2.6,2.3-2.6h3.2v10.9h77v-27.3h-7.1s0,20.2,0,20.2Z"/>
        <path class="cls-1" d="M694.2,531.4h-3.6v-4.1h0c1.5,0,2.4.3,2.9.9.4.5.6,1.2.7,2.2v1ZM698.3,524h0s0,0,0,0c-1.5-1.7-3.8-2.4-6.5-2.4h-7.2v6.6h-44.5s-6.4,0-6.4,0v-10.9s-7.5,0-7.5,0c-5.7,0-7.4.7-9.1,2.2-2.1,1.8-3.1,4.5-3.1,7.5v9.7h-22v-15.3h-7.1v17.2c0,1.3.3,2.6,1.1,3.6.8,1,2.2,1.6,4,1.6h31.1v-16.8c0-2,1.5-2.6,2.3-2.6h3.2v10.9h58.1c0,.5.3.9.6,1.2.7.6,1.9,1.2,3.4,1.2h11.6v-9.1c0-1.6-.7-3.1-1.9-4.5"/>
        <path class="cls-1" d="M606.3,544.7c-1.7,0-3.1,1.4-3.1,3.1s1.4,3.1,3.1,3.1,3.1-1.4,3.1-3.1-1.4-3.1-3.1-3.1"/>
        <path class="cls-1" d="M599.7,544.7c-1.7,0-3.1,1.4-3.1,3.1s1.4,3.1,3.1,3.1,3.1-1.4,3.1-3.1-1.4-3.1-3.1-3.1"/>
        <path class="cls-1" d="M609.5,496c0-1.7-1.4-3.1-3.1-3.1s-3.1,1.4-3.1,3.1,1.4,3.1,3.1,3.1,3.1-1.4,3.1-3.1"/>
        <path class="cls-1" d="M602.9,496c0-1.7-1.4-3.1-3.1-3.1s-3.1,1.4-3.1,3.1,1.4,3.1,3.1,3.1,3.1-1.4,3.1-3.1"/>
      </g>
    </g>
  </g>
</svg>