<?xml version="1.0" encoding="utf-8"?>
<!-- Generator: Adobe Illustrator 26.0.1, SVG Export Plug-In . SVG Version: 6.00 Build 0)  -->
<svg version="1.1" id="Layer_1" xmlns="http://www.w3.org/2000/svg" xmlns:xlink="http://www.w3.org/1999/xlink" x="0px" y="0px"
	 viewBox="0 0 440 342" style="enable-background:new 0 0 440 342;" xml:space="preserve">
<style type="text/css">
	.st0{clip-path:url(#SVGID_00000074415452397698866610000004163334104663177916_);}
	.st1{clip-path:url(#SVGID_00000169539260839492498340000004020559666936518031_);}
	.st2{fill:url(#SVGID_00000135684491467699648160000017415247461782877855_);}
	.st3{fill:#004433;}
</style>
<g id="surface1">
	<g>
		<defs>
			<rect id="SVGID_1_" x="63.89" y="122.94" width="51.26" height="34.95"/>
		</defs>
		<clipPath id="SVGID_00000174587043229844571610000004934548514851270558_">
			<use xlink:href="#SVGID_1_"  style="overflow:visible;"/>
		</clipPath>
		<g style="clip-path:url(#SVGID_00000174587043229844571610000004934548514851270558_);">
			<g>
				<defs>
					<path id="SVGID_00000029025275673801412500000004874572853150548151_" d="M65.06,142.74c3.26,4.66,5.82,9.56,7.45,14.91
						c3.49-7.92,9.78-14.44,17.47-18.17c7.93,3.72,13.98,10.25,17.47,18.17c1.63-5.35,4.2-10.48,7.45-14.91
						c-6.05-8.39-14.91-14.68-25.16-18.18C79.96,128.06,71.35,134.35,65.06,142.74"/>
				</defs>
				<clipPath id="SVGID_00000134958858403092743780000003985930034335187110_">
					<use xlink:href="#SVGID_00000029025275673801412500000004874572853150548151_"  style="overflow:visible;"/>
				</clipPath>
				<g style="clip-path:url(#SVGID_00000134958858403092743780000003985930034335187110_);">
					
						<linearGradient id="SVGID_00000124140108625040572160000001747293342138796215_" gradientUnits="userSpaceOnUse" x1="-306.9919" y1="648.6636" x2="-304.658" y2="648.6636" gradientTransform="matrix(0 -14.1746 -14.1746 0 9284.5352 -4193.8389)">
						<stop  offset="0" style="stop-color:#82C341"/>
						<stop  offset="7.812500e-03" style="stop-color:#82C341"/>
						<stop  offset="0.0117" style="stop-color:#81C241"/>
						<stop  offset="0.0156" style="stop-color:#80C241"/>
						<stop  offset="0.0195" style="stop-color:#80C241"/>
						<stop  offset="0.0234" style="stop-color:#7FC141"/>
						<stop  offset="0.0273" style="stop-color:#7FC141"/>
						<stop  offset="0.0312" style="stop-color:#7EC142"/>
						<stop  offset="0.0352" style="stop-color:#7EC042"/>
						<stop  offset="0.0391" style="stop-color:#7DC042"/>
						<stop  offset="0.043" style="stop-color:#7DC042"/>
						<stop  offset="0.0469" style="stop-color:#7CBF42"/>
						<stop  offset="0.0508" style="stop-color:#7CBF42"/>
						<stop  offset="0.0547" style="stop-color:#7BBF42"/>
						<stop  offset="0.0586" style="stop-color:#7BBE42"/>
						<stop  offset="0.0625" style="stop-color:#7ABE42"/>
						<stop  offset="0.0664" style="stop-color:#7ABE42"/>
						<stop  offset="0.0703" style="stop-color:#79BD42"/>
						<stop  offset="0.0742" style="stop-color:#79BD42"/>
						<stop  offset="0.0781" style="stop-color:#78BD42"/>
						<stop  offset="0.082" style="stop-color:#78BC43"/>
						<stop  offset="0.0859" style="stop-color:#77BC43"/>
						<stop  offset="0.0898" style="stop-color:#77BC43"/>
						<stop  offset="0.0938" style="stop-color:#76BB43"/>
						<stop  offset="0.0977" style="stop-color:#75BB43"/>
						<stop  offset="0.1016" style="stop-color:#75BB43"/>
						<stop  offset="0.1055" style="stop-color:#74BA43"/>
						<stop  offset="0.1094" style="stop-color:#74BA43"/>
						<stop  offset="0.1133" style="stop-color:#73BA43"/>
						<stop  offset="0.1172" style="stop-color:#73B943"/>
						<stop  offset="0.1211" style="stop-color:#72B943"/>
						<stop  offset="0.125" style="stop-color:#72B943"/>
						<stop  offset="0.1289" style="stop-color:#71B843"/>
						<stop  offset="0.1328" style="stop-color:#71B843"/>
						<stop  offset="0.1367" style="stop-color:#70B844"/>
						<stop  offset="0.1406" style="stop-color:#70B744"/>
						<stop  offset="0.1445" style="stop-color:#6FB744"/>
						<stop  offset="0.1484" style="stop-color:#6FB744"/>
						<stop  offset="0.1523" style="stop-color:#6EB644"/>
						<stop  offset="0.1562" style="stop-color:#6EB644"/>
						<stop  offset="0.1602" style="stop-color:#6DB644"/>
						<stop  offset="0.1641" style="stop-color:#6DB544"/>
						<stop  offset="0.168" style="stop-color:#6CB544"/>
						<stop  offset="0.1719" style="stop-color:#6CB544"/>
						<stop  offset="0.1758" style="stop-color:#6BB544"/>
						<stop  offset="0.1797" style="stop-color:#6BB444"/>
						<stop  offset="0.1836" style="stop-color:#6AB444"/>
						<stop  offset="0.1875" style="stop-color:#6AB445"/>
						<stop  offset="0.1914" style="stop-color:#69B345"/>
						<stop  offset="0.1953" style="stop-color:#69B345"/>
						<stop  offset="0.1992" style="stop-color:#68B345"/>
						<stop  offset="0.2031" style="stop-color:#68B245"/>
						<stop  offset="0.207" style="stop-color:#67B245"/>
						<stop  offset="0.2109" style="stop-color:#67B245"/>
						<stop  offset="0.2148" style="stop-color:#66B145"/>
						<stop  offset="0.2188" style="stop-color:#66B145"/>
						<stop  offset="0.2227" style="stop-color:#65B145"/>
						<stop  offset="0.2266" style="stop-color:#65B045"/>
						<stop  offset="0.2305" style="stop-color:#64B045"/>
						<stop  offset="0.2344" style="stop-color:#64B045"/>
						<stop  offset="0.2383" style="stop-color:#63AF46"/>
						<stop  offset="0.2422" style="stop-color:#63AF46"/>
						<stop  offset="0.2461" style="stop-color:#62AF46"/>
						<stop  offset="0.25" style="stop-color:#62AE46"/>
						<stop  offset="0.2539" style="stop-color:#61AE46"/>
						<stop  offset="0.2578" style="stop-color:#61AE46"/>
						<stop  offset="0.2617" style="stop-color:#60AD46"/>
						<stop  offset="0.2656" style="stop-color:#60AD46"/>
						<stop  offset="0.2695" style="stop-color:#5FAD46"/>
						<stop  offset="0.2734" style="stop-color:#5FAC46"/>
						<stop  offset="0.2773" style="stop-color:#5EAC46"/>
						<stop  offset="0.2812" style="stop-color:#5EAC46"/>
						<stop  offset="0.2852" style="stop-color:#5DAB46"/>
						<stop  offset="0.2891" style="stop-color:#5DAB46"/>
						<stop  offset="0.293" style="stop-color:#5CAB47"/>
						<stop  offset="0.2969" style="stop-color:#5CAA47"/>
						<stop  offset="0.3008" style="stop-color:#5BAA47"/>
						<stop  offset="0.3047" style="stop-color:#5BAA47"/>
						<stop  offset="0.3086" style="stop-color:#5AA947"/>
						<stop  offset="0.3125" style="stop-color:#5AA947"/>
						<stop  offset="0.3164" style="stop-color:#59A947"/>
						<stop  offset="0.3203" style="stop-color:#58A947"/>
						<stop  offset="0.3242" style="stop-color:#58A847"/>
						<stop  offset="0.3281" style="stop-color:#57A847"/>
						<stop  offset="0.332" style="stop-color:#57A847"/>
						<stop  offset="0.3359" style="stop-color:#56A747"/>
						<stop  offset="0.3398" style="stop-color:#56A747"/>
						<stop  offset="0.3438" style="stop-color:#55A748"/>
						<stop  offset="0.3477" style="stop-color:#55A648"/>
						<stop  offset="0.3516" style="stop-color:#54A648"/>
						<stop  offset="0.3555" style="stop-color:#54A648"/>
						<stop  offset="0.3594" style="stop-color:#53A548"/>
						<stop  offset="0.3633" style="stop-color:#53A548"/>
						<stop  offset="0.3672" style="stop-color:#52A548"/>
						<stop  offset="0.3711" style="stop-color:#52A448"/>
						<stop  offset="0.375" style="stop-color:#51A448"/>
						<stop  offset="0.3789" style="stop-color:#51A448"/>
						<stop  offset="0.3828" style="stop-color:#50A348"/>
						<stop  offset="0.3867" style="stop-color:#50A348"/>
						<stop  offset="0.3906" style="stop-color:#4FA348"/>
						<stop  offset="0.3945" style="stop-color:#4FA248"/>
						<stop  offset="0.3984" style="stop-color:#4EA249"/>
						<stop  offset="0.4023" style="stop-color:#4EA249"/>
						<stop  offset="0.4062" style="stop-color:#4DA149"/>
						<stop  offset="0.4102" style="stop-color:#4DA149"/>
						<stop  offset="0.4141" style="stop-color:#4CA149"/>
						<stop  offset="0.418" style="stop-color:#4CA049"/>
						<stop  offset="0.4219" style="stop-color:#4BA049"/>
						<stop  offset="0.4258" style="stop-color:#4BA049"/>
						<stop  offset="0.4297" style="stop-color:#4A9F49"/>
						<stop  offset="0.4336" style="stop-color:#4A9F49"/>
						<stop  offset="0.4375" style="stop-color:#499F49"/>
						<stop  offset="0.4414" style="stop-color:#499E49"/>
						<stop  offset="0.4453" style="stop-color:#489E49"/>
						<stop  offset="0.4492" style="stop-color:#489E4A"/>
						<stop  offset="0.4531" style="stop-color:#479D4A"/>
						<stop  offset="0.457" style="stop-color:#479D4A"/>
						<stop  offset="0.4609" style="stop-color:#469D4A"/>
						<stop  offset="0.4648" style="stop-color:#469C4A"/>
						<stop  offset="0.4688" style="stop-color:#459C4A"/>
						<stop  offset="0.4727" style="stop-color:#459C4A"/>
						<stop  offset="0.4766" style="stop-color:#449C4A"/>
						<stop  offset="0.4805" style="stop-color:#449B4A"/>
						<stop  offset="0.4844" style="stop-color:#439B4A"/>
						<stop  offset="0.4883" style="stop-color:#439B4A"/>
						<stop  offset="0.4922" style="stop-color:#429A4A"/>
						<stop  offset="0.4961" style="stop-color:#429A4A"/>
						<stop  offset="0.5" style="stop-color:#419A4A"/>
						<stop  offset="0.5039" style="stop-color:#41994B"/>
						<stop  offset="0.5078" style="stop-color:#40994B"/>
						<stop  offset="0.5117" style="stop-color:#40994B"/>
						<stop  offset="0.5156" style="stop-color:#3F984B"/>
						<stop  offset="0.5195" style="stop-color:#3F984B"/>
						<stop  offset="0.5234" style="stop-color:#3E984B"/>
						<stop  offset="0.5273" style="stop-color:#3E974B"/>
						<stop  offset="0.5312" style="stop-color:#3D974B"/>
						<stop  offset="0.5352" style="stop-color:#3D974B"/>
						<stop  offset="0.5391" style="stop-color:#3C964B"/>
						<stop  offset="0.543" style="stop-color:#3C964B"/>
						<stop  offset="0.5469" style="stop-color:#3B964B"/>
						<stop  offset="0.5508" style="stop-color:#3A954B"/>
						<stop  offset="0.5547" style="stop-color:#3A954C"/>
						<stop  offset="0.5586" style="stop-color:#39954C"/>
						<stop  offset="0.5625" style="stop-color:#39944C"/>
						<stop  offset="0.5664" style="stop-color:#38944C"/>
						<stop  offset="0.5703" style="stop-color:#38944C"/>
						<stop  offset="0.5742" style="stop-color:#37934C"/>
						<stop  offset="0.5781" style="stop-color:#37934C"/>
						<stop  offset="0.582" style="stop-color:#36934C"/>
						<stop  offset="0.5859" style="stop-color:#36924C"/>
						<stop  offset="0.5898" style="stop-color:#35924C"/>
						<stop  offset="0.5938" style="stop-color:#35924C"/>
						<stop  offset="0.5977" style="stop-color:#34914C"/>
						<stop  offset="0.6016" style="stop-color:#34914C"/>
						<stop  offset="0.6055" style="stop-color:#33914C"/>
						<stop  offset="0.6094" style="stop-color:#33904D"/>
						<stop  offset="0.6133" style="stop-color:#32904D"/>
						<stop  offset="0.6172" style="stop-color:#32904D"/>
						<stop  offset="0.6211" style="stop-color:#318F4D"/>
						<stop  offset="0.625" style="stop-color:#318F4D"/>
						<stop  offset="0.6289" style="stop-color:#308F4D"/>
						<stop  offset="0.6328" style="stop-color:#308F4D"/>
						<stop  offset="0.6367" style="stop-color:#2F8E4D"/>
						<stop  offset="0.6406" style="stop-color:#2F8E4D"/>
						<stop  offset="0.6445" style="stop-color:#2E8E4D"/>
						<stop  offset="0.6484" style="stop-color:#2E8D4D"/>
						<stop  offset="0.6523" style="stop-color:#2D8D4D"/>
						<stop  offset="0.6562" style="stop-color:#2D8D4D"/>
						<stop  offset="0.6602" style="stop-color:#2C8C4E"/>
						<stop  offset="0.6641" style="stop-color:#2C8C4E"/>
						<stop  offset="0.668" style="stop-color:#2B8C4E"/>
						<stop  offset="0.6719" style="stop-color:#2B8B4E"/>
						<stop  offset="0.6758" style="stop-color:#2A8B4E"/>
						<stop  offset="0.6797" style="stop-color:#2A8B4E"/>
						<stop  offset="0.6836" style="stop-color:#298A4E"/>
						<stop  offset="0.6875" style="stop-color:#298A4E"/>
						<stop  offset="0.6914" style="stop-color:#288A4E"/>
						<stop  offset="0.6953" style="stop-color:#28894E"/>
						<stop  offset="0.6992" style="stop-color:#27894E"/>
						<stop  offset="0.7031" style="stop-color:#27894E"/>
						<stop  offset="0.707" style="stop-color:#26884E"/>
						<stop  offset="0.7109" style="stop-color:#26884E"/>
						<stop  offset="0.7148" style="stop-color:#25884F"/>
						<stop  offset="0.7188" style="stop-color:#25874F"/>
						<stop  offset="0.7227" style="stop-color:#24874F"/>
						<stop  offset="0.7266" style="stop-color:#24874F"/>
						<stop  offset="0.7305" style="stop-color:#23864F"/>
						<stop  offset="0.7344" style="stop-color:#23864F"/>
						<stop  offset="0.7383" style="stop-color:#22864F"/>
						<stop  offset="0.7422" style="stop-color:#22854F"/>
						<stop  offset="0.7461" style="stop-color:#21854F"/>
						<stop  offset="0.75" style="stop-color:#21854F"/>
						<stop  offset="0.7539" style="stop-color:#20844F"/>
						<stop  offset="0.7578" style="stop-color:#20844F"/>
						<stop  offset="0.7617" style="stop-color:#1F844F"/>
						<stop  offset="0.7656" style="stop-color:#1F8350"/>
						<stop  offset="0.7695" style="stop-color:#1E8350"/>
						<stop  offset="0.7734" style="stop-color:#1D8350"/>
						<stop  offset="0.7773" style="stop-color:#1D8250"/>
						<stop  offset="0.7812" style="stop-color:#1C8250"/>
						<stop  offset="0.7852" style="stop-color:#1C8250"/>
						<stop  offset="0.7891" style="stop-color:#1B8250"/>
						<stop  offset="0.793" style="stop-color:#1B8150"/>
						<stop  offset="0.7969" style="stop-color:#1A8150"/>
						<stop  offset="0.8008" style="stop-color:#1A8150"/>
						<stop  offset="0.8047" style="stop-color:#198050"/>
						<stop  offset="0.8086" style="stop-color:#198050"/>
						<stop  offset="0.8125" style="stop-color:#188050"/>
						<stop  offset="0.8164" style="stop-color:#187F51"/>
						<stop  offset="0.8203" style="stop-color:#177F51"/>
						<stop  offset="0.8242" style="stop-color:#177F51"/>
						<stop  offset="0.8281" style="stop-color:#167E51"/>
						<stop  offset="0.832" style="stop-color:#167E51"/>
						<stop  offset="0.8359" style="stop-color:#157E51"/>
						<stop  offset="0.8398" style="stop-color:#157D51"/>
						<stop  offset="0.8438" style="stop-color:#147D51"/>
						<stop  offset="0.8477" style="stop-color:#147D51"/>
						<stop  offset="0.8516" style="stop-color:#137C51"/>
						<stop  offset="0.8555" style="stop-color:#137C51"/>
						<stop  offset="0.8594" style="stop-color:#127C51"/>
						<stop  offset="0.8633" style="stop-color:#127B51"/>
						<stop  offset="0.8672" style="stop-color:#117B51"/>
						<stop  offset="0.8711" style="stop-color:#117B52"/>
						<stop  offset="0.875" style="stop-color:#107A52"/>
						<stop  offset="0.8789" style="stop-color:#107A52"/>
						<stop  offset="0.8828" style="stop-color:#0F7A52"/>
						<stop  offset="0.8867" style="stop-color:#0F7952"/>
						<stop  offset="0.8906" style="stop-color:#0E7952"/>
						<stop  offset="0.8945" style="stop-color:#0E7952"/>
						<stop  offset="0.8984" style="stop-color:#0D7852"/>
						<stop  offset="0.9023" style="stop-color:#0D7852"/>
						<stop  offset="0.9062" style="stop-color:#0C7852"/>
						<stop  offset="0.9102" style="stop-color:#0C7752"/>
						<stop  offset="0.9141" style="stop-color:#0B7752"/>
						<stop  offset="0.918" style="stop-color:#0B7752"/>
						<stop  offset="0.9219" style="stop-color:#0A7653"/>
						<stop  offset="0.9258" style="stop-color:#0A7653"/>
						<stop  offset="0.9297" style="stop-color:#097653"/>
						<stop  offset="0.9336" style="stop-color:#097653"/>
						<stop  offset="0.9375" style="stop-color:#087553"/>
						<stop  offset="0.9414" style="stop-color:#087553"/>
						<stop  offset="0.9453" style="stop-color:#077553"/>
						<stop  offset="0.9492" style="stop-color:#077453"/>
						<stop  offset="0.9531" style="stop-color:#067453"/>
						<stop  offset="0.957" style="stop-color:#067453"/>
						<stop  offset="0.9609" style="stop-color:#057353"/>
						<stop  offset="0.9648" style="stop-color:#057353"/>
						<stop  offset="0.9688" style="stop-color:#047353"/>
						<stop  offset="0.9727" style="stop-color:#047253"/>
						<stop  offset="0.9766" style="stop-color:#037254"/>
						<stop  offset="0.9805" style="stop-color:#037254"/>
						<stop  offset="0.9844" style="stop-color:#027154"/>
						<stop  offset="0.9883" style="stop-color:#027154"/>
						<stop  offset="0.9922" style="stop-color:#017154"/>
						<stop  offset="0.9961" style="stop-color:#007054"/>
						<stop  offset="1" style="stop-color:#007054"/>
					</linearGradient>
					<path style="fill:url(#SVGID_00000124140108625040572160000001747293342138796215_);" d="M65.06,157.65h49.86v-33.08H65.06
						V157.65z"/>
				</g>
			</g>
		</g>
	</g>
	<path class="st3" d="M35.47,203.32c0.46-3.26,0.46-6.53,0-9.56c5.59,5.13,18.4,7.69,29.35,7.69c8.86,0,12.59-1.87,12.59-5.82
		c0-5.12-5.6-5.59-18.88-6.75C43.85,187.71,35,185.38,35,176.53s7.92-12.81,24.23-12.81c9.08,0,17.94,1.16,26.56,3.49
		c-0.46,3.03-0.46,6.06,0,9.08c-8.62-3.49-17.7-5.59-27.02-5.59s-13.05,1.87-13.05,5.59c0,4.66,4.9,5.82,17.01,6.76
		c15.38,1.16,25.39,3.26,25.39,12.58c0,8.62-8.15,12.59-24.23,12.59C54.11,208.22,44.55,206.58,35.47,203.32"/>
	<path class="st3" d="M106.53,172.57c-0.24,11.65,0,23.54,0.46,35.19H96.51c0.46-14.45,0.46-28.9,0-43.11
		c4.9,0.47,9.78,0.47,14.68,0c9.32,11.89,18.87,23.77,28.89,35.42c0.24-11.89,0-23.76-0.46-35.42c3.49,0.47,7.23,0.47,10.72,0
		c-0.47,14.45-0.47,28.9,0.23,43.11h-14.44C126.56,195.63,116.78,183.98,106.53,172.57"/>
	<path class="st3" d="M171.31,200.99c4.89,0.24,8.38,0.24,15.84,0.24c10.72,0,13.52-3.03,13.52-6.53s-2.79-5.6-13.04-5.6h-16.55
		C171.07,193.07,171.07,197.26,171.31,200.99 M187.61,183.52c7.22,0,10.95-2.09,10.95-6.29s-3.96-6.06-10.95-6.06h-16.55
		c0,3.73-0.24,7.93,0,12.35C176.19,183.28,181.79,183.52,187.61,183.52 M160.58,164.41c8.15,0,15.61-0.24,27.03-0.24
		c13.98,0,21.66,3.27,21.66,10.72c0,6.75-6.29,9.55-13.98,9.78v0.7c9.56,0.23,16.78,3.26,16.78,10.71
		c0,10.48-14.68,11.65-25.4,11.65c-12.58,0-17.94-0.23-26.09-0.23C161.28,196.8,161.28,175.13,160.58,164.41"/>
	<path class="st3" d="M254.25,214.74c-0.93,0-1.87,0.23-2.57,0.93c-0.69,0.46-0.93,1.4-0.93,2.33c0,0.93,0.24,1.86,0.93,2.33
		c0.7,0.69,1.64,0.93,2.57,0.93s1.87-0.24,2.33-0.93c0.7-0.7,1.16-1.4,0.93-2.33c0-0.93-0.46-1.64-0.93-2.33
		C256.11,214.97,255.17,214.74,254.25,214.74"/>
	<path class="st3" d="M244.93,214.74c-0.93,0-1.87,0.23-2.57,0.93c-0.69,0.46-0.93,1.4-0.93,2.33c0,0.93,0.24,1.86,0.93,2.33
		c0.7,0.69,1.64,0.93,2.57,0.93c0.93,0,1.87-0.24,2.33-0.93c0.7-0.7,0.93-1.4,0.93-2.33c0-0.93-0.23-1.64-0.93-2.33
		C246.56,214.97,245.63,214.74,244.93,214.74"/>
	<path class="st3" d="M328.8,188.64v14.22h-2.09c-6.99,0-8.63-4.9-8.63-6.76C317.85,191.9,321.58,187.48,328.8,188.64
		 M342.55,175.36c-3.96-3.03-8.85-4.42-13.74-4.2c-11.65,0-15.38,6.53-16.07,7.92l4.89,2.1c2.57-3.49,6.53-5.36,10.72-4.9
		c11.19,0,12.58,7.23,12.58,10.95v12.35c0,2.1-1.87,3.73-3.96,3.49h-2.33v-17.24c-2.57-1.16-5.36-1.87-7.92-1.87
		c-7.93,0-14.22,3.26-14.22,12.58c0,2.33,0.93,4.66,2.33,6.53h-13.74v-42.17l-6.3,2.33v34.25c0,3.03-1.16,5.36-7.22,5.36h-7.23
		c-0.93,0-2.09,0-4.2-3.27l-14.21-24.69l-2.33-3.96c-5.6,3.26-9.32,9.08-9.78,15.37c0.23,3.49,1.39,6.75,3.26,9.56l4.9,6.99h-18.41
		c-4.89,0-7.22-2.57-7.22-8.15c0.23-3.27,1.16-6.53,3.26-9.09l-3.73-2.33c-2.79,3.49-4.42,7.93-4.42,12.59
		c0,7.22,4.42,11.65,12.58,11.65h27.5l-8.38-12.12c-3.27-5.12-5.6-9.78-1.16-15.84c2.33,3.96,13.28,22.6,13.98,23.53
		c1.86,3.03,5.12,4.66,8.62,4.43h7.45c1.4,0,2.79,0,4.2-0.47c0.93-0.23,1.87-0.46,2.79-0.93v1.16h44.03
		c4.43,0.24,8.39-3.26,8.63-7.69v-12.81C347.68,182.82,345.81,178.39,342.55,175.36"/>
	<path class="st3" d="M362.12,171.17l11.89-4.42v-3.03l-5.82,2.09l-0.7-1.63c-0.24-0.7,0-1.39,0.93-1.87
		c0.24-0.23,0.7-0.23,1.16-0.23c0.46,0,0.7,0.23,0.94,0.46l0.69,0.46l0.7-2.56l-0.46-0.24c-1.4-0.93-3.26-1.16-4.9-0.46
		c-1.16,0.46-2.33,1.16-2.79,2.33s-0.46,2.33,0.24,3.49l0.7,1.63l-1.16,0.46L362.12,171.17z"/>
	<path class="st3" d="M382.16,197.96c-0.23,3.03-2.79,5.36-5.82,5.12h-3.95v-32.62l-6.3,2.33v30.29h-8.15l-2.09,4.66h21.43
		c4.66,0,10.95-3.96,10.95-10.25v-36.58l-6.29,2.33v34.71H382.16z"/>
	<path class="st3" d="M398.94,163.48v44.04H405v-46.13L398.94,163.48z"/>
</g>
</svg>
