<?xml version="1.0" encoding="UTF-8"?>
<svg xmlns="http://www.w3.org/2000/svg" xmlns:xlink="http://www.w3.org/1999/xlink" width="764.58pt" height="801.71pt" viewBox="0 0 764.58 801.71" version="1.1">
<defs>
<clipPath id="clip1">
  <path d="M 310 700 L 391 700 L 391 801.710938 L 310 801.710938 Z M 310 700 "/>
</clipPath>
<clipPath id="clip2">
  <path d="M 676 699 L 764.578125 699 L 764.578125 801.710938 L 676 801.710938 Z M 676 699 "/>
</clipPath>
</defs>
<g id="surface1">
<path style=" stroke:none;fill-rule:nonzero;fill:rgb(94.53125%,0%,12.547302%);fill-opacity:1;" d="M 473 17.695313 C 431.398438 26.894531 400.101563 64.195313 400.101563 108.796875 C 400.101563 109.796875 400.300781 110.894531 400.398438 111.894531 C 466.199219 125.996094 499.300781 170.59375 499.300781 229.59375 C 499.300781 295.796875 445.601563 349.394531 379.898438 349.394531 C 314.199219 349.394531 252.898438 294.195313 252.898438 212.296875 C 252.898438 112.296875 337.898438 18.59375 459.101563 15.59375 C 461.300781 15.59375 464.699219 15.59375 468.300781 15.796875 C 441.699219 5.59375 412.699219 -0.00390625 382.300781 -0.00390625 C 252.300781 -0.00390625 146.800781 102.796875 146.800781 229.496094 C 146.800781 356.195313 252.199219 458.996094 382.300781 458.996094 C 512.300781 458.996094 617.699219 356.195313 617.699219 229.496094 C 617.601563 134.195313 557.898438 52.394531 473 17.695313 "/>
<path style=" stroke:none;fill-rule:nonzero;fill:rgb(94.53125%,0%,12.547302%);fill-opacity:1;" d="M 127.300781 750.292969 C 126.300781 711.394531 172.300781 711.394531 171.300781 750.292969 C 172.300781 789.195313 126.300781 789.195313 127.300781 750.292969 M 117 712.996094 C 109.5 720.292969 103.601563 731.894531 103.101563 750.292969 C 103.601563 768.695313 109.5 780.292969 117 787.597656 C 134 804.292969 164.601563 804.292969 181.601563 787.597656 C 189.101563 780.292969 195 768.695313 195.5 750.292969 C 195 731.894531 189.101563 720.292969 181.601563 712.996094 C 164.601563 696.296875 134 696.296875 117 712.996094 "/>
<path style=" stroke:none;fill-rule:nonzero;fill:rgb(94.53125%,0%,12.547302%);fill-opacity:1;" d="M 491.699219 750.292969 C 490.699219 711.394531 536.699219 711.394531 535.699219 750.292969 C 536.699219 789.195313 490.699219 789.195313 491.699219 750.292969 M 481.398438 712.996094 C 473.898438 720.292969 468 731.894531 467.5 750.292969 C 468 768.695313 473.898438 780.292969 481.398438 787.597656 C 498.398438 804.292969 529 804.292969 546 787.597656 C 553.5 780.292969 559.398438 768.695313 559.898438 750.292969 C 559.398438 731.894531 553.5 720.292969 546 712.996094 C 529 696.296875 498.398438 696.296875 481.398438 712.996094 "/>
<path style=" stroke:none;fill-rule:nonzero;fill:rgb(94.53125%,0%,12.547302%);fill-opacity:1;" d="M 270.5 771.695313 L 270.5 724.695313 C 266.800781 721.894531 259.800781 718.894531 248.398438 722.195313 C 230.101563 727.496094 225.101563 771.195313 247.898438 779.796875 C 257.5 783.394531 265 778.59375 270.5 771.695313 M 270.5 666.09375 L 295.101563 666.09375 L 295.101563 800.09375 L 272.800781 800.09375 L 272.800781 792.394531 C 268 796.894531 259.199219 801.996094 244.898438 800.796875 C 219.800781 798.796875 206.601563 773.09375 208.601563 744.996094 C 210.601563 716.796875 231.398438 701.09375 248.699219 700.09375 C 257.5 699.59375 265.199219 701.796875 270.5 704.09375 "/>
<path style=" stroke:none;fill-rule:nonzero;fill:rgb(94.53125%,0%,12.547302%);fill-opacity:1;" d="M 466.398438 687.796875 L 470 667.496094 C 470 667.496094 459.898438 661.894531 441.601563 663.695313 C 423.300781 665.496094 416.398438 678.195313 416.398438 694.695313 L 416.398438 703.597656 L 403.5 703.597656 L 403.5 722.597656 L 416.398438 722.597656 L 416.398438 800.097656 L 441 800.097656 L 441 722.597656 L 461 722.597656 L 461 703.597656 L 441 703.597656 L 441 695.996094 C 441.101563 685.296875 455.5 681.496094 466.398438 687.796875 "/>
<g clip-path="url(#clip1)" clip-rule="nonzero">
<path style=" stroke:none;fill-rule:nonzero;fill:rgb(94.53125%,0%,12.547302%);fill-opacity:1;" d="M 365.300781 774.59375 C 365.300781 774.59375 354.101563 783.195313 342.5 780.695313 C 330.800781 778.195313 326.5 753.292969 365.300781 754.09375 Z M 355.699219 700.195313 C 333.398438 698.796875 317.5 711.996094 317.5 711.996094 L 326 729.09375 C 326 729.09375 332 723.394531 344.398438 720.496094 C 356.800781 717.59375 365.5 725.09375 365.5 729.695313 L 365.5 737.09375 C 320.5 737.996094 309.5 756.59375 310.800781 773.292969 C 312.101563 789.894531 323.699219 802.195313 343.199219 801.695313 C 362.601563 801.195313 367.5 790.292969 367.5 790.292969 L 367.5 799.394531 L 390.101563 799.394531 L 390.101563 737.695313 C 390.101563 712.894531 378.101563 701.597656 355.699219 700.195313 "/>
</g>
<path style=" stroke:none;fill-rule:nonzero;fill:rgb(94.53125%,0%,12.547302%);fill-opacity:1;" d="M 575.300781 702.496094 L 575.300781 800.097656 L 599.898438 800.097656 L 599.898438 729.894531 C 603 727.097656 607.898438 723.496094 614 721.996094 C 624.699219 719.496094 637.101563 721.695313 637.101563 744.796875 L 637.101563 799.996094 L 661 799.996094 L 661 734.394531 C 661 719.195313 652.898438 701.195313 629.800781 699.894531 C 613.800781 698.996094 603.199219 706.296875 598.300781 710.894531 L 598.300781 702.496094 "/>
<g clip-path="url(#clip2)" clip-rule="nonzero">
<path style=" stroke:none;fill-rule:nonzero;fill:rgb(94.53125%,0%,12.547302%);fill-opacity:1;" d="M 701.699219 757.09375 L 764 757.09375 C 764 757.09375 769.601563 723.792969 745.898438 707.292969 C 722.101563 690.796875 685.5 702.695313 678.601563 734.996094 C 671.699219 767.292969 684 795.394531 711.898438 800.394531 C 739.800781 805.394531 760.199219 792.09375 760.199219 792.09375 L 753.898438 772.496094 C 754 772.496094 705.800781 799.195313 701.699219 757.09375 M 739.800781 739.996094 L 701.199219 739.996094 C 701.199219 739.996094 703.898438 720.394531 719.699219 719.792969 C 735.601563 719.195313 739.398438 733.496094 739.800781 739.996094 "/>
</g>
<path style=" stroke:none;fill-rule:nonzero;fill:rgb(94.53125%,0%,12.547302%);fill-opacity:1;" d="M 50.898438 798.996094 L 61.300781 798.996094 L 101.5 702.496094 L 76.601563 702.496094 C 72.699219 712.296875 51.199219 765.996094 51 766.394531 C 50.800781 765.996094 28.699219 711.695313 24.898438 702.496094 L 0 702.496094 L 40.699219 798.996094 "/>
<path style=" stroke:none;fill-rule:nonzero;fill:rgb(94.53125%,0%,12.547302%);fill-opacity:1;" d="M 115.992188 538.503906 L 135.40625 538.503906 L 135.40625 520.488281 L 115.992188 520.488281 Z M 115.992188 538.503906 "/>
<path style=" stroke:none;fill-rule:nonzero;fill:rgb(94.53125%,0%,12.547302%);fill-opacity:1;" d="M 318.492188 538.402344 L 337.90625 538.402344 L 337.90625 520.386719 L 318.492188 520.386719 Z M 318.492188 538.402344 "/>
<path style=" stroke:none;fill-rule:nonzero;fill:rgb(94.53125%,0%,12.547302%);fill-opacity:1;" d="M 640.691406 538.402344 L 660.109375 538.402344 L 660.109375 520.386719 L 640.691406 520.386719 Z M 640.691406 538.402344 "/>
<path style=" stroke:none;fill-rule:nonzero;fill:rgb(94.53125%,0%,12.547302%);fill-opacity:1;" d="M 465.035156 552.894531 C 459.464844 550.9375 450 549.988281 436.101563 549.988281 L 435.992188 549.988281 L 435.992188 568.304688 L 436.101563 568.304688 C 449.90625 568.304688 459.671875 570.746094 465.945313 575.78125 C 472.148438 580.75 475.171875 588.441406 475.191406 599.285156 L 419.09375 599.285156 L 419.09375 620.203125 L 497.109375 620.203125 L 497.109375 599.195313 C 497.109375 587.621094 494.367188 577.824219 488.964844 570.070313 C 483.601563 562.378906 475.550781 556.597656 465.035156 552.894531 "/>
<path style=" stroke:none;fill-rule:nonzero;fill:rgb(94.53125%,0%,12.547302%);fill-opacity:1;" d="M 152.890625 591.195313 C 152.890625 612.027344 142.375 625.488281 126.101563 625.488281 C 109.640625 625.488281 99.007813 612.027344 99.007813 591.195313 L 99.007813 549.886719 L 77.101563 549.886719 L 77.09375 593.195313 C 77.09375 622.695313 98.574219 645.804688 126 645.804688 C 139.390625 645.804688 151.796875 640.289063 160.941406 630.28125 C 169.949219 620.421875 174.90625 607.253906 174.90625 593.195313 L 174.90625 549.886719 L 152.890625 549.886719 "/>
<path style=" stroke:none;fill-rule:nonzero;fill:rgb(94.53125%,0%,12.547302%);fill-opacity:1;" d="M 380.792969 620.203125 L 402.609375 620.203125 L 402.609375 520.386719 L 380.792969 520.386719 Z M 380.792969 620.203125 "/>
<path style=" stroke:none;fill-rule:nonzero;fill:rgb(94.53125%,0%,12.547302%);fill-opacity:1;" d="M 640.890625 597.035156 C 638.613281 593.769531 637.507813 589.734375 637.507813 584.695313 C 637.507813 580.367188 638.605469 576.234375 640.589844 573.054688 C 643.058594 569.304688 646.457031 567.402344 650.699219 567.402344 L 652.199219 567.402344 C 656.703125 567.402344 660.128906 568.910156 662.375 571.886719 C 664.644531 574.882813 665.789063 579.460938 665.789063 585.496094 C 665.789063 590.25 664.71875 594.121094 662.515625 597.332031 C 659.859375 600.867188 656.386719 602.585938 651.898438 602.585938 C 647.183594 602.585938 643.480469 600.71875 640.890625 597.035156 M 545.800781 569.503906 C 553.691406 569.503906 558.992188 575.488281 558.992188 584.394531 L 558.992188 599.1875 L 546.601563 599.1875 C 538.832031 599.1875 533.410156 592.898438 533.410156 583.894531 C 533.410156 575.152344 538.273438 569.503906 545.800781 569.503906 M 677.371094 559.117188 C 670.683594 552.925781 661.8125 549.785156 651 549.785156 C 640.4375 549.785156 631.589844 553.078125 625.410156 559.304688 C 619.246094 565.519531 615.992188 574.402344 615.992188 584.996094 C 615.992188 590.117188 616.816406 594.921875 618.445313 599.285156 L 595.289063 599.285156 L 595.289063 599.386719 L 580.910156 599.386719 L 580.910156 585.394531 C 580.910156 564.820313 566.4375 549.886719 546.5 549.886719 C 536.3125 549.886719 527.546875 553.222656 521.148438 559.53125 C 514.699219 565.886719 511.289063 574.660156 511.289063 584.894531 C 511.289063 605.355469 526.097656 620.203125 546.5 620.203125 C 553.484375 620.203125 557.789063 619.929688 559.640625 619.359375 C 557.890625 625.21875 552.898438 628.1875 544.800781 628.1875 L 542.789063 628.1875 L 542.789063 645.703125 L 545.199219 645.703125 C 555.671875 645.703125 563.945313 643.550781 569.800781 639.308594 C 575.632813 635.078125 579.230469 628.652344 580.492188 620.203125 L 652 620.203125 C 662.777344 620.203125 671.417969 616.929688 677.675781 610.472656 C 684.132813 604.015625 687.410156 595.410156 687.410156 584.894531 C 687.410156 573.941406 684.03125 565.269531 677.371094 559.117188 "/>
<path style=" stroke:none;fill-rule:nonzero;fill:rgb(94.53125%,0%,12.547302%);fill-opacity:1;" d="M 318.589844 597.035156 C 316.3125 593.769531 315.210938 589.734375 315.210938 584.695313 C 315.210938 580.367188 316.304688 576.234375 318.289063 573.054688 C 320.757813 569.304688 324.160156 567.402344 328.398438 567.402344 L 330 567.402344 C 334.503906 567.402344 337.925781 568.910156 340.175781 571.886719 C 342.441406 574.882813 343.589844 579.460938 343.589844 585.496094 C 343.589844 590.296875 342.484375 594.167969 340.214844 597.332031 C 337.5625 600.867188 334.089844 602.585938 329.601563 602.585938 C 324.882813 602.585938 321.179688 600.71875 318.589844 597.035156 M 223.601563 569.503906 C 231.492188 569.503906 236.792969 575.488281 236.792969 584.394531 L 236.792969 599.1875 L 224.398438 599.1875 C 216.632813 599.1875 211.210938 592.898438 211.210938 583.894531 C 211.210938 575.152344 216.074219 569.503906 223.601563 569.503906 M 355.171875 559.117188 C 348.484375 552.925781 339.609375 549.785156 328.800781 549.785156 C 318.234375 549.785156 309.386719 553.078125 303.210938 559.304688 C 297.046875 565.519531 293.792969 574.402344 293.792969 584.996094 C 293.792969 590.117188 294.617188 594.921875 296.246094 599.285156 L 273.191406 599.285156 L 273.191406 599.386719 L 258.808594 599.386719 L 258.808594 585.394531 C 258.808594 564.820313 244.339844 549.886719 224.398438 549.886719 C 214.214844 549.886719 205.449219 553.222656 199.046875 559.53125 C 192.601563 565.886719 189.191406 574.660156 189.191406 584.894531 C 189.191406 605.355469 204 620.203125 224.398438 620.203125 C 231.382813 620.203125 235.6875 619.929688 237.539063 619.359375 C 235.789063 625.21875 230.796875 628.1875 222.699219 628.1875 L 220.691406 628.1875 L 220.691406 645.703125 L 223.101563 645.703125 C 233.570313 645.703125 241.847656 643.550781 247.699219 639.308594 C 253.535156 635.078125 257.132813 628.652344 258.394531 620.203125 L 329.800781 620.203125 C 340.578125 620.203125 349.21875 616.929688 355.476563 610.472656 C 361.933594 604.015625 365.210938 595.410156 365.210938 584.894531 C 365.210938 573.941406 361.832031 565.269531 355.171875 559.117188 "/>
</g>
</svg>
