<?xml version="1.0" encoding="utf-8"?>
<!-- Generator: Adobe Illustrator 23.0.6, SVG Export Plug-In . SVG Version: 6.00 Build 0)  -->
<svg version="1.1" id="Layer_1" xmlns="http://www.w3.org/2000/svg" xmlns:xlink="http://www.w3.org/1999/xlink" x="0px" y="0px"
	 viewBox="99.8 287 800.4 426" style="enable-background:new 0 0 1000 1000;" xml:space="preserve">
<style type="text/css">
	.st0{fill:#2E2167;}
	.st1{fill:#8D87A9;}
</style>
<g>
	<g>
		<path class="st0" d="M295.8,414.5v-12.1h11.5l0-1.4c0.4-17.7,8.7-26.3,25.3-26.3c6.5,0,12.8,2.2,19.1,6.7
			c-0.7,2.1-1.8,5.3-3.9,9.9c-3.4-3-6.9-4.5-10.4-4.5l-0.8,0c-8.5,0.2-12.9,4.8-13.4,14.1l-0.1,1.5h15.5l11.7-1.4l10.6,13.5H295.8z"
			/>
		<path class="st0" d="M536.2,362.3c-7,0-12.5-5.4-12.5-12.2c0-6.6,5.7-12.2,12.5-12.2c6.8,0,12.3,5.5,12.3,12.3
			C548.5,357,543.1,362.3,536.2,362.3"/>
		<path class="st0" d="M606.5,523.8c-6.9,0-12.1-5.2-12.1-12.2c0-6.6,5.4-12,12.1-12c7,0,12.3,5.3,12.3,12.3
			C618.8,518.4,613.3,523.8,606.5,523.8"/>
		<path class="st0" d="M559.5,480.9c-7.9,0-14.5-1.9-19.7-5.7c-5.3,3.8-11.8,5.7-19.4,5.7H413.9c-7.8,0-14.4-1.8-20.2-5.5
			c-5.3,3.6-12,5.5-19.5,5.5h-90.5c-12,0-21.7-4.2-28.7-12.4c-7.1-8.5-10.6-19.4-10.6-32.7c0-10.5,2.6-20.1,8.1-29.3l0.4-0.7h21.6
			l-1.6,2.3c-6.1,8.7-9.2,16.7-9.2,23.8c0,18.8,7.4,27.9,22.5,27.9h83c9.2,0,13.4-4.6,13.4-14.4v-64.5l-4.1-26.8l26.7-6.2v99.3
			c0.5,8.5,4.9,12.6,13.5,12.6h96.5c9.2,0,13.3-4.5,13.3-14.4v-19.6l-4.2-27.3l27.1-6.1v52.9c0,9.8,4.2,14.4,13.3,14.4H595
			c9,0,13.2-4.6,13.2-14.4v-20l-3.6-26.9l26.4-6v57.8c0,18.6-12.3,30.6-31.3,30.6H559.5z"/>
		<path class="st0" d="M154.1,577.9c-2.4,0.2-4.7,0.3-6.9,0.3c-6.7,0.1-12.2,2.5-16.9,7.3c-4.6,4.5-7,10.4-7,17.6
			c0.1,16.5,5.9,24.9,17.1,24.9c5.7,0,10.9-0.7,16.1-2v-48.1C155.7,577.8,154.9,577.8,154.1,577.9 M187.4,652
			c-10.7,0-19.2-3.3-25.8-10c-6.8,3.5-15.2,5.3-25.6,5.5c-22.3,0-36.2-15.7-36.2-40.9c0-13.5,4.5-24.4,13.3-32.5
			c8.9-8.3,20.7-12.5,35.2-12.5h4.8l-1.1-8.7l1.3-0.3c9.4-2.4,17.4-4.2,24.2-5.5l1.8-0.3V616c0,10.1,4.2,14.8,13.2,14.8h253.1
			c9,0,13.3-4.6,13.3-14.4v-20l-3.6-26.9l26.4-6.1v57.8c0,18.6-12.3,30.6-31.2,30.6H187.4z M484.2,686.3l1.7-0.5
			c18-5.7,26.7-17.9,26.7-37.4l-0.2-50.6l-4.2-28.1l27.1-6.1v78.6c0,27.8-15,46.1-44.5,54.2l-1.1,0.3L484.2,686.3z M598.5,578.9
			c-15.1,0-24.2,12.1-24.2,32.3c0,19.3,5.6,28.6,17.2,28.6c5.3,0,10.6-1,16.1-3v-57.9H598.5z M579.2,685.8l1.8-0.5
			c15.4-4.1,24-14.5,26.2-31.8c-6.9,2-13.4,2.9-19.8,2.9c-10.5,0-19.3-4.4-26.2-13.1c-6.4-7.9-9.6-17.6-9.6-29
			c0-14.3,4-26.2,11.9-35.5c8.6-10.1,19.7-15,34.1-15h32.7v78.4c0,28.5-14.9,46.7-44.4,54.3l-1.2,0.3L579.2,685.8z"/>
		<path class="st0" d="M163.3,533.4c-6.9,0-12.1-5.3-12.1-12.3c0-6.6,5.4-12,12.1-12c7,0,12.3,5.3,12.3,12.4
			C175.7,528.1,170.1,533.4,163.3,533.4"/>
		<path class="st0" d="M128.7,533.4c-6.9,0-12.1-5.3-12.1-12.3c0-6.6,5.4-12,12.1-12c7,0,12.3,5.3,12.3,12.4
			C141,528.1,135.5,533.4,128.7,533.4"/>
		<path class="st0" d="M457,694.9c-6.9,0-12-5.2-12-12.2c0-6.6,5.4-12,12-12c7,0,12.3,5.3,12.3,12.3
			C469.3,689.6,463.8,694.9,457,694.9"/>
	</g>
	<polygon class="st0" points="900.2,444.8 821.3,287 777.8,287 878.4,488.3 	"/>
	<polygon class="st0" points="752.1,514.6 752.1,514.6 653,713 696.5,713 795.6,514.6 	"/>
	<polygon class="st1" points="796.7,377.2 753.2,377.2 821.8,514.6 753.1,652.1 796.6,652.1 865.3,514.6 	"/>
</g>
</svg>
